G04 #@! TF.GenerationSoftware,KiCad,Pcbnew,(5.1.4)-1*
G04 #@! TF.CreationDate,2019-10-13T19:11:14-02:30*
G04 #@! TF.ProjectId,GeneralMCU,47656e65-7261-46c4-9d43-552e6b696361,rev?*
G04 #@! TF.SameCoordinates,Original*
G04 #@! TF.FileFunction,Soldermask,Bot*
G04 #@! TF.FilePolarity,Negative*
%FSLAX46Y46*%
G04 Gerber Fmt 4.6, Leading zero omitted, Abs format (unit mm)*
G04 Created by KiCad (PCBNEW (5.1.4)-1) date 2019-10-13 19:11:14*
%MOMM*%
%LPD*%
G04 APERTURE LIST*
%ADD10C,0.370000*%
%ADD11C,0.100000*%
G04 APERTURE END LIST*
D10*
X50550000Y-84520000D02*
G75*
G03X50550000Y-84520000I-475657J0D01*
G01*
X50550000Y-87060000D02*
G75*
G03X50550000Y-87060000I-475657J0D01*
G01*
X80425000Y-84520000D02*
G75*
G03X80425000Y-84520000I-475657J0D01*
G01*
X80425000Y-87060000D02*
G75*
G03X80425000Y-87060000I-475657J0D01*
G01*
X80425000Y-140400000D02*
G75*
G03X80425000Y-140400000I-475657J0D01*
G01*
X50550000Y-140400000D02*
G75*
G03X50550000Y-140400000I-475657J0D01*
G01*
X80425000Y-137860000D02*
G75*
G03X80425000Y-137860000I-475657J0D01*
G01*
X50550000Y-137860000D02*
G75*
G03X50550000Y-137860000I-475657J0D01*
G01*
X80425000Y-135320000D02*
G75*
G03X80425000Y-135320000I-475657J0D01*
G01*
X50550000Y-135320000D02*
G75*
G03X50550000Y-135320000I-475657J0D01*
G01*
X80425000Y-132780000D02*
G75*
G03X80425000Y-132780000I-475657J0D01*
G01*
X50550000Y-132780000D02*
G75*
G03X50550000Y-132780000I-475657J0D01*
G01*
X80425000Y-130240000D02*
G75*
G03X80425000Y-130240000I-475657J0D01*
G01*
X50550000Y-130240000D02*
G75*
G03X50550000Y-130240000I-475657J0D01*
G01*
X80425000Y-127700000D02*
G75*
G03X80425000Y-127700000I-475657J0D01*
G01*
X50550000Y-127700000D02*
G75*
G03X50550000Y-127700000I-475657J0D01*
G01*
X80425000Y-125160000D02*
G75*
G03X80425000Y-125160000I-475657J0D01*
G01*
X50550000Y-125160000D02*
G75*
G03X50550000Y-125160000I-475657J0D01*
G01*
X80425000Y-122620000D02*
G75*
G03X80425000Y-122620000I-475657J0D01*
G01*
X50550000Y-122620000D02*
G75*
G03X50550000Y-122620000I-475657J0D01*
G01*
X80425000Y-120080000D02*
G75*
G03X80425000Y-120080000I-475657J0D01*
G01*
X50550000Y-120080000D02*
G75*
G03X50550000Y-120080000I-475657J0D01*
G01*
X80425000Y-117540000D02*
G75*
G03X80425000Y-117540000I-475657J0D01*
G01*
X50550000Y-117540000D02*
G75*
G03X50550000Y-117540000I-475657J0D01*
G01*
X80425000Y-115000000D02*
G75*
G03X80425000Y-115000000I-475657J0D01*
G01*
X50550000Y-115000000D02*
G75*
G03X50550000Y-115000000I-475657J0D01*
G01*
X80425000Y-112460000D02*
G75*
G03X80425000Y-112460000I-475657J0D01*
G01*
X50550000Y-112460000D02*
G75*
G03X50550000Y-112460000I-475657J0D01*
G01*
X80425000Y-109920000D02*
G75*
G03X80425000Y-109920000I-475657J0D01*
G01*
X50550000Y-109920000D02*
G75*
G03X50550000Y-109920000I-475657J0D01*
G01*
X80425000Y-107380000D02*
G75*
G03X80425000Y-107380000I-475657J0D01*
G01*
X50550000Y-107380000D02*
G75*
G03X50550000Y-107380000I-475657J0D01*
G01*
X80425000Y-104840000D02*
G75*
G03X80425000Y-104840000I-475657J0D01*
G01*
X50550000Y-104840000D02*
G75*
G03X50550000Y-104840000I-475657J0D01*
G01*
X80425000Y-102300000D02*
G75*
G03X80425000Y-102300000I-475657J0D01*
G01*
X50550000Y-102300000D02*
G75*
G03X50550000Y-102300000I-475657J0D01*
G01*
X80425000Y-99760000D02*
G75*
G03X80425000Y-99760000I-475657J0D01*
G01*
X50550000Y-99760000D02*
G75*
G03X50550000Y-99760000I-475657J0D01*
G01*
X80425000Y-97220000D02*
G75*
G03X80425000Y-97220000I-475657J0D01*
G01*
X50550000Y-97220000D02*
G75*
G03X50550000Y-97220000I-475657J0D01*
G01*
X80425000Y-94680000D02*
G75*
G03X80425000Y-94680000I-475657J0D01*
G01*
X50550000Y-94680000D02*
G75*
G03X50550000Y-94680000I-475657J0D01*
G01*
X80425000Y-92140000D02*
G75*
G03X80425000Y-92140000I-475657J0D01*
G01*
X50550000Y-92140000D02*
G75*
G03X50550000Y-92140000I-475657J0D01*
G01*
X80425000Y-89600000D02*
G75*
G03X80425000Y-89600000I-475657J0D01*
G01*
X50550000Y-89600000D02*
G75*
G03X50550000Y-89600000I-475657J0D01*
G01*
D11*
G36*
X69144929Y-147310162D02*
G01*
X69144931Y-147310163D01*
X69144932Y-147310163D01*
X69313342Y-147379921D01*
X69464903Y-147481191D01*
X69464905Y-147481193D01*
X69464908Y-147481195D01*
X69593805Y-147610092D01*
X69593807Y-147610095D01*
X69593809Y-147610097D01*
X69695079Y-147761658D01*
X69764837Y-147930068D01*
X69800400Y-148108857D01*
X69800400Y-148291143D01*
X69764837Y-148469932D01*
X69695079Y-148638342D01*
X69593809Y-148789903D01*
X69593807Y-148789905D01*
X69593805Y-148789908D01*
X69464908Y-148918805D01*
X69464905Y-148918807D01*
X69464903Y-148918809D01*
X69313342Y-149020079D01*
X69144932Y-149089837D01*
X69144931Y-149089837D01*
X69144929Y-149089838D01*
X68966144Y-149125400D01*
X68783856Y-149125400D01*
X68605071Y-149089838D01*
X68605069Y-149089837D01*
X68605068Y-149089837D01*
X68436658Y-149020079D01*
X68285097Y-148918809D01*
X68285095Y-148918807D01*
X68285092Y-148918805D01*
X68156195Y-148789908D01*
X68156193Y-148789905D01*
X68156191Y-148789903D01*
X68054921Y-148638342D01*
X67985163Y-148469932D01*
X67949600Y-148291143D01*
X67949600Y-148108857D01*
X67985163Y-147930068D01*
X68054921Y-147761658D01*
X68156191Y-147610097D01*
X68156193Y-147610095D01*
X68156195Y-147610092D01*
X68285092Y-147481195D01*
X68285095Y-147481193D01*
X68285097Y-147481191D01*
X68436658Y-147379921D01*
X68605068Y-147310163D01*
X68605069Y-147310163D01*
X68605071Y-147310162D01*
X68783856Y-147274600D01*
X68966144Y-147274600D01*
X69144929Y-147310162D01*
X69144929Y-147310162D01*
G37*
G36*
X61394929Y-147310162D02*
G01*
X61394931Y-147310163D01*
X61394932Y-147310163D01*
X61563342Y-147379921D01*
X61714903Y-147481191D01*
X61714905Y-147481193D01*
X61714908Y-147481195D01*
X61843805Y-147610092D01*
X61843807Y-147610095D01*
X61843809Y-147610097D01*
X61945079Y-147761658D01*
X62014837Y-147930068D01*
X62050400Y-148108857D01*
X62050400Y-148291143D01*
X62014837Y-148469932D01*
X61945079Y-148638342D01*
X61843809Y-148789903D01*
X61843807Y-148789905D01*
X61843805Y-148789908D01*
X61714908Y-148918805D01*
X61714905Y-148918807D01*
X61714903Y-148918809D01*
X61563342Y-149020079D01*
X61394932Y-149089837D01*
X61394931Y-149089837D01*
X61394929Y-149089838D01*
X61216144Y-149125400D01*
X61033856Y-149125400D01*
X60855071Y-149089838D01*
X60855069Y-149089837D01*
X60855068Y-149089837D01*
X60686658Y-149020079D01*
X60535097Y-148918809D01*
X60535095Y-148918807D01*
X60535092Y-148918805D01*
X60406195Y-148789908D01*
X60406193Y-148789905D01*
X60406191Y-148789903D01*
X60304921Y-148638342D01*
X60235163Y-148469932D01*
X60199600Y-148291143D01*
X60199600Y-148108857D01*
X60235163Y-147930068D01*
X60304921Y-147761658D01*
X60406191Y-147610097D01*
X60406193Y-147610095D01*
X60406195Y-147610092D01*
X60535092Y-147481195D01*
X60535095Y-147481193D01*
X60535097Y-147481191D01*
X60686658Y-147379921D01*
X60855068Y-147310163D01*
X60855069Y-147310163D01*
X60855071Y-147310162D01*
X61033856Y-147274600D01*
X61216144Y-147274600D01*
X61394929Y-147310162D01*
X61394929Y-147310162D01*
G37*
G36*
X62562445Y-145028687D02*
G01*
X62624088Y-145040948D01*
X62701504Y-145073015D01*
X62771172Y-145119566D01*
X62830434Y-145178828D01*
X62876985Y-145248496D01*
X62909052Y-145325912D01*
X62925400Y-145408103D01*
X62925400Y-145491897D01*
X62909052Y-145574088D01*
X62876985Y-145651504D01*
X62830434Y-145721172D01*
X62771172Y-145780434D01*
X62701504Y-145826985D01*
X62624088Y-145859052D01*
X62562445Y-145871313D01*
X62541898Y-145875400D01*
X62458102Y-145875400D01*
X62437555Y-145871313D01*
X62375912Y-145859052D01*
X62298496Y-145826985D01*
X62228828Y-145780434D01*
X62169566Y-145721172D01*
X62123015Y-145651504D01*
X62090948Y-145574088D01*
X62074600Y-145491897D01*
X62074600Y-145408103D01*
X62090948Y-145325912D01*
X62123015Y-145248496D01*
X62169566Y-145178828D01*
X62228828Y-145119566D01*
X62298496Y-145073015D01*
X62375912Y-145040948D01*
X62437555Y-145028687D01*
X62458102Y-145024600D01*
X62541898Y-145024600D01*
X62562445Y-145028687D01*
X62562445Y-145028687D01*
G37*
G36*
X67562445Y-145028687D02*
G01*
X67624088Y-145040948D01*
X67701504Y-145073015D01*
X67771172Y-145119566D01*
X67830434Y-145178828D01*
X67876985Y-145248496D01*
X67909052Y-145325912D01*
X67925400Y-145408103D01*
X67925400Y-145491897D01*
X67909052Y-145574088D01*
X67876985Y-145651504D01*
X67830434Y-145721172D01*
X67771172Y-145780434D01*
X67701504Y-145826985D01*
X67624088Y-145859052D01*
X67562445Y-145871313D01*
X67541898Y-145875400D01*
X67458102Y-145875400D01*
X67437555Y-145871313D01*
X67375912Y-145859052D01*
X67298496Y-145826985D01*
X67228828Y-145780434D01*
X67169566Y-145721172D01*
X67123015Y-145651504D01*
X67090948Y-145574088D01*
X67074600Y-145491897D01*
X67074600Y-145408103D01*
X67090948Y-145325912D01*
X67123015Y-145248496D01*
X67169566Y-145178828D01*
X67228828Y-145119566D01*
X67298496Y-145073015D01*
X67375912Y-145040948D01*
X67437555Y-145028687D01*
X67458102Y-145024600D01*
X67541898Y-145024600D01*
X67562445Y-145028687D01*
X67562445Y-145028687D01*
G37*
G36*
X61425519Y-143384451D02*
G01*
X61574101Y-143414006D01*
X61760710Y-143491302D01*
X61928650Y-143603516D01*
X62071484Y-143746350D01*
X62183698Y-143914290D01*
X62260994Y-144100899D01*
X62300400Y-144299008D01*
X62300400Y-144500992D01*
X62260994Y-144699101D01*
X62183698Y-144885710D01*
X62071484Y-145053650D01*
X61928650Y-145196484D01*
X61760710Y-145308698D01*
X61574101Y-145385994D01*
X61425519Y-145415548D01*
X61375993Y-145425400D01*
X61174007Y-145425400D01*
X61124481Y-145415548D01*
X60975899Y-145385994D01*
X60789290Y-145308698D01*
X60621350Y-145196484D01*
X60478516Y-145053650D01*
X60366302Y-144885710D01*
X60289006Y-144699101D01*
X60249600Y-144500992D01*
X60249600Y-144299008D01*
X60289006Y-144100899D01*
X60366302Y-143914290D01*
X60478516Y-143746350D01*
X60621350Y-143603516D01*
X60789290Y-143491302D01*
X60975899Y-143414006D01*
X61124481Y-143384451D01*
X61174007Y-143374600D01*
X61375993Y-143374600D01*
X61425519Y-143384451D01*
X61425519Y-143384451D01*
G37*
G36*
X68875519Y-143384451D02*
G01*
X69024101Y-143414006D01*
X69210710Y-143491302D01*
X69378650Y-143603516D01*
X69521484Y-143746350D01*
X69633698Y-143914290D01*
X69710994Y-144100899D01*
X69750400Y-144299008D01*
X69750400Y-144500992D01*
X69710994Y-144699101D01*
X69633698Y-144885710D01*
X69521484Y-145053650D01*
X69378650Y-145196484D01*
X69210710Y-145308698D01*
X69024101Y-145385994D01*
X68875519Y-145415548D01*
X68825993Y-145425400D01*
X68624007Y-145425400D01*
X68574481Y-145415548D01*
X68425899Y-145385994D01*
X68239290Y-145308698D01*
X68071350Y-145196484D01*
X67928516Y-145053650D01*
X67816302Y-144885710D01*
X67739006Y-144699101D01*
X67699600Y-144500992D01*
X67699600Y-144299008D01*
X67739006Y-144100899D01*
X67816302Y-143914290D01*
X67928516Y-143746350D01*
X68071350Y-143603516D01*
X68239290Y-143491302D01*
X68425899Y-143414006D01*
X68574481Y-143384451D01*
X68624007Y-143374600D01*
X68825993Y-143374600D01*
X68875519Y-143384451D01*
X68875519Y-143384451D01*
G37*
G36*
X80035400Y-141060400D02*
G01*
X78714600Y-141060400D01*
X78714600Y-139739600D01*
X80035400Y-139739600D01*
X80035400Y-141060400D01*
X80035400Y-141060400D01*
G37*
G36*
X51285400Y-141060400D02*
G01*
X49964600Y-141060400D01*
X49964600Y-139739600D01*
X51285400Y-139739600D01*
X51285400Y-141060400D01*
X51285400Y-141060400D01*
G37*
G36*
X80035400Y-138520400D02*
G01*
X78714600Y-138520400D01*
X78714600Y-137199600D01*
X80035400Y-137199600D01*
X80035400Y-138520400D01*
X80035400Y-138520400D01*
G37*
G36*
X51285400Y-138520400D02*
G01*
X49964600Y-138520400D01*
X49964600Y-137199600D01*
X51285400Y-137199600D01*
X51285400Y-138520400D01*
X51285400Y-138520400D01*
G37*
G36*
X80035400Y-135980400D02*
G01*
X78714600Y-135980400D01*
X78714600Y-134659600D01*
X80035400Y-134659600D01*
X80035400Y-135980400D01*
X80035400Y-135980400D01*
G37*
G36*
X51285400Y-135940400D02*
G01*
X49964600Y-135940400D01*
X49964600Y-134619600D01*
X51285400Y-134619600D01*
X51285400Y-135940400D01*
X51285400Y-135940400D01*
G37*
G36*
X80035400Y-133440400D02*
G01*
X78714600Y-133440400D01*
X78714600Y-132119600D01*
X80035400Y-132119600D01*
X80035400Y-133440400D01*
X80035400Y-133440400D01*
G37*
G36*
X51285400Y-133400400D02*
G01*
X49964600Y-133400400D01*
X49964600Y-132079600D01*
X51285400Y-132079600D01*
X51285400Y-133400400D01*
X51285400Y-133400400D01*
G37*
G36*
X80035400Y-130900400D02*
G01*
X78714600Y-130900400D01*
X78714600Y-129579600D01*
X80035400Y-129579600D01*
X80035400Y-130900400D01*
X80035400Y-130900400D01*
G37*
G36*
X51285400Y-130900400D02*
G01*
X49964600Y-130900400D01*
X49964600Y-129579600D01*
X51285400Y-129579600D01*
X51285400Y-130900400D01*
X51285400Y-130900400D01*
G37*
G36*
X51285400Y-128360400D02*
G01*
X49964600Y-128360400D01*
X49964600Y-127039600D01*
X51285400Y-127039600D01*
X51285400Y-128360400D01*
X51285400Y-128360400D01*
G37*
G36*
X80035400Y-128360400D02*
G01*
X78714600Y-128360400D01*
X78714600Y-127039600D01*
X80035400Y-127039600D01*
X80035400Y-128360400D01*
X80035400Y-128360400D01*
G37*
G36*
X80035400Y-125820400D02*
G01*
X78714600Y-125820400D01*
X78714600Y-124499600D01*
X80035400Y-124499600D01*
X80035400Y-125820400D01*
X80035400Y-125820400D01*
G37*
G36*
X51285400Y-125820400D02*
G01*
X49964600Y-125820400D01*
X49964600Y-124499600D01*
X51285400Y-124499600D01*
X51285400Y-125820400D01*
X51285400Y-125820400D01*
G37*
G36*
X51285400Y-123280400D02*
G01*
X49964600Y-123280400D01*
X49964600Y-121959600D01*
X51285400Y-121959600D01*
X51285400Y-123280400D01*
X51285400Y-123280400D01*
G37*
G36*
X80035400Y-123280400D02*
G01*
X78714600Y-123280400D01*
X78714600Y-121959600D01*
X80035400Y-121959600D01*
X80035400Y-123280400D01*
X80035400Y-123280400D01*
G37*
G36*
X80035400Y-120740400D02*
G01*
X78714600Y-120740400D01*
X78714600Y-119419600D01*
X80035400Y-119419600D01*
X80035400Y-120740400D01*
X80035400Y-120740400D01*
G37*
G36*
X51285400Y-120740400D02*
G01*
X49964600Y-120740400D01*
X49964600Y-119419600D01*
X51285400Y-119419600D01*
X51285400Y-120740400D01*
X51285400Y-120740400D01*
G37*
G36*
X76778500Y-118753010D02*
G01*
X76905348Y-118778241D01*
X77064654Y-118844228D01*
X77064655Y-118844229D01*
X77064658Y-118844230D01*
X77208035Y-118940032D01*
X77329968Y-119061965D01*
X77425770Y-119205342D01*
X77425771Y-119205345D01*
X77425772Y-119205346D01*
X77491759Y-119364652D01*
X77525400Y-119533782D01*
X77525400Y-119706218D01*
X77491759Y-119875348D01*
X77425772Y-120034654D01*
X77425770Y-120034658D01*
X77329968Y-120178035D01*
X77208035Y-120299968D01*
X77064658Y-120395770D01*
X77064655Y-120395771D01*
X77064654Y-120395772D01*
X76905348Y-120461759D01*
X76778501Y-120486990D01*
X76736219Y-120495400D01*
X76563781Y-120495400D01*
X76521499Y-120486990D01*
X76394652Y-120461759D01*
X76235346Y-120395772D01*
X76235345Y-120395771D01*
X76235342Y-120395770D01*
X76091965Y-120299968D01*
X75970032Y-120178035D01*
X75874230Y-120034658D01*
X75874228Y-120034654D01*
X75808241Y-119875348D01*
X75774600Y-119706218D01*
X75774600Y-119533782D01*
X75808241Y-119364652D01*
X75874228Y-119205346D01*
X75874229Y-119205345D01*
X75874230Y-119205342D01*
X75970032Y-119061965D01*
X76091965Y-118940032D01*
X76235342Y-118844230D01*
X76235345Y-118844229D01*
X76235346Y-118844228D01*
X76394652Y-118778241D01*
X76521500Y-118753010D01*
X76563781Y-118744600D01*
X76736219Y-118744600D01*
X76778500Y-118753010D01*
X76778500Y-118753010D01*
G37*
G36*
X51285400Y-118200400D02*
G01*
X49964600Y-118200400D01*
X49964600Y-116879600D01*
X51285400Y-116879600D01*
X51285400Y-118200400D01*
X51285400Y-118200400D01*
G37*
G36*
X80035400Y-118200400D02*
G01*
X78714600Y-118200400D01*
X78714600Y-116879600D01*
X80035400Y-116879600D01*
X80035400Y-118200400D01*
X80035400Y-118200400D01*
G37*
G36*
X76778501Y-116213010D02*
G01*
X76905348Y-116238241D01*
X77064654Y-116304228D01*
X77064655Y-116304229D01*
X77064658Y-116304230D01*
X77208035Y-116400032D01*
X77329968Y-116521965D01*
X77425770Y-116665342D01*
X77425771Y-116665345D01*
X77425772Y-116665346D01*
X77491759Y-116824652D01*
X77525400Y-116993782D01*
X77525400Y-117166218D01*
X77491759Y-117335348D01*
X77425772Y-117494654D01*
X77425770Y-117494658D01*
X77329968Y-117638035D01*
X77208035Y-117759968D01*
X77064658Y-117855770D01*
X77064655Y-117855771D01*
X77064654Y-117855772D01*
X76905348Y-117921759D01*
X76778500Y-117946990D01*
X76736219Y-117955400D01*
X76563781Y-117955400D01*
X76521500Y-117946990D01*
X76394652Y-117921759D01*
X76235346Y-117855772D01*
X76235345Y-117855771D01*
X76235342Y-117855770D01*
X76091965Y-117759968D01*
X75970032Y-117638035D01*
X75874230Y-117494658D01*
X75874228Y-117494654D01*
X75808241Y-117335348D01*
X75774600Y-117166218D01*
X75774600Y-116993782D01*
X75808241Y-116824652D01*
X75874228Y-116665346D01*
X75874229Y-116665345D01*
X75874230Y-116665342D01*
X75970032Y-116521965D01*
X76091965Y-116400032D01*
X76235342Y-116304230D01*
X76235345Y-116304229D01*
X76235346Y-116304228D01*
X76394652Y-116238241D01*
X76521499Y-116213010D01*
X76563781Y-116204600D01*
X76736219Y-116204600D01*
X76778501Y-116213010D01*
X76778501Y-116213010D01*
G37*
G36*
X51285400Y-115660400D02*
G01*
X49964600Y-115660400D01*
X49964600Y-114339600D01*
X51285400Y-114339600D01*
X51285400Y-115660400D01*
X51285400Y-115660400D01*
G37*
G36*
X80035400Y-115660400D02*
G01*
X78714600Y-115660400D01*
X78714600Y-114339600D01*
X80035400Y-114339600D01*
X80035400Y-115660400D01*
X80035400Y-115660400D01*
G37*
G36*
X76778501Y-113673010D02*
G01*
X76905348Y-113698241D01*
X77064654Y-113764228D01*
X77064655Y-113764229D01*
X77064658Y-113764230D01*
X77208035Y-113860032D01*
X77329968Y-113981965D01*
X77425770Y-114125342D01*
X77425771Y-114125345D01*
X77425772Y-114125346D01*
X77491759Y-114284652D01*
X77525400Y-114453782D01*
X77525400Y-114626218D01*
X77491759Y-114795348D01*
X77425772Y-114954654D01*
X77425770Y-114954658D01*
X77329968Y-115098035D01*
X77208035Y-115219968D01*
X77064658Y-115315770D01*
X77064655Y-115315771D01*
X77064654Y-115315772D01*
X76905348Y-115381759D01*
X76778500Y-115406990D01*
X76736219Y-115415400D01*
X76563781Y-115415400D01*
X76521500Y-115406990D01*
X76394652Y-115381759D01*
X76235346Y-115315772D01*
X76235345Y-115315771D01*
X76235342Y-115315770D01*
X76091965Y-115219968D01*
X75970032Y-115098035D01*
X75874230Y-114954658D01*
X75874228Y-114954654D01*
X75808241Y-114795348D01*
X75774600Y-114626218D01*
X75774600Y-114453782D01*
X75808241Y-114284652D01*
X75874228Y-114125346D01*
X75874229Y-114125345D01*
X75874230Y-114125342D01*
X75970032Y-113981965D01*
X76091965Y-113860032D01*
X76235342Y-113764230D01*
X76235345Y-113764229D01*
X76235346Y-113764228D01*
X76394652Y-113698241D01*
X76521499Y-113673010D01*
X76563781Y-113664600D01*
X76736219Y-113664600D01*
X76778501Y-113673010D01*
X76778501Y-113673010D01*
G37*
G36*
X80035400Y-113120400D02*
G01*
X78714600Y-113120400D01*
X78714600Y-111799600D01*
X80035400Y-111799600D01*
X80035400Y-113120400D01*
X80035400Y-113120400D01*
G37*
G36*
X51285400Y-113120400D02*
G01*
X49964600Y-113120400D01*
X49964600Y-111799600D01*
X51285400Y-111799600D01*
X51285400Y-113120400D01*
X51285400Y-113120400D01*
G37*
G36*
X76778501Y-111133010D02*
G01*
X76905348Y-111158241D01*
X77064654Y-111224228D01*
X77064655Y-111224229D01*
X77064658Y-111224230D01*
X77208035Y-111320032D01*
X77329968Y-111441965D01*
X77425770Y-111585342D01*
X77425771Y-111585345D01*
X77425772Y-111585346D01*
X77491759Y-111744652D01*
X77525400Y-111913782D01*
X77525400Y-112086218D01*
X77491759Y-112255348D01*
X77425772Y-112414654D01*
X77425770Y-112414658D01*
X77329968Y-112558035D01*
X77208035Y-112679968D01*
X77064658Y-112775770D01*
X77064655Y-112775771D01*
X77064654Y-112775772D01*
X76905348Y-112841759D01*
X76778501Y-112866990D01*
X76736219Y-112875400D01*
X76563781Y-112875400D01*
X76521499Y-112866990D01*
X76394652Y-112841759D01*
X76235346Y-112775772D01*
X76235345Y-112775771D01*
X76235342Y-112775770D01*
X76091965Y-112679968D01*
X75970032Y-112558035D01*
X75874230Y-112414658D01*
X75874228Y-112414654D01*
X75808241Y-112255348D01*
X75774600Y-112086218D01*
X75774600Y-111913782D01*
X75808241Y-111744652D01*
X75874228Y-111585346D01*
X75874229Y-111585345D01*
X75874230Y-111585342D01*
X75970032Y-111441965D01*
X76091965Y-111320032D01*
X76235342Y-111224230D01*
X76235345Y-111224229D01*
X76235346Y-111224228D01*
X76394652Y-111158241D01*
X76521499Y-111133010D01*
X76563781Y-111124600D01*
X76736219Y-111124600D01*
X76778501Y-111133010D01*
X76778501Y-111133010D01*
G37*
G36*
X51285400Y-110580400D02*
G01*
X49964600Y-110580400D01*
X49964600Y-109259600D01*
X51285400Y-109259600D01*
X51285400Y-110580400D01*
X51285400Y-110580400D01*
G37*
G36*
X80035400Y-110580400D02*
G01*
X78714600Y-110580400D01*
X78714600Y-109259600D01*
X80035400Y-109259600D01*
X80035400Y-110580400D01*
X80035400Y-110580400D01*
G37*
G36*
X80035400Y-108040400D02*
G01*
X78714600Y-108040400D01*
X78714600Y-106719600D01*
X80035400Y-106719600D01*
X80035400Y-108040400D01*
X80035400Y-108040400D01*
G37*
G36*
X51285400Y-108040400D02*
G01*
X49964600Y-108040400D01*
X49964600Y-106719600D01*
X51285400Y-106719600D01*
X51285400Y-108040400D01*
X51285400Y-108040400D01*
G37*
G36*
X80035400Y-105500400D02*
G01*
X78714600Y-105500400D01*
X78714600Y-104179600D01*
X80035400Y-104179600D01*
X80035400Y-105500400D01*
X80035400Y-105500400D01*
G37*
G36*
X51285400Y-105500400D02*
G01*
X49964600Y-105500400D01*
X49964600Y-104179600D01*
X51285400Y-104179600D01*
X51285400Y-105500400D01*
X51285400Y-105500400D01*
G37*
G36*
X51285400Y-102960400D02*
G01*
X49964600Y-102960400D01*
X49964600Y-101639600D01*
X51285400Y-101639600D01*
X51285400Y-102960400D01*
X51285400Y-102960400D01*
G37*
G36*
X80035400Y-102960400D02*
G01*
X78714600Y-102960400D01*
X78714600Y-101639600D01*
X80035400Y-101639600D01*
X80035400Y-102960400D01*
X80035400Y-102960400D01*
G37*
G36*
X51285400Y-100420400D02*
G01*
X49964600Y-100420400D01*
X49964600Y-99099600D01*
X51285400Y-99099600D01*
X51285400Y-100420400D01*
X51285400Y-100420400D01*
G37*
G36*
X80035400Y-100420400D02*
G01*
X78714600Y-100420400D01*
X78714600Y-99099600D01*
X80035400Y-99099600D01*
X80035400Y-100420400D01*
X80035400Y-100420400D01*
G37*
G36*
X80035400Y-97880400D02*
G01*
X78714600Y-97880400D01*
X78714600Y-96559600D01*
X80035400Y-96559600D01*
X80035400Y-97880400D01*
X80035400Y-97880400D01*
G37*
G36*
X51285400Y-97880400D02*
G01*
X49964600Y-97880400D01*
X49964600Y-96559600D01*
X51285400Y-96559600D01*
X51285400Y-97880400D01*
X51285400Y-97880400D01*
G37*
G36*
X80035400Y-95340400D02*
G01*
X78714600Y-95340400D01*
X78714600Y-94019600D01*
X80035400Y-94019600D01*
X80035400Y-95340400D01*
X80035400Y-95340400D01*
G37*
G36*
X51285400Y-95340400D02*
G01*
X49964600Y-95340400D01*
X49964600Y-94019600D01*
X51285400Y-94019600D01*
X51285400Y-95340400D01*
X51285400Y-95340400D01*
G37*
G36*
X51285400Y-92800400D02*
G01*
X49964600Y-92800400D01*
X49964600Y-91479600D01*
X51285400Y-91479600D01*
X51285400Y-92800400D01*
X51285400Y-92800400D01*
G37*
G36*
X80035400Y-92800400D02*
G01*
X78714600Y-92800400D01*
X78714600Y-91479600D01*
X80035400Y-91479600D01*
X80035400Y-92800400D01*
X80035400Y-92800400D01*
G37*
G36*
X80035400Y-90260400D02*
G01*
X78714600Y-90260400D01*
X78714600Y-88939600D01*
X80035400Y-88939600D01*
X80035400Y-90260400D01*
X80035400Y-90260400D01*
G37*
G36*
X51285400Y-90260400D02*
G01*
X49964600Y-90260400D01*
X49964600Y-88939600D01*
X51285400Y-88939600D01*
X51285400Y-90260400D01*
X51285400Y-90260400D01*
G37*
G36*
X51285400Y-87720400D02*
G01*
X49964600Y-87720400D01*
X49964600Y-86399600D01*
X51285400Y-86399600D01*
X51285400Y-87720400D01*
X51285400Y-87720400D01*
G37*
G36*
X80035400Y-87680400D02*
G01*
X78714600Y-87680400D01*
X78714600Y-86359600D01*
X80035400Y-86359600D01*
X80035400Y-87680400D01*
X80035400Y-87680400D01*
G37*
G36*
X51285400Y-85180400D02*
G01*
X49964600Y-85180400D01*
X49964600Y-83859600D01*
X51285400Y-83859600D01*
X51285400Y-85180400D01*
X51285400Y-85180400D01*
G37*
G36*
X80035400Y-85140400D02*
G01*
X78714600Y-85140400D01*
X78714600Y-83819600D01*
X80035400Y-83819600D01*
X80035400Y-85140400D01*
X80035400Y-85140400D01*
G37*
G36*
X74498053Y-71932280D02*
G01*
X74498055Y-71932281D01*
X74498056Y-71932281D01*
X74652817Y-71996385D01*
X74792094Y-72089447D01*
X74792096Y-72089449D01*
X74792099Y-72089451D01*
X74910549Y-72207901D01*
X74910551Y-72207904D01*
X74910553Y-72207906D01*
X75003615Y-72347183D01*
X75067719Y-72501944D01*
X75100400Y-72666244D01*
X75100400Y-72833756D01*
X75067719Y-72998056D01*
X75003615Y-73152817D01*
X74910553Y-73292094D01*
X74910551Y-73292096D01*
X74910549Y-73292099D01*
X74792099Y-73410549D01*
X74792096Y-73410551D01*
X74792094Y-73410553D01*
X74652817Y-73503615D01*
X74498056Y-73567719D01*
X74498055Y-73567719D01*
X74498053Y-73567720D01*
X74333757Y-73600400D01*
X74166243Y-73600400D01*
X74001947Y-73567720D01*
X74001945Y-73567719D01*
X74001944Y-73567719D01*
X73847183Y-73503615D01*
X73707906Y-73410553D01*
X73707904Y-73410551D01*
X73707901Y-73410549D01*
X73589451Y-73292099D01*
X73589449Y-73292096D01*
X73589447Y-73292094D01*
X73496385Y-73152817D01*
X73432281Y-72998056D01*
X73399600Y-72833756D01*
X73399600Y-72666244D01*
X73432281Y-72501944D01*
X73496385Y-72347183D01*
X73589447Y-72207906D01*
X73589449Y-72207904D01*
X73589451Y-72207901D01*
X73707901Y-72089451D01*
X73707904Y-72089449D01*
X73707906Y-72089447D01*
X73847183Y-71996385D01*
X74001944Y-71932281D01*
X74001945Y-71932281D01*
X74001947Y-71932280D01*
X74166243Y-71899600D01*
X74333757Y-71899600D01*
X74498053Y-71932280D01*
X74498053Y-71932280D01*
G37*
G36*
X71998053Y-71932280D02*
G01*
X71998055Y-71932281D01*
X71998056Y-71932281D01*
X72152817Y-71996385D01*
X72292094Y-72089447D01*
X72292096Y-72089449D01*
X72292099Y-72089451D01*
X72410549Y-72207901D01*
X72410551Y-72207904D01*
X72410553Y-72207906D01*
X72503615Y-72347183D01*
X72567719Y-72501944D01*
X72600400Y-72666244D01*
X72600400Y-72833756D01*
X72567719Y-72998056D01*
X72503615Y-73152817D01*
X72410553Y-73292094D01*
X72410551Y-73292096D01*
X72410549Y-73292099D01*
X72292099Y-73410549D01*
X72292096Y-73410551D01*
X72292094Y-73410553D01*
X72152817Y-73503615D01*
X71998056Y-73567719D01*
X71998055Y-73567719D01*
X71998053Y-73567720D01*
X71833757Y-73600400D01*
X71666243Y-73600400D01*
X71501947Y-73567720D01*
X71501945Y-73567719D01*
X71501944Y-73567719D01*
X71347183Y-73503615D01*
X71207906Y-73410553D01*
X71207904Y-73410551D01*
X71207901Y-73410549D01*
X71089451Y-73292099D01*
X71089449Y-73292096D01*
X71089447Y-73292094D01*
X70996385Y-73152817D01*
X70932281Y-72998056D01*
X70899600Y-72833756D01*
X70899600Y-72666244D01*
X70932281Y-72501944D01*
X70996385Y-72347183D01*
X71089447Y-72207906D01*
X71089449Y-72207904D01*
X71089451Y-72207901D01*
X71207901Y-72089451D01*
X71207904Y-72089449D01*
X71207906Y-72089447D01*
X71347183Y-71996385D01*
X71501944Y-71932281D01*
X71501945Y-71932281D01*
X71501947Y-71932280D01*
X71666243Y-71899600D01*
X71833757Y-71899600D01*
X71998053Y-71932280D01*
X71998053Y-71932280D01*
G37*
G36*
X69498053Y-71932280D02*
G01*
X69498055Y-71932281D01*
X69498056Y-71932281D01*
X69652817Y-71996385D01*
X69792094Y-72089447D01*
X69792096Y-72089449D01*
X69792099Y-72089451D01*
X69910549Y-72207901D01*
X69910551Y-72207904D01*
X69910553Y-72207906D01*
X70003615Y-72347183D01*
X70067719Y-72501944D01*
X70100400Y-72666244D01*
X70100400Y-72833756D01*
X70067719Y-72998056D01*
X70003615Y-73152817D01*
X69910553Y-73292094D01*
X69910551Y-73292096D01*
X69910549Y-73292099D01*
X69792099Y-73410549D01*
X69792096Y-73410551D01*
X69792094Y-73410553D01*
X69652817Y-73503615D01*
X69498056Y-73567719D01*
X69498055Y-73567719D01*
X69498053Y-73567720D01*
X69333757Y-73600400D01*
X69166243Y-73600400D01*
X69001947Y-73567720D01*
X69001945Y-73567719D01*
X69001944Y-73567719D01*
X68847183Y-73503615D01*
X68707906Y-73410553D01*
X68707904Y-73410551D01*
X68707901Y-73410549D01*
X68589451Y-73292099D01*
X68589449Y-73292096D01*
X68589447Y-73292094D01*
X68496385Y-73152817D01*
X68432281Y-72998056D01*
X68399600Y-72833756D01*
X68399600Y-72666244D01*
X68432281Y-72501944D01*
X68496385Y-72347183D01*
X68589447Y-72207906D01*
X68589449Y-72207904D01*
X68589451Y-72207901D01*
X68707901Y-72089451D01*
X68707904Y-72089449D01*
X68707906Y-72089447D01*
X68847183Y-71996385D01*
X69001944Y-71932281D01*
X69001945Y-71932281D01*
X69001947Y-71932280D01*
X69166243Y-71899600D01*
X69333757Y-71899600D01*
X69498053Y-71932280D01*
X69498053Y-71932280D01*
G37*
M02*
