M48
; DRILL file {KiCad (5.1.4)-1} date 2019-10-13 7:11:26 PM
; FORMAT={-:-/ absolute / inch / decimal}
; #@! TF.CreationDate,2019-10-13T19:11:26-02:30
; #@! TF.GenerationSoftware,Kicad,Pcbnew,(5.1.4)-1
; #@! TF.FileFunction,Plated,1,2,PTH
FMAT,2
INCH
T1C0.0118
T2C0.0157
T3C0.0236
T4C0.0394
T5C0.0453
T6C0.0472
T7C0.0551
%
G90
G05
T1
X2.0059Y-3.4724
X2.0335Y-3.378
X2.0443Y-4.2156
X2.0463Y-3.4193
X2.0463Y-4.3248
X2.0492Y-4.2923
X2.061Y-3.8642
X2.061Y-5.2894
X2.063Y-5.251
X2.064Y-4.6486
X2.0708Y-4.9772
X2.0728Y-5.0807
X2.0741Y-4.8871
X2.0748Y-5.0344
X2.0786Y-3.8986
X2.0786Y-5.324
X2.0807Y-4.6811
X2.0821Y-5.0121
X2.0856Y-5.4872
X2.0913Y-3.9283
X2.1009Y-4.0541
X2.1014Y-4.4774
X2.1073Y-4.0236
X2.1137Y-3.8977
X2.125Y-4.002
X2.125Y-4.4636
X2.1359Y-4.3033
X2.1407Y-3.8524
X2.1491Y-4.281
X2.1586Y-4.2606
X2.1624Y-5.44
X2.1634Y-4.939
X2.1645Y-4.674
X2.1663Y-4.6201
X2.1689Y-4.696
X2.1722Y-5.1722
X2.1732Y-5.3238
X2.1732Y-5.4626
X2.1821Y-4.5335
X2.1841Y-5.2589
X2.185Y-5.063
X2.2024Y-5.0486
X2.2033Y-4.6627
X2.2077Y-4.8445
X2.2126Y-5.3051
X2.2136Y-5.248
X2.2156Y-4.4429
X2.2175Y-4.4163
X2.2272Y-4.3843
X2.2275Y-4.4873
X2.2352Y-4.8337
X2.2399Y-4.3531
X2.2431Y-4.1486
X2.2461Y-4.9921
X2.251Y-4.4764
X2.252Y-4.6791
X2.2569Y-3.7953
X2.2595Y-4.4553
X2.2638Y-5.2687
X2.2697Y-4.7333
X2.2697Y-5.185
X2.2746Y-4.7057
X2.2835Y-5.3701
X2.2835Y-5.4616
X2.2844Y-5.439
X2.2884Y-4.0295
X2.2894Y-4.4439
X2.2972Y-4.4203
X2.2988Y-4.689
X2.3051Y-3.69
X2.312Y-5.6161
X2.3134Y-4.0755
X2.3238Y-4.2884
X2.3249Y-4.9674
X2.3297Y-4.8622
X2.334Y-5.2752
X2.3424Y-4.9533
X2.3455Y-5.3524
X2.3598Y-4.9391
X2.3789Y-5.2992
X2.3811Y-4.8131
X2.3847Y-4.7078
X2.3848Y-4.7352
X2.3868Y-5.374
X2.3927Y-4.0
X2.3957Y-4.6083
X2.4085Y-3.8189
X2.4114Y-4.6388
X2.4124Y-4.7585
X2.4183Y-5.3789
X2.4262Y-3.9744
X2.4504Y-4.6978
X2.4508Y-4.5433
X2.4518Y-4.7254
X2.4636Y-4.8583
X2.4705Y-4.5689
X2.4715Y-5.1043
X2.4724Y-5.1309
X2.4783Y-5.1575
X2.4921Y-4.8697
X2.4923Y-4.5768
X2.4931Y-5.326
X2.5Y-4.9311
X2.5049Y-5.4518
X2.5058Y-5.1601
X2.5085Y-4.6699
X2.5089Y-4.9027
X2.5196Y-4.8306
X2.5197Y-4.9705
X2.5198Y-4.8531
X2.526Y-4.8882
X2.5296Y-4.9469
X2.5296Y-5.1596
X2.5462Y-5.0688
X2.5469Y-4.8175
X2.5525Y-4.6276
X2.5615Y-4.7539
X2.564Y-3.6112
X2.5679Y-5.2844
X2.5709Y-5.435
X2.5709Y-5.7402
X2.5738Y-4.314
X2.5761Y-5.3069
X2.5787Y-4.8179
X2.5787Y-5.1073
X2.5795Y-4.7699
X2.5925Y-5.3278
X2.5967Y-4.7554
X2.5984Y-5.7402
X2.6063Y-4.2795
X2.6141Y-4.7164
X2.6168Y-4.6941
X2.622Y-4.2293
X2.6399Y-4.995
X2.6404Y-4.9676
X2.6427Y-5.0226
X2.6447Y-4.9429
X2.6453Y-4.9196
X2.6485Y-4.8355
X2.6486Y-5.2726
X2.6493Y-4.8951
X2.6511Y-4.8578
X2.6516Y-3.6112
X2.6643Y-4.7102
X2.6683Y-4.7323
X2.6703Y-4.6772
X2.6732Y-4.4154
X2.7047Y-4.1949
X2.7067Y-3.6634
X2.7122Y-4.8067
X2.7174Y-4.9387
X2.7216Y-4.9824
X2.7236Y-4.9145
X2.7269Y-4.8236
X2.728Y-4.8464
X2.7294Y-4.8908
X2.7319Y-4.8685
X2.7392Y-5.0157
X2.7589Y-5.2057
X2.7657Y-4.6467
X2.7805Y-4.3465
X2.7923Y-4.6703
X2.8081Y-4.1939
X2.81Y-4.6909
X2.8304Y-4.5768
X2.8386Y-4.1722
X2.8415Y-4.2736
X2.8494Y-4.9154
X2.8681Y-3.8819
X2.8691Y-3.8159
X2.8712Y-4.7491
X2.877Y-5.2018
X2.8888Y-4.8829
X2.8933Y-4.7531
X2.9006Y-4.3268
X2.9146Y-4.7408
X2.9193Y-4.3622
X2.9213Y-5.0994
X2.9213Y-4.5974
X2.9222Y-5.0453
X2.9263Y-4.6466
X2.9311Y-4.5039
X2.9321Y-4.477
X2.9341Y-4.2392
X2.9341Y-5.2598
X2.9364Y-4.7116
X2.937Y-4.4439
X2.9387Y-4.5304
X2.9478Y-5.0325
X2.9488Y-4.2579
X2.9488Y-5.1191
X2.952Y-4.5499
X2.9547Y-4.7274
X2.9656Y-3.8061
X2.9687Y-5.1022
X2.9724Y-4.7451
X2.9813Y-4.6565
X2.9823Y-5.0
X2.9878Y-4.7634
X3.003Y-5.0928
X3.0098Y-5.1754
X3.0121Y-5.2261
X3.0128Y-5.2028
X3.0128Y-5.25
X3.0305Y-4.2028
X3.0354Y-5.0374
X3.0374Y-3.9016
X3.0443Y-4.6604
X3.0472Y-4.1112
X3.0474Y-4.7584
X3.0492Y-3.7264
X3.0492Y-4.9744
X3.0502Y-3.6762
X3.0531Y-4.9262
X3.0581Y-5.06
X3.061Y-4.8494
X3.065Y-5.5276
X3.0758Y-3.4252
X3.0758Y-5.0846
X3.0807Y-3.7717
X3.0876Y-5.2785
X3.0896Y-3.4774
X3.1161Y-5.5945
X3.1181Y-5.4774
X3.124Y-3.3789
X3.124Y-5.1821
T2
X2.497Y-3.5285
X2.5541Y-5.2077
X2.6299Y-5.1329
X2.6388Y-2.9764
X2.6545Y-5.3691
X2.6751Y-4.7819
X2.7182Y-4.7778
X2.7274Y-5.3681
X2.8494Y-3.0197
T3
X1.9715Y-3.3276
X1.9715Y-3.4276
X1.9715Y-3.5276
X1.9715Y-3.6276
X1.9715Y-3.7276
X1.9715Y-3.8276
X1.9715Y-3.9276
X1.9715Y-4.0276
X1.9715Y-4.1276
X1.9715Y-4.2276
X1.9715Y-4.3276
X1.9715Y-4.4276
X1.9715Y-4.5276
X1.9715Y-4.6276
X1.9715Y-4.7276
X1.9715Y-4.8276
X1.9715Y-4.9276
X1.9715Y-5.0276
X1.9715Y-5.1276
X1.9715Y-5.2276
X1.9715Y-5.3276
X1.9715Y-5.4276
X1.9715Y-5.5276
X2.0758Y-5.7598
X2.0898Y-4.2809
X2.0974Y-3.0
X2.1092Y-5.2623
X2.1467Y-4.8041
X2.1713Y-2.8396
X2.1778Y-4.1195
X2.185Y-3.69
X2.251Y-3.9616
X2.2717Y-3.1742
X2.501Y-5.6053
X2.5285Y-3.0472
X2.6654Y-5.6063
X2.7923Y-5.6949
X2.8455Y-5.5
X2.8652Y-5.8091
X2.9921Y-5.8061
X2.9984Y-5.5006
X3.0433Y-3.2343
X3.1476Y-3.3276
X3.1476Y-3.4276
X3.1476Y-3.5276
X3.1476Y-3.6276
X3.1476Y-3.7276
X3.1476Y-3.8276
X3.1476Y-3.9276
X3.1476Y-4.0276
X3.1476Y-4.1276
X3.1476Y-4.2276
X3.1476Y-4.3276
X3.1476Y-4.4276
X3.1476Y-4.5276
X3.1476Y-4.6276
X3.1476Y-4.7276
X3.1476Y-4.8276
X3.1476Y-4.9276
X3.1476Y-5.0276
X3.1476Y-5.1276
X3.1476Y-5.2276
X3.1476Y-5.3276
X3.1476Y-5.4276
X3.1476Y-5.5276
T4
X3.0177Y-4.4094
X3.0177Y-4.5094
X3.0177Y-4.6094
X3.0177Y-4.7094
T5
X2.7264Y-2.8642
X2.8248Y-2.8642
X2.9232Y-2.8642
T6
X2.4065Y-5.8346
X2.7116Y-5.8346
T7
X2.4124Y-5.685
X2.7057Y-5.685
T0
M30
