G04 #@! TF.GenerationSoftware,KiCad,Pcbnew,(5.1.4)-1*
G04 #@! TF.CreationDate,2019-10-25T14:32:54-02:30*
G04 #@! TF.ProjectId,GeneralMCU,47656e65-7261-46c4-9d43-552e6b696361,rev?*
G04 #@! TF.SameCoordinates,Original*
G04 #@! TF.FileFunction,Soldermask,Top*
G04 #@! TF.FilePolarity,Negative*
%FSLAX46Y46*%
G04 Gerber Fmt 4.6, Leading zero omitted, Abs format (unit mm)*
G04 Created by KiCad (PCBNEW (5.1.4)-1) date 2019-10-25 14:32:54*
%MOMM*%
%LPD*%
G04 APERTURE LIST*
%ADD10C,0.100000*%
G04 APERTURE END LIST*
D10*
G36*
X76825400Y-149265400D02*
G01*
X75174600Y-149265400D01*
X75174600Y-148214600D01*
X76825400Y-148214600D01*
X76825400Y-149265400D01*
X76825400Y-149265400D01*
G37*
G36*
X73575400Y-149265400D02*
G01*
X71924600Y-149265400D01*
X71924600Y-148214600D01*
X73575400Y-148214600D01*
X73575400Y-149265400D01*
X73575400Y-149265400D01*
G37*
G36*
X61394929Y-147310162D02*
G01*
X61394931Y-147310163D01*
X61394932Y-147310163D01*
X61563342Y-147379921D01*
X61714903Y-147481191D01*
X61714905Y-147481193D01*
X61714908Y-147481195D01*
X61843805Y-147610092D01*
X61843807Y-147610095D01*
X61843809Y-147610097D01*
X61945079Y-147761658D01*
X62014837Y-147930068D01*
X62050400Y-148108857D01*
X62050400Y-148291143D01*
X62014837Y-148469932D01*
X61945079Y-148638342D01*
X61843809Y-148789903D01*
X61843807Y-148789905D01*
X61843805Y-148789908D01*
X61714908Y-148918805D01*
X61714905Y-148918807D01*
X61714903Y-148918809D01*
X61563342Y-149020079D01*
X61394932Y-149089837D01*
X61394931Y-149089837D01*
X61394929Y-149089838D01*
X61216144Y-149125400D01*
X61033856Y-149125400D01*
X60855071Y-149089838D01*
X60855069Y-149089837D01*
X60855068Y-149089837D01*
X60686658Y-149020079D01*
X60535097Y-148918809D01*
X60535095Y-148918807D01*
X60535092Y-148918805D01*
X60406195Y-148789908D01*
X60406193Y-148789905D01*
X60406191Y-148789903D01*
X60304921Y-148638342D01*
X60235163Y-148469932D01*
X60199600Y-148291143D01*
X60199600Y-148108857D01*
X60235163Y-147930068D01*
X60304921Y-147761658D01*
X60406191Y-147610097D01*
X60406193Y-147610095D01*
X60406195Y-147610092D01*
X60535092Y-147481195D01*
X60535095Y-147481193D01*
X60535097Y-147481191D01*
X60686658Y-147379921D01*
X60855068Y-147310163D01*
X60855069Y-147310163D01*
X60855071Y-147310162D01*
X61033856Y-147274600D01*
X61216144Y-147274600D01*
X61394929Y-147310162D01*
X61394929Y-147310162D01*
G37*
G36*
X69144929Y-147310162D02*
G01*
X69144931Y-147310163D01*
X69144932Y-147310163D01*
X69313342Y-147379921D01*
X69464903Y-147481191D01*
X69464905Y-147481193D01*
X69464908Y-147481195D01*
X69593805Y-147610092D01*
X69593807Y-147610095D01*
X69593809Y-147610097D01*
X69695079Y-147761658D01*
X69764837Y-147930068D01*
X69800400Y-148108857D01*
X69800400Y-148291143D01*
X69764837Y-148469932D01*
X69695079Y-148638342D01*
X69593809Y-148789903D01*
X69593807Y-148789905D01*
X69593805Y-148789908D01*
X69464908Y-148918805D01*
X69464905Y-148918807D01*
X69464903Y-148918809D01*
X69313342Y-149020079D01*
X69144932Y-149089837D01*
X69144931Y-149089837D01*
X69144929Y-149089838D01*
X68966144Y-149125400D01*
X68783856Y-149125400D01*
X68605071Y-149089838D01*
X68605069Y-149089837D01*
X68605068Y-149089837D01*
X68436658Y-149020079D01*
X68285097Y-148918809D01*
X68285095Y-148918807D01*
X68285092Y-148918805D01*
X68156195Y-148789908D01*
X68156193Y-148789905D01*
X68156191Y-148789903D01*
X68054921Y-148638342D01*
X67985163Y-148469932D01*
X67949600Y-148291143D01*
X67949600Y-148108857D01*
X67985163Y-147930068D01*
X68054921Y-147761658D01*
X68156191Y-147610097D01*
X68156193Y-147610095D01*
X68156195Y-147610092D01*
X68285092Y-147481195D01*
X68285095Y-147481193D01*
X68285097Y-147481191D01*
X68436658Y-147379921D01*
X68605068Y-147310163D01*
X68605069Y-147310163D01*
X68605071Y-147310162D01*
X68783856Y-147274600D01*
X68966144Y-147274600D01*
X69144929Y-147310162D01*
X69144929Y-147310162D01*
G37*
G36*
X59085400Y-148210400D02*
G01*
X57434600Y-148210400D01*
X57434600Y-147159600D01*
X59085400Y-147159600D01*
X59085400Y-148210400D01*
X59085400Y-148210400D01*
G37*
G36*
X53585400Y-148210400D02*
G01*
X51934600Y-148210400D01*
X51934600Y-147159600D01*
X53585400Y-147159600D01*
X53585400Y-148210400D01*
X53585400Y-148210400D01*
G37*
G36*
X56035400Y-147385400D02*
G01*
X54734600Y-147385400D01*
X54734600Y-146334600D01*
X56035400Y-146334600D01*
X56035400Y-147385400D01*
X56035400Y-147385400D01*
G37*
G36*
X76825400Y-146265400D02*
G01*
X75174600Y-146265400D01*
X75174600Y-145214600D01*
X76825400Y-145214600D01*
X76825400Y-146265400D01*
X76825400Y-146265400D01*
G37*
G36*
X73575400Y-146265400D02*
G01*
X71924600Y-146265400D01*
X71924600Y-145214600D01*
X73575400Y-145214600D01*
X73575400Y-146265400D01*
X73575400Y-146265400D01*
G37*
G36*
X67562445Y-145028687D02*
G01*
X67624088Y-145040948D01*
X67701504Y-145073015D01*
X67771172Y-145119566D01*
X67830434Y-145178828D01*
X67876985Y-145248496D01*
X67909052Y-145325912D01*
X67925400Y-145408103D01*
X67925400Y-145491897D01*
X67909052Y-145574088D01*
X67876985Y-145651504D01*
X67830434Y-145721172D01*
X67771172Y-145780434D01*
X67701504Y-145826985D01*
X67624088Y-145859052D01*
X67562445Y-145871313D01*
X67541898Y-145875400D01*
X67458102Y-145875400D01*
X67437555Y-145871313D01*
X67375912Y-145859052D01*
X67298496Y-145826985D01*
X67228828Y-145780434D01*
X67169566Y-145721172D01*
X67123015Y-145651504D01*
X67090948Y-145574088D01*
X67074600Y-145491897D01*
X67074600Y-145408103D01*
X67090948Y-145325912D01*
X67123015Y-145248496D01*
X67169566Y-145178828D01*
X67228828Y-145119566D01*
X67298496Y-145073015D01*
X67375912Y-145040948D01*
X67437555Y-145028687D01*
X67458102Y-145024600D01*
X67541898Y-145024600D01*
X67562445Y-145028687D01*
X67562445Y-145028687D01*
G37*
G36*
X62562445Y-145028687D02*
G01*
X62624088Y-145040948D01*
X62701504Y-145073015D01*
X62771172Y-145119566D01*
X62830434Y-145178828D01*
X62876985Y-145248496D01*
X62909052Y-145325912D01*
X62925400Y-145408103D01*
X62925400Y-145491897D01*
X62909052Y-145574088D01*
X62876985Y-145651504D01*
X62830434Y-145721172D01*
X62771172Y-145780434D01*
X62701504Y-145826985D01*
X62624088Y-145859052D01*
X62562445Y-145871313D01*
X62541898Y-145875400D01*
X62458102Y-145875400D01*
X62437555Y-145871313D01*
X62375912Y-145859052D01*
X62298496Y-145826985D01*
X62228828Y-145780434D01*
X62169566Y-145721172D01*
X62123015Y-145651504D01*
X62090948Y-145574088D01*
X62074600Y-145491897D01*
X62074600Y-145408103D01*
X62090948Y-145325912D01*
X62123015Y-145248496D01*
X62169566Y-145178828D01*
X62228828Y-145119566D01*
X62298496Y-145073015D01*
X62375912Y-145040948D01*
X62437555Y-145028687D01*
X62458102Y-145024600D01*
X62541898Y-145024600D01*
X62562445Y-145028687D01*
X62562445Y-145028687D01*
G37*
G36*
X61425519Y-143384451D02*
G01*
X61574101Y-143414006D01*
X61760710Y-143491302D01*
X61928650Y-143603516D01*
X62071484Y-143746350D01*
X62183698Y-143914290D01*
X62260994Y-144100899D01*
X62300400Y-144299008D01*
X62300400Y-144500992D01*
X62260994Y-144699101D01*
X62183698Y-144885710D01*
X62071484Y-145053650D01*
X61928650Y-145196484D01*
X61760710Y-145308698D01*
X61574101Y-145385994D01*
X61425519Y-145415548D01*
X61375993Y-145425400D01*
X61174007Y-145425400D01*
X61124481Y-145415548D01*
X60975899Y-145385994D01*
X60789290Y-145308698D01*
X60621350Y-145196484D01*
X60478516Y-145053650D01*
X60366302Y-144885710D01*
X60289006Y-144699101D01*
X60249600Y-144500992D01*
X60249600Y-144299008D01*
X60289006Y-144100899D01*
X60366302Y-143914290D01*
X60478516Y-143746350D01*
X60621350Y-143603516D01*
X60789290Y-143491302D01*
X60975899Y-143414006D01*
X61124481Y-143384451D01*
X61174007Y-143374600D01*
X61375993Y-143374600D01*
X61425519Y-143384451D01*
X61425519Y-143384451D01*
G37*
G36*
X68875519Y-143384451D02*
G01*
X69024101Y-143414006D01*
X69210710Y-143491302D01*
X69378650Y-143603516D01*
X69521484Y-143746350D01*
X69633698Y-143914290D01*
X69710994Y-144100899D01*
X69750400Y-144299008D01*
X69750400Y-144500992D01*
X69710994Y-144699101D01*
X69633698Y-144885710D01*
X69521484Y-145053650D01*
X69378650Y-145196484D01*
X69210710Y-145308698D01*
X69024101Y-145385994D01*
X68875519Y-145415548D01*
X68825993Y-145425400D01*
X68624007Y-145425400D01*
X68574481Y-145415548D01*
X68425899Y-145385994D01*
X68239290Y-145308698D01*
X68071350Y-145196484D01*
X67928516Y-145053650D01*
X67816302Y-144885710D01*
X67739006Y-144699101D01*
X67699600Y-144500992D01*
X67699600Y-144299008D01*
X67739006Y-144100899D01*
X67816302Y-143914290D01*
X67928516Y-143746350D01*
X68071350Y-143603516D01*
X68239290Y-143491302D01*
X68425899Y-143414006D01*
X68574481Y-143384451D01*
X68624007Y-143374600D01*
X68825993Y-143374600D01*
X68875519Y-143384451D01*
X68875519Y-143384451D01*
G37*
G36*
X59085400Y-145210400D02*
G01*
X57434600Y-145210400D01*
X57434600Y-144159600D01*
X59085400Y-144159600D01*
X59085400Y-145210400D01*
X59085400Y-145210400D01*
G37*
G36*
X53585400Y-145210400D02*
G01*
X51934600Y-145210400D01*
X51934600Y-144159600D01*
X53585400Y-144159600D01*
X53585400Y-145210400D01*
X53585400Y-145210400D01*
G37*
G36*
X56035400Y-145185400D02*
G01*
X54734600Y-145185400D01*
X54734600Y-144134600D01*
X56035400Y-144134600D01*
X56035400Y-145185400D01*
X56035400Y-145185400D01*
G37*
G36*
X65900400Y-145025400D02*
G01*
X65399600Y-145025400D01*
X65399600Y-143674600D01*
X65900400Y-143674600D01*
X65900400Y-145025400D01*
X65900400Y-145025400D01*
G37*
G36*
X63950400Y-145025400D02*
G01*
X63449600Y-145025400D01*
X63449600Y-143674600D01*
X63950400Y-143674600D01*
X63950400Y-145025400D01*
X63950400Y-145025400D01*
G37*
G36*
X64600400Y-145025400D02*
G01*
X64099600Y-145025400D01*
X64099600Y-143674600D01*
X64600400Y-143674600D01*
X64600400Y-145025400D01*
X64600400Y-145025400D01*
G37*
G36*
X65250400Y-145025400D02*
G01*
X64749600Y-145025400D01*
X64749600Y-143674600D01*
X65250400Y-143674600D01*
X65250400Y-145025400D01*
X65250400Y-145025400D01*
G37*
G36*
X66550400Y-145025400D02*
G01*
X66049600Y-145025400D01*
X66049600Y-143674600D01*
X66550400Y-143674600D01*
X66550400Y-145025400D01*
X66550400Y-145025400D01*
G37*
G36*
X74635400Y-143665400D02*
G01*
X73084600Y-143665400D01*
X73084600Y-141614600D01*
X74635400Y-141614600D01*
X74635400Y-143665400D01*
X74635400Y-143665400D01*
G37*
G36*
X72335400Y-143665400D02*
G01*
X70784600Y-143665400D01*
X70784600Y-141614600D01*
X72335400Y-141614600D01*
X72335400Y-143665400D01*
X72335400Y-143665400D01*
G37*
G36*
X76935400Y-143665400D02*
G01*
X75384600Y-143665400D01*
X75384600Y-141614600D01*
X76935400Y-141614600D01*
X76935400Y-143665400D01*
X76935400Y-143665400D01*
G37*
G36*
X56775400Y-143125400D02*
G01*
X56224600Y-143125400D01*
X56224600Y-142174600D01*
X56775400Y-142174600D01*
X56775400Y-143125400D01*
X56775400Y-143125400D01*
G37*
G36*
X58275400Y-143125400D02*
G01*
X57724600Y-143125400D01*
X57724600Y-142174600D01*
X58275400Y-142174600D01*
X58275400Y-143125400D01*
X58275400Y-143125400D01*
G37*
G36*
X54455400Y-142860400D02*
G01*
X53404600Y-142860400D01*
X53404600Y-140299600D01*
X54455400Y-140299600D01*
X54455400Y-142860400D01*
X54455400Y-142860400D01*
G37*
G36*
X66153078Y-141209925D02*
G01*
X65480761Y-141882242D01*
X64242758Y-140644239D01*
X64915075Y-139971922D01*
X66153078Y-141209925D01*
X66153078Y-141209925D01*
G37*
G36*
X51285400Y-141060400D02*
G01*
X49964600Y-141060400D01*
X49964600Y-139739600D01*
X51285400Y-139739600D01*
X51285400Y-141060400D01*
X51285400Y-141060400D01*
G37*
G36*
X80035400Y-141060400D02*
G01*
X78714600Y-141060400D01*
X78714600Y-139739600D01*
X80035400Y-139739600D01*
X80035400Y-141060400D01*
X80035400Y-141060400D01*
G37*
G36*
X56995400Y-139550400D02*
G01*
X55944600Y-139550400D01*
X55944600Y-136989600D01*
X56995400Y-136989600D01*
X56995400Y-139550400D01*
X56995400Y-139550400D01*
G37*
G36*
X68557242Y-138805761D02*
G01*
X67884925Y-139478078D01*
X66646922Y-138240075D01*
X67319239Y-137567758D01*
X68557242Y-138805761D01*
X68557242Y-138805761D01*
G37*
G36*
X62966253Y-138564318D02*
G01*
X62293936Y-139236635D01*
X61904461Y-138847160D01*
X62576778Y-138174843D01*
X62966253Y-138564318D01*
X62966253Y-138564318D01*
G37*
G36*
X51285400Y-138520400D02*
G01*
X49964600Y-138520400D01*
X49964600Y-137199600D01*
X51285400Y-137199600D01*
X51285400Y-138520400D01*
X51285400Y-138520400D01*
G37*
G36*
X80035400Y-138520400D02*
G01*
X78714600Y-138520400D01*
X78714600Y-137199600D01*
X80035400Y-137199600D01*
X80035400Y-138520400D01*
X80035400Y-138520400D01*
G37*
G36*
X61905593Y-137503658D02*
G01*
X61233276Y-138175975D01*
X60843801Y-137786500D01*
X61516118Y-137114183D01*
X61905593Y-137503658D01*
X61905593Y-137503658D01*
G37*
G36*
X64380466Y-137150105D02*
G01*
X63708149Y-137822422D01*
X63318674Y-137432947D01*
X63990991Y-136760630D01*
X64380466Y-137150105D01*
X64380466Y-137150105D01*
G37*
G36*
X75785400Y-137365400D02*
G01*
X71934600Y-137365400D01*
X71934600Y-135314600D01*
X75785400Y-135314600D01*
X75785400Y-137365400D01*
X75785400Y-137365400D01*
G37*
G36*
X63319806Y-136089445D02*
G01*
X62647489Y-136761762D01*
X62258014Y-136372287D01*
X62930331Y-135699970D01*
X63319806Y-136089445D01*
X63319806Y-136089445D01*
G37*
G36*
X65794681Y-135735891D02*
G01*
X65122364Y-136408208D01*
X64732889Y-136018733D01*
X65405206Y-135346416D01*
X65794681Y-135735891D01*
X65794681Y-135735891D01*
G37*
G36*
X59077167Y-136018733D02*
G01*
X58687692Y-136408208D01*
X58015375Y-135735891D01*
X58404850Y-135346416D01*
X59077167Y-136018733D01*
X59077167Y-136018733D01*
G37*
G36*
X80035400Y-135980400D02*
G01*
X78714600Y-135980400D01*
X78714600Y-134659600D01*
X80035400Y-134659600D01*
X80035400Y-135980400D01*
X80035400Y-135980400D01*
G37*
G36*
X51285400Y-135940400D02*
G01*
X49964600Y-135940400D01*
X49964600Y-134619600D01*
X51285400Y-134619600D01*
X51285400Y-135940400D01*
X51285400Y-135940400D01*
G37*
G36*
X64734021Y-134675231D02*
G01*
X64061704Y-135347548D01*
X63672229Y-134958073D01*
X64344546Y-134285756D01*
X64734021Y-134675231D01*
X64734021Y-134675231D01*
G37*
G36*
X60137827Y-134958073D02*
G01*
X59748352Y-135347548D01*
X59076035Y-134675231D01*
X59465510Y-134285756D01*
X60137827Y-134958073D01*
X60137827Y-134958073D01*
G37*
G36*
X67208893Y-134321678D02*
G01*
X66536576Y-134993995D01*
X66147101Y-134604520D01*
X66819418Y-133932203D01*
X67208893Y-134321678D01*
X67208893Y-134321678D01*
G37*
G36*
X64062269Y-132872110D02*
G01*
X62258581Y-134675798D01*
X60808447Y-133225664D01*
X62612135Y-131421976D01*
X64062269Y-132872110D01*
X64062269Y-132872110D01*
G37*
G36*
X57309400Y-134250966D02*
G01*
X56919925Y-134640441D01*
X56247608Y-133968124D01*
X56637083Y-133578649D01*
X57309400Y-134250966D01*
X57309400Y-134250966D01*
G37*
G36*
X73231739Y-134056296D02*
G01*
X72842264Y-134445771D01*
X72169947Y-133773454D01*
X72559422Y-133383979D01*
X73231739Y-134056296D01*
X73231739Y-134056296D01*
G37*
G36*
X66148233Y-133261018D02*
G01*
X65475916Y-133933335D01*
X65086441Y-133543860D01*
X65758758Y-132871543D01*
X66148233Y-133261018D01*
X66148233Y-133261018D01*
G37*
G36*
X58370060Y-133190306D02*
G01*
X57980585Y-133579781D01*
X57308268Y-132907464D01*
X57697743Y-132517989D01*
X58370060Y-133190306D01*
X58370060Y-133190306D01*
G37*
G36*
X80035400Y-133440400D02*
G01*
X78714600Y-133440400D01*
X78714600Y-132119600D01*
X80035400Y-132119600D01*
X80035400Y-133440400D01*
X80035400Y-133440400D01*
G37*
G36*
X51285400Y-133400400D02*
G01*
X49964600Y-133400400D01*
X49964600Y-132079600D01*
X51285400Y-132079600D01*
X51285400Y-133400400D01*
X51285400Y-133400400D01*
G37*
G36*
X74292399Y-132995636D02*
G01*
X73902924Y-133385111D01*
X73230607Y-132712794D01*
X73620082Y-132323319D01*
X74292399Y-132995636D01*
X74292399Y-132995636D01*
G37*
G36*
X55718409Y-132659975D02*
G01*
X55328934Y-133049450D01*
X54656617Y-132377133D01*
X55046092Y-131987658D01*
X55718409Y-132659975D01*
X55718409Y-132659975D01*
G37*
G36*
X71817526Y-132642083D02*
G01*
X71428051Y-133031558D01*
X70755734Y-132359241D01*
X71145209Y-131969766D01*
X71817526Y-132642083D01*
X71817526Y-132642083D01*
G37*
G36*
X66850101Y-131493035D02*
G01*
X66107073Y-132236063D01*
X65894375Y-132023365D01*
X66637403Y-131280337D01*
X66850101Y-131493035D01*
X66850101Y-131493035D01*
G37*
G36*
X69607817Y-132023365D02*
G01*
X69395119Y-132236063D01*
X68652091Y-131493035D01*
X68864789Y-131280337D01*
X69607817Y-132023365D01*
X69607817Y-132023365D01*
G37*
G36*
X56779069Y-131599315D02*
G01*
X56389594Y-131988790D01*
X55717277Y-131316473D01*
X56106752Y-130926998D01*
X56779069Y-131599315D01*
X56779069Y-131599315D01*
G37*
G36*
X72878186Y-131581423D02*
G01*
X72488711Y-131970898D01*
X71816394Y-131298581D01*
X72205869Y-130909106D01*
X72878186Y-131581423D01*
X72878186Y-131581423D01*
G37*
G36*
X66496547Y-131139482D02*
G01*
X65753519Y-131882510D01*
X65540821Y-131669812D01*
X66283849Y-130926784D01*
X66496547Y-131139482D01*
X66496547Y-131139482D01*
G37*
G36*
X69961371Y-131669812D02*
G01*
X69748673Y-131882510D01*
X69005645Y-131139482D01*
X69218343Y-130926784D01*
X69961371Y-131669812D01*
X69961371Y-131669812D01*
G37*
G36*
X61233841Y-130043682D02*
G01*
X59430153Y-131847370D01*
X57980019Y-130397236D01*
X59783707Y-128593548D01*
X61233841Y-130043682D01*
X61233841Y-130043682D01*
G37*
G36*
X66142994Y-130785928D02*
G01*
X65399966Y-131528956D01*
X65187268Y-131316258D01*
X65930296Y-130573230D01*
X66142994Y-130785928D01*
X66142994Y-130785928D01*
G37*
G36*
X70314924Y-131316258D02*
G01*
X70102226Y-131528956D01*
X69359198Y-130785928D01*
X69571896Y-130573230D01*
X70314924Y-131316258D01*
X70314924Y-131316258D01*
G37*
G36*
X54127420Y-131068986D02*
G01*
X53737945Y-131458461D01*
X53065628Y-130786144D01*
X53455103Y-130396669D01*
X54127420Y-131068986D01*
X54127420Y-131068986D01*
G37*
G36*
X70668477Y-130962705D02*
G01*
X70455779Y-131175403D01*
X69712751Y-130432375D01*
X69925449Y-130219677D01*
X70668477Y-130962705D01*
X70668477Y-130962705D01*
G37*
G36*
X65789441Y-130432375D02*
G01*
X65046413Y-131175403D01*
X64833715Y-130962705D01*
X65576743Y-130219677D01*
X65789441Y-130432375D01*
X65789441Y-130432375D01*
G37*
G36*
X76767273Y-130520763D02*
G01*
X76377798Y-130910238D01*
X75705481Y-130237921D01*
X76094956Y-129848446D01*
X76767273Y-130520763D01*
X76767273Y-130520763D01*
G37*
G36*
X51285400Y-130900400D02*
G01*
X49964600Y-130900400D01*
X49964600Y-129579600D01*
X51285400Y-129579600D01*
X51285400Y-130900400D01*
X51285400Y-130900400D01*
G37*
G36*
X80035400Y-130900400D02*
G01*
X78714600Y-130900400D01*
X78714600Y-129579600D01*
X80035400Y-129579600D01*
X80035400Y-130900400D01*
X80035400Y-130900400D01*
G37*
G36*
X71022031Y-130609152D02*
G01*
X70809333Y-130821850D01*
X70066305Y-130078822D01*
X70279003Y-129866124D01*
X71022031Y-130609152D01*
X71022031Y-130609152D01*
G37*
G36*
X65435887Y-130078822D02*
G01*
X64692859Y-130821850D01*
X64480161Y-130609152D01*
X65223189Y-129866124D01*
X65435887Y-130078822D01*
X65435887Y-130078822D01*
G37*
G36*
X71375584Y-130255598D02*
G01*
X71162886Y-130468296D01*
X70419858Y-129725268D01*
X70632556Y-129512570D01*
X71375584Y-130255598D01*
X71375584Y-130255598D01*
G37*
G36*
X65082334Y-129725268D02*
G01*
X64339306Y-130468296D01*
X64126608Y-130255598D01*
X64869636Y-129512570D01*
X65082334Y-129725268D01*
X65082334Y-129725268D01*
G37*
G36*
X55188080Y-130008326D02*
G01*
X54798605Y-130397801D01*
X54126288Y-129725484D01*
X54515763Y-129336009D01*
X55188080Y-130008326D01*
X55188080Y-130008326D01*
G37*
G36*
X57783105Y-129500609D02*
G01*
X57040077Y-130243637D01*
X55731363Y-128934923D01*
X56474391Y-128191895D01*
X57783105Y-129500609D01*
X57783105Y-129500609D01*
G37*
G36*
X64728780Y-129371715D02*
G01*
X63985752Y-130114743D01*
X63773054Y-129902045D01*
X64516082Y-129159017D01*
X64728780Y-129371715D01*
X64728780Y-129371715D01*
G37*
G36*
X71729138Y-129902045D02*
G01*
X71516440Y-130114743D01*
X70773412Y-129371715D01*
X70986110Y-129159017D01*
X71729138Y-129902045D01*
X71729138Y-129902045D01*
G37*
G36*
X77827933Y-129460103D02*
G01*
X77438458Y-129849578D01*
X76766141Y-129177261D01*
X77155616Y-128787786D01*
X77827933Y-129460103D01*
X77827933Y-129460103D01*
G37*
G36*
X64375227Y-129018161D02*
G01*
X63632199Y-129761189D01*
X63419501Y-129548491D01*
X64162529Y-128805463D01*
X64375227Y-129018161D01*
X64375227Y-129018161D01*
G37*
G36*
X72082691Y-129548491D02*
G01*
X71869993Y-129761189D01*
X71126965Y-129018161D01*
X71339663Y-128805463D01*
X72082691Y-129548491D01*
X72082691Y-129548491D01*
G37*
G36*
X75353060Y-129106549D02*
G01*
X74963585Y-129496024D01*
X74291268Y-128823707D01*
X74680743Y-128434232D01*
X75353060Y-129106549D01*
X75353060Y-129106549D01*
G37*
G36*
X72436244Y-129194938D02*
G01*
X72223546Y-129407636D01*
X71480518Y-128664608D01*
X71693216Y-128451910D01*
X72436244Y-129194938D01*
X72436244Y-129194938D01*
G37*
G36*
X64021674Y-128664608D02*
G01*
X63278646Y-129407636D01*
X63065948Y-129194938D01*
X63808976Y-128451910D01*
X64021674Y-128664608D01*
X64021674Y-128664608D01*
G37*
G36*
X72789798Y-128841385D02*
G01*
X72577100Y-129054083D01*
X71834072Y-128311055D01*
X72046770Y-128098357D01*
X72789798Y-128841385D01*
X72789798Y-128841385D01*
G37*
G36*
X63668120Y-128311055D02*
G01*
X62925092Y-129054083D01*
X62712394Y-128841385D01*
X63455422Y-128098357D01*
X63668120Y-128311055D01*
X63668120Y-128311055D01*
G37*
G36*
X73143351Y-128487831D02*
G01*
X72930653Y-128700529D01*
X72187625Y-127957501D01*
X72400323Y-127744803D01*
X73143351Y-128487831D01*
X73143351Y-128487831D01*
G37*
G36*
X63314567Y-127957501D02*
G01*
X62571539Y-128700529D01*
X62358841Y-128487831D01*
X63101869Y-127744803D01*
X63314567Y-127957501D01*
X63314567Y-127957501D01*
G37*
G36*
X59550871Y-127732843D02*
G01*
X58807843Y-128475871D01*
X57499129Y-127167157D01*
X58242157Y-126424129D01*
X59550871Y-127732843D01*
X59550871Y-127732843D01*
G37*
G36*
X76413720Y-128045889D02*
G01*
X76024245Y-128435364D01*
X75351928Y-127763047D01*
X75741403Y-127373572D01*
X76413720Y-128045889D01*
X76413720Y-128045889D01*
G37*
G36*
X80035400Y-128360400D02*
G01*
X78714600Y-128360400D01*
X78714600Y-127039600D01*
X80035400Y-127039600D01*
X80035400Y-128360400D01*
X80035400Y-128360400D01*
G37*
G36*
X51285400Y-128360400D02*
G01*
X49964600Y-128360400D01*
X49964600Y-127039600D01*
X51285400Y-127039600D01*
X51285400Y-128360400D01*
X51285400Y-128360400D01*
G37*
G36*
X73496905Y-128134278D02*
G01*
X73284207Y-128346976D01*
X72541179Y-127603948D01*
X72753877Y-127391250D01*
X73496905Y-128134278D01*
X73496905Y-128134278D01*
G37*
G36*
X62961013Y-127603948D02*
G01*
X62217985Y-128346976D01*
X62005287Y-128134278D01*
X62748315Y-127391250D01*
X62961013Y-127603948D01*
X62961013Y-127603948D01*
G37*
G36*
X55580896Y-127408579D02*
G01*
X54908579Y-128080896D01*
X54519104Y-127691421D01*
X55191421Y-127019104D01*
X55580896Y-127408579D01*
X55580896Y-127408579D01*
G37*
G36*
X62607460Y-127250394D02*
G01*
X61864432Y-127993422D01*
X61651734Y-127780724D01*
X62394762Y-127037696D01*
X62607460Y-127250394D01*
X62607460Y-127250394D01*
G37*
G36*
X73850458Y-127780724D02*
G01*
X73637760Y-127993422D01*
X72894732Y-127250394D01*
X73107430Y-127037696D01*
X73850458Y-127780724D01*
X73850458Y-127780724D01*
G37*
G36*
X62253907Y-126896841D02*
G01*
X61510879Y-127639869D01*
X61298181Y-127427171D01*
X62041209Y-126684143D01*
X62253907Y-126896841D01*
X62253907Y-126896841D01*
G37*
G36*
X74204011Y-127427171D02*
G01*
X73991313Y-127639869D01*
X73248285Y-126896841D01*
X73460983Y-126684143D01*
X74204011Y-127427171D01*
X74204011Y-127427171D01*
G37*
G36*
X61900353Y-126543288D02*
G01*
X61157325Y-127286316D01*
X60944627Y-127073618D01*
X61687655Y-126330590D01*
X61900353Y-126543288D01*
X61900353Y-126543288D01*
G37*
G36*
X74557565Y-127073618D02*
G01*
X74344867Y-127286316D01*
X73601839Y-126543288D01*
X73814537Y-126330590D01*
X74557565Y-127073618D01*
X74557565Y-127073618D01*
G37*
G36*
X54520236Y-126347919D02*
G01*
X53847919Y-127020236D01*
X53458444Y-126630761D01*
X54130761Y-125958444D01*
X54520236Y-126347919D01*
X54520236Y-126347919D01*
G37*
G36*
X61546800Y-126189734D02*
G01*
X60803772Y-126932762D01*
X60591074Y-126720064D01*
X61334102Y-125977036D01*
X61546800Y-126189734D01*
X61546800Y-126189734D01*
G37*
G36*
X74911118Y-126720064D02*
G01*
X74698420Y-126932762D01*
X73955392Y-126189734D01*
X74168090Y-125977036D01*
X74911118Y-126720064D01*
X74911118Y-126720064D01*
G37*
G36*
X57355896Y-125583579D02*
G01*
X56683579Y-126255896D01*
X56294104Y-125866421D01*
X56966421Y-125194104D01*
X57355896Y-125583579D01*
X57355896Y-125583579D01*
G37*
G36*
X80035400Y-125820400D02*
G01*
X78714600Y-125820400D01*
X78714600Y-124499600D01*
X80035400Y-124499600D01*
X80035400Y-125820400D01*
X80035400Y-125820400D01*
G37*
G36*
X51285400Y-125820400D02*
G01*
X49964600Y-125820400D01*
X49964600Y-124499600D01*
X51285400Y-124499600D01*
X51285400Y-125820400D01*
X51285400Y-125820400D01*
G37*
G36*
X56295236Y-124522919D02*
G01*
X55622919Y-125195236D01*
X55233444Y-124805761D01*
X55905761Y-124133444D01*
X56295236Y-124522919D01*
X56295236Y-124522919D01*
G37*
G36*
X54225996Y-123612007D02*
G01*
X53553679Y-124284324D01*
X52315676Y-123046321D01*
X52987993Y-122374004D01*
X54225996Y-123612007D01*
X54225996Y-123612007D01*
G37*
G36*
X74911118Y-123432018D02*
G01*
X74168090Y-124175046D01*
X73955392Y-123962348D01*
X74698420Y-123219320D01*
X74911118Y-123432018D01*
X74911118Y-123432018D01*
G37*
G36*
X61546800Y-123962348D02*
G01*
X61334102Y-124175046D01*
X60591074Y-123432018D01*
X60803772Y-123219320D01*
X61546800Y-123962348D01*
X61546800Y-123962348D01*
G37*
G36*
X61900353Y-123608794D02*
G01*
X61687655Y-123821492D01*
X60944627Y-123078464D01*
X61157325Y-122865766D01*
X61900353Y-123608794D01*
X61900353Y-123608794D01*
G37*
G36*
X74557565Y-123078464D02*
G01*
X73814537Y-123821492D01*
X73601839Y-123608794D01*
X74344867Y-122865766D01*
X74557565Y-123078464D01*
X74557565Y-123078464D01*
G37*
G36*
X74204011Y-122724911D02*
G01*
X73460983Y-123467939D01*
X73248285Y-123255241D01*
X73991313Y-122512213D01*
X74204011Y-122724911D01*
X74204011Y-122724911D01*
G37*
G36*
X62253907Y-123255241D02*
G01*
X62041209Y-123467939D01*
X61298181Y-122724911D01*
X61510879Y-122512213D01*
X62253907Y-123255241D01*
X62253907Y-123255241D01*
G37*
G36*
X80035400Y-123280400D02*
G01*
X78714600Y-123280400D01*
X78714600Y-121959600D01*
X80035400Y-121959600D01*
X80035400Y-123280400D01*
X80035400Y-123280400D01*
G37*
G36*
X51285400Y-123280400D02*
G01*
X49964600Y-123280400D01*
X49964600Y-121959600D01*
X51285400Y-121959600D01*
X51285400Y-123280400D01*
X51285400Y-123280400D01*
G37*
G36*
X73850458Y-122371358D02*
G01*
X73107430Y-123114386D01*
X72894732Y-122901688D01*
X73637760Y-122158660D01*
X73850458Y-122371358D01*
X73850458Y-122371358D01*
G37*
G36*
X62607460Y-122901688D02*
G01*
X62394762Y-123114386D01*
X61651734Y-122371358D01*
X61864432Y-122158660D01*
X62607460Y-122901688D01*
X62607460Y-122901688D01*
G37*
G36*
X60150264Y-122389035D02*
G01*
X59760789Y-122778510D01*
X59088472Y-122106193D01*
X59477947Y-121716718D01*
X60150264Y-122389035D01*
X60150264Y-122389035D01*
G37*
G36*
X73496905Y-122017804D02*
G01*
X72753877Y-122760832D01*
X72541179Y-122548134D01*
X73284207Y-121805106D01*
X73496905Y-122017804D01*
X73496905Y-122017804D01*
G37*
G36*
X62961013Y-122548134D02*
G01*
X62748315Y-122760832D01*
X62005287Y-122017804D01*
X62217985Y-121805106D01*
X62961013Y-122548134D01*
X62961013Y-122548134D01*
G37*
G36*
X63314567Y-122194581D02*
G01*
X63101869Y-122407279D01*
X62358841Y-121664251D01*
X62571539Y-121451553D01*
X63314567Y-122194581D01*
X63314567Y-122194581D01*
G37*
G36*
X73143351Y-121664251D02*
G01*
X72400323Y-122407279D01*
X72187625Y-122194581D01*
X72930653Y-121451553D01*
X73143351Y-121664251D01*
X73143351Y-121664251D01*
G37*
G36*
X63668120Y-121841027D02*
G01*
X63455422Y-122053725D01*
X62712394Y-121310697D01*
X62925092Y-121097999D01*
X63668120Y-121841027D01*
X63668120Y-121841027D01*
G37*
G36*
X72789798Y-121310697D02*
G01*
X72046770Y-122053725D01*
X71834072Y-121841027D01*
X72577100Y-121097999D01*
X72789798Y-121310697D01*
X72789798Y-121310697D01*
G37*
G36*
X56630160Y-121207843D02*
G01*
X55957843Y-121880160D01*
X54719840Y-120642157D01*
X55392157Y-119969840D01*
X56630160Y-121207843D01*
X56630160Y-121207843D01*
G37*
G36*
X61210924Y-121328375D02*
G01*
X60821449Y-121717850D01*
X60149132Y-121045533D01*
X60538607Y-120656058D01*
X61210924Y-121328375D01*
X61210924Y-121328375D01*
G37*
G36*
X64021674Y-121487474D02*
G01*
X63808976Y-121700172D01*
X63065948Y-120957144D01*
X63278646Y-120744446D01*
X64021674Y-121487474D01*
X64021674Y-121487474D01*
G37*
G36*
X72436244Y-120957144D02*
G01*
X71693216Y-121700172D01*
X71480518Y-121487474D01*
X72223546Y-120744446D01*
X72436244Y-120957144D01*
X72436244Y-120957144D01*
G37*
G36*
X58736051Y-120974821D02*
G01*
X58346576Y-121364296D01*
X57674259Y-120691979D01*
X58063734Y-120302504D01*
X58736051Y-120974821D01*
X58736051Y-120974821D01*
G37*
G36*
X72082691Y-120603591D02*
G01*
X71339663Y-121346619D01*
X71126965Y-121133921D01*
X71869993Y-120390893D01*
X72082691Y-120603591D01*
X72082691Y-120603591D01*
G37*
G36*
X64375227Y-121133921D02*
G01*
X64162529Y-121346619D01*
X63419501Y-120603591D01*
X63632199Y-120390893D01*
X64375227Y-121133921D01*
X64375227Y-121133921D01*
G37*
G36*
X64728780Y-120780367D02*
G01*
X64516082Y-120993065D01*
X63773054Y-120250037D01*
X63985752Y-120037339D01*
X64728780Y-120780367D01*
X64728780Y-120780367D01*
G37*
G36*
X71729138Y-120250037D02*
G01*
X70986110Y-120993065D01*
X70773412Y-120780367D01*
X71516440Y-120037339D01*
X71729138Y-120250037D01*
X71729138Y-120250037D01*
G37*
G36*
X80035400Y-120740400D02*
G01*
X78714600Y-120740400D01*
X78714600Y-119419600D01*
X80035400Y-119419600D01*
X80035400Y-120740400D01*
X80035400Y-120740400D01*
G37*
G36*
X51285400Y-120740400D02*
G01*
X49964600Y-120740400D01*
X49964600Y-119419600D01*
X51285400Y-119419600D01*
X51285400Y-120740400D01*
X51285400Y-120740400D01*
G37*
G36*
X71375584Y-119896484D02*
G01*
X70632556Y-120639512D01*
X70419858Y-120426814D01*
X71162886Y-119683786D01*
X71375584Y-119896484D01*
X71375584Y-119896484D01*
G37*
G36*
X65082334Y-120426814D02*
G01*
X64869636Y-120639512D01*
X64126608Y-119896484D01*
X64339306Y-119683786D01*
X65082334Y-120426814D01*
X65082334Y-120426814D01*
G37*
G36*
X74091556Y-119669239D02*
G01*
X73419239Y-120341556D01*
X73029764Y-119952081D01*
X73702081Y-119279764D01*
X74091556Y-119669239D01*
X74091556Y-119669239D01*
G37*
G36*
X59796711Y-119914161D02*
G01*
X59407236Y-120303636D01*
X58734919Y-119631319D01*
X59124394Y-119241844D01*
X59796711Y-119914161D01*
X59796711Y-119914161D01*
G37*
G36*
X65435887Y-120073260D02*
G01*
X65223189Y-120285958D01*
X64480161Y-119542930D01*
X64692859Y-119330232D01*
X65435887Y-120073260D01*
X65435887Y-120073260D01*
G37*
G36*
X71022031Y-119542930D02*
G01*
X70279003Y-120285958D01*
X70066305Y-120073260D01*
X70809333Y-119330232D01*
X71022031Y-119542930D01*
X71022031Y-119542930D01*
G37*
G36*
X57321837Y-119560608D02*
G01*
X56932362Y-119950083D01*
X56260045Y-119277766D01*
X56649520Y-118888291D01*
X57321837Y-119560608D01*
X57321837Y-119560608D01*
G37*
G36*
X70668477Y-119189377D02*
G01*
X69925449Y-119932405D01*
X69712751Y-119719707D01*
X70455779Y-118976679D01*
X70668477Y-119189377D01*
X70668477Y-119189377D01*
G37*
G36*
X65789441Y-119719707D02*
G01*
X65576743Y-119932405D01*
X64833715Y-119189377D01*
X65046413Y-118976679D01*
X65789441Y-119719707D01*
X65789441Y-119719707D01*
G37*
G36*
X70314924Y-118835824D02*
G01*
X69571896Y-119578852D01*
X69359198Y-119366154D01*
X70102226Y-118623126D01*
X70314924Y-118835824D01*
X70314924Y-118835824D01*
G37*
G36*
X66142994Y-119366154D02*
G01*
X65930296Y-119578852D01*
X65187268Y-118835824D01*
X65399966Y-118623126D01*
X66142994Y-119366154D01*
X66142994Y-119366154D01*
G37*
G36*
X73030896Y-118608579D02*
G01*
X72358579Y-119280896D01*
X71969104Y-118891421D01*
X72641421Y-118219104D01*
X73030896Y-118608579D01*
X73030896Y-118608579D01*
G37*
G36*
X69961371Y-118482270D02*
G01*
X69218343Y-119225298D01*
X69005645Y-119012600D01*
X69748673Y-118269572D01*
X69961371Y-118482270D01*
X69961371Y-118482270D01*
G37*
G36*
X66496547Y-119012600D02*
G01*
X66283849Y-119225298D01*
X65540821Y-118482270D01*
X65753519Y-118269572D01*
X66496547Y-119012600D01*
X66496547Y-119012600D01*
G37*
G36*
X75341556Y-118419239D02*
G01*
X74669239Y-119091556D01*
X74279764Y-118702081D01*
X74952081Y-118029764D01*
X75341556Y-118419239D01*
X75341556Y-118419239D01*
G37*
G36*
X58382497Y-118499948D02*
G01*
X57993022Y-118889423D01*
X57320705Y-118217106D01*
X57710180Y-117827631D01*
X58382497Y-118499948D01*
X58382497Y-118499948D01*
G37*
G36*
X69607817Y-118128717D02*
G01*
X68864789Y-118871745D01*
X68652091Y-118659047D01*
X69395119Y-117916019D01*
X69607817Y-118128717D01*
X69607817Y-118128717D01*
G37*
G36*
X66850101Y-118659047D02*
G01*
X66637403Y-118871745D01*
X65894375Y-118128717D01*
X66107073Y-117916019D01*
X66850101Y-118659047D01*
X66850101Y-118659047D01*
G37*
G36*
X61280896Y-118391421D02*
G01*
X60891421Y-118780896D01*
X60219104Y-118108579D01*
X60608579Y-117719104D01*
X61280896Y-118391421D01*
X61280896Y-118391421D01*
G37*
G36*
X72030896Y-117608579D02*
G01*
X71358579Y-118280896D01*
X70969104Y-117891421D01*
X71641421Y-117219104D01*
X72030896Y-117608579D01*
X72030896Y-117608579D01*
G37*
G36*
X80035400Y-118200400D02*
G01*
X78714600Y-118200400D01*
X78714600Y-116879600D01*
X80035400Y-116879600D01*
X80035400Y-118200400D01*
X80035400Y-118200400D01*
G37*
G36*
X51285400Y-118200400D02*
G01*
X49964600Y-118200400D01*
X49964600Y-116879600D01*
X51285400Y-116879600D01*
X51285400Y-118200400D01*
X51285400Y-118200400D01*
G37*
G36*
X74280896Y-117358579D02*
G01*
X73608579Y-118030896D01*
X73219104Y-117641421D01*
X73891421Y-116969104D01*
X74280896Y-117358579D01*
X74280896Y-117358579D01*
G37*
G36*
X62341556Y-117330761D02*
G01*
X61952081Y-117720236D01*
X61279764Y-117047919D01*
X61669239Y-116658444D01*
X62341556Y-117330761D01*
X62341556Y-117330761D01*
G37*
G36*
X59780896Y-116891421D02*
G01*
X59391421Y-117280896D01*
X58719104Y-116608579D01*
X59108579Y-116219104D01*
X59780896Y-116891421D01*
X59780896Y-116891421D01*
G37*
G36*
X70970236Y-116547919D02*
G01*
X70297919Y-117220236D01*
X69908444Y-116830761D01*
X70580761Y-116158444D01*
X70970236Y-116547919D01*
X70970236Y-116547919D01*
G37*
G36*
X73280896Y-116358579D02*
G01*
X72608579Y-117030896D01*
X72219104Y-116641421D01*
X72891421Y-115969104D01*
X73280896Y-116358579D01*
X73280896Y-116358579D01*
G37*
G36*
X57917921Y-116020332D02*
G01*
X57174893Y-116763360D01*
X56007601Y-115596068D01*
X56750629Y-114853040D01*
X57917921Y-116020332D01*
X57917921Y-116020332D01*
G37*
G36*
X60841556Y-115830761D02*
G01*
X60452081Y-116220236D01*
X59779764Y-115547919D01*
X60169239Y-115158444D01*
X60841556Y-115830761D01*
X60841556Y-115830761D01*
G37*
G36*
X72220236Y-115297919D02*
G01*
X71547919Y-115970236D01*
X71158444Y-115580761D01*
X71830761Y-114908444D01*
X72220236Y-115297919D01*
X72220236Y-115297919D01*
G37*
G36*
X69728886Y-115261808D02*
G01*
X69169706Y-115820988D01*
X67436728Y-114088010D01*
X67995908Y-113528830D01*
X69728886Y-115261808D01*
X69728886Y-115261808D01*
G37*
G36*
X51285400Y-115660400D02*
G01*
X49964600Y-115660400D01*
X49964600Y-114339600D01*
X51285400Y-114339600D01*
X51285400Y-115660400D01*
X51285400Y-115660400D01*
G37*
G36*
X80035400Y-115660400D02*
G01*
X78714600Y-115660400D01*
X78714600Y-114339600D01*
X80035400Y-114339600D01*
X80035400Y-115660400D01*
X80035400Y-115660400D01*
G37*
G36*
X59049292Y-114888961D02*
G01*
X58306264Y-115631989D01*
X57138972Y-114464697D01*
X57882000Y-113721669D01*
X59049292Y-114888961D01*
X59049292Y-114888961D01*
G37*
G36*
X70626912Y-114363783D02*
G01*
X70067732Y-114922963D01*
X68334754Y-113189985D01*
X68893934Y-112630805D01*
X70626912Y-114363783D01*
X70626912Y-114363783D01*
G37*
G36*
X60180663Y-113757590D02*
G01*
X59437635Y-114500618D01*
X58270343Y-113333326D01*
X59013371Y-112590298D01*
X60180663Y-113757590D01*
X60180663Y-113757590D01*
G37*
G36*
X71524937Y-113465757D02*
G01*
X70965757Y-114024937D01*
X69232779Y-112291959D01*
X69791959Y-111732779D01*
X71524937Y-113465757D01*
X71524937Y-113465757D01*
G37*
G36*
X54382387Y-112484798D02*
G01*
X53639359Y-113227826D01*
X52472067Y-112060534D01*
X53215095Y-111317506D01*
X54382387Y-112484798D01*
X54382387Y-112484798D01*
G37*
G36*
X72422963Y-112567732D02*
G01*
X71863783Y-113126912D01*
X70130805Y-111393934D01*
X70689985Y-110834754D01*
X72422963Y-112567732D01*
X72422963Y-112567732D01*
G37*
G36*
X80035400Y-113120400D02*
G01*
X78714600Y-113120400D01*
X78714600Y-111799600D01*
X80035400Y-111799600D01*
X80035400Y-113120400D01*
X80035400Y-113120400D01*
G37*
G36*
X51285400Y-113120400D02*
G01*
X49964600Y-113120400D01*
X49964600Y-111799600D01*
X51285400Y-111799600D01*
X51285400Y-113120400D01*
X51285400Y-113120400D01*
G37*
G36*
X66971170Y-112504092D02*
G01*
X66411990Y-113063272D01*
X64679012Y-111330294D01*
X65238192Y-110771114D01*
X66971170Y-112504092D01*
X66971170Y-112504092D01*
G37*
G36*
X73320988Y-111669706D02*
G01*
X72761808Y-112228886D01*
X71028830Y-110495908D01*
X71588010Y-109936728D01*
X73320988Y-111669706D01*
X73320988Y-111669706D01*
G37*
G36*
X67869195Y-111606066D02*
G01*
X67310015Y-112165246D01*
X65577037Y-110432268D01*
X66136217Y-109873088D01*
X67869195Y-111606066D01*
X67869195Y-111606066D01*
G37*
G36*
X55513758Y-111353427D02*
G01*
X54770730Y-112096455D01*
X53603438Y-110929163D01*
X54346466Y-110186135D01*
X55513758Y-111353427D01*
X55513758Y-111353427D01*
G37*
G36*
X60965670Y-110090502D02*
G01*
X61078027Y-110112850D01*
X61219138Y-110171301D01*
X61346137Y-110256159D01*
X61454141Y-110364163D01*
X61457503Y-110369195D01*
X61538999Y-110491162D01*
X61597450Y-110632273D01*
X61619799Y-110744631D01*
X61625067Y-110771115D01*
X61627248Y-110782083D01*
X61627248Y-110934821D01*
X61597450Y-111084631D01*
X61538999Y-111225742D01*
X61454141Y-111352741D01*
X61346137Y-111460745D01*
X61219138Y-111545603D01*
X61078027Y-111604054D01*
X60965669Y-111626403D01*
X60928218Y-111633852D01*
X60775478Y-111633852D01*
X60738027Y-111626403D01*
X60625669Y-111604054D01*
X60484558Y-111545603D01*
X60357559Y-111460745D01*
X60249555Y-111352741D01*
X60164697Y-111225742D01*
X60106246Y-111084631D01*
X60076448Y-110934821D01*
X60076448Y-110782083D01*
X60078630Y-110771115D01*
X60083898Y-110744630D01*
X60106246Y-110632273D01*
X60164697Y-110491162D01*
X60246193Y-110369195D01*
X60249555Y-110364163D01*
X60357559Y-110256159D01*
X60484558Y-110171301D01*
X60625669Y-110112850D01*
X60738026Y-110090502D01*
X60775478Y-110083052D01*
X60928218Y-110083052D01*
X60965670Y-110090502D01*
X60965670Y-110090502D01*
G37*
G36*
X68767221Y-110708041D02*
G01*
X68208041Y-111267221D01*
X66475063Y-109534243D01*
X67034243Y-108975063D01*
X68767221Y-110708041D01*
X68767221Y-110708041D01*
G37*
G36*
X56645129Y-110222056D02*
G01*
X55902101Y-110965084D01*
X54734809Y-109797792D01*
X55477837Y-109054764D01*
X56645129Y-110222056D01*
X56645129Y-110222056D01*
G37*
G36*
X80035400Y-110580400D02*
G01*
X78714600Y-110580400D01*
X78714600Y-109259600D01*
X80035400Y-109259600D01*
X80035400Y-110580400D01*
X80035400Y-110580400D01*
G37*
G36*
X51285400Y-110580400D02*
G01*
X49964600Y-110580400D01*
X49964600Y-109259600D01*
X51285400Y-109259600D01*
X51285400Y-110580400D01*
X51285400Y-110580400D01*
G37*
G36*
X69665246Y-109810015D02*
G01*
X69106066Y-110369195D01*
X67373088Y-108636217D01*
X67932268Y-108077037D01*
X69665246Y-109810015D01*
X69665246Y-109810015D01*
G37*
G36*
X59968530Y-109302818D02*
G01*
X59296213Y-109975135D01*
X58906738Y-109585660D01*
X59579055Y-108913343D01*
X59968530Y-109302818D01*
X59968530Y-109302818D01*
G37*
G36*
X74803386Y-108953196D02*
G01*
X74060358Y-109696224D01*
X73741594Y-109377460D01*
X74484622Y-108634432D01*
X74803386Y-108953196D01*
X74803386Y-108953196D01*
G37*
G36*
X62910214Y-108145959D02*
G01*
X63022571Y-108168307D01*
X63163682Y-108226758D01*
X63290681Y-108311616D01*
X63398685Y-108419620D01*
X63398688Y-108419625D01*
X63483543Y-108546619D01*
X63541994Y-108687730D01*
X63571792Y-108837540D01*
X63571792Y-108990278D01*
X63541994Y-109140088D01*
X63492490Y-109259600D01*
X63483543Y-109281199D01*
X63398685Y-109408198D01*
X63290681Y-109516202D01*
X63186730Y-109585660D01*
X63163682Y-109601060D01*
X63022571Y-109659511D01*
X62910214Y-109681859D01*
X62872762Y-109689309D01*
X62720022Y-109689309D01*
X62682570Y-109681859D01*
X62570213Y-109659511D01*
X62429102Y-109601060D01*
X62406054Y-109585660D01*
X62302103Y-109516202D01*
X62194099Y-109408198D01*
X62109241Y-109281199D01*
X62100294Y-109259600D01*
X62050790Y-109140088D01*
X62020992Y-108990278D01*
X62020992Y-108837540D01*
X62050790Y-108687730D01*
X62109241Y-108546619D01*
X62194096Y-108419625D01*
X62194099Y-108419620D01*
X62302103Y-108311616D01*
X62429102Y-108226758D01*
X62570213Y-108168307D01*
X62682570Y-108145959D01*
X62720022Y-108138509D01*
X62872762Y-108138509D01*
X62910214Y-108145959D01*
X62910214Y-108145959D01*
G37*
G36*
X70563272Y-108911990D02*
G01*
X70004092Y-109471170D01*
X68271114Y-107738192D01*
X68830294Y-107179012D01*
X70563272Y-108911990D01*
X70563272Y-108911990D01*
G37*
G36*
X74343766Y-108493577D02*
G01*
X73600738Y-109236605D01*
X73281974Y-108917841D01*
X74025002Y-108174813D01*
X74343766Y-108493577D01*
X74343766Y-108493577D01*
G37*
G36*
X58907870Y-108242158D02*
G01*
X58235553Y-108914475D01*
X57846078Y-108525000D01*
X58518395Y-107852683D01*
X58907870Y-108242158D01*
X58907870Y-108242158D01*
G37*
G36*
X73884147Y-108033958D02*
G01*
X73141119Y-108776986D01*
X72822355Y-108458222D01*
X73565383Y-107715194D01*
X73884147Y-108033958D01*
X73884147Y-108033958D01*
G37*
G36*
X73424528Y-107574338D02*
G01*
X72681500Y-108317366D01*
X72362736Y-107998602D01*
X73105764Y-107255574D01*
X73424528Y-107574338D01*
X73424528Y-107574338D01*
G37*
G36*
X51285400Y-108040400D02*
G01*
X49964600Y-108040400D01*
X49964600Y-106719600D01*
X51285400Y-106719600D01*
X51285400Y-108040400D01*
X51285400Y-108040400D01*
G37*
G36*
X80035400Y-108040400D02*
G01*
X78714600Y-108040400D01*
X78714600Y-106719600D01*
X80035400Y-106719600D01*
X80035400Y-108040400D01*
X80035400Y-108040400D01*
G37*
G36*
X61913074Y-107358274D02*
G01*
X61240757Y-108030591D01*
X60851282Y-107641116D01*
X61523599Y-106968799D01*
X61913074Y-107358274D01*
X61913074Y-107358274D01*
G37*
G36*
X57917920Y-107322918D02*
G01*
X57316314Y-107924524D01*
X56714708Y-107322918D01*
X57316314Y-106721312D01*
X57917920Y-107322918D01*
X57917920Y-107322918D01*
G37*
G36*
X64677980Y-106024637D02*
G01*
X64790338Y-106046986D01*
X64931449Y-106105437D01*
X65058448Y-106190295D01*
X65166452Y-106298299D01*
X65251310Y-106425298D01*
X65309761Y-106566409D01*
X65339559Y-106716219D01*
X65339559Y-106868957D01*
X65309761Y-107018767D01*
X65251310Y-107159878D01*
X65166452Y-107286877D01*
X65058448Y-107394881D01*
X64931449Y-107479739D01*
X64790338Y-107538190D01*
X64677981Y-107560538D01*
X64640529Y-107567988D01*
X64487789Y-107567988D01*
X64450337Y-107560538D01*
X64337980Y-107538190D01*
X64196869Y-107479739D01*
X64069870Y-107394881D01*
X63961866Y-107286877D01*
X63877008Y-107159878D01*
X63818557Y-107018767D01*
X63788759Y-106868957D01*
X63788759Y-106716219D01*
X63818557Y-106566409D01*
X63877008Y-106425298D01*
X63961866Y-106298299D01*
X64069870Y-106190295D01*
X64196869Y-106105437D01*
X64337980Y-106046986D01*
X64450338Y-106024637D01*
X64487789Y-106017188D01*
X64640529Y-106017188D01*
X64677980Y-106024637D01*
X64677980Y-106024637D01*
G37*
G36*
X60852414Y-106297614D02*
G01*
X60180097Y-106969931D01*
X59790622Y-106580456D01*
X60462939Y-105908139D01*
X60852414Y-106297614D01*
X60852414Y-106297614D01*
G37*
G36*
X56786550Y-106191548D02*
G01*
X56184944Y-106793154D01*
X55583338Y-106191548D01*
X56184944Y-105589942D01*
X56786550Y-106191548D01*
X56786550Y-106191548D01*
G37*
G36*
X67363822Y-104982050D02*
G01*
X67476179Y-105004398D01*
X67617290Y-105062849D01*
X67744289Y-105147707D01*
X67852293Y-105255711D01*
X67889634Y-105311596D01*
X67937151Y-105382710D01*
X67995602Y-105523821D01*
X68025400Y-105673631D01*
X68025400Y-105826369D01*
X67995602Y-105976179D01*
X67950093Y-106086046D01*
X67937151Y-106117290D01*
X67852293Y-106244289D01*
X67744289Y-106352293D01*
X67635029Y-106425298D01*
X67617290Y-106437151D01*
X67476179Y-106495602D01*
X67382461Y-106514243D01*
X67326370Y-106525400D01*
X67173630Y-106525400D01*
X67117539Y-106514243D01*
X67023821Y-106495602D01*
X66882710Y-106437151D01*
X66864971Y-106425298D01*
X66755711Y-106352293D01*
X66647707Y-106244289D01*
X66562849Y-106117290D01*
X66549907Y-106086046D01*
X66504398Y-105976179D01*
X66474600Y-105826369D01*
X66474600Y-105673631D01*
X66504398Y-105523821D01*
X66562849Y-105382710D01*
X66610366Y-105311596D01*
X66647707Y-105255711D01*
X66755711Y-105147707D01*
X66882710Y-105062849D01*
X67023821Y-105004398D01*
X67136178Y-104982050D01*
X67173630Y-104974600D01*
X67326370Y-104974600D01*
X67363822Y-104982050D01*
X67363822Y-104982050D01*
G37*
G36*
X77985366Y-105771216D02*
G01*
X77242338Y-106514244D01*
X76923574Y-106195480D01*
X77666602Y-105452452D01*
X77985366Y-105771216D01*
X77985366Y-105771216D01*
G37*
G36*
X73353818Y-105735860D02*
G01*
X72964343Y-106125335D01*
X72292026Y-105453018D01*
X72681501Y-105063543D01*
X73353818Y-105735860D01*
X73353818Y-105735860D01*
G37*
G36*
X63857618Y-105413730D02*
G01*
X63185301Y-106086047D01*
X62795826Y-105696572D01*
X63468143Y-105024255D01*
X63857618Y-105413730D01*
X63857618Y-105413730D01*
G37*
G36*
X77525747Y-105311596D02*
G01*
X76782719Y-106054624D01*
X76463955Y-105735860D01*
X77206983Y-104992832D01*
X77525747Y-105311596D01*
X77525747Y-105311596D01*
G37*
G36*
X59862463Y-105378374D02*
G01*
X59260857Y-105979980D01*
X58659251Y-105378374D01*
X59260857Y-104776768D01*
X59862463Y-105378374D01*
X59862463Y-105378374D01*
G37*
G36*
X77066128Y-104851977D02*
G01*
X76323100Y-105595005D01*
X76004336Y-105276241D01*
X76747364Y-104533213D01*
X77066128Y-104851977D01*
X77066128Y-104851977D01*
G37*
G36*
X80035400Y-105500400D02*
G01*
X78714600Y-105500400D01*
X78714600Y-104179600D01*
X80035400Y-104179600D01*
X80035400Y-105500400D01*
X80035400Y-105500400D01*
G37*
G36*
X51285400Y-105500400D02*
G01*
X49964600Y-105500400D01*
X49964600Y-104179600D01*
X51285400Y-104179600D01*
X51285400Y-105500400D01*
X51285400Y-105500400D01*
G37*
G36*
X76606508Y-104392358D02*
G01*
X75863480Y-105135386D01*
X75544716Y-104816622D01*
X76287744Y-104073594D01*
X76606508Y-104392358D01*
X76606508Y-104392358D01*
G37*
G36*
X74414478Y-104675200D02*
G01*
X74025003Y-105064675D01*
X73352686Y-104392358D01*
X73742161Y-104002883D01*
X74414478Y-104675200D01*
X74414478Y-104675200D01*
G37*
G36*
X66530896Y-104358579D02*
G01*
X65858579Y-105030896D01*
X65469104Y-104641421D01*
X66141421Y-103969104D01*
X66530896Y-104358579D01*
X66530896Y-104358579D01*
G37*
G36*
X62796958Y-104353070D02*
G01*
X62124641Y-105025387D01*
X61735166Y-104635912D01*
X62407483Y-103963595D01*
X62796958Y-104353070D01*
X62796958Y-104353070D01*
G37*
G36*
X58731093Y-104247004D02*
G01*
X58129487Y-104848610D01*
X57527881Y-104247004D01*
X58129487Y-103645398D01*
X58731093Y-104247004D01*
X58731093Y-104247004D01*
G37*
G36*
X71939604Y-104321645D02*
G01*
X71550129Y-104711120D01*
X70877812Y-104038803D01*
X71267287Y-103649328D01*
X71939604Y-104321645D01*
X71939604Y-104321645D01*
G37*
G36*
X61807007Y-103433831D02*
G01*
X61205401Y-104035437D01*
X60603795Y-103433831D01*
X61205401Y-102832225D01*
X61807007Y-103433831D01*
X61807007Y-103433831D01*
G37*
G36*
X65470236Y-103297919D02*
G01*
X64797919Y-103970236D01*
X64408444Y-103580761D01*
X65080761Y-102908444D01*
X65470236Y-103297919D01*
X65470236Y-103297919D01*
G37*
G36*
X73000264Y-103260985D02*
G01*
X72610789Y-103650460D01*
X71938472Y-102978143D01*
X72327947Y-102588668D01*
X73000264Y-103260985D01*
X73000264Y-103260985D01*
G37*
G36*
X64101606Y-102750000D02*
G01*
X63500000Y-103351606D01*
X62898394Y-102750000D01*
X63500000Y-102148394D01*
X64101606Y-102750000D01*
X64101606Y-102750000D01*
G37*
G36*
X80035400Y-102960400D02*
G01*
X78714600Y-102960400D01*
X78714600Y-101639600D01*
X80035400Y-101639600D01*
X80035400Y-102960400D01*
X80035400Y-102960400D01*
G37*
G36*
X51285400Y-102960400D02*
G01*
X49964600Y-102960400D01*
X49964600Y-101639600D01*
X51285400Y-101639600D01*
X51285400Y-102960400D01*
X51285400Y-102960400D01*
G37*
G36*
X60675637Y-102302461D02*
G01*
X60074031Y-102904067D01*
X59472425Y-102302461D01*
X60074031Y-101700855D01*
X60675637Y-102302461D01*
X60675637Y-102302461D01*
G37*
G36*
X62970236Y-101618630D02*
G01*
X62368630Y-102220236D01*
X61767024Y-101618630D01*
X62368630Y-101017024D01*
X62970236Y-101618630D01*
X62970236Y-101618630D01*
G37*
G36*
X74410400Y-101035400D02*
G01*
X73359600Y-101035400D01*
X73359600Y-98484600D01*
X74410400Y-98484600D01*
X74410400Y-101035400D01*
X74410400Y-101035400D01*
G37*
G36*
X71410400Y-101035400D02*
G01*
X70359600Y-101035400D01*
X70359600Y-98484600D01*
X71410400Y-98484600D01*
X71410400Y-101035400D01*
X71410400Y-101035400D01*
G37*
G36*
X55910400Y-100985400D02*
G01*
X55359600Y-100985400D01*
X55359600Y-100034600D01*
X55910400Y-100034600D01*
X55910400Y-100985400D01*
X55910400Y-100985400D01*
G37*
G36*
X54410400Y-100985400D02*
G01*
X53859600Y-100985400D01*
X53859600Y-100034600D01*
X54410400Y-100034600D01*
X54410400Y-100985400D01*
X54410400Y-100985400D01*
G37*
G36*
X80035400Y-100420400D02*
G01*
X78714600Y-100420400D01*
X78714600Y-99099600D01*
X80035400Y-99099600D01*
X80035400Y-100420400D01*
X80035400Y-100420400D01*
G37*
G36*
X51285400Y-100420400D02*
G01*
X49964600Y-100420400D01*
X49964600Y-99099600D01*
X51285400Y-99099600D01*
X51285400Y-100420400D01*
X51285400Y-100420400D01*
G37*
G36*
X60535400Y-99895400D02*
G01*
X58934600Y-99895400D01*
X58934600Y-99244600D01*
X60535400Y-99244600D01*
X60535400Y-99895400D01*
X60535400Y-99895400D01*
G37*
G36*
X65935400Y-99895400D02*
G01*
X64334600Y-99895400D01*
X64334600Y-99244600D01*
X65935400Y-99244600D01*
X65935400Y-99895400D01*
X65935400Y-99895400D01*
G37*
G36*
X68619403Y-98233083D02*
G01*
X68628205Y-98236384D01*
X68640233Y-98239591D01*
X68652655Y-98240390D01*
X68664995Y-98238751D01*
X68676777Y-98234735D01*
X68679545Y-98233132D01*
X68705827Y-98259414D01*
X68715450Y-98267310D01*
X68722666Y-98271011D01*
X68726702Y-98278562D01*
X68734593Y-98288179D01*
X68905606Y-98459192D01*
X68915223Y-98467083D01*
X68926201Y-98472951D01*
X68938113Y-98476565D01*
X68950501Y-98477785D01*
X68962889Y-98476565D01*
X68974801Y-98472951D01*
X68982359Y-98468911D01*
X69011135Y-98555240D01*
X69016210Y-98566607D01*
X69016769Y-98567339D01*
X69017220Y-98571921D01*
X69019259Y-98579613D01*
X69116000Y-98869836D01*
X69116000Y-99070164D01*
X69019259Y-99360387D01*
X69016499Y-99372525D01*
X69016407Y-99373994D01*
X69011135Y-99384761D01*
X68982359Y-99471089D01*
X68974801Y-99467049D01*
X68962889Y-99463435D01*
X68950501Y-99462215D01*
X68938113Y-99463435D01*
X68926201Y-99467049D01*
X68915223Y-99472917D01*
X68905606Y-99480808D01*
X68734593Y-99651821D01*
X68726702Y-99661438D01*
X68722755Y-99668822D01*
X68717261Y-99671523D01*
X68705827Y-99680586D01*
X68679496Y-99706917D01*
X68674801Y-99704407D01*
X68662889Y-99700793D01*
X68650501Y-99699573D01*
X68638113Y-99700793D01*
X68628206Y-99703616D01*
X68314000Y-99821443D01*
X68314000Y-98118557D01*
X68619403Y-98233083D01*
X68619403Y-98233083D01*
G37*
G36*
X67936000Y-99821443D02*
G01*
X67621794Y-99703616D01*
X67609767Y-99700409D01*
X67597345Y-99699610D01*
X67585005Y-99701249D01*
X67573223Y-99705265D01*
X67570455Y-99706868D01*
X67544173Y-99680586D01*
X67534550Y-99672690D01*
X67527334Y-99668989D01*
X67523298Y-99661438D01*
X67515407Y-99651821D01*
X67344394Y-99480808D01*
X67334777Y-99472917D01*
X67323799Y-99467049D01*
X67311887Y-99463435D01*
X67299499Y-99462215D01*
X67287111Y-99463435D01*
X67275199Y-99467049D01*
X67267642Y-99471089D01*
X67238866Y-99384761D01*
X67233792Y-99373394D01*
X67233231Y-99372659D01*
X67232780Y-99368079D01*
X67230741Y-99360387D01*
X67134000Y-99070164D01*
X67134000Y-98869836D01*
X67230741Y-98579613D01*
X67233501Y-98567475D01*
X67233593Y-98566006D01*
X67238866Y-98555240D01*
X67267642Y-98468912D01*
X67275199Y-98472951D01*
X67287111Y-98476565D01*
X67299499Y-98477785D01*
X67311887Y-98476565D01*
X67323799Y-98472951D01*
X67334777Y-98467083D01*
X67344394Y-98459192D01*
X67515407Y-98288179D01*
X67523298Y-98278562D01*
X67527245Y-98271178D01*
X67532739Y-98268477D01*
X67544173Y-98259414D01*
X67570504Y-98233083D01*
X67575199Y-98235593D01*
X67587111Y-98239207D01*
X67599499Y-98240427D01*
X67611887Y-98239207D01*
X67621795Y-98236384D01*
X67630598Y-98233083D01*
X67936000Y-98118557D01*
X67936000Y-99821443D01*
X67936000Y-99821443D01*
G37*
G36*
X57860400Y-99035400D02*
G01*
X56909600Y-99035400D01*
X56909600Y-98484600D01*
X57860400Y-98484600D01*
X57860400Y-99035400D01*
X57860400Y-99035400D01*
G37*
G36*
X55610400Y-99035400D02*
G01*
X54659600Y-99035400D01*
X54659600Y-98484600D01*
X55610400Y-98484600D01*
X55610400Y-99035400D01*
X55610400Y-99035400D01*
G37*
G36*
X65935400Y-98625400D02*
G01*
X64334600Y-98625400D01*
X64334600Y-97974600D01*
X65935400Y-97974600D01*
X65935400Y-98625400D01*
X65935400Y-98625400D01*
G37*
G36*
X60535400Y-98625400D02*
G01*
X58934600Y-98625400D01*
X58934600Y-97974600D01*
X60535400Y-97974600D01*
X60535400Y-98625400D01*
X60535400Y-98625400D01*
G37*
G36*
X75910400Y-98485400D02*
G01*
X75359600Y-98485400D01*
X75359600Y-97534600D01*
X75910400Y-97534600D01*
X75910400Y-98485400D01*
X75910400Y-98485400D01*
G37*
G36*
X77410400Y-98485400D02*
G01*
X76859600Y-98485400D01*
X76859600Y-97534600D01*
X77410400Y-97534600D01*
X77410400Y-98485400D01*
X77410400Y-98485400D01*
G37*
G36*
X51285400Y-97880400D02*
G01*
X49964600Y-97880400D01*
X49964600Y-96559600D01*
X51285400Y-96559600D01*
X51285400Y-97880400D01*
X51285400Y-97880400D01*
G37*
G36*
X80035400Y-97880400D02*
G01*
X78714600Y-97880400D01*
X78714600Y-96559600D01*
X80035400Y-96559600D01*
X80035400Y-97880400D01*
X80035400Y-97880400D01*
G37*
G36*
X57860400Y-97535400D02*
G01*
X56909600Y-97535400D01*
X56909600Y-96984600D01*
X57860400Y-96984600D01*
X57860400Y-97535400D01*
X57860400Y-97535400D01*
G37*
G36*
X55610400Y-97535400D02*
G01*
X54659600Y-97535400D01*
X54659600Y-96984600D01*
X55610400Y-96984600D01*
X55610400Y-97535400D01*
X55610400Y-97535400D01*
G37*
G36*
X65935400Y-97355400D02*
G01*
X64334600Y-97355400D01*
X64334600Y-96704600D01*
X65935400Y-96704600D01*
X65935400Y-97355400D01*
X65935400Y-97355400D01*
G37*
G36*
X60535400Y-97355400D02*
G01*
X58934600Y-97355400D01*
X58934600Y-96704600D01*
X60535400Y-96704600D01*
X60535400Y-97355400D01*
X60535400Y-97355400D01*
G37*
G36*
X71410400Y-97285400D02*
G01*
X70359600Y-97285400D01*
X70359600Y-94734600D01*
X71410400Y-94734600D01*
X71410400Y-97285400D01*
X71410400Y-97285400D01*
G37*
G36*
X74410400Y-97285400D02*
G01*
X73359600Y-97285400D01*
X73359600Y-94734600D01*
X74410400Y-94734600D01*
X74410400Y-97285400D01*
X74410400Y-97285400D01*
G37*
G36*
X67936000Y-97111443D02*
G01*
X67621794Y-96993616D01*
X67609767Y-96990409D01*
X67597345Y-96989610D01*
X67585005Y-96991249D01*
X67573223Y-96995265D01*
X67570455Y-96996868D01*
X67544173Y-96970586D01*
X67534550Y-96962690D01*
X67527334Y-96958989D01*
X67523298Y-96951438D01*
X67515407Y-96941821D01*
X67344394Y-96770808D01*
X67334777Y-96762917D01*
X67323799Y-96757049D01*
X67311887Y-96753435D01*
X67299499Y-96752215D01*
X67287111Y-96753435D01*
X67275199Y-96757049D01*
X67267642Y-96761088D01*
X67238866Y-96674760D01*
X67233792Y-96663393D01*
X67233231Y-96662658D01*
X67232780Y-96658079D01*
X67230741Y-96650387D01*
X67134000Y-96360164D01*
X67134000Y-96159836D01*
X67230741Y-95869613D01*
X67233501Y-95857475D01*
X67233593Y-95856006D01*
X67238866Y-95845240D01*
X67267642Y-95758912D01*
X67275199Y-95762951D01*
X67287111Y-95766565D01*
X67299499Y-95767785D01*
X67311887Y-95766565D01*
X67323799Y-95762951D01*
X67334777Y-95757083D01*
X67344394Y-95749192D01*
X67515407Y-95578179D01*
X67523298Y-95568562D01*
X67527245Y-95561178D01*
X67532739Y-95558477D01*
X67544173Y-95549414D01*
X67570504Y-95523083D01*
X67575199Y-95525593D01*
X67587111Y-95529207D01*
X67599499Y-95530427D01*
X67611887Y-95529207D01*
X67621795Y-95526384D01*
X67630598Y-95523083D01*
X67936000Y-95408557D01*
X67936000Y-97111443D01*
X67936000Y-97111443D01*
G37*
G36*
X68619403Y-95523083D02*
G01*
X68628205Y-95526384D01*
X68640233Y-95529591D01*
X68652655Y-95530390D01*
X68664995Y-95528751D01*
X68676777Y-95524735D01*
X68679545Y-95523132D01*
X68705827Y-95549414D01*
X68715450Y-95557310D01*
X68722666Y-95561011D01*
X68726702Y-95568562D01*
X68734593Y-95578179D01*
X68905606Y-95749192D01*
X68915223Y-95757083D01*
X68926201Y-95762951D01*
X68938113Y-95766565D01*
X68950501Y-95767785D01*
X68962889Y-95766565D01*
X68974801Y-95762951D01*
X68982359Y-95758911D01*
X69011135Y-95845240D01*
X69016210Y-95856607D01*
X69016769Y-95857339D01*
X69017220Y-95861921D01*
X69019259Y-95869613D01*
X69116000Y-96159836D01*
X69116000Y-96360164D01*
X69019259Y-96650387D01*
X69016499Y-96662525D01*
X69016407Y-96663996D01*
X69011135Y-96674760D01*
X68982359Y-96761089D01*
X68974801Y-96757049D01*
X68962889Y-96753435D01*
X68950501Y-96752215D01*
X68938113Y-96753435D01*
X68926201Y-96757049D01*
X68915223Y-96762917D01*
X68905606Y-96770808D01*
X68734593Y-96941821D01*
X68726702Y-96951438D01*
X68722755Y-96958822D01*
X68717261Y-96961523D01*
X68705827Y-96970586D01*
X68679496Y-96996917D01*
X68674801Y-96994407D01*
X68662889Y-96990793D01*
X68650501Y-96989573D01*
X68638113Y-96990793D01*
X68628206Y-96993616D01*
X68314000Y-97111443D01*
X68314000Y-95408557D01*
X68619403Y-95523083D01*
X68619403Y-95523083D01*
G37*
G36*
X76869403Y-95023083D02*
G01*
X76878205Y-95026384D01*
X76890233Y-95029591D01*
X76902655Y-95030390D01*
X76914995Y-95028751D01*
X76926777Y-95024735D01*
X76929545Y-95023132D01*
X76955827Y-95049414D01*
X76965450Y-95057310D01*
X76972666Y-95061011D01*
X76976702Y-95068562D01*
X76984593Y-95078179D01*
X77155606Y-95249192D01*
X77165223Y-95257083D01*
X77176201Y-95262951D01*
X77188113Y-95266565D01*
X77200501Y-95267785D01*
X77212889Y-95266565D01*
X77224801Y-95262951D01*
X77232359Y-95258911D01*
X77261135Y-95345240D01*
X77266210Y-95356607D01*
X77266769Y-95357339D01*
X77267220Y-95361921D01*
X77269259Y-95369613D01*
X77366000Y-95659836D01*
X77366000Y-95860164D01*
X77269259Y-96150387D01*
X77266499Y-96162525D01*
X77266407Y-96163994D01*
X77261135Y-96174761D01*
X77232359Y-96261089D01*
X77224801Y-96257049D01*
X77212889Y-96253435D01*
X77200501Y-96252215D01*
X77188113Y-96253435D01*
X77176201Y-96257049D01*
X77165223Y-96262917D01*
X77155606Y-96270808D01*
X76984593Y-96441821D01*
X76976702Y-96451438D01*
X76972755Y-96458822D01*
X76967261Y-96461523D01*
X76955827Y-96470586D01*
X76929496Y-96496917D01*
X76924801Y-96494407D01*
X76912889Y-96490793D01*
X76900501Y-96489573D01*
X76888113Y-96490793D01*
X76878206Y-96493616D01*
X76564000Y-96611443D01*
X76564000Y-94908557D01*
X76869403Y-95023083D01*
X76869403Y-95023083D01*
G37*
G36*
X76186000Y-96611443D02*
G01*
X75871794Y-96493616D01*
X75859767Y-96490409D01*
X75847345Y-96489610D01*
X75835005Y-96491249D01*
X75823223Y-96495265D01*
X75820455Y-96496868D01*
X75794173Y-96470586D01*
X75784550Y-96462690D01*
X75777334Y-96458989D01*
X75773298Y-96451438D01*
X75765407Y-96441821D01*
X75594394Y-96270808D01*
X75584777Y-96262917D01*
X75573799Y-96257049D01*
X75561887Y-96253435D01*
X75549499Y-96252215D01*
X75537111Y-96253435D01*
X75525199Y-96257049D01*
X75517642Y-96261089D01*
X75488866Y-96174761D01*
X75483792Y-96163394D01*
X75483231Y-96162659D01*
X75482780Y-96158079D01*
X75480741Y-96150387D01*
X75384000Y-95860164D01*
X75384000Y-95659836D01*
X75480741Y-95369613D01*
X75483501Y-95357475D01*
X75483593Y-95356006D01*
X75488866Y-95345240D01*
X75517642Y-95258912D01*
X75525199Y-95262951D01*
X75537111Y-95266565D01*
X75549499Y-95267785D01*
X75561887Y-95266565D01*
X75573799Y-95262951D01*
X75584777Y-95257083D01*
X75594394Y-95249192D01*
X75765407Y-95078179D01*
X75773298Y-95068562D01*
X75777245Y-95061178D01*
X75782739Y-95058477D01*
X75794173Y-95049414D01*
X75820504Y-95023083D01*
X75825199Y-95025593D01*
X75837111Y-95029207D01*
X75849499Y-95030427D01*
X75861887Y-95029207D01*
X75871795Y-95026384D01*
X75880598Y-95023083D01*
X76186000Y-94908557D01*
X76186000Y-96611443D01*
X76186000Y-96611443D01*
G37*
G36*
X55910400Y-96235400D02*
G01*
X55359600Y-96235400D01*
X55359600Y-95284600D01*
X55910400Y-95284600D01*
X55910400Y-96235400D01*
X55910400Y-96235400D01*
G37*
G36*
X54410400Y-96235400D02*
G01*
X53859600Y-96235400D01*
X53859600Y-95284600D01*
X54410400Y-95284600D01*
X54410400Y-96235400D01*
X54410400Y-96235400D01*
G37*
G36*
X60535400Y-96085400D02*
G01*
X58934600Y-96085400D01*
X58934600Y-95434600D01*
X60535400Y-95434600D01*
X60535400Y-96085400D01*
X60535400Y-96085400D01*
G37*
G36*
X65935400Y-96085400D02*
G01*
X64334600Y-96085400D01*
X64334600Y-95434600D01*
X65935400Y-95434600D01*
X65935400Y-96085400D01*
X65935400Y-96085400D01*
G37*
G36*
X57860400Y-95535400D02*
G01*
X56909600Y-95535400D01*
X56909600Y-94984600D01*
X57860400Y-94984600D01*
X57860400Y-95535400D01*
X57860400Y-95535400D01*
G37*
G36*
X80035400Y-95340400D02*
G01*
X78714600Y-95340400D01*
X78714600Y-94019600D01*
X80035400Y-94019600D01*
X80035400Y-95340400D01*
X80035400Y-95340400D01*
G37*
G36*
X51285400Y-95340400D02*
G01*
X49964600Y-95340400D01*
X49964600Y-94019600D01*
X51285400Y-94019600D01*
X51285400Y-95340400D01*
X51285400Y-95340400D01*
G37*
G36*
X65610400Y-94285400D02*
G01*
X64659600Y-94285400D01*
X64659600Y-93734600D01*
X65610400Y-93734600D01*
X65610400Y-94285400D01*
X65610400Y-94285400D01*
G37*
G36*
X67860400Y-94285400D02*
G01*
X66909600Y-94285400D01*
X66909600Y-93734600D01*
X67860400Y-93734600D01*
X67860400Y-94285400D01*
X67860400Y-94285400D01*
G37*
G36*
X57860400Y-94035400D02*
G01*
X56909600Y-94035400D01*
X56909600Y-93484600D01*
X57860400Y-93484600D01*
X57860400Y-94035400D01*
X57860400Y-94035400D01*
G37*
G36*
X70363822Y-92232050D02*
G01*
X70476179Y-92254398D01*
X70617290Y-92312849D01*
X70744289Y-92397707D01*
X70852293Y-92505711D01*
X70852296Y-92505716D01*
X70937151Y-92632710D01*
X70995602Y-92773821D01*
X71025400Y-92923631D01*
X71025400Y-93076369D01*
X70995602Y-93226179D01*
X70937151Y-93367290D01*
X70852293Y-93494289D01*
X70744289Y-93602293D01*
X70617290Y-93687151D01*
X70476179Y-93745602D01*
X70363821Y-93767951D01*
X70326370Y-93775400D01*
X70173630Y-93775400D01*
X70136179Y-93767951D01*
X70023821Y-93745602D01*
X69882710Y-93687151D01*
X69755711Y-93602293D01*
X69647707Y-93494289D01*
X69562849Y-93367290D01*
X69504398Y-93226179D01*
X69474600Y-93076369D01*
X69474600Y-92923631D01*
X69504398Y-92773821D01*
X69562849Y-92632710D01*
X69647704Y-92505716D01*
X69647707Y-92505711D01*
X69755711Y-92397707D01*
X69882710Y-92312849D01*
X70023821Y-92254398D01*
X70136178Y-92232050D01*
X70173630Y-92224600D01*
X70326370Y-92224600D01*
X70363822Y-92232050D01*
X70363822Y-92232050D01*
G37*
G36*
X60675400Y-93425400D02*
G01*
X59724600Y-93425400D01*
X59724600Y-92874600D01*
X60675400Y-92874600D01*
X60675400Y-93425400D01*
X60675400Y-93425400D01*
G37*
G36*
X62825400Y-93425400D02*
G01*
X61874600Y-93425400D01*
X61874600Y-92874600D01*
X62825400Y-92874600D01*
X62825400Y-93425400D01*
X62825400Y-93425400D01*
G37*
G36*
X80035400Y-92800400D02*
G01*
X78714600Y-92800400D01*
X78714600Y-91479600D01*
X80035400Y-91479600D01*
X80035400Y-92800400D01*
X80035400Y-92800400D01*
G37*
G36*
X51285400Y-92800400D02*
G01*
X49964600Y-92800400D01*
X49964600Y-91479600D01*
X51285400Y-91479600D01*
X51285400Y-92800400D01*
X51285400Y-92800400D01*
G37*
G36*
X65610400Y-92785400D02*
G01*
X64659600Y-92785400D01*
X64659600Y-92234600D01*
X65610400Y-92234600D01*
X65610400Y-92785400D01*
X65610400Y-92785400D01*
G37*
G36*
X67860400Y-92785400D02*
G01*
X66909600Y-92785400D01*
X66909600Y-92234600D01*
X67860400Y-92234600D01*
X67860400Y-92785400D01*
X67860400Y-92785400D01*
G37*
G36*
X60675400Y-91925400D02*
G01*
X59724600Y-91925400D01*
X59724600Y-91374600D01*
X60675400Y-91374600D01*
X60675400Y-91925400D01*
X60675400Y-91925400D01*
G37*
G36*
X62825400Y-91925400D02*
G01*
X61874600Y-91925400D01*
X61874600Y-91374600D01*
X62825400Y-91374600D01*
X62825400Y-91925400D01*
X62825400Y-91925400D01*
G37*
G36*
X51285400Y-90260400D02*
G01*
X49964600Y-90260400D01*
X49964600Y-88939600D01*
X51285400Y-88939600D01*
X51285400Y-90260400D01*
X51285400Y-90260400D01*
G37*
G36*
X80035400Y-90260400D02*
G01*
X78714600Y-90260400D01*
X78714600Y-88939600D01*
X80035400Y-88939600D01*
X80035400Y-90260400D01*
X80035400Y-90260400D01*
G37*
G36*
X60750400Y-90125400D02*
G01*
X59899600Y-90125400D01*
X59899600Y-89174600D01*
X60750400Y-89174600D01*
X60750400Y-90125400D01*
X60750400Y-90125400D01*
G37*
G36*
X62650400Y-90125400D02*
G01*
X61799600Y-90125400D01*
X61799600Y-89174600D01*
X62650400Y-89174600D01*
X62650400Y-90125400D01*
X62650400Y-90125400D01*
G37*
G36*
X61700400Y-88125400D02*
G01*
X60849600Y-88125400D01*
X60849600Y-87174600D01*
X61700400Y-87174600D01*
X61700400Y-88125400D01*
X61700400Y-88125400D01*
G37*
G36*
X51285400Y-87720400D02*
G01*
X49964600Y-87720400D01*
X49964600Y-86399600D01*
X51285400Y-86399600D01*
X51285400Y-87720400D01*
X51285400Y-87720400D01*
G37*
G36*
X80035400Y-87680400D02*
G01*
X78714600Y-87680400D01*
X78714600Y-86359600D01*
X80035400Y-86359600D01*
X80035400Y-87680400D01*
X80035400Y-87680400D01*
G37*
G36*
X77500400Y-87625400D02*
G01*
X76549600Y-87625400D01*
X76549600Y-87074600D01*
X77500400Y-87074600D01*
X77500400Y-87625400D01*
X77500400Y-87625400D01*
G37*
G36*
X75500400Y-86825400D02*
G01*
X74149600Y-86825400D01*
X74149600Y-83374600D01*
X75500400Y-83374600D01*
X75500400Y-86825400D01*
X75500400Y-86825400D01*
G37*
G36*
X66800400Y-86825400D02*
G01*
X65449600Y-86825400D01*
X65449600Y-83374600D01*
X66800400Y-83374600D01*
X66800400Y-86825400D01*
X66800400Y-86825400D01*
G37*
G36*
X77500400Y-86125400D02*
G01*
X76549600Y-86125400D01*
X76549600Y-85574600D01*
X77500400Y-85574600D01*
X77500400Y-86125400D01*
X77500400Y-86125400D01*
G37*
G36*
X51285400Y-85180400D02*
G01*
X49964600Y-85180400D01*
X49964600Y-83859600D01*
X51285400Y-83859600D01*
X51285400Y-85180400D01*
X51285400Y-85180400D01*
G37*
G36*
X80035400Y-85140400D02*
G01*
X78714600Y-85140400D01*
X78714600Y-83819600D01*
X80035400Y-83819600D01*
X80035400Y-85140400D01*
X80035400Y-85140400D01*
G37*
G36*
X78100400Y-84350400D02*
G01*
X76449600Y-84350400D01*
X76449600Y-83299600D01*
X78100400Y-83299600D01*
X78100400Y-84350400D01*
X78100400Y-84350400D01*
G37*
G36*
X62750400Y-82175400D02*
G01*
X61699600Y-82175400D01*
X61699600Y-80524600D01*
X62750400Y-80524600D01*
X62750400Y-82175400D01*
X62750400Y-82175400D01*
G37*
G36*
X59750400Y-82175400D02*
G01*
X58699600Y-82175400D01*
X58699600Y-80524600D01*
X59750400Y-80524600D01*
X59750400Y-82175400D01*
X59750400Y-82175400D01*
G37*
G36*
X56500400Y-82000400D02*
G01*
X55449600Y-82000400D01*
X55449600Y-80699600D01*
X56500400Y-80699600D01*
X56500400Y-82000400D01*
X56500400Y-82000400D01*
G37*
G36*
X54300400Y-82000400D02*
G01*
X53249600Y-82000400D01*
X53249600Y-80699600D01*
X54300400Y-80699600D01*
X54300400Y-82000400D01*
X54300400Y-82000400D01*
G37*
G36*
X78100400Y-81350400D02*
G01*
X76449600Y-81350400D01*
X76449600Y-80299600D01*
X78100400Y-80299600D01*
X78100400Y-81350400D01*
X78100400Y-81350400D01*
G37*
G36*
X59775400Y-79325400D02*
G01*
X58724600Y-79325400D01*
X58724600Y-77674600D01*
X59775400Y-77674600D01*
X59775400Y-79325400D01*
X59775400Y-79325400D01*
G37*
G36*
X62775400Y-79325400D02*
G01*
X61724600Y-79325400D01*
X61724600Y-77674600D01*
X62775400Y-77674600D01*
X62775400Y-79325400D01*
X62775400Y-79325400D01*
G37*
G36*
X56775400Y-78935400D02*
G01*
X55724600Y-78935400D01*
X55724600Y-77284600D01*
X56775400Y-77284600D01*
X56775400Y-78935400D01*
X56775400Y-78935400D01*
G37*
G36*
X53775400Y-78935400D02*
G01*
X52724600Y-78935400D01*
X52724600Y-77284600D01*
X53775400Y-77284600D01*
X53775400Y-78935400D01*
X53775400Y-78935400D01*
G37*
G36*
X59785400Y-76435400D02*
G01*
X58734600Y-76435400D01*
X58734600Y-74784600D01*
X59785400Y-74784600D01*
X59785400Y-76435400D01*
X59785400Y-76435400D01*
G37*
G36*
X62785400Y-76435400D02*
G01*
X61734600Y-76435400D01*
X61734600Y-74784600D01*
X62785400Y-74784600D01*
X62785400Y-76435400D01*
X62785400Y-76435400D01*
G37*
G36*
X65458616Y-75893205D02*
G01*
X65455409Y-75905233D01*
X65454610Y-75917655D01*
X65456249Y-75929995D01*
X65460265Y-75941777D01*
X65461868Y-75944545D01*
X65435586Y-75970827D01*
X65427690Y-75980450D01*
X65423989Y-75987666D01*
X65416438Y-75991702D01*
X65406821Y-75999593D01*
X65235808Y-76170606D01*
X65227917Y-76180223D01*
X65222049Y-76191201D01*
X65218435Y-76203113D01*
X65217215Y-76215501D01*
X65218435Y-76227889D01*
X65222049Y-76239801D01*
X65226089Y-76247359D01*
X65139761Y-76276135D01*
X65128394Y-76281210D01*
X65127662Y-76281769D01*
X65123079Y-76282220D01*
X65115387Y-76284259D01*
X64825164Y-76381000D01*
X64624836Y-76381000D01*
X64334613Y-76284259D01*
X64322475Y-76281499D01*
X64321004Y-76281407D01*
X64310240Y-76276135D01*
X64223911Y-76247359D01*
X64227951Y-76239801D01*
X64231565Y-76227889D01*
X64232785Y-76215501D01*
X64231565Y-76203113D01*
X64227951Y-76191201D01*
X64222083Y-76180223D01*
X64214192Y-76170606D01*
X64043179Y-75999593D01*
X64033562Y-75991702D01*
X64026178Y-75987755D01*
X64023477Y-75982261D01*
X64014414Y-75970827D01*
X63988083Y-75944496D01*
X63990593Y-75939801D01*
X63994207Y-75927889D01*
X63995427Y-75915501D01*
X63994207Y-75903113D01*
X63991384Y-75893205D01*
X63873557Y-75579000D01*
X65576443Y-75579000D01*
X65458616Y-75893205D01*
X65458616Y-75893205D01*
G37*
G36*
X65115387Y-74495741D02*
G01*
X65127525Y-74498501D01*
X65128995Y-74498593D01*
X65139761Y-74503866D01*
X65226089Y-74532642D01*
X65222049Y-74540199D01*
X65218435Y-74552111D01*
X65217215Y-74564499D01*
X65218435Y-74576887D01*
X65222049Y-74588799D01*
X65227917Y-74599777D01*
X65235808Y-74609394D01*
X65406821Y-74780407D01*
X65416438Y-74788298D01*
X65423822Y-74792245D01*
X65426523Y-74797739D01*
X65435586Y-74809173D01*
X65461917Y-74835504D01*
X65459407Y-74840199D01*
X65455793Y-74852111D01*
X65454573Y-74864499D01*
X65455793Y-74876887D01*
X65458616Y-74886794D01*
X65576443Y-75201000D01*
X63873557Y-75201000D01*
X63991384Y-74886795D01*
X63994591Y-74874767D01*
X63995390Y-74862345D01*
X63993751Y-74850005D01*
X63989735Y-74838223D01*
X63988132Y-74835455D01*
X64014414Y-74809173D01*
X64022310Y-74799550D01*
X64026011Y-74792334D01*
X64033562Y-74788298D01*
X64043179Y-74780407D01*
X64214192Y-74609394D01*
X64222083Y-74599777D01*
X64227951Y-74588799D01*
X64231565Y-74576887D01*
X64232785Y-74564499D01*
X64231565Y-74552111D01*
X64227951Y-74540199D01*
X64223912Y-74532642D01*
X64310240Y-74503866D01*
X64321607Y-74498792D01*
X64322342Y-74498231D01*
X64326921Y-74497780D01*
X64334613Y-74495741D01*
X64624836Y-74399000D01*
X64825164Y-74399000D01*
X65115387Y-74495741D01*
X65115387Y-74495741D01*
G37*
G36*
X57360400Y-75170400D02*
G01*
X54799600Y-75170400D01*
X54799600Y-74119600D01*
X57360400Y-74119600D01*
X57360400Y-75170400D01*
X57360400Y-75170400D01*
G37*
G36*
X69498053Y-71932280D02*
G01*
X69498055Y-71932281D01*
X69498056Y-71932281D01*
X69652817Y-71996385D01*
X69792094Y-72089447D01*
X69792096Y-72089449D01*
X69792099Y-72089451D01*
X69910549Y-72207901D01*
X69910551Y-72207904D01*
X69910553Y-72207906D01*
X70003615Y-72347183D01*
X70067719Y-72501944D01*
X70100400Y-72666244D01*
X70100400Y-72833756D01*
X70067719Y-72998056D01*
X70003615Y-73152817D01*
X69910553Y-73292094D01*
X69910551Y-73292096D01*
X69910549Y-73292099D01*
X69792099Y-73410549D01*
X69792096Y-73410551D01*
X69792094Y-73410553D01*
X69652817Y-73503615D01*
X69498056Y-73567719D01*
X69498055Y-73567719D01*
X69498053Y-73567720D01*
X69333757Y-73600400D01*
X69166243Y-73600400D01*
X69001947Y-73567720D01*
X69001945Y-73567719D01*
X69001944Y-73567719D01*
X68847183Y-73503615D01*
X68707906Y-73410553D01*
X68707904Y-73410551D01*
X68707901Y-73410549D01*
X68589451Y-73292099D01*
X68589449Y-73292096D01*
X68589447Y-73292094D01*
X68496385Y-73152817D01*
X68432281Y-72998056D01*
X68399600Y-72833756D01*
X68399600Y-72666244D01*
X68432281Y-72501944D01*
X68496385Y-72347183D01*
X68589447Y-72207906D01*
X68589449Y-72207904D01*
X68589451Y-72207901D01*
X68707901Y-72089451D01*
X68707904Y-72089449D01*
X68707906Y-72089447D01*
X68847183Y-71996385D01*
X69001944Y-71932281D01*
X69001945Y-71932281D01*
X69001947Y-71932280D01*
X69166243Y-71899600D01*
X69333757Y-71899600D01*
X69498053Y-71932280D01*
X69498053Y-71932280D01*
G37*
G36*
X74498053Y-71932280D02*
G01*
X74498055Y-71932281D01*
X74498056Y-71932281D01*
X74652817Y-71996385D01*
X74792094Y-72089447D01*
X74792096Y-72089449D01*
X74792099Y-72089451D01*
X74910549Y-72207901D01*
X74910551Y-72207904D01*
X74910553Y-72207906D01*
X75003615Y-72347183D01*
X75067719Y-72501944D01*
X75100400Y-72666244D01*
X75100400Y-72833756D01*
X75067719Y-72998056D01*
X75003615Y-73152817D01*
X74910553Y-73292094D01*
X74910551Y-73292096D01*
X74910549Y-73292099D01*
X74792099Y-73410549D01*
X74792096Y-73410551D01*
X74792094Y-73410553D01*
X74652817Y-73503615D01*
X74498056Y-73567719D01*
X74498055Y-73567719D01*
X74498053Y-73567720D01*
X74333757Y-73600400D01*
X74166243Y-73600400D01*
X74001947Y-73567720D01*
X74001945Y-73567719D01*
X74001944Y-73567719D01*
X73847183Y-73503615D01*
X73707906Y-73410553D01*
X73707904Y-73410551D01*
X73707901Y-73410549D01*
X73589451Y-73292099D01*
X73589449Y-73292096D01*
X73589447Y-73292094D01*
X73496385Y-73152817D01*
X73432281Y-72998056D01*
X73399600Y-72833756D01*
X73399600Y-72666244D01*
X73432281Y-72501944D01*
X73496385Y-72347183D01*
X73589447Y-72207906D01*
X73589449Y-72207904D01*
X73589451Y-72207901D01*
X73707901Y-72089451D01*
X73707904Y-72089449D01*
X73707906Y-72089447D01*
X73847183Y-71996385D01*
X74001944Y-71932281D01*
X74001945Y-71932281D01*
X74001947Y-71932280D01*
X74166243Y-71899600D01*
X74333757Y-71899600D01*
X74498053Y-71932280D01*
X74498053Y-71932280D01*
G37*
G36*
X71998053Y-71932280D02*
G01*
X71998055Y-71932281D01*
X71998056Y-71932281D01*
X72152817Y-71996385D01*
X72292094Y-72089447D01*
X72292096Y-72089449D01*
X72292099Y-72089451D01*
X72410549Y-72207901D01*
X72410551Y-72207904D01*
X72410553Y-72207906D01*
X72503615Y-72347183D01*
X72567719Y-72501944D01*
X72600400Y-72666244D01*
X72600400Y-72833756D01*
X72567719Y-72998056D01*
X72503615Y-73152817D01*
X72410553Y-73292094D01*
X72410551Y-73292096D01*
X72410549Y-73292099D01*
X72292099Y-73410549D01*
X72292096Y-73410551D01*
X72292094Y-73410553D01*
X72152817Y-73503615D01*
X71998056Y-73567719D01*
X71998055Y-73567719D01*
X71998053Y-73567720D01*
X71833757Y-73600400D01*
X71666243Y-73600400D01*
X71501947Y-73567720D01*
X71501945Y-73567719D01*
X71501944Y-73567719D01*
X71347183Y-73503615D01*
X71207906Y-73410553D01*
X71207904Y-73410551D01*
X71207901Y-73410549D01*
X71089451Y-73292099D01*
X71089449Y-73292096D01*
X71089447Y-73292094D01*
X70996385Y-73152817D01*
X70932281Y-72998056D01*
X70899600Y-72833756D01*
X70899600Y-72666244D01*
X70932281Y-72501944D01*
X70996385Y-72347183D01*
X71089447Y-72207906D01*
X71089449Y-72207904D01*
X71089451Y-72207901D01*
X71207901Y-72089451D01*
X71207904Y-72089449D01*
X71207906Y-72089447D01*
X71347183Y-71996385D01*
X71501944Y-71932281D01*
X71501945Y-71932281D01*
X71501947Y-71932280D01*
X71666243Y-71899600D01*
X71833757Y-71899600D01*
X71998053Y-71932280D01*
X71998053Y-71932280D01*
G37*
G36*
X61035400Y-73035400D02*
G01*
X58484600Y-73035400D01*
X58484600Y-71184600D01*
X61035400Y-71184600D01*
X61035400Y-73035400D01*
X61035400Y-73035400D01*
G37*
G36*
X65035400Y-73035400D02*
G01*
X62484600Y-73035400D01*
X62484600Y-71184600D01*
X65035400Y-71184600D01*
X65035400Y-73035400D01*
X65035400Y-73035400D01*
G37*
G36*
X54050400Y-72630400D02*
G01*
X51489600Y-72630400D01*
X51489600Y-71579600D01*
X54050400Y-71579600D01*
X54050400Y-72630400D01*
X54050400Y-72630400D01*
G37*
M02*
