G04 #@! TF.GenerationSoftware,KiCad,Pcbnew,(5.1.5)-3*
G04 #@! TF.CreationDate,2020-04-12T16:22:57-07:00*
G04 #@! TF.ProjectId,Milpitas_BMS,4d696c70-6974-4617-935f-424d532e6b69,rev?*
G04 #@! TF.SameCoordinates,Original*
G04 #@! TF.FileFunction,Legend,Bot*
G04 #@! TF.FilePolarity,Positive*
%FSLAX46Y46*%
G04 Gerber Fmt 4.6, Leading zero omitted, Abs format (unit mm)*
G04 Created by KiCad (PCBNEW (5.1.5)-3) date 2020-04-12 16:22:57*
%MOMM*%
%LPD*%
G04 APERTURE LIST*
%ADD10C,0.010000*%
%ADD11C,0.120000*%
%ADD12C,0.125000*%
G04 APERTURE END LIST*
D10*
G36*
X125306667Y-91186000D02*
G01*
X125264333Y-91143667D01*
X125222000Y-91186000D01*
X125264333Y-91228334D01*
X125306667Y-91186000D01*
G37*
X125306667Y-91186000D02*
X125264333Y-91143667D01*
X125222000Y-91186000D01*
X125264333Y-91228334D01*
X125306667Y-91186000D01*
G36*
X137133437Y-87702310D02*
G01*
X137117667Y-87672334D01*
X137037892Y-87591477D01*
X137023006Y-87587667D01*
X137017230Y-87642357D01*
X137033000Y-87672334D01*
X137112774Y-87753191D01*
X137127660Y-87757000D01*
X137133437Y-87702310D01*
G37*
X137133437Y-87702310D02*
X137117667Y-87672334D01*
X137037892Y-87591477D01*
X137023006Y-87587667D01*
X137017230Y-87642357D01*
X137033000Y-87672334D01*
X137112774Y-87753191D01*
X137127660Y-87757000D01*
X137133437Y-87702310D01*
G36*
X128792278Y-85106674D02*
G01*
X128947333Y-85047667D01*
X128984155Y-84995281D01*
X128876643Y-84969388D01*
X128714500Y-84964297D01*
X128494751Y-84981245D01*
X128367429Y-85025399D01*
X128354667Y-85047667D01*
X128425583Y-85109009D01*
X128593746Y-85128678D01*
X128792278Y-85106674D01*
G37*
X128792278Y-85106674D02*
X128947333Y-85047667D01*
X128984155Y-84995281D01*
X128876643Y-84969388D01*
X128714500Y-84964297D01*
X128494751Y-84981245D01*
X128367429Y-85025399D01*
X128354667Y-85047667D01*
X128425583Y-85109009D01*
X128593746Y-85128678D01*
X128792278Y-85106674D01*
G36*
X133415311Y-84984400D02*
G01*
X133611025Y-84953175D01*
X133748331Y-84902704D01*
X133773333Y-84869071D01*
X133759992Y-84823536D01*
X133692375Y-84809321D01*
X133529090Y-84825069D01*
X133327398Y-84854449D01*
X133171775Y-84898584D01*
X133131758Y-84952362D01*
X133231964Y-84987192D01*
X133415311Y-84984400D01*
G37*
X133415311Y-84984400D02*
X133611025Y-84953175D01*
X133748331Y-84902704D01*
X133773333Y-84869071D01*
X133759992Y-84823536D01*
X133692375Y-84809321D01*
X133529090Y-84825069D01*
X133327398Y-84854449D01*
X133171775Y-84898584D01*
X133131758Y-84952362D01*
X133231964Y-84987192D01*
X133415311Y-84984400D01*
G36*
X128105152Y-84774494D02*
G01*
X128503669Y-84724978D01*
X128802275Y-84672721D01*
X128987505Y-84622894D01*
X129045891Y-84580664D01*
X128963969Y-84551204D01*
X128728270Y-84539682D01*
X128716828Y-84539667D01*
X128401655Y-84539667D01*
X128610994Y-84396408D01*
X128834109Y-84215734D01*
X128930795Y-84051186D01*
X128941596Y-83947000D01*
X128909556Y-83895677D01*
X128815654Y-83996211D01*
X128805565Y-84010500D01*
X128686504Y-84150865D01*
X128607747Y-84201000D01*
X128576622Y-84123274D01*
X128553639Y-83917763D01*
X128543070Y-83625975D01*
X128542815Y-83570013D01*
X128510245Y-82949813D01*
X128415449Y-82444048D01*
X128262790Y-82070536D01*
X128135509Y-81907963D01*
X127898489Y-81775077D01*
X127564989Y-81693893D01*
X127201841Y-81671354D01*
X126875877Y-81714404D01*
X126746000Y-81763584D01*
X126582154Y-81903569D01*
X126409633Y-82132508D01*
X126340261Y-82253955D01*
X126340207Y-82254074D01*
X127789055Y-82254074D01*
X127799312Y-82177125D01*
X127932103Y-82091369D01*
X128089164Y-82117629D01*
X128145292Y-82172709D01*
X128143661Y-82302609D01*
X128094062Y-82388625D01*
X127993176Y-82472361D01*
X127890188Y-82417465D01*
X127865088Y-82393041D01*
X127789055Y-82254074D01*
X126340207Y-82254074D01*
X126248055Y-82456822D01*
X126192791Y-82655056D01*
X126167537Y-82898057D01*
X126165358Y-83235226D01*
X126170927Y-83460352D01*
X126177170Y-83735334D01*
X126322667Y-83735334D01*
X126351922Y-83571129D01*
X126455498Y-83537220D01*
X126470833Y-83539785D01*
X126592751Y-83635659D01*
X126619000Y-83735334D01*
X126554775Y-83885129D01*
X126470833Y-83930882D01*
X126358533Y-83908264D01*
X126322923Y-83758476D01*
X126322667Y-83735334D01*
X126177170Y-83735334D01*
X126178885Y-83810826D01*
X126180326Y-84087411D01*
X126175336Y-84253858D01*
X126168934Y-84285852D01*
X126006128Y-84216056D01*
X125797126Y-84029746D01*
X125577136Y-83758891D01*
X125557481Y-83730704D01*
X125414907Y-83509996D01*
X125342539Y-83333460D01*
X125325345Y-83132899D01*
X125348293Y-82840112D01*
X125352484Y-82800641D01*
X125375824Y-82522250D01*
X125379980Y-82325269D01*
X125364871Y-82253667D01*
X125318027Y-82327440D01*
X125248685Y-82513833D01*
X125172367Y-82760455D01*
X125104592Y-83014915D01*
X125060884Y-83224823D01*
X125052667Y-83307497D01*
X125108259Y-83467535D01*
X125252387Y-83701127D01*
X125451078Y-83964929D01*
X125670358Y-84215595D01*
X125876255Y-84409781D01*
X125967209Y-84474316D01*
X126396035Y-84672930D01*
X126879132Y-84785373D01*
X127449995Y-84816350D01*
X128105152Y-84774494D01*
G37*
X128105152Y-84774494D02*
X128503669Y-84724978D01*
X128802275Y-84672721D01*
X128987505Y-84622894D01*
X129045891Y-84580664D01*
X128963969Y-84551204D01*
X128728270Y-84539682D01*
X128716828Y-84539667D01*
X128401655Y-84539667D01*
X128610994Y-84396408D01*
X128834109Y-84215734D01*
X128930795Y-84051186D01*
X128941596Y-83947000D01*
X128909556Y-83895677D01*
X128815654Y-83996211D01*
X128805565Y-84010500D01*
X128686504Y-84150865D01*
X128607747Y-84201000D01*
X128576622Y-84123274D01*
X128553639Y-83917763D01*
X128543070Y-83625975D01*
X128542815Y-83570013D01*
X128510245Y-82949813D01*
X128415449Y-82444048D01*
X128262790Y-82070536D01*
X128135509Y-81907963D01*
X127898489Y-81775077D01*
X127564989Y-81693893D01*
X127201841Y-81671354D01*
X126875877Y-81714404D01*
X126746000Y-81763584D01*
X126582154Y-81903569D01*
X126409633Y-82132508D01*
X126340261Y-82253955D01*
X126340207Y-82254074D01*
X127789055Y-82254074D01*
X127799312Y-82177125D01*
X127932103Y-82091369D01*
X128089164Y-82117629D01*
X128145292Y-82172709D01*
X128143661Y-82302609D01*
X128094062Y-82388625D01*
X127993176Y-82472361D01*
X127890188Y-82417465D01*
X127865088Y-82393041D01*
X127789055Y-82254074D01*
X126340207Y-82254074D01*
X126248055Y-82456822D01*
X126192791Y-82655056D01*
X126167537Y-82898057D01*
X126165358Y-83235226D01*
X126170927Y-83460352D01*
X126177170Y-83735334D01*
X126322667Y-83735334D01*
X126351922Y-83571129D01*
X126455498Y-83537220D01*
X126470833Y-83539785D01*
X126592751Y-83635659D01*
X126619000Y-83735334D01*
X126554775Y-83885129D01*
X126470833Y-83930882D01*
X126358533Y-83908264D01*
X126322923Y-83758476D01*
X126322667Y-83735334D01*
X126177170Y-83735334D01*
X126178885Y-83810826D01*
X126180326Y-84087411D01*
X126175336Y-84253858D01*
X126168934Y-84285852D01*
X126006128Y-84216056D01*
X125797126Y-84029746D01*
X125577136Y-83758891D01*
X125557481Y-83730704D01*
X125414907Y-83509996D01*
X125342539Y-83333460D01*
X125325345Y-83132899D01*
X125348293Y-82840112D01*
X125352484Y-82800641D01*
X125375824Y-82522250D01*
X125379980Y-82325269D01*
X125364871Y-82253667D01*
X125318027Y-82327440D01*
X125248685Y-82513833D01*
X125172367Y-82760455D01*
X125104592Y-83014915D01*
X125060884Y-83224823D01*
X125052667Y-83307497D01*
X125108259Y-83467535D01*
X125252387Y-83701127D01*
X125451078Y-83964929D01*
X125670358Y-84215595D01*
X125876255Y-84409781D01*
X125967209Y-84474316D01*
X126396035Y-84672930D01*
X126879132Y-84785373D01*
X127449995Y-84816350D01*
X128105152Y-84774494D01*
G36*
X134640241Y-84407755D02*
G01*
X134936343Y-84386867D01*
X135168069Y-84340775D01*
X135387830Y-84260248D01*
X135565459Y-84177051D01*
X135973596Y-83908451D01*
X136294745Y-83562006D01*
X136501555Y-83174824D01*
X136567333Y-82817755D01*
X136548561Y-82616469D01*
X136502146Y-82511846D01*
X136489394Y-82507667D01*
X136418821Y-82434678D01*
X136356766Y-82258606D01*
X136355667Y-82253667D01*
X136291583Y-82075839D01*
X136214501Y-81999710D01*
X136212881Y-81999667D01*
X136166335Y-82062507D01*
X136185126Y-82147834D01*
X136225731Y-82311794D01*
X136267254Y-82576230D01*
X136290461Y-82781185D01*
X136310883Y-83052951D01*
X136290928Y-83230918D01*
X136205750Y-83380005D01*
X136030505Y-83565130D01*
X135966431Y-83627852D01*
X135596310Y-83989334D01*
X135540279Y-83212170D01*
X135493630Y-82751973D01*
X135423912Y-82412737D01*
X135320394Y-82146539D01*
X135288183Y-82086154D01*
X135030071Y-81746770D01*
X134716701Y-81518424D01*
X134380947Y-81414043D01*
X134055682Y-81446557D01*
X133883895Y-81533859D01*
X133667094Y-81769874D01*
X133525295Y-82127725D01*
X133510544Y-82232039D01*
X134727248Y-82232039D01*
X134786355Y-82130255D01*
X134941075Y-82014335D01*
X135070810Y-82027398D01*
X135127901Y-82163670D01*
X135128000Y-82171658D01*
X135066962Y-82335505D01*
X134928055Y-82409543D01*
X134777584Y-82360126D01*
X134770297Y-82353164D01*
X134727248Y-82232039D01*
X133510544Y-82232039D01*
X133455921Y-82618283D01*
X133456395Y-83252422D01*
X133460048Y-83321743D01*
X133469477Y-83488259D01*
X133637275Y-83488259D01*
X133645642Y-83380825D01*
X133746106Y-83356628D01*
X133881425Y-83419077D01*
X133933760Y-83470602D01*
X133990832Y-83641321D01*
X133977402Y-83724602D01*
X133881143Y-83837293D01*
X133761990Y-83853689D01*
X133690889Y-83769452D01*
X133688667Y-83742259D01*
X133658966Y-83556074D01*
X133637275Y-83488259D01*
X133469477Y-83488259D01*
X133510620Y-84214766D01*
X133295964Y-84074118D01*
X133115034Y-83972446D01*
X133058800Y-83985167D01*
X133128083Y-84111222D01*
X133197473Y-84201000D01*
X133285602Y-84297150D01*
X133386822Y-84358719D01*
X133538440Y-84393374D01*
X133777764Y-84408784D01*
X134142102Y-84412615D01*
X134227352Y-84412667D01*
X134640241Y-84407755D01*
G37*
X134640241Y-84407755D02*
X134936343Y-84386867D01*
X135168069Y-84340775D01*
X135387830Y-84260248D01*
X135565459Y-84177051D01*
X135973596Y-83908451D01*
X136294745Y-83562006D01*
X136501555Y-83174824D01*
X136567333Y-82817755D01*
X136548561Y-82616469D01*
X136502146Y-82511846D01*
X136489394Y-82507667D01*
X136418821Y-82434678D01*
X136356766Y-82258606D01*
X136355667Y-82253667D01*
X136291583Y-82075839D01*
X136214501Y-81999710D01*
X136212881Y-81999667D01*
X136166335Y-82062507D01*
X136185126Y-82147834D01*
X136225731Y-82311794D01*
X136267254Y-82576230D01*
X136290461Y-82781185D01*
X136310883Y-83052951D01*
X136290928Y-83230918D01*
X136205750Y-83380005D01*
X136030505Y-83565130D01*
X135966431Y-83627852D01*
X135596310Y-83989334D01*
X135540279Y-83212170D01*
X135493630Y-82751973D01*
X135423912Y-82412737D01*
X135320394Y-82146539D01*
X135288183Y-82086154D01*
X135030071Y-81746770D01*
X134716701Y-81518424D01*
X134380947Y-81414043D01*
X134055682Y-81446557D01*
X133883895Y-81533859D01*
X133667094Y-81769874D01*
X133525295Y-82127725D01*
X133510544Y-82232039D01*
X134727248Y-82232039D01*
X134786355Y-82130255D01*
X134941075Y-82014335D01*
X135070810Y-82027398D01*
X135127901Y-82163670D01*
X135128000Y-82171658D01*
X135066962Y-82335505D01*
X134928055Y-82409543D01*
X134777584Y-82360126D01*
X134770297Y-82353164D01*
X134727248Y-82232039D01*
X133510544Y-82232039D01*
X133455921Y-82618283D01*
X133456395Y-83252422D01*
X133460048Y-83321743D01*
X133469477Y-83488259D01*
X133637275Y-83488259D01*
X133645642Y-83380825D01*
X133746106Y-83356628D01*
X133881425Y-83419077D01*
X133933760Y-83470602D01*
X133990832Y-83641321D01*
X133977402Y-83724602D01*
X133881143Y-83837293D01*
X133761990Y-83853689D01*
X133690889Y-83769452D01*
X133688667Y-83742259D01*
X133658966Y-83556074D01*
X133637275Y-83488259D01*
X133469477Y-83488259D01*
X133510620Y-84214766D01*
X133295964Y-84074118D01*
X133115034Y-83972446D01*
X133058800Y-83985167D01*
X133128083Y-84111222D01*
X133197473Y-84201000D01*
X133285602Y-84297150D01*
X133386822Y-84358719D01*
X133538440Y-84393374D01*
X133777764Y-84408784D01*
X134142102Y-84412615D01*
X134227352Y-84412667D01*
X134640241Y-84407755D01*
G36*
X130711792Y-80398581D02*
G01*
X130725333Y-80301337D01*
X130688914Y-80166493D01*
X130640667Y-80137000D01*
X130577560Y-80209606D01*
X130556000Y-80353664D01*
X130582876Y-80497715D01*
X130640667Y-80518000D01*
X130711792Y-80398581D01*
G37*
X130711792Y-80398581D02*
X130725333Y-80301337D01*
X130688914Y-80166493D01*
X130640667Y-80137000D01*
X130577560Y-80209606D01*
X130556000Y-80353664D01*
X130582876Y-80497715D01*
X130640667Y-80518000D01*
X130711792Y-80398581D01*
G36*
X132298517Y-77732777D02*
G01*
X132296983Y-77686389D01*
X132149167Y-77607544D01*
X132118795Y-77595655D01*
X131847633Y-77513344D01*
X131569394Y-77461098D01*
X131330884Y-77443492D01*
X131178910Y-77465101D01*
X131148667Y-77500826D01*
X131221670Y-77570750D01*
X131381500Y-77597473D01*
X131621286Y-77621126D01*
X131902872Y-77678447D01*
X131939772Y-77688311D01*
X132173027Y-77736741D01*
X132298517Y-77732777D01*
G37*
X132298517Y-77732777D02*
X132296983Y-77686389D01*
X132149167Y-77607544D01*
X132118795Y-77595655D01*
X131847633Y-77513344D01*
X131569394Y-77461098D01*
X131330884Y-77443492D01*
X131178910Y-77465101D01*
X131148667Y-77500826D01*
X131221670Y-77570750D01*
X131381500Y-77597473D01*
X131621286Y-77621126D01*
X131902872Y-77678447D01*
X131939772Y-77688311D01*
X132173027Y-77736741D01*
X132298517Y-77732777D01*
G36*
X129204234Y-77687419D02*
G01*
X129264382Y-77674872D01*
X129577356Y-77622716D01*
X129892423Y-77599086D01*
X129899833Y-77599020D01*
X130103980Y-77577771D01*
X130212137Y-77527617D01*
X130217333Y-77512334D01*
X130141226Y-77458091D01*
X129939334Y-77439428D01*
X129651300Y-77455772D01*
X129316770Y-77506550D01*
X129220791Y-77526721D01*
X129012846Y-77589391D01*
X128905898Y-77654082D01*
X128902840Y-77678173D01*
X129005013Y-77706105D01*
X129204234Y-77687419D01*
G37*
X129204234Y-77687419D02*
X129264382Y-77674872D01*
X129577356Y-77622716D01*
X129892423Y-77599086D01*
X129899833Y-77599020D01*
X130103980Y-77577771D01*
X130212137Y-77527617D01*
X130217333Y-77512334D01*
X130141226Y-77458091D01*
X129939334Y-77439428D01*
X129651300Y-77455772D01*
X129316770Y-77506550D01*
X129220791Y-77526721D01*
X129012846Y-77589391D01*
X128905898Y-77654082D01*
X128902840Y-77678173D01*
X129005013Y-77706105D01*
X129204234Y-77687419D01*
G36*
X132458749Y-71295546D02*
G01*
X132757267Y-71275418D01*
X133036768Y-71241749D01*
X133249582Y-71199171D01*
X133348040Y-71152314D01*
X133350000Y-71145049D01*
X133271996Y-71112149D01*
X133060873Y-71105566D01*
X132762372Y-71125317D01*
X132281338Y-71151195D01*
X131950088Y-71119974D01*
X131772528Y-71032330D01*
X131741333Y-70949054D01*
X131695105Y-70837421D01*
X131656667Y-70823667D01*
X131574349Y-70876150D01*
X131572000Y-70892152D01*
X131643537Y-71051463D01*
X131817720Y-71200528D01*
X131995333Y-71276656D01*
X132188881Y-71297502D01*
X132458749Y-71295546D01*
G37*
X132458749Y-71295546D02*
X132757267Y-71275418D01*
X133036768Y-71241749D01*
X133249582Y-71199171D01*
X133348040Y-71152314D01*
X133350000Y-71145049D01*
X133271996Y-71112149D01*
X133060873Y-71105566D01*
X132762372Y-71125317D01*
X132281338Y-71151195D01*
X131950088Y-71119974D01*
X131772528Y-71032330D01*
X131741333Y-70949054D01*
X131695105Y-70837421D01*
X131656667Y-70823667D01*
X131574349Y-70876150D01*
X131572000Y-70892152D01*
X131643537Y-71051463D01*
X131817720Y-71200528D01*
X131995333Y-71276656D01*
X132188881Y-71297502D01*
X132458749Y-71295546D01*
G36*
X139784667Y-67733334D02*
G01*
X139742333Y-67691000D01*
X139700000Y-67733334D01*
X139742333Y-67775667D01*
X139784667Y-67733334D01*
G37*
X139784667Y-67733334D02*
X139742333Y-67691000D01*
X139700000Y-67733334D01*
X139742333Y-67775667D01*
X139784667Y-67733334D01*
G36*
X122851333Y-64262000D02*
G01*
X122809000Y-64219667D01*
X122766667Y-64262000D01*
X122809000Y-64304334D01*
X122851333Y-64262000D01*
G37*
X122851333Y-64262000D02*
X122809000Y-64219667D01*
X122766667Y-64262000D01*
X122809000Y-64304334D01*
X122851333Y-64262000D01*
G36*
X128947333Y-63838667D02*
G01*
X128905000Y-63796334D01*
X128862667Y-63838667D01*
X128905000Y-63881000D01*
X128947333Y-63838667D01*
G37*
X128947333Y-63838667D02*
X128905000Y-63796334D01*
X128862667Y-63838667D01*
X128905000Y-63881000D01*
X128947333Y-63838667D01*
G36*
X122822740Y-63986834D02*
G01*
X122833922Y-63813492D01*
X122822740Y-63775167D01*
X122791837Y-63764531D01*
X122780035Y-63881000D01*
X122793340Y-64001196D01*
X122822740Y-63986834D01*
G37*
X122822740Y-63986834D02*
X122833922Y-63813492D01*
X122822740Y-63775167D01*
X122791837Y-63764531D01*
X122780035Y-63881000D01*
X122793340Y-64001196D01*
X122822740Y-63986834D01*
G36*
X135353778Y-63683445D02*
G01*
X135363911Y-63582965D01*
X135353778Y-63570556D01*
X135303443Y-63582178D01*
X135297333Y-63627000D01*
X135328311Y-63696691D01*
X135353778Y-63683445D01*
G37*
X135353778Y-63683445D02*
X135363911Y-63582965D01*
X135353778Y-63570556D01*
X135303443Y-63582178D01*
X135297333Y-63627000D01*
X135328311Y-63696691D01*
X135353778Y-63683445D01*
G36*
X133688667Y-63500000D02*
G01*
X133646333Y-63457667D01*
X133604000Y-63500000D01*
X133646333Y-63542334D01*
X133688667Y-63500000D01*
G37*
X133688667Y-63500000D02*
X133646333Y-63457667D01*
X133604000Y-63500000D01*
X133646333Y-63542334D01*
X133688667Y-63500000D01*
G36*
X120734667Y-63415334D02*
G01*
X120692333Y-63373000D01*
X120650000Y-63415334D01*
X120692333Y-63457667D01*
X120734667Y-63415334D01*
G37*
X120734667Y-63415334D02*
X120692333Y-63373000D01*
X120650000Y-63415334D01*
X120692333Y-63457667D01*
X120734667Y-63415334D01*
G36*
X136037898Y-63175002D02*
G01*
X136553560Y-63165143D01*
X136981921Y-63147227D01*
X137299686Y-63122802D01*
X137483558Y-63093414D01*
X137518537Y-63076667D01*
X137562455Y-62938257D01*
X137582002Y-62721991D01*
X137582037Y-62716834D01*
X137583333Y-62441667D01*
X136842500Y-62459078D01*
X136374637Y-62471510D01*
X135848331Y-62487655D01*
X135374323Y-62504106D01*
X135356889Y-62504765D01*
X134959644Y-62528269D01*
X134706852Y-62572562D01*
X134643020Y-62611000D01*
X134704667Y-62611000D01*
X136059333Y-62611000D01*
X136565332Y-62611628D01*
X136926427Y-62615800D01*
X137167050Y-62626954D01*
X137311632Y-62648528D01*
X137384602Y-62683958D01*
X137410391Y-62736680D01*
X137413454Y-62801500D01*
X137408297Y-62872759D01*
X137377003Y-62924113D01*
X137295123Y-62959446D01*
X137138211Y-62982640D01*
X136881821Y-62997580D01*
X136501504Y-63008147D01*
X136058787Y-63016659D01*
X134704667Y-63041318D01*
X134704667Y-62611000D01*
X134643020Y-62611000D01*
X134573727Y-62652726D01*
X134535486Y-62783845D01*
X134567343Y-62981001D01*
X134568267Y-62984691D01*
X134619462Y-63188670D01*
X136037898Y-63175002D01*
G37*
X136037898Y-63175002D02*
X136553560Y-63165143D01*
X136981921Y-63147227D01*
X137299686Y-63122802D01*
X137483558Y-63093414D01*
X137518537Y-63076667D01*
X137562455Y-62938257D01*
X137582002Y-62721991D01*
X137582037Y-62716834D01*
X137583333Y-62441667D01*
X136842500Y-62459078D01*
X136374637Y-62471510D01*
X135848331Y-62487655D01*
X135374323Y-62504106D01*
X135356889Y-62504765D01*
X134959644Y-62528269D01*
X134706852Y-62572562D01*
X134643020Y-62611000D01*
X134704667Y-62611000D01*
X136059333Y-62611000D01*
X136565332Y-62611628D01*
X136926427Y-62615800D01*
X137167050Y-62626954D01*
X137311632Y-62648528D01*
X137384602Y-62683958D01*
X137410391Y-62736680D01*
X137413454Y-62801500D01*
X137408297Y-62872759D01*
X137377003Y-62924113D01*
X137295123Y-62959446D01*
X137138211Y-62982640D01*
X136881821Y-62997580D01*
X136501504Y-63008147D01*
X136058787Y-63016659D01*
X134704667Y-63041318D01*
X134704667Y-62611000D01*
X134643020Y-62611000D01*
X134573727Y-62652726D01*
X134535486Y-62783845D01*
X134567343Y-62981001D01*
X134568267Y-62984691D01*
X134619462Y-63188670D01*
X136037898Y-63175002D01*
G36*
X121496667Y-61806667D02*
G01*
X121454333Y-61764334D01*
X121412000Y-61806667D01*
X121454333Y-61849000D01*
X121496667Y-61806667D01*
G37*
X121496667Y-61806667D02*
X121454333Y-61764334D01*
X121412000Y-61806667D01*
X121454333Y-61849000D01*
X121496667Y-61806667D01*
G36*
X131487333Y-56642000D02*
G01*
X131445000Y-56599667D01*
X131402667Y-56642000D01*
X131445000Y-56684334D01*
X131487333Y-56642000D01*
G37*
X131487333Y-56642000D02*
X131445000Y-56599667D01*
X131402667Y-56642000D01*
X131445000Y-56684334D01*
X131487333Y-56642000D01*
G36*
X132334000Y-56218667D02*
G01*
X132291667Y-56176334D01*
X132249333Y-56218667D01*
X132291667Y-56261000D01*
X132334000Y-56218667D01*
G37*
X132334000Y-56218667D02*
X132291667Y-56176334D01*
X132249333Y-56218667D01*
X132291667Y-56261000D01*
X132334000Y-56218667D01*
G36*
X130725333Y-55202667D02*
G01*
X130683000Y-55160334D01*
X130640667Y-55202667D01*
X130683000Y-55245000D01*
X130725333Y-55202667D01*
G37*
X130725333Y-55202667D02*
X130683000Y-55160334D01*
X130640667Y-55202667D01*
X130683000Y-55245000D01*
X130725333Y-55202667D01*
G36*
X132926667Y-54525334D02*
G01*
X132884333Y-54483000D01*
X132842000Y-54525334D01*
X132884333Y-54567667D01*
X132926667Y-54525334D01*
G37*
X132926667Y-54525334D02*
X132884333Y-54483000D01*
X132842000Y-54525334D01*
X132884333Y-54567667D01*
X132926667Y-54525334D01*
G36*
X133011333Y-54356000D02*
G01*
X132969000Y-54313667D01*
X132926667Y-54356000D01*
X132969000Y-54398334D01*
X133011333Y-54356000D01*
G37*
X133011333Y-54356000D02*
X132969000Y-54313667D01*
X132926667Y-54356000D01*
X132969000Y-54398334D01*
X133011333Y-54356000D01*
G36*
X124206000Y-54186667D02*
G01*
X124163667Y-54144334D01*
X124121333Y-54186667D01*
X124163667Y-54229000D01*
X124206000Y-54186667D01*
G37*
X124206000Y-54186667D02*
X124163667Y-54144334D01*
X124121333Y-54186667D01*
X124163667Y-54229000D01*
X124206000Y-54186667D01*
G36*
X125532444Y-53015445D02*
G01*
X125542577Y-52914965D01*
X125532444Y-52902556D01*
X125482110Y-52914178D01*
X125476000Y-52959000D01*
X125506978Y-53028691D01*
X125532444Y-53015445D01*
G37*
X125532444Y-53015445D02*
X125542577Y-52914965D01*
X125532444Y-52902556D01*
X125482110Y-52914178D01*
X125476000Y-52959000D01*
X125506978Y-53028691D01*
X125532444Y-53015445D01*
G36*
X124601111Y-50136778D02*
G01*
X124611244Y-50036299D01*
X124601111Y-50023889D01*
X124550777Y-50035512D01*
X124544667Y-50080334D01*
X124575645Y-50150024D01*
X124601111Y-50136778D01*
G37*
X124601111Y-50136778D02*
X124611244Y-50036299D01*
X124601111Y-50023889D01*
X124550777Y-50035512D01*
X124544667Y-50080334D01*
X124575645Y-50150024D01*
X124601111Y-50136778D01*
G36*
X114130667Y-52408667D02*
G01*
X114088333Y-52366334D01*
X114046000Y-52408667D01*
X114088333Y-52451000D01*
X114130667Y-52408667D01*
G37*
X114130667Y-52408667D02*
X114088333Y-52366334D01*
X114046000Y-52408667D01*
X114088333Y-52451000D01*
X114130667Y-52408667D01*
G36*
X132446666Y-94879104D02*
G01*
X133230578Y-94714404D01*
X134099006Y-94461945D01*
X134196667Y-94430352D01*
X134592759Y-94294254D01*
X134974652Y-94151178D01*
X135282370Y-94024046D01*
X135383106Y-93976927D01*
X135629072Y-93833128D01*
X135958892Y-93612747D01*
X136327322Y-93348779D01*
X136689116Y-93074220D01*
X136999030Y-92822063D01*
X137143449Y-92693179D01*
X137303085Y-92544274D01*
X137520505Y-92343652D01*
X137621482Y-92251056D01*
X138108311Y-91745019D01*
X138603234Y-91122461D01*
X139073873Y-90431286D01*
X139487849Y-89719398D01*
X139812784Y-89034701D01*
X139838686Y-88970698D01*
X140101306Y-88218930D01*
X140292998Y-87447726D01*
X140419840Y-86619522D01*
X140487907Y-85696754D01*
X140504129Y-84857315D01*
X140499748Y-84311169D01*
X140487078Y-83871234D01*
X140467070Y-83555077D01*
X140440675Y-83380267D01*
X140422521Y-83350542D01*
X140368237Y-83425233D01*
X140295872Y-83627465D01*
X140218603Y-83918359D01*
X140196118Y-84018580D01*
X140113991Y-84359418D01*
X140027415Y-84653500D01*
X139952714Y-84846557D01*
X139940403Y-84868643D01*
X139886945Y-84934954D01*
X139843020Y-84922542D01*
X139799522Y-84808672D01*
X139747345Y-84570606D01*
X139685655Y-84232602D01*
X139593487Y-83777404D01*
X139475956Y-83289714D01*
X139354667Y-82857374D01*
X139323152Y-82758734D01*
X139249425Y-82528034D01*
X139194504Y-82322397D01*
X139155725Y-82111606D01*
X139130422Y-81865444D01*
X139115932Y-81553695D01*
X139109590Y-81146141D01*
X139108731Y-80612566D01*
X139109389Y-80334756D01*
X139108308Y-79787347D01*
X139102326Y-79282116D01*
X139092192Y-78849246D01*
X139078658Y-78518924D01*
X139062475Y-78321334D01*
X139058769Y-78299329D01*
X139042494Y-78140529D01*
X139081299Y-77993265D01*
X139196034Y-77812825D01*
X139404333Y-77558262D01*
X139683648Y-77267052D01*
X140048069Y-76937707D01*
X140459862Y-76599422D01*
X140881294Y-76281392D01*
X141274631Y-76012814D01*
X141602139Y-75822883D01*
X141710833Y-75773648D01*
X141935817Y-75664952D01*
X142058965Y-75566503D01*
X142061566Y-75499684D01*
X141964833Y-75483354D01*
X141711093Y-75498002D01*
X141376533Y-75527162D01*
X141006584Y-75565630D01*
X140646678Y-75608198D01*
X140342248Y-75649663D01*
X140138725Y-75684818D01*
X140089408Y-75698240D01*
X140041556Y-75679067D01*
X140090230Y-75555576D01*
X140219331Y-75349896D01*
X140412756Y-75084154D01*
X140654404Y-74780478D01*
X140928173Y-74460995D01*
X141216412Y-74149439D01*
X141983820Y-73401555D01*
X142773250Y-72731757D01*
X143624490Y-72110180D01*
X144577325Y-71506962D01*
X145251296Y-71120917D01*
X145936179Y-70761988D01*
X146574602Y-70476717D01*
X147212761Y-70250123D01*
X147896850Y-70067227D01*
X148673067Y-69913045D01*
X149268080Y-69818289D01*
X150044276Y-69737076D01*
X150836215Y-69714551D01*
X151592615Y-69749465D01*
X152262193Y-69840571D01*
X152512768Y-69897266D01*
X153234233Y-70101583D01*
X153908216Y-70328478D01*
X154566907Y-70592596D01*
X155242497Y-70908581D01*
X155967176Y-71291077D01*
X156773132Y-71754729D01*
X157317473Y-72083079D01*
X158003804Y-72527579D01*
X158596013Y-72971984D01*
X159160894Y-73468917D01*
X159513680Y-73813364D01*
X159698794Y-73977011D01*
X159837509Y-74058165D01*
X159886253Y-74051917D01*
X159883332Y-73923580D01*
X159808438Y-73691262D01*
X159679517Y-73394467D01*
X159514512Y-73072704D01*
X159331366Y-72765478D01*
X159243138Y-72635966D01*
X159071495Y-72431873D01*
X158793188Y-72141432D01*
X158431998Y-71786268D01*
X158011703Y-71388006D01*
X157556082Y-70968275D01*
X157088914Y-70548699D01*
X156633978Y-70150905D01*
X156215052Y-69796520D01*
X155855917Y-69507168D01*
X155580350Y-69304478D01*
X155579097Y-69303634D01*
X154762940Y-68769454D01*
X154060858Y-68341604D01*
X153476954Y-68022484D01*
X153063666Y-67833317D01*
X152539076Y-67633080D01*
X152030650Y-67455124D01*
X151583722Y-67314516D01*
X151243624Y-67226325D01*
X151227465Y-67223001D01*
X151059337Y-67175123D01*
X151021665Y-67118807D01*
X151123786Y-67045856D01*
X151375039Y-66948071D01*
X151638000Y-66862532D01*
X151978790Y-66759954D01*
X152274562Y-66683770D01*
X152568397Y-66627023D01*
X152903374Y-66582752D01*
X153322574Y-66544001D01*
X153851059Y-66505058D01*
X154886367Y-66468592D01*
X155864082Y-66503705D01*
X156752828Y-66607841D01*
X157521228Y-66778444D01*
X157636041Y-66813367D01*
X158333402Y-67076847D01*
X159112378Y-67443167D01*
X159938777Y-67891626D01*
X160778409Y-68401524D01*
X161597079Y-68952161D01*
X162360597Y-69522835D01*
X162998292Y-70059789D01*
X163326159Y-70344237D01*
X163549871Y-70508513D01*
X163680180Y-70556820D01*
X163727844Y-70493362D01*
X163707211Y-70336834D01*
X163620081Y-70065991D01*
X163473323Y-69743990D01*
X163255142Y-69349161D01*
X162953745Y-68859833D01*
X162647789Y-68390300D01*
X162108727Y-67656391D01*
X161444391Y-66881718D01*
X160684103Y-66094603D01*
X159857188Y-65323369D01*
X158992968Y-64596339D01*
X158120768Y-63941837D01*
X157848728Y-63754995D01*
X157573864Y-63576855D01*
X157349788Y-63443043D01*
X157215439Y-63376473D01*
X157199544Y-63373000D01*
X157100843Y-63332234D01*
X156901979Y-63225132D01*
X156640647Y-63074490D01*
X156354543Y-62903105D01*
X156081362Y-62733773D01*
X155858801Y-62589290D01*
X155724555Y-62492452D01*
X155702000Y-62467374D01*
X155776860Y-62451216D01*
X155973587Y-62470923D01*
X156250401Y-62518845D01*
X156565523Y-62587334D01*
X156877173Y-62668737D01*
X156993627Y-62703874D01*
X157736994Y-62994491D01*
X158480897Y-63383876D01*
X159058547Y-63766660D01*
X159377812Y-63991264D01*
X159579224Y-64103340D01*
X159664536Y-64110222D01*
X159635506Y-64019246D01*
X159493889Y-63837746D01*
X159241440Y-63573058D01*
X158944853Y-63291649D01*
X158253812Y-62717034D01*
X157436948Y-62135106D01*
X156534953Y-61569318D01*
X155588520Y-61043127D01*
X154638340Y-60579988D01*
X153725106Y-60203356D01*
X153373667Y-60080331D01*
X152439579Y-59804799D01*
X151479771Y-59580841D01*
X150542516Y-59417478D01*
X149676087Y-59323736D01*
X149225000Y-59304820D01*
X148378333Y-59294732D01*
X148747536Y-59125244D01*
X148994986Y-59022161D01*
X149386207Y-58872937D01*
X149903919Y-58683745D01*
X150530846Y-58460763D01*
X151249709Y-58210167D01*
X152043230Y-57938132D01*
X152527000Y-57774268D01*
X153273059Y-57497680D01*
X154029226Y-57171641D01*
X154771614Y-56810025D01*
X155476339Y-56426702D01*
X156119516Y-56035547D01*
X156677257Y-55650432D01*
X157125679Y-55285228D01*
X157440895Y-54953810D01*
X157484226Y-54895133D01*
X157630869Y-54700169D01*
X157748771Y-54568412D01*
X157769802Y-54551104D01*
X157839171Y-54472197D01*
X157775328Y-54437435D01*
X157609389Y-54450103D01*
X157382195Y-54510180D01*
X157069790Y-54609038D01*
X156754407Y-54693121D01*
X156420844Y-54763265D01*
X156053901Y-54820305D01*
X155638380Y-54865076D01*
X155159080Y-54898412D01*
X154600801Y-54921150D01*
X153948344Y-54934122D01*
X153186509Y-54938166D01*
X152300095Y-54934115D01*
X151273904Y-54922804D01*
X150170400Y-54906334D01*
X147559801Y-54864000D01*
X147971366Y-54683420D01*
X148512033Y-54499004D01*
X149190615Y-54353839D01*
X149979552Y-54251234D01*
X150851286Y-54194500D01*
X151778256Y-54186945D01*
X152045580Y-54194150D01*
X152518899Y-54205321D01*
X152833919Y-54199849D01*
X153000908Y-54177161D01*
X153031731Y-54139045D01*
X152897399Y-54026314D01*
X152621983Y-53876804D01*
X152227447Y-53699437D01*
X151735756Y-53503135D01*
X151168875Y-53296820D01*
X150548770Y-53089415D01*
X150116753Y-52954977D01*
X149879257Y-52886678D01*
X149668267Y-52838536D01*
X149450083Y-52808494D01*
X149191006Y-52794499D01*
X148857338Y-52794495D01*
X148415377Y-52806426D01*
X147957753Y-52823318D01*
X147432070Y-52847491D01*
X146933942Y-52877341D01*
X146500853Y-52910106D01*
X146170289Y-52943023D01*
X146007667Y-52967040D01*
X145659855Y-53032986D01*
X145271879Y-53101547D01*
X145118667Y-53127056D01*
X144767632Y-53184388D01*
X144359472Y-53251706D01*
X144102667Y-53294400D01*
X143827288Y-53353930D01*
X143435379Y-53456677D01*
X142970404Y-53590394D01*
X142475824Y-53742834D01*
X142240000Y-53819281D01*
X141713671Y-53997125D01*
X141310774Y-54146172D01*
X140992078Y-54284677D01*
X140718348Y-54430894D01*
X140450352Y-54603079D01*
X140250333Y-54745068D01*
X139931301Y-54971915D01*
X139707377Y-55114019D01*
X139579025Y-55163541D01*
X139546709Y-55112646D01*
X139610892Y-54953496D01*
X139772038Y-54678253D01*
X140030610Y-54279081D01*
X140301848Y-53874253D01*
X140707275Y-53341240D01*
X141231398Y-52758418D01*
X141843978Y-52156553D01*
X142514776Y-51566411D01*
X142790333Y-51342346D01*
X143104442Y-51107181D01*
X143467529Y-50857662D01*
X143847326Y-50613382D01*
X144211564Y-50393933D01*
X144527975Y-50218907D01*
X144764289Y-50107898D01*
X144872108Y-50078356D01*
X145031668Y-50033963D01*
X145262307Y-49924951D01*
X145511184Y-49782294D01*
X145725454Y-49636965D01*
X145852274Y-49519937D01*
X145864921Y-49496442D01*
X145857077Y-49431147D01*
X145755052Y-49409662D01*
X145526909Y-49427474D01*
X145447353Y-49437418D01*
X144461114Y-49644277D01*
X143454330Y-50006404D01*
X142444960Y-50514171D01*
X141450968Y-51157949D01*
X140490313Y-51928109D01*
X140062662Y-52324000D01*
X139770594Y-52601588D01*
X139527670Y-52822759D01*
X139356170Y-52967962D01*
X139278371Y-53017643D01*
X139276017Y-53014365D01*
X139298446Y-52898355D01*
X139355336Y-52677475D01*
X139404533Y-52502884D01*
X139488027Y-52184578D01*
X139579088Y-51790246D01*
X139650271Y-51444425D01*
X139707853Y-51123511D01*
X139727932Y-50923278D01*
X139708014Y-50798733D01*
X139645608Y-50704883D01*
X139607071Y-50664739D01*
X139487750Y-50531158D01*
X139446000Y-50460466D01*
X139490979Y-50373973D01*
X139608175Y-50191611D01*
X139751336Y-49982859D01*
X140491089Y-49015279D01*
X141269503Y-48156399D01*
X141804753Y-47652761D01*
X142107493Y-47382681D01*
X142370200Y-47138359D01*
X142561533Y-46949549D01*
X142643718Y-46856259D01*
X142709255Y-46736242D01*
X142644427Y-46696738D01*
X142549262Y-46693667D01*
X142325456Y-46743025D01*
X141995315Y-46880037D01*
X141585945Y-47088108D01*
X141124451Y-47350645D01*
X140637938Y-47651053D01*
X140153511Y-47972739D01*
X139698277Y-48299109D01*
X139299339Y-48613569D01*
X139046817Y-48837870D01*
X138828576Y-49028575D01*
X138700491Y-49094282D01*
X138651637Y-49057867D01*
X138615049Y-48920622D01*
X138553610Y-48668797D01*
X138479624Y-48353019D01*
X138467991Y-48302334D01*
X138389697Y-47980453D01*
X138316593Y-47714482D01*
X138262853Y-47555457D01*
X138257405Y-47544106D01*
X138266688Y-47409099D01*
X138360164Y-47140323D01*
X138533682Y-46748472D01*
X138692067Y-46423575D01*
X138877556Y-46050414D01*
X139031893Y-45733962D01*
X139140917Y-45503697D01*
X139190471Y-45389101D01*
X139192000Y-45382636D01*
X139109265Y-45376410D01*
X138868790Y-45370450D01*
X138482168Y-45364818D01*
X137960990Y-45359576D01*
X137316850Y-45354786D01*
X136561340Y-45350512D01*
X135706054Y-45346816D01*
X134762584Y-45343760D01*
X133742522Y-45341407D01*
X132657461Y-45339819D01*
X131518995Y-45339059D01*
X131097275Y-45339000D01*
X129698515Y-45339400D01*
X128460643Y-45340672D01*
X127375211Y-45342927D01*
X126433777Y-45346277D01*
X125627893Y-45350832D01*
X124949116Y-45356704D01*
X124389001Y-45364004D01*
X123939101Y-45372843D01*
X123590973Y-45383331D01*
X123336171Y-45395580D01*
X123166250Y-45409701D01*
X123072766Y-45425804D01*
X123047272Y-45444002D01*
X123047572Y-45444834D01*
X123325852Y-46114438D01*
X123530024Y-46640511D01*
X123659263Y-47020771D01*
X123712742Y-47252937D01*
X123714212Y-47286334D01*
X123691344Y-47458651D01*
X123632811Y-47761826D01*
X123546451Y-48163067D01*
X123440105Y-48629584D01*
X123321611Y-49128585D01*
X123198809Y-49627278D01*
X123079539Y-50092871D01*
X122971640Y-50492575D01*
X122882950Y-50793597D01*
X122856845Y-50872616D01*
X122750993Y-51244977D01*
X122663487Y-51669755D01*
X122628012Y-51923317D01*
X122581922Y-52240207D01*
X122501493Y-52505160D01*
X122361515Y-52782504D01*
X122175346Y-53078368D01*
X121540475Y-54120992D01*
X121043658Y-55120219D01*
X120670796Y-56106972D01*
X120514127Y-56669499D01*
X122302226Y-56669499D01*
X122303683Y-56580362D01*
X122325148Y-56354306D01*
X122363239Y-56022122D01*
X122414572Y-55614599D01*
X122435470Y-55456667D01*
X122506106Y-54886887D01*
X122576916Y-54242980D01*
X122639093Y-53608971D01*
X122679499Y-53128334D01*
X122724688Y-52543169D01*
X122764830Y-52092596D01*
X122805318Y-51742198D01*
X122851544Y-51457556D01*
X122908902Y-51204251D01*
X122982786Y-50947865D01*
X123057166Y-50718159D01*
X123157762Y-50386582D01*
X123276425Y-49951200D01*
X123396787Y-49474004D01*
X123482659Y-49106667D01*
X123579759Y-48682406D01*
X123673072Y-48291082D01*
X123751615Y-47977797D01*
X123802087Y-47795012D01*
X123893989Y-47499357D01*
X124059272Y-47879679D01*
X124167684Y-48223285D01*
X124213428Y-48637297D01*
X124215576Y-48862202D01*
X137583333Y-48862202D01*
X137600868Y-48523349D01*
X137667404Y-48273730D01*
X137803834Y-48035594D01*
X137806515Y-48031718D01*
X137953185Y-47840018D01*
X138068072Y-47724725D01*
X138099585Y-47709667D01*
X138161849Y-47783390D01*
X138237143Y-47969273D01*
X138267116Y-48069500D01*
X138317977Y-48280936D01*
X138381621Y-48579528D01*
X138450956Y-48927210D01*
X138518891Y-49285914D01*
X138578336Y-49617576D01*
X138622198Y-49884126D01*
X138643387Y-50047500D01*
X138641702Y-50080334D01*
X138532778Y-50037742D01*
X138335343Y-49930746D01*
X138100668Y-49790519D01*
X137880025Y-49648232D01*
X137724686Y-49535057D01*
X137689167Y-49501220D01*
X137631674Y-49348713D01*
X137593298Y-49090050D01*
X137583333Y-48862202D01*
X124215576Y-48862202D01*
X124215817Y-48887406D01*
X124205415Y-49197649D01*
X124186030Y-49437130D01*
X124161596Y-49559676D01*
X124158129Y-49564739D01*
X124051059Y-49624645D01*
X123857038Y-49702717D01*
X123840090Y-49708704D01*
X123649317Y-49805578D01*
X123587356Y-49940096D01*
X123588671Y-50005037D01*
X123603438Y-50168714D01*
X123604167Y-50176669D01*
X123746997Y-50176669D01*
X123756437Y-49994573D01*
X123801196Y-49899246D01*
X123840890Y-49874285D01*
X124019430Y-49828983D01*
X124339194Y-49771199D01*
X124772821Y-49704372D01*
X125292953Y-49631938D01*
X125872229Y-49557334D01*
X126483289Y-49483999D01*
X127098775Y-49415369D01*
X127691325Y-49354881D01*
X128233581Y-49305972D01*
X128566333Y-49280622D01*
X129275801Y-49232982D01*
X129844099Y-49198144D01*
X130298875Y-49175724D01*
X130667777Y-49165337D01*
X130978455Y-49166600D01*
X131258557Y-49179128D01*
X131535732Y-49202537D01*
X131828221Y-49235311D01*
X132179449Y-49284034D01*
X132481350Y-49337556D01*
X132682146Y-49386339D01*
X132715000Y-49398657D01*
X132839613Y-49446010D01*
X133101053Y-49538688D01*
X133475498Y-49668480D01*
X133939128Y-49827173D01*
X134468121Y-50006559D01*
X134916333Y-50157423D01*
X135708799Y-50418426D01*
X136023801Y-50516120D01*
X137598486Y-50516120D01*
X137600126Y-50328347D01*
X137649540Y-50281291D01*
X137656970Y-50285184D01*
X137706211Y-50254302D01*
X137699520Y-50074852D01*
X137693674Y-50036407D01*
X137667826Y-49839625D01*
X137698940Y-49776351D01*
X137816257Y-49813047D01*
X137868022Y-49836434D01*
X138028897Y-49935987D01*
X138091333Y-50023369D01*
X138128300Y-50067242D01*
X138145276Y-50054613D01*
X138241543Y-50065933D01*
X138419863Y-50162430D01*
X138636469Y-50315948D01*
X138847599Y-50498333D01*
X138871436Y-50521770D01*
X139032208Y-50617376D01*
X139147746Y-50619688D01*
X139257527Y-50624685D01*
X139276667Y-50668939D01*
X139325093Y-50730055D01*
X139355483Y-50718950D01*
X139463873Y-50730186D01*
X139489232Y-50759122D01*
X139444595Y-50800340D01*
X139244998Y-50823546D01*
X138885265Y-50829113D01*
X138584916Y-50824003D01*
X137625667Y-50800000D01*
X137598486Y-50516120D01*
X136023801Y-50516120D01*
X136369794Y-50623425D01*
X136925593Y-50777984D01*
X137402467Y-50887670D01*
X137826691Y-50958048D01*
X138224535Y-50994686D01*
X138622274Y-51003147D01*
X138878233Y-50996768D01*
X139583736Y-50969334D01*
X139490876Y-51431798D01*
X139430616Y-51697707D01*
X139361472Y-51844597D01*
X139245281Y-51920233D01*
X139062175Y-51968356D01*
X138776214Y-52001672D01*
X138363608Y-52010724D01*
X137864987Y-51997559D01*
X137320984Y-51964224D01*
X136772229Y-51912766D01*
X136259353Y-51845232D01*
X136101667Y-51819200D01*
X135672963Y-51732872D01*
X135165940Y-51614126D01*
X134663326Y-51482862D01*
X134450667Y-51422064D01*
X134009181Y-51304332D01*
X133552389Y-51204191D01*
X133148743Y-51135764D01*
X132969000Y-51116386D01*
X132629847Y-51077161D01*
X132325714Y-51016118D01*
X132134898Y-50951643D01*
X131888186Y-50870303D01*
X131493923Y-50795744D01*
X130973819Y-50729821D01*
X130349584Y-50674393D01*
X129642929Y-50631317D01*
X128875565Y-50602451D01*
X128069200Y-50589652D01*
X127898442Y-50589180D01*
X127285210Y-50589802D01*
X126810001Y-50594169D01*
X126441506Y-50605085D01*
X126148417Y-50625352D01*
X125899427Y-50657773D01*
X125663227Y-50705151D01*
X125408509Y-50770289D01*
X125189109Y-50831738D01*
X124699428Y-50971170D01*
X124349028Y-51067727D01*
X124113733Y-51122740D01*
X123969362Y-51137543D01*
X123891739Y-51113466D01*
X123856684Y-51051844D01*
X123840018Y-50954008D01*
X123833302Y-50906455D01*
X123772683Y-50471856D01*
X123746997Y-50176669D01*
X123604167Y-50176669D01*
X123629974Y-50457936D01*
X123664316Y-50829646D01*
X123696934Y-51181000D01*
X123762628Y-51935923D01*
X123831820Y-52820457D01*
X123901618Y-53795002D01*
X123969127Y-54819956D01*
X124003201Y-55373600D01*
X124059178Y-56306533D01*
X123193476Y-56501765D01*
X122834749Y-56579697D01*
X122543415Y-56637376D01*
X122354887Y-56668137D01*
X122302226Y-56669499D01*
X120514127Y-56669499D01*
X120476727Y-56803782D01*
X120399397Y-57195615D01*
X120345820Y-57606646D01*
X120317270Y-58001077D01*
X120315016Y-58343110D01*
X120340332Y-58596948D01*
X120394488Y-58726794D01*
X120408141Y-58734492D01*
X120459259Y-58803950D01*
X120399031Y-58964669D01*
X120398376Y-58965893D01*
X120358245Y-59089334D01*
X120334145Y-59293564D01*
X120325472Y-59600458D01*
X120331623Y-60031895D01*
X120351994Y-60609750D01*
X120352609Y-60624556D01*
X120369333Y-61117205D01*
X120377317Y-61561440D01*
X120376536Y-61925145D01*
X120366966Y-62176204D01*
X120353844Y-62271776D01*
X120312953Y-62364274D01*
X120256129Y-62366527D01*
X120156473Y-62261631D01*
X119998394Y-62048399D01*
X119799643Y-61747523D01*
X119582223Y-61381148D01*
X119423581Y-61087000D01*
X119233425Y-60712533D01*
X119026717Y-60306537D01*
X118884877Y-60028667D01*
X118741055Y-59739526D01*
X118553772Y-59351939D01*
X118349717Y-58921576D01*
X118194844Y-58589334D01*
X118019812Y-58212908D01*
X117864054Y-57882403D01*
X117744854Y-57634204D01*
X117680569Y-57506625D01*
X117617558Y-57358285D01*
X117523564Y-57096314D01*
X117415793Y-56769415D01*
X117381487Y-56659959D01*
X117265847Y-56289993D01*
X117153554Y-55937253D01*
X117065447Y-55667061D01*
X117051656Y-55626000D01*
X116889501Y-55096967D01*
X116758415Y-54570022D01*
X116666045Y-54084853D01*
X116620039Y-53681147D01*
X116625455Y-53414345D01*
X116639517Y-53177188D01*
X116607740Y-53054687D01*
X116549149Y-53063609D01*
X116482766Y-53220726D01*
X116469082Y-53276500D01*
X116446395Y-53444996D01*
X116420560Y-53744000D01*
X116394405Y-54134795D01*
X116378110Y-54440667D01*
X116501333Y-54440667D01*
X116543667Y-54398334D01*
X116586000Y-54440667D01*
X116543667Y-54483000D01*
X116501333Y-54440667D01*
X116378110Y-54440667D01*
X116370758Y-54578661D01*
X116365514Y-54694667D01*
X116347769Y-55165918D01*
X116344134Y-55540085D01*
X116358956Y-55867741D01*
X116396584Y-56199455D01*
X116461365Y-56585799D01*
X116557647Y-57077345D01*
X116579706Y-57186043D01*
X116689937Y-57698882D01*
X116810494Y-58212067D01*
X116928992Y-58675723D01*
X117033043Y-59039976D01*
X117063290Y-59133377D01*
X117190247Y-59488148D01*
X117351798Y-59911756D01*
X117533789Y-60370073D01*
X117722071Y-60828968D01*
X117902491Y-61254314D01*
X118060898Y-61611981D01*
X118183140Y-61867841D01*
X118237160Y-61964398D01*
X118326402Y-62133982D01*
X118446339Y-62404506D01*
X118570769Y-62716793D01*
X118689790Y-63022708D01*
X118796896Y-63280192D01*
X118869312Y-63434546D01*
X118870395Y-63436460D01*
X118938940Y-63581594D01*
X119047059Y-63837576D01*
X119174813Y-64156725D01*
X119215657Y-64262000D01*
X119392987Y-64687107D01*
X119608483Y-65153593D01*
X119815851Y-65561296D01*
X119818129Y-65565474D01*
X120159887Y-66191615D01*
X120172110Y-67343474D01*
X120174040Y-67490392D01*
X120274156Y-67490392D01*
X120293776Y-67037105D01*
X120313984Y-66768388D01*
X120349363Y-66339654D01*
X120379132Y-65939159D01*
X120399780Y-65616608D01*
X120407459Y-65444499D01*
X120465562Y-64890821D01*
X120622986Y-64316864D01*
X120874573Y-63712637D01*
X121137970Y-63138576D01*
X121318131Y-62711871D01*
X121415090Y-62432432D01*
X121428879Y-62300169D01*
X121399578Y-62290586D01*
X121327421Y-62377539D01*
X121207654Y-62588244D01*
X121057582Y-62890057D01*
X120910965Y-63212467D01*
X120523000Y-64100799D01*
X120526081Y-61641400D01*
X120529218Y-61001452D01*
X120536560Y-60407335D01*
X120547466Y-59882817D01*
X120561292Y-59451666D01*
X120577400Y-59137652D01*
X120595145Y-58964542D01*
X120598760Y-58949167D01*
X120712437Y-58758729D01*
X120842802Y-58716334D01*
X121052942Y-58689838D01*
X121380329Y-58618383D01*
X121782761Y-58514020D01*
X122218036Y-58388799D01*
X122643952Y-58254769D01*
X123018308Y-58123982D01*
X123261392Y-58025735D01*
X123531609Y-57906208D01*
X123733186Y-57820047D01*
X123824356Y-57785085D01*
X123825255Y-57785000D01*
X123831657Y-57800891D01*
X123823186Y-57863374D01*
X123794587Y-57994671D01*
X123740602Y-58217000D01*
X123655977Y-58552582D01*
X123535453Y-59023637D01*
X123494772Y-59182000D01*
X123280286Y-60036204D01*
X123112808Y-60755771D01*
X122988836Y-61367692D01*
X122904866Y-61898955D01*
X122857397Y-62376549D01*
X122842926Y-62827463D01*
X122857950Y-63278686D01*
X122898968Y-63757206D01*
X122899890Y-63765925D01*
X122920500Y-64090584D01*
X122893185Y-64358781D01*
X122805268Y-64653498D01*
X122737378Y-64829857D01*
X122604151Y-65182786D01*
X122453138Y-65612828D01*
X122314194Y-66034603D01*
X122297466Y-66087932D01*
X122153158Y-66528363D01*
X121979462Y-67025301D01*
X121811464Y-67478671D01*
X121794806Y-67521667D01*
X121605422Y-68025681D01*
X121456314Y-68458868D01*
X121353557Y-68800717D01*
X121303223Y-69030719D01*
X121311384Y-69128364D01*
X121318495Y-69130334D01*
X121382086Y-69057425D01*
X121459903Y-68875265D01*
X121483804Y-68801210D01*
X121581854Y-68513889D01*
X121709451Y-68188125D01*
X121754520Y-68083009D01*
X121854969Y-67846327D01*
X121919856Y-67675166D01*
X121932391Y-67628966D01*
X121971032Y-67517359D01*
X122059613Y-67322080D01*
X122086397Y-67267667D01*
X122201181Y-67006680D01*
X122284184Y-66763773D01*
X122289662Y-66742235D01*
X122366075Y-66483414D01*
X122441617Y-66276568D01*
X122521190Y-66062284D01*
X122565004Y-65913000D01*
X122606807Y-65766858D01*
X122686871Y-65523187D01*
X122757543Y-65320334D01*
X122923627Y-64854667D01*
X122931110Y-65532000D01*
X122945449Y-65867838D01*
X122976692Y-66146828D01*
X123018688Y-66318257D01*
X123028642Y-66336334D01*
X123055840Y-66319010D01*
X123074714Y-66173162D01*
X123085401Y-65890843D01*
X123088037Y-65464108D01*
X123082756Y-64885013D01*
X123069696Y-64145611D01*
X123067710Y-64050334D01*
X123053568Y-63309872D01*
X123046230Y-62717155D01*
X123046263Y-62250705D01*
X123054230Y-61889050D01*
X123070697Y-61610713D01*
X123096227Y-61394221D01*
X123131387Y-61218097D01*
X123143421Y-61171667D01*
X123215049Y-60894662D01*
X123309928Y-60508785D01*
X123414374Y-60070418D01*
X123492762Y-59732334D01*
X123586985Y-59335704D01*
X123675375Y-58991056D01*
X123747554Y-58737222D01*
X123790769Y-58617193D01*
X123853785Y-58441371D01*
X123910568Y-58193497D01*
X123917568Y-58152043D01*
X123984760Y-57869092D01*
X124079041Y-57616140D01*
X124087504Y-57599222D01*
X124173354Y-57395765D01*
X124206000Y-57250254D01*
X124232396Y-57126375D01*
X124304853Y-56873613D01*
X124413271Y-56522837D01*
X124547550Y-56104913D01*
X124697591Y-55650709D01*
X124853295Y-55191092D01*
X125004562Y-54756929D01*
X125141293Y-54379088D01*
X125173739Y-54292500D01*
X125267507Y-54015975D01*
X125315710Y-53813042D01*
X125309517Y-53722499D01*
X125303843Y-53721000D01*
X125259132Y-53734522D01*
X125210998Y-53788985D01*
X125150771Y-53905239D01*
X125069778Y-54104134D01*
X124959350Y-54406520D01*
X124810814Y-54833246D01*
X124670015Y-55245000D01*
X124535034Y-55623222D01*
X124416245Y-55922546D01*
X124324611Y-56117792D01*
X124271089Y-56183780D01*
X124264652Y-56176334D01*
X124241506Y-56043791D01*
X124210565Y-55768963D01*
X124173997Y-55378602D01*
X124133970Y-54899463D01*
X124092654Y-54358299D01*
X124052216Y-53781865D01*
X124014825Y-53196914D01*
X123993583Y-52832000D01*
X123968565Y-52433675D01*
X123940528Y-52066462D01*
X123913852Y-51784907D01*
X123901755Y-51689000D01*
X123857099Y-51392667D01*
X124730049Y-51113465D01*
X125142022Y-50987277D01*
X125543861Y-50873762D01*
X125878173Y-50788695D01*
X126026333Y-50757164D01*
X126273551Y-50731735D01*
X126658971Y-50716129D01*
X127151787Y-50709665D01*
X127721194Y-50711661D01*
X128336385Y-50721434D01*
X128966556Y-50738301D01*
X129580901Y-50761580D01*
X130148614Y-50790590D01*
X130638890Y-50824647D01*
X131020924Y-50863069D01*
X131064000Y-50868755D01*
X131439794Y-50929141D01*
X131772334Y-50998375D01*
X132011337Y-51065308D01*
X132078714Y-51093696D01*
X132277668Y-51160846D01*
X132571652Y-51214602D01*
X132806804Y-51237157D01*
X133035512Y-51255729D01*
X133278020Y-51289868D01*
X133563484Y-51346005D01*
X133921057Y-51430573D01*
X134379894Y-51550004D01*
X134969148Y-51710730D01*
X135031782Y-51728052D01*
X135893611Y-51921500D01*
X136855821Y-52058559D01*
X137856494Y-52131137D01*
X138180831Y-52139508D01*
X139287222Y-52154667D01*
X139233084Y-52444175D01*
X139175243Y-52677861D01*
X139070243Y-53032423D01*
X138930698Y-53470305D01*
X138769224Y-53953950D01*
X138598436Y-54445802D01*
X138430947Y-54908303D01*
X138279374Y-55303898D01*
X138239140Y-55403311D01*
X138104262Y-55713836D01*
X138010238Y-55882205D01*
X137944373Y-55926907D01*
X137905294Y-55889474D01*
X137864100Y-55733089D01*
X137879482Y-55668633D01*
X137865073Y-55621269D01*
X137799397Y-55636029D01*
X137707070Y-55677489D01*
X137678935Y-55738094D01*
X137715307Y-55865293D01*
X137802300Y-56073220D01*
X137874934Y-56331309D01*
X137878860Y-56357176D01*
X138109281Y-56357176D01*
X138122575Y-56227412D01*
X138193352Y-55998845D01*
X138286041Y-55768405D01*
X138405812Y-55475136D01*
X138552744Y-55082782D01*
X138703796Y-54653978D01*
X138781851Y-54420498D01*
X138901056Y-54068071D01*
X139004773Y-53784418D01*
X139080412Y-53602596D01*
X139112372Y-53552664D01*
X139141120Y-53630688D01*
X139182484Y-53842813D01*
X139230505Y-54154831D01*
X139270743Y-54461834D01*
X139331126Y-54924265D01*
X139400629Y-55406521D01*
X139468215Y-55833721D01*
X139498523Y-56007000D01*
X139554764Y-56324768D01*
X139596170Y-56581510D01*
X139614938Y-56728373D01*
X139615319Y-56738205D01*
X139542348Y-56765876D01*
X139351841Y-56749374D01*
X139086427Y-56699483D01*
X138788735Y-56626989D01*
X138501396Y-56542678D01*
X138267037Y-56457334D01*
X138128291Y-56381742D01*
X138109281Y-56357176D01*
X137878860Y-56357176D01*
X137931422Y-56703440D01*
X137963484Y-57134506D01*
X137964063Y-57150000D01*
X138004151Y-57674943D01*
X138080193Y-58054003D01*
X138133668Y-58189915D01*
X138172493Y-58279983D01*
X138202829Y-58393418D01*
X138225233Y-58548782D01*
X138240261Y-58764636D01*
X138248472Y-59059545D01*
X138250421Y-59452069D01*
X138249974Y-59512736D01*
X138345333Y-59512736D01*
X138345333Y-58104440D01*
X138747500Y-58164194D01*
X139015843Y-58223355D01*
X139374921Y-58328001D01*
X139759148Y-58458514D01*
X139869333Y-58499711D01*
X140304084Y-58685192D01*
X140577460Y-58847354D01*
X140685252Y-58965148D01*
X140768498Y-59076738D01*
X140816580Y-59049593D01*
X140895997Y-58992467D01*
X141027111Y-59047063D01*
X141173079Y-59180765D01*
X141297059Y-59360953D01*
X141358162Y-59529069D01*
X141372485Y-59699088D01*
X141381412Y-60008256D01*
X141384759Y-60426468D01*
X141382344Y-60923621D01*
X141373985Y-61469609D01*
X141370805Y-61616333D01*
X141353074Y-62266828D01*
X141331872Y-62776232D01*
X141304704Y-63172782D01*
X141269080Y-63484717D01*
X141222507Y-63740275D01*
X141163619Y-63963973D01*
X140997870Y-64512612D01*
X140942345Y-64165380D01*
X140869262Y-63862328D01*
X140755278Y-63533289D01*
X140718603Y-63447407D01*
X140614698Y-63166068D01*
X140553660Y-62900082D01*
X140547229Y-62822667D01*
X140516147Y-62595138D01*
X140455004Y-62441667D01*
X140405720Y-62421944D01*
X140389414Y-62531243D01*
X140400954Y-62733596D01*
X140435208Y-62993036D01*
X140487045Y-63273596D01*
X140551333Y-63539309D01*
X140622940Y-63754207D01*
X140650946Y-63814955D01*
X140725006Y-63988528D01*
X140781537Y-64206507D01*
X140825429Y-64500862D01*
X140861573Y-64903566D01*
X140891761Y-65389464D01*
X140917659Y-65908575D01*
X140939842Y-66440544D01*
X140956170Y-66927760D01*
X140964502Y-67312612D01*
X140964944Y-67359915D01*
X140970000Y-68087162D01*
X140459927Y-68483270D01*
X140166732Y-68694320D01*
X139981979Y-68788710D01*
X139912601Y-68772022D01*
X139877950Y-68651527D01*
X139811313Y-68403338D01*
X139722345Y-68063897D01*
X139622745Y-67677655D01*
X139510862Y-67257140D01*
X139399287Y-66866362D01*
X139301830Y-66552128D01*
X139238737Y-66376149D01*
X139153213Y-66132932D01*
X139109004Y-65931933D01*
X139107333Y-65902661D01*
X139074650Y-65770724D01*
X139033670Y-65743667D01*
X138974739Y-65670296D01*
X138897675Y-65487441D01*
X138820761Y-65250989D01*
X138762278Y-65016829D01*
X138740444Y-64847292D01*
X138705669Y-64767704D01*
X138679182Y-64772978D01*
X138608141Y-64729830D01*
X138507757Y-64575556D01*
X138480021Y-64520242D01*
X138428535Y-64383757D01*
X138392542Y-64208121D01*
X138370258Y-63965834D01*
X138359900Y-63629398D01*
X138359684Y-63171316D01*
X138364894Y-62745068D01*
X138376286Y-62144369D01*
X138389490Y-61711900D01*
X138404579Y-61446566D01*
X138421627Y-61347270D01*
X138440708Y-61412918D01*
X138449115Y-61487050D01*
X138511536Y-61594964D01*
X138554191Y-61637334D01*
X138629412Y-61759288D01*
X138725172Y-61990613D01*
X138804770Y-62230000D01*
X138915092Y-62570517D01*
X139036444Y-62903319D01*
X139107787Y-63076667D01*
X139199689Y-63337647D01*
X139302687Y-63715536D01*
X139406031Y-64159326D01*
X139498972Y-64618006D01*
X139570763Y-65040569D01*
X139610654Y-65376005D01*
X139615333Y-65485274D01*
X139649000Y-65741064D01*
X139730995Y-65947110D01*
X139740380Y-65960318D01*
X139811809Y-66041206D01*
X139841165Y-66018025D01*
X139835860Y-65866324D01*
X139818892Y-65701334D01*
X139717983Y-64989722D01*
X139571840Y-64242029D01*
X139390456Y-63493264D01*
X139183823Y-62778434D01*
X138961937Y-62132546D01*
X138734790Y-61590608D01*
X138544419Y-61236850D01*
X138470714Y-61110694D01*
X138417835Y-60982880D01*
X138382341Y-60823614D01*
X138360791Y-60603102D01*
X138349745Y-60291550D01*
X138345763Y-59859165D01*
X138345333Y-59512736D01*
X138249974Y-59512736D01*
X138246665Y-59960773D01*
X138237763Y-60604217D01*
X138226401Y-61280248D01*
X138214258Y-61982197D01*
X138202985Y-62654317D01*
X138192977Y-63271476D01*
X138184629Y-63808542D01*
X138178336Y-64240384D01*
X138174492Y-64541871D01*
X138173566Y-64643000D01*
X138160647Y-64996509D01*
X138130828Y-65337611D01*
X138101619Y-65532000D01*
X138033099Y-65870667D01*
X137929850Y-65616667D01*
X137838747Y-65400514D01*
X137709901Y-65104151D01*
X137605332Y-64868244D01*
X137481097Y-64601628D01*
X137389076Y-64459562D01*
X137294814Y-64410938D01*
X137163854Y-64424650D01*
X137123865Y-64433592D01*
X136879936Y-64480841D01*
X136694333Y-64504682D01*
X136554875Y-64471183D01*
X136341747Y-64375528D01*
X136097047Y-64242747D01*
X135862875Y-64097869D01*
X135681328Y-63965922D01*
X135594506Y-63871935D01*
X135595222Y-63851223D01*
X135591620Y-63829968D01*
X135580678Y-63837545D01*
X135481057Y-63823153D01*
X135299342Y-63737125D01*
X135231676Y-63697252D01*
X134939633Y-63562625D01*
X134619724Y-63516710D01*
X134241135Y-63561776D01*
X133773057Y-63700091D01*
X133434667Y-63829500D01*
X133088395Y-63973031D01*
X132798365Y-64099150D01*
X132602502Y-64191036D01*
X132542892Y-64225031D01*
X132402320Y-64305469D01*
X132229445Y-64380467D01*
X132072216Y-64425918D01*
X132035970Y-64387619D01*
X132044174Y-64360238D01*
X132051650Y-64207211D01*
X132018047Y-63949956D01*
X131955568Y-63640395D01*
X131876414Y-63330448D01*
X131792789Y-63072037D01*
X131716894Y-62917083D01*
X131701251Y-62901106D01*
X131648014Y-62833466D01*
X131639439Y-62718621D01*
X131679863Y-62521305D01*
X131773625Y-62206252D01*
X131794970Y-62139106D01*
X131905632Y-61754646D01*
X131997955Y-61365075D01*
X132053680Y-61048359D01*
X132056822Y-61021032D01*
X132100945Y-60739694D01*
X132186050Y-60552742D01*
X132353653Y-60385228D01*
X132451933Y-60307765D01*
X132970246Y-59874912D01*
X133345180Y-59470569D01*
X133593366Y-59067833D01*
X133731436Y-58639802D01*
X133775973Y-58166000D01*
X133780403Y-57958231D01*
X133799919Y-57789341D01*
X133849868Y-57630635D01*
X133945596Y-57453416D01*
X134102450Y-57228991D01*
X134335775Y-56928664D01*
X134641113Y-56548315D01*
X134834042Y-56301081D01*
X134976432Y-56103694D01*
X135041749Y-55993263D01*
X135043280Y-55985834D01*
X135001691Y-55916797D01*
X134899764Y-55966924D01*
X134772101Y-56115165D01*
X134735428Y-56173124D01*
X134610305Y-56337693D01*
X134507457Y-56354200D01*
X134484179Y-56338346D01*
X134366885Y-56302328D01*
X134324911Y-56343654D01*
X134314192Y-56412464D01*
X134338540Y-56411265D01*
X134417766Y-56427040D01*
X134390771Y-56553123D01*
X134263803Y-56773233D01*
X134126132Y-56964917D01*
X133815667Y-57372500D01*
X133791434Y-56562750D01*
X133771354Y-56181098D01*
X133739024Y-55907017D01*
X133697985Y-55766231D01*
X133679951Y-55753000D01*
X133561205Y-55800056D01*
X133375245Y-55916874D01*
X133323184Y-55954672D01*
X133067470Y-56128661D01*
X132809232Y-56279691D01*
X132791225Y-56288932D01*
X132528784Y-56421521D01*
X132713983Y-55896761D01*
X132811100Y-55641407D01*
X132961456Y-55270218D01*
X133148954Y-54821850D01*
X133357495Y-54334953D01*
X133505591Y-53995947D01*
X133701591Y-53546633D01*
X133871207Y-53149107D01*
X134003404Y-52829947D01*
X134087146Y-52615730D01*
X134112000Y-52535447D01*
X134079978Y-52448670D01*
X134000767Y-52495228D01*
X133899648Y-52655415D01*
X133867336Y-52726167D01*
X133695976Y-53129145D01*
X133567288Y-53427788D01*
X133458461Y-53673919D01*
X133346687Y-53919364D01*
X133255193Y-54116975D01*
X133097307Y-54477714D01*
X132925724Y-54901692D01*
X132791155Y-55259975D01*
X132676300Y-55566046D01*
X132573658Y-55811275D01*
X132502533Y-55950094D01*
X132494409Y-55960434D01*
X132432865Y-56104274D01*
X132418667Y-56228246D01*
X132384448Y-56342169D01*
X132264994Y-56465366D01*
X132035104Y-56618757D01*
X131762500Y-56773050D01*
X131456331Y-56934133D01*
X131200684Y-57058188D01*
X131035900Y-57126054D01*
X131004224Y-57133183D01*
X130931734Y-57170937D01*
X130937430Y-57193029D01*
X130902815Y-57279396D01*
X130775297Y-57435989D01*
X130675709Y-57538067D01*
X130378674Y-57825965D01*
X130423705Y-56937649D01*
X130462781Y-56155551D01*
X130492645Y-55526144D01*
X130513632Y-55033056D01*
X130526077Y-54659913D01*
X130530314Y-54390343D01*
X130526678Y-54207973D01*
X130515504Y-54096430D01*
X130497127Y-54039341D01*
X130483265Y-54024708D01*
X130453416Y-54088086D01*
X130421165Y-54297488D01*
X130388049Y-54629651D01*
X130355607Y-55061309D01*
X130325378Y-55569201D01*
X130298899Y-56130062D01*
X130277710Y-56720629D01*
X130263349Y-57317637D01*
X130262596Y-57361667D01*
X130241390Y-57801010D01*
X130187483Y-58133248D01*
X130089901Y-58419212D01*
X130059867Y-58485382D01*
X129999441Y-58621077D01*
X129953454Y-58755301D01*
X129920065Y-58912438D01*
X129897433Y-59116874D01*
X129883716Y-59392994D01*
X129877073Y-59765181D01*
X129875662Y-60257820D01*
X129877237Y-60764668D01*
X130048000Y-60764668D01*
X130048000Y-58845764D01*
X130277936Y-58391303D01*
X130572892Y-57938502D01*
X130991241Y-57513378D01*
X131547932Y-57103227D01*
X132257913Y-56695341D01*
X132296934Y-56675175D01*
X132662121Y-56490657D01*
X132977636Y-56337491D01*
X133210413Y-56231304D01*
X133327385Y-56187721D01*
X133328833Y-56187537D01*
X133375858Y-56227334D01*
X133407654Y-56371462D01*
X133426223Y-56639461D01*
X133433565Y-57050872D01*
X133433872Y-57213500D01*
X133431390Y-57654698D01*
X133420149Y-57967240D01*
X133393264Y-58191790D01*
X133343852Y-58369016D01*
X133265029Y-58539583D01*
X133185098Y-58683017D01*
X133024597Y-58911841D01*
X132772128Y-59213221D01*
X132462620Y-59547596D01*
X132138498Y-59868351D01*
X131823018Y-60176107D01*
X131544054Y-60467237D01*
X131330665Y-60710133D01*
X131211908Y-60873186D01*
X131208081Y-60880416D01*
X131120055Y-61100408D01*
X131016903Y-61426730D01*
X130912244Y-61806644D01*
X130819699Y-62187411D01*
X130752889Y-62516294D01*
X130725432Y-62740556D01*
X130725333Y-62749632D01*
X130685994Y-62904244D01*
X130537865Y-62949460D01*
X130519714Y-62949667D01*
X130376280Y-62942087D01*
X130265263Y-62906569D01*
X130182524Y-62823944D01*
X130123925Y-62675044D01*
X130085329Y-62440702D01*
X130062596Y-62101749D01*
X130051589Y-61639018D01*
X130048170Y-61033340D01*
X130048000Y-60764668D01*
X129877237Y-60764668D01*
X129877643Y-60895297D01*
X129877656Y-60898382D01*
X129877832Y-61612616D01*
X129870719Y-62183790D01*
X129855032Y-62638071D01*
X129829487Y-63001626D01*
X129792798Y-63300621D01*
X129747846Y-63542334D01*
X129678008Y-63848622D01*
X129618651Y-64083489D01*
X129580764Y-64204006D01*
X129576775Y-64210566D01*
X129494957Y-64191251D01*
X129398793Y-64125899D01*
X129304067Y-64064187D01*
X129317077Y-64113834D01*
X129349570Y-64207639D01*
X129336334Y-64219667D01*
X129234470Y-64179967D01*
X129039015Y-64079786D01*
X128800520Y-63947504D01*
X128569538Y-63811500D01*
X128396623Y-63700155D01*
X128354667Y-63668569D01*
X128002024Y-63455892D01*
X127542904Y-63292508D01*
X127036143Y-63191020D01*
X126540573Y-63164033D01*
X126190260Y-63204879D01*
X125802557Y-63312591D01*
X125499741Y-63457277D01*
X125197399Y-63679368D01*
X125194337Y-63681913D01*
X124977717Y-63816979D01*
X124769271Y-63880331D01*
X124751789Y-63881000D01*
X124658955Y-63889914D01*
X124573008Y-63928598D01*
X124555141Y-63945739D01*
X125134188Y-63945739D01*
X125368594Y-63741922D01*
X125786009Y-63486715D01*
X126294501Y-63351854D01*
X126862718Y-63340704D01*
X127459311Y-63456627D01*
X127599930Y-63502563D01*
X127895230Y-63632292D01*
X128221063Y-63812028D01*
X128362023Y-63902900D01*
X128752549Y-64172141D01*
X128200361Y-64365237D01*
X127847053Y-64484425D01*
X127638040Y-64539696D01*
X127559852Y-64528656D01*
X127599022Y-64448914D01*
X127742083Y-64298075D01*
X127754409Y-64285995D01*
X127920089Y-64101287D01*
X127954938Y-64006683D01*
X127871182Y-64001688D01*
X127681047Y-64085807D01*
X127396761Y-64258545D01*
X127330462Y-64303150D01*
X126815010Y-64654995D01*
X125134188Y-63945739D01*
X124555141Y-63945739D01*
X124482978Y-64014969D01*
X124377896Y-64166946D01*
X124246790Y-64402445D01*
X124078692Y-64739382D01*
X123862630Y-65195676D01*
X123600491Y-65761365D01*
X123376934Y-66246033D01*
X123167184Y-66700740D01*
X122985743Y-67094047D01*
X122847115Y-67394518D01*
X122768901Y-67564000D01*
X122683664Y-67782562D01*
X122571715Y-68117077D01*
X122448483Y-68519493D01*
X122344631Y-68885481D01*
X122223838Y-69300100D01*
X122099087Y-69680399D01*
X121985961Y-69981423D01*
X121907625Y-70146328D01*
X121738544Y-70424361D01*
X121325246Y-70017278D01*
X120984670Y-69608488D01*
X120674413Y-69103925D01*
X120431153Y-68571269D01*
X120300223Y-68125890D01*
X120276148Y-67868814D01*
X120274156Y-67490392D01*
X120174040Y-67490392D01*
X120178194Y-67806433D01*
X120189907Y-68140217D01*
X120214659Y-68384977D01*
X120259864Y-68580864D01*
X120332931Y-68768026D01*
X120441272Y-68986615D01*
X120494136Y-69088000D01*
X120695005Y-69438680D01*
X120923069Y-69786946D01*
X121127646Y-70055780D01*
X121317655Y-70311159D01*
X121419916Y-70524197D01*
X121429782Y-70606113D01*
X121483038Y-70782761D01*
X121692474Y-70973190D01*
X121711237Y-70986035D01*
X121717206Y-70990900D01*
X122233525Y-70990900D01*
X122327837Y-70836554D01*
X122330543Y-70832589D01*
X122447950Y-70617918D01*
X122607254Y-70263222D01*
X122800542Y-69790319D01*
X123019900Y-69221025D01*
X123257415Y-68577159D01*
X123505172Y-67880536D01*
X123755257Y-67152974D01*
X123999757Y-66416289D01*
X124230758Y-65692299D01*
X124418636Y-65076127D01*
X124462809Y-64966250D01*
X124540551Y-64911487D01*
X124695645Y-64900339D01*
X124971874Y-64921308D01*
X124998482Y-64923834D01*
X125329053Y-64966839D01*
X125391136Y-64978807D01*
X132334000Y-64978807D01*
X132405930Y-64886746D01*
X132600411Y-64742552D01*
X132885479Y-64563370D01*
X133229172Y-64366343D01*
X133599526Y-64168616D01*
X133964578Y-63987330D01*
X134292363Y-63839631D01*
X134550920Y-63742662D01*
X134694198Y-63712908D01*
X134851254Y-63755352D01*
X135107539Y-63870364D01*
X135420625Y-64037734D01*
X135604365Y-64146440D01*
X135905850Y-64338491D01*
X136143606Y-64503585D01*
X136286317Y-64619203D01*
X136313333Y-64656255D01*
X136245098Y-64743452D01*
X136111287Y-64823356D01*
X135963575Y-64863912D01*
X135801040Y-64832151D01*
X135567994Y-64715077D01*
X135514485Y-64684072D01*
X135273653Y-64555196D01*
X135073691Y-64494840D01*
X134839143Y-64488854D01*
X134594698Y-64511582D01*
X134236766Y-64572753D01*
X133881701Y-64666601D01*
X133698130Y-64734133D01*
X133406227Y-64849035D01*
X133086132Y-64954027D01*
X132781715Y-65037410D01*
X132536846Y-65087490D01*
X132395392Y-65092570D01*
X132381149Y-65085261D01*
X132334000Y-64978807D01*
X125391136Y-64978807D01*
X125500409Y-64999872D01*
X131026195Y-64999872D01*
X131138405Y-64982964D01*
X131319828Y-65036479D01*
X131548112Y-65173466D01*
X131652411Y-65256834D01*
X132023309Y-65577338D01*
X132310367Y-65803042D01*
X132553098Y-65955157D01*
X132791012Y-66054893D01*
X133063620Y-66123461D01*
X133362077Y-66174627D01*
X133700168Y-66217105D01*
X134020212Y-66230640D01*
X134357432Y-66211420D01*
X134747052Y-66155631D01*
X135224295Y-66059461D01*
X135824385Y-65919097D01*
X135905428Y-65899322D01*
X136317652Y-65804300D01*
X136677192Y-65732376D01*
X136948782Y-65689829D01*
X137097155Y-65682942D01*
X137106656Y-65685393D01*
X137215448Y-65794518D01*
X137280939Y-65934827D01*
X138145553Y-65934827D01*
X138173346Y-65833292D01*
X138218541Y-65667234D01*
X138251045Y-65393268D01*
X138263359Y-65093067D01*
X138268056Y-64794774D01*
X138283672Y-64640629D01*
X138317800Y-64605479D01*
X138378030Y-64664171D01*
X138388637Y-64677995D01*
X138495545Y-64861115D01*
X138609201Y-65115328D01*
X138635902Y-65185995D01*
X138719814Y-65418963D01*
X138840967Y-65755448D01*
X138979266Y-66139633D01*
X139050064Y-66336334D01*
X139198122Y-66778143D01*
X139357807Y-67303556D01*
X139504813Y-67830700D01*
X139572618Y-68096469D01*
X139805690Y-69052270D01*
X139458254Y-69373021D01*
X139110819Y-69693771D01*
X139028814Y-69433219D01*
X138972774Y-69233007D01*
X138893680Y-68922571D01*
X138805393Y-68556951D01*
X138771319Y-68410667D01*
X138661782Y-67966736D01*
X138524058Y-67453062D01*
X138382842Y-66960766D01*
X138340927Y-66822559D01*
X138220283Y-66407624D01*
X138156790Y-66121347D01*
X138145553Y-65934827D01*
X137280939Y-65934827D01*
X137308685Y-65994269D01*
X137314692Y-66014154D01*
X137363730Y-66183920D01*
X137450755Y-66484634D01*
X137566590Y-66884612D01*
X137702062Y-67352169D01*
X137837086Y-67818000D01*
X137978419Y-68309881D01*
X138103731Y-68754283D01*
X138205042Y-69122241D01*
X138274373Y-69384786D01*
X138303520Y-69511334D01*
X138365704Y-69956823D01*
X138398026Y-70270706D01*
X138397250Y-70488605D01*
X138360135Y-70646140D01*
X138283444Y-70778933D01*
X138176501Y-70908334D01*
X138030617Y-71055144D01*
X137945070Y-71103328D01*
X137934743Y-71077667D01*
X137930705Y-70824551D01*
X137868345Y-70418937D01*
X137748899Y-69866839D01*
X137573605Y-69174273D01*
X137450966Y-68725385D01*
X137329347Y-68276583D01*
X137230153Y-67884580D01*
X137160166Y-67578383D01*
X137126167Y-67387001D01*
X137126556Y-67337950D01*
X137116779Y-67270411D01*
X137098814Y-67267667D01*
X137034208Y-67194306D01*
X136954224Y-67009232D01*
X136921382Y-66907811D01*
X136835177Y-66628053D01*
X136752348Y-66458704D01*
X136635008Y-66383325D01*
X136445272Y-66385476D01*
X136145255Y-66448719D01*
X135964569Y-66492633D01*
X134990024Y-66697456D01*
X134127324Y-66811101D01*
X133383837Y-66833403D01*
X132766935Y-66764196D01*
X132283989Y-66603314D01*
X132233238Y-66576656D01*
X131975619Y-66376670D01*
X131693406Y-66064700D01*
X131422893Y-65686773D01*
X131200375Y-65288911D01*
X131175759Y-65235667D01*
X131071610Y-65084720D01*
X131027842Y-65046464D01*
X131026195Y-64999872D01*
X125500409Y-64999872D01*
X125632725Y-65025379D01*
X125786712Y-65068124D01*
X126033434Y-65206332D01*
X126117801Y-65390724D01*
X126061870Y-65587034D01*
X125932456Y-65709772D01*
X125829340Y-65702166D01*
X125661293Y-65646738D01*
X125412068Y-65574089D01*
X125323270Y-65549819D01*
X125085023Y-65497125D01*
X124953534Y-65506818D01*
X124880230Y-65576720D01*
X124832491Y-65690400D01*
X124779635Y-65836248D01*
X126636954Y-65836248D01*
X126665837Y-65681630D01*
X126744349Y-65555025D01*
X126879346Y-65525840D01*
X127017897Y-65545625D01*
X127212126Y-65585636D01*
X127313981Y-65612395D01*
X127316617Y-65613834D01*
X127275426Y-65675248D01*
X127147865Y-65809396D01*
X127100165Y-65855819D01*
X126930752Y-65997382D01*
X126814673Y-66024079D01*
X126727822Y-65976646D01*
X126636954Y-65836248D01*
X124779635Y-65836248D01*
X124741712Y-65940887D01*
X124616297Y-66303659D01*
X124590902Y-66379111D01*
X128030555Y-66379111D01*
X128056054Y-66299019D01*
X128162708Y-66144644D01*
X128194477Y-66105275D01*
X128310089Y-65977620D01*
X128422221Y-65911832D01*
X128583070Y-65895546D01*
X128844836Y-65916394D01*
X128945225Y-65927413D01*
X129312776Y-65953062D01*
X129683148Y-65954793D01*
X129899833Y-65940094D01*
X130158927Y-65916407D01*
X130274193Y-65945372D01*
X130269092Y-66053411D01*
X130175551Y-66250601D01*
X130055648Y-66416178D01*
X129876060Y-66509011D01*
X129658682Y-66553673D01*
X129437715Y-66565178D01*
X129133111Y-66554253D01*
X128793237Y-66526085D01*
X128466458Y-66485860D01*
X128201141Y-66438762D01*
X128045650Y-66389978D01*
X128030555Y-66379111D01*
X124590902Y-66379111D01*
X124464656Y-66754193D01*
X124295193Y-67267968D01*
X124198932Y-67564000D01*
X123947970Y-68331434D01*
X123736363Y-68957193D01*
X123555658Y-69462048D01*
X123397404Y-69866770D01*
X123253148Y-70192129D01*
X123114438Y-70458895D01*
X123073748Y-70524677D01*
X124629333Y-70524677D01*
X124640856Y-70240057D01*
X124683189Y-70083298D01*
X124767978Y-70014013D01*
X124777500Y-70010868D01*
X124945215Y-69947356D01*
X125184230Y-69843934D01*
X125264333Y-69807111D01*
X125572651Y-69680752D01*
X125759119Y-69645110D01*
X125814667Y-69692176D01*
X125786264Y-69793746D01*
X125712338Y-70004213D01*
X125624167Y-70238143D01*
X125501860Y-70522995D01*
X125383664Y-70694962D01*
X125227012Y-70803932D01*
X125092169Y-70861634D01*
X124868951Y-70942520D01*
X124716181Y-70988786D01*
X124690003Y-70993000D01*
X124656854Y-70916397D01*
X124634817Y-70718696D01*
X124629333Y-70524677D01*
X123073748Y-70524677D01*
X122972821Y-70687838D01*
X122866776Y-70837604D01*
X122693861Y-71058128D01*
X122574369Y-71162548D01*
X122468138Y-71175880D01*
X122376736Y-71142859D01*
X122246669Y-71071801D01*
X122233525Y-70990900D01*
X121717206Y-70990900D01*
X121848477Y-71097877D01*
X121977565Y-71251111D01*
X122106786Y-71464287D01*
X122244427Y-71755956D01*
X122398775Y-72144667D01*
X122578116Y-72648970D01*
X122678651Y-72950853D01*
X127765393Y-72950853D01*
X127793997Y-72613445D01*
X127872775Y-72208314D01*
X127943399Y-71945500D01*
X128125334Y-71331667D01*
X128530568Y-71331667D01*
X128794299Y-71316915D01*
X128959043Y-71252660D01*
X129094023Y-71108904D01*
X129116667Y-71077667D01*
X129227498Y-70894826D01*
X129231752Y-70826556D01*
X129140273Y-70886550D01*
X129045571Y-70987906D01*
X128884735Y-71116526D01*
X128658324Y-71171692D01*
X128380393Y-71172084D01*
X128194454Y-71162334D01*
X128349952Y-70710369D01*
X128457323Y-70423712D01*
X128563593Y-70179960D01*
X128615933Y-70081494D01*
X128726416Y-69904583D01*
X129069708Y-70100578D01*
X129356841Y-70243536D01*
X129703259Y-70387927D01*
X129878667Y-70450761D01*
X130435251Y-70568512D01*
X131035699Y-70595368D01*
X131614375Y-70557718D01*
X132084427Y-70453599D01*
X132498161Y-70269221D01*
X132666364Y-70165431D01*
X132860010Y-70060039D01*
X132995047Y-70028407D01*
X133017760Y-70038431D01*
X133074601Y-70152618D01*
X133162272Y-70387639D01*
X133267530Y-70700832D01*
X133377133Y-71049533D01*
X133477840Y-71391079D01*
X133535665Y-71605791D01*
X137970915Y-71605791D01*
X138033653Y-71446392D01*
X138062707Y-71389822D01*
X138226206Y-71105825D01*
X138395376Y-70863099D01*
X138540703Y-70700537D01*
X138620822Y-70654334D01*
X138749303Y-70690846D01*
X138858899Y-70741979D01*
X138991584Y-70879792D01*
X139018269Y-70974712D01*
X139399490Y-70974712D01*
X139438579Y-70904985D01*
X139571110Y-70754046D01*
X139764475Y-70553752D01*
X139986065Y-70335961D01*
X140203271Y-70132531D01*
X140383484Y-69975321D01*
X140494096Y-69896188D01*
X140507372Y-69892334D01*
X140512477Y-69944549D01*
X140462000Y-70019334D01*
X140399378Y-70121979D01*
X140411251Y-70146334D01*
X140409603Y-70206599D01*
X140330750Y-70352532D01*
X140324941Y-70361470D01*
X140197225Y-70500832D01*
X139999143Y-70662230D01*
X139775437Y-70816017D01*
X139570848Y-70932544D01*
X139430117Y-70982165D01*
X139399490Y-70974712D01*
X139018269Y-70974712D01*
X139022667Y-70990354D01*
X138984113Y-71122927D01*
X138886464Y-71334472D01*
X138756732Y-71576801D01*
X138621932Y-71801731D01*
X138509078Y-71961074D01*
X138451581Y-72009000D01*
X138364409Y-71964769D01*
X138199410Y-71856126D01*
X138168493Y-71834322D01*
X138009859Y-71709878D01*
X137970915Y-71605791D01*
X133535665Y-71605791D01*
X133556408Y-71682809D01*
X133599595Y-71882057D01*
X133604000Y-71927162D01*
X133558789Y-72097232D01*
X133444480Y-72330761D01*
X133377813Y-72439089D01*
X133276010Y-72604917D01*
X133210926Y-72760365D01*
X133174999Y-72948542D01*
X133160663Y-73212559D01*
X133160356Y-73595525D01*
X133161139Y-73674044D01*
X133169284Y-74046147D01*
X133183845Y-74351847D01*
X133202559Y-74553733D01*
X133217992Y-74614548D01*
X133248578Y-74722458D01*
X133264629Y-74929964D01*
X133265333Y-74986445D01*
X133265333Y-75311000D01*
X132837795Y-75311000D01*
X132535898Y-75287425D01*
X132267345Y-75227839D01*
X132181629Y-75193426D01*
X131948131Y-75089046D01*
X131639911Y-74972376D01*
X131295098Y-74855130D01*
X130951821Y-74749023D01*
X130648209Y-74665773D01*
X130422393Y-74617093D01*
X130312501Y-74614699D01*
X130308944Y-74618034D01*
X130214543Y-74688133D01*
X130006516Y-74808648D01*
X129724151Y-74957248D01*
X129624667Y-75007007D01*
X129154015Y-75211765D01*
X128727844Y-75328478D01*
X128404893Y-75371548D01*
X128100431Y-75388445D01*
X127913580Y-75378237D01*
X127868474Y-75344213D01*
X127889935Y-75232577D01*
X127911515Y-74988902D01*
X127930546Y-74650461D01*
X127943173Y-74300017D01*
X127949868Y-73844272D01*
X127939689Y-73538138D01*
X127911163Y-73362595D01*
X127865758Y-73299476D01*
X127788725Y-73189782D01*
X127765393Y-72950853D01*
X122678651Y-72950853D01*
X122790736Y-73287415D01*
X122925306Y-73703834D01*
X123018594Y-74032299D01*
X123100077Y-74386740D01*
X123163680Y-74729488D01*
X123203326Y-75022871D01*
X123212942Y-75229219D01*
X123186453Y-75310861D01*
X123184495Y-75311000D01*
X123086652Y-75267051D01*
X122894161Y-75152653D01*
X122684004Y-75016016D01*
X122137058Y-74716548D01*
X121522273Y-74518310D01*
X120799021Y-74408489D01*
X120742668Y-74403732D01*
X120397041Y-74389349D01*
X120206541Y-74411517D01*
X120174512Y-74466231D01*
X120304300Y-74549489D01*
X120545346Y-74640036D01*
X120923946Y-74811315D01*
X121349323Y-75078797D01*
X121766551Y-75403295D01*
X122120703Y-75745623D01*
X122163794Y-75794690D01*
X122532652Y-76296719D01*
X122855930Y-76872398D01*
X123114273Y-77475851D01*
X123288327Y-78061202D01*
X123358737Y-78582573D01*
X123359333Y-78628461D01*
X123333994Y-78968565D01*
X123264882Y-79420271D01*
X123162354Y-79934730D01*
X123036766Y-80463095D01*
X122898476Y-80956518D01*
X122806498Y-81235881D01*
X122699595Y-81550068D01*
X122613380Y-81828515D01*
X122569102Y-81999667D01*
X122552651Y-82025064D01*
X122544910Y-81906048D01*
X122547012Y-81667373D01*
X122549725Y-81576334D01*
X122568847Y-81238402D01*
X122598985Y-80946029D01*
X122633869Y-80758882D01*
X122636473Y-80750834D01*
X122658218Y-80598974D01*
X122615109Y-80560334D01*
X122533735Y-80637095D01*
X122417402Y-80848537D01*
X122277228Y-81166397D01*
X122124331Y-81562410D01*
X121969830Y-82008314D01*
X121824841Y-82475846D01*
X121737369Y-82791652D01*
X121656535Y-83145077D01*
X124065586Y-83145077D01*
X124118215Y-82875742D01*
X124213324Y-82524190D01*
X124339658Y-82127499D01*
X124485964Y-81722742D01*
X124640987Y-81346994D01*
X124691200Y-81237667D01*
X124844699Y-80939620D01*
X125015384Y-80673583D01*
X125232530Y-80402297D01*
X125525410Y-80088502D01*
X125838687Y-79777167D01*
X126227072Y-79402525D01*
X126510467Y-79138054D01*
X126685863Y-78986284D01*
X126750252Y-78949748D01*
X126700624Y-79030978D01*
X126650533Y-79094120D01*
X126541483Y-79216586D01*
X126347824Y-79423969D01*
X126103429Y-79680206D01*
X125984000Y-79803823D01*
X125675949Y-80150517D01*
X125362078Y-80551213D01*
X125102186Y-80928758D01*
X125065024Y-80989524D01*
X124890144Y-81309096D01*
X124701229Y-81696876D01*
X124514629Y-82113882D01*
X124346691Y-82521128D01*
X124213764Y-82879630D01*
X124132197Y-83150403D01*
X124114649Y-83255763D01*
X124091977Y-83329745D01*
X124066689Y-83295120D01*
X124065586Y-83145077D01*
X121656535Y-83145077D01*
X121588490Y-83442581D01*
X121559450Y-83661866D01*
X124226983Y-83661866D01*
X124247859Y-83422412D01*
X124315352Y-83133074D01*
X124438249Y-82744503D01*
X124462515Y-82673117D01*
X124690574Y-82048852D01*
X124921259Y-81525045D01*
X125180828Y-81059351D01*
X125495535Y-80609424D01*
X125891636Y-80132918D01*
X126338829Y-79646963D01*
X126619887Y-79344472D01*
X126852518Y-79082373D01*
X127014511Y-78886558D01*
X127083656Y-78782918D01*
X127084667Y-78777516D01*
X127017022Y-78722675D01*
X126832877Y-78745025D01*
X126560417Y-78833780D01*
X126227826Y-78978154D01*
X125863289Y-79167361D01*
X125512430Y-79379218D01*
X125253520Y-79542890D01*
X125050829Y-79662083D01*
X124944667Y-79713207D01*
X124940930Y-79713667D01*
X124878028Y-79647241D01*
X124912477Y-79454352D01*
X125040805Y-79144581D01*
X125259541Y-78727509D01*
X125364520Y-78544794D01*
X125650762Y-78089537D01*
X125931224Y-77703638D01*
X126187665Y-77408444D01*
X126401848Y-77225300D01*
X126536120Y-77173667D01*
X126654046Y-77116786D01*
X126815411Y-76977780D01*
X126835165Y-76957212D01*
X127002383Y-76807348D01*
X127259710Y-76608897D01*
X127573480Y-76384298D01*
X127910027Y-76155988D01*
X128235686Y-75946406D01*
X128516790Y-75777990D01*
X128719674Y-75673177D01*
X128796998Y-75649667D01*
X128949846Y-75603167D01*
X128991099Y-75562683D01*
X129086187Y-75488969D01*
X129297303Y-75362596D01*
X129588046Y-75204656D01*
X129770914Y-75110864D01*
X130496970Y-74746029D01*
X131182651Y-74988008D01*
X131575252Y-75138186D01*
X132040066Y-75333290D01*
X132499094Y-75540079D01*
X132672667Y-75623039D01*
X133601021Y-76117522D01*
X134365835Y-76613435D01*
X134965340Y-77109450D01*
X135397771Y-77604240D01*
X135483943Y-77734671D01*
X135648281Y-78032594D01*
X135854740Y-78454016D01*
X136087811Y-78963215D01*
X136331982Y-79524466D01*
X136399563Y-79687270D01*
X137298633Y-79687270D01*
X137334302Y-79634998D01*
X137415851Y-79719840D01*
X137483995Y-79861834D01*
X137687913Y-80566344D01*
X137744059Y-81195334D01*
X137738458Y-81383534D01*
X137725958Y-81458478D01*
X137699956Y-81406999D01*
X137653851Y-81215932D01*
X137581041Y-80872114D01*
X137580382Y-80868946D01*
X137499958Y-80500720D01*
X137420752Y-80168739D01*
X137356113Y-79928011D01*
X137338922Y-79874113D01*
X137298633Y-79687270D01*
X136399563Y-79687270D01*
X136571742Y-80102045D01*
X136791582Y-80660229D01*
X136975990Y-81163293D01*
X136989437Y-81202086D01*
X137128881Y-81594178D01*
X137257283Y-81932998D01*
X137360709Y-82183203D01*
X137425224Y-82309450D01*
X137426779Y-82311398D01*
X137487822Y-82501995D01*
X137458331Y-82767218D01*
X137352556Y-83048674D01*
X137189671Y-83282884D01*
X137063228Y-83432504D01*
X137024762Y-83516819D01*
X137036545Y-83523667D01*
X137060780Y-83538492D01*
X137033880Y-83593961D01*
X136941415Y-83706571D01*
X136768956Y-83892816D01*
X136656954Y-84008802D01*
X136878052Y-84008802D01*
X136884067Y-83997156D01*
X136955566Y-84029745D01*
X137075832Y-84202862D01*
X137234802Y-84498252D01*
X137422413Y-84897657D01*
X137572000Y-85245202D01*
X137750510Y-85741572D01*
X137821772Y-86114303D01*
X137820944Y-86217424D01*
X137804320Y-86346395D01*
X137778181Y-86369702D01*
X137734096Y-86271319D01*
X137663630Y-86035217D01*
X137597814Y-85793319D01*
X137496654Y-85452964D01*
X137394500Y-85171160D01*
X137308009Y-84991756D01*
X137280314Y-84957452D01*
X137175799Y-84801414D01*
X137159683Y-84719800D01*
X137117261Y-84558271D01*
X137013804Y-84344057D01*
X136996460Y-84314835D01*
X136902777Y-84128978D01*
X136878052Y-84008802D01*
X136656954Y-84008802D01*
X136502075Y-84169190D01*
X136220720Y-84456269D01*
X135940714Y-84723309D01*
X135654795Y-84951373D01*
X135319742Y-85170099D01*
X134892334Y-85409128D01*
X134637817Y-85541760D01*
X134478161Y-85621904D01*
X135060136Y-85621904D01*
X135073872Y-85527111D01*
X135193246Y-85482200D01*
X135225601Y-85477685D01*
X135300199Y-85534331D01*
X135463769Y-85693779D01*
X135692862Y-85932199D01*
X135964026Y-86225764D01*
X135989777Y-86254167D01*
X136498220Y-86821592D01*
X136893213Y-87275672D01*
X137180386Y-87623450D01*
X137365372Y-87871972D01*
X137453801Y-88028279D01*
X137458822Y-88091640D01*
X137385528Y-88063907D01*
X137217795Y-87931080D01*
X136975703Y-87712806D01*
X136679330Y-87428730D01*
X136348753Y-87098499D01*
X136004050Y-86741759D01*
X135665300Y-86378155D01*
X135372402Y-86050142D01*
X135157744Y-85788830D01*
X135060136Y-85621904D01*
X134478161Y-85621904D01*
X134194856Y-85764116D01*
X133959903Y-85872029D01*
X134475502Y-85872029D01*
X134493000Y-85809667D01*
X134613828Y-85735998D01*
X134688497Y-85726297D01*
X134783249Y-85739999D01*
X134721704Y-85798530D01*
X134704667Y-85809667D01*
X134549542Y-85884459D01*
X134475502Y-85872029D01*
X133959903Y-85872029D01*
X133871243Y-85912750D01*
X133639294Y-85997930D01*
X133471321Y-86029924D01*
X133346651Y-86020598D01*
X133156767Y-86005294D01*
X133096000Y-86056940D01*
X133165901Y-86135330D01*
X133244167Y-86150202D01*
X133254926Y-86187182D01*
X133140566Y-86282317D01*
X132926667Y-86414528D01*
X132459609Y-86698527D01*
X131950505Y-87043231D01*
X131428600Y-87425396D01*
X130923141Y-87821783D01*
X130463373Y-88209148D01*
X130078542Y-88564250D01*
X129797893Y-88863847D01*
X129723178Y-88960367D01*
X129525357Y-89238667D01*
X129582724Y-88942334D01*
X129695413Y-88573640D01*
X129898146Y-88115045D01*
X130168785Y-87603493D01*
X130485194Y-87075925D01*
X130825237Y-86569286D01*
X131166778Y-86120519D01*
X131482797Y-85771318D01*
X131715544Y-85527452D01*
X131816669Y-85375616D01*
X131790886Y-85307412D01*
X131746544Y-85301667D01*
X131637947Y-85352731D01*
X131428404Y-85491435D01*
X131146241Y-85696047D01*
X130819784Y-85944835D01*
X130477361Y-86216066D01*
X130147297Y-86488009D01*
X129857920Y-86738931D01*
X129776724Y-86812916D01*
X129206614Y-87413536D01*
X128715818Y-88095172D01*
X128280504Y-88893158D01*
X128258264Y-88942334D01*
X129370667Y-88942334D01*
X129401645Y-88872644D01*
X129427111Y-88885889D01*
X129437244Y-88986369D01*
X129427111Y-88998778D01*
X129376777Y-88987156D01*
X129370667Y-88942334D01*
X128258264Y-88942334D01*
X128090750Y-89312718D01*
X127930032Y-89675007D01*
X127787912Y-89971335D01*
X127679488Y-90171822D01*
X127619858Y-90246588D01*
X127618877Y-90246565D01*
X127526660Y-90162445D01*
X127398153Y-89947207D01*
X127246188Y-89631785D01*
X127083595Y-89247112D01*
X126923207Y-88824124D01*
X126777853Y-88393754D01*
X126660367Y-87986936D01*
X126629460Y-87861247D01*
X126541977Y-87483006D01*
X126470718Y-87170187D01*
X126423317Y-86956627D01*
X126407333Y-86876635D01*
X126486573Y-86862261D01*
X126702714Y-86845276D01*
X127023388Y-86827738D01*
X127416227Y-86811703D01*
X127444500Y-86810727D01*
X127859126Y-86790215D01*
X128221427Y-86760519D01*
X128492412Y-86725615D01*
X128633092Y-86689483D01*
X128633115Y-86689470D01*
X128636506Y-86655098D01*
X128495344Y-86634811D01*
X128202328Y-86628270D01*
X127750162Y-86635140D01*
X127566532Y-86640240D01*
X126348500Y-86676884D01*
X126298119Y-86306776D01*
X126274455Y-85970085D01*
X126280761Y-85615009D01*
X126285755Y-85555667D01*
X126298451Y-85354558D01*
X126288350Y-85267615D01*
X126273654Y-85281028D01*
X126184614Y-85349700D01*
X126146102Y-85339531D01*
X126100171Y-85384806D01*
X126072414Y-85554273D01*
X126068667Y-85667087D01*
X126056471Y-85969405D01*
X126026230Y-86248515D01*
X126016887Y-86301397D01*
X125966309Y-86475851D01*
X125881176Y-86517704D01*
X125757375Y-86481314D01*
X125569768Y-86415905D01*
X125491568Y-86415499D01*
X125476000Y-86478718D01*
X125547008Y-86557334D01*
X125717829Y-86639404D01*
X125718639Y-86639687D01*
X125961279Y-86724271D01*
X125923660Y-87558136D01*
X125905579Y-87922095D01*
X125887497Y-88223798D01*
X125872038Y-88422230D01*
X125865041Y-88474938D01*
X125816593Y-88499257D01*
X125727902Y-88382184D01*
X125606439Y-88144799D01*
X125459676Y-87808182D01*
X125295083Y-87393412D01*
X125120131Y-86921570D01*
X124942291Y-86413735D01*
X124769034Y-85890988D01*
X124607831Y-85374409D01*
X124466152Y-84885076D01*
X124351468Y-84444072D01*
X124271250Y-84072474D01*
X124243938Y-83900784D01*
X124226983Y-83661866D01*
X121559450Y-83661866D01*
X121513888Y-84005898D01*
X121509363Y-84544041D01*
X121570715Y-85119449D01*
X121577707Y-85164905D01*
X121621468Y-85476227D01*
X121673022Y-85890946D01*
X121724485Y-86343853D01*
X121751662Y-86603094D01*
X121814561Y-87077016D01*
X121905569Y-87578766D01*
X122009514Y-88029631D01*
X122061716Y-88211760D01*
X122126288Y-88394083D01*
X122271682Y-88394083D01*
X122273057Y-88391721D01*
X122330102Y-88440581D01*
X122446842Y-88604095D01*
X122600106Y-88849246D01*
X122631638Y-88902661D01*
X122801446Y-89166900D01*
X123021074Y-89472427D01*
X123265332Y-89788506D01*
X123509033Y-90084403D01*
X123726988Y-90329380D01*
X123894009Y-90492701D01*
X123977003Y-90544354D01*
X124008827Y-90476903D01*
X123997668Y-90303159D01*
X123992885Y-90275834D01*
X123979856Y-90012940D01*
X124019472Y-89790195D01*
X124071212Y-89668126D01*
X124119217Y-89656142D01*
X124193967Y-89769638D01*
X124270926Y-89917195D01*
X124566851Y-90394381D01*
X124888144Y-90732209D01*
X125221660Y-90918130D01*
X125349000Y-90946357D01*
X126026392Y-91041036D01*
X126608269Y-91140210D01*
X127077616Y-91240112D01*
X127417416Y-91336975D01*
X127610654Y-91427029D01*
X127638403Y-91453321D01*
X127728095Y-91549492D01*
X127758299Y-91504824D01*
X127759338Y-91482334D01*
X127778020Y-91447403D01*
X127843236Y-91419309D01*
X127971218Y-91397297D01*
X128178200Y-91380610D01*
X128480417Y-91368491D01*
X128894100Y-91360184D01*
X129435486Y-91354933D01*
X130120806Y-91351982D01*
X130577197Y-91351046D01*
X131390243Y-91349097D01*
X132059615Y-91344051D01*
X132610970Y-91333023D01*
X133069968Y-91313131D01*
X133462268Y-91281493D01*
X133813527Y-91235226D01*
X134149405Y-91171447D01*
X134495559Y-91087273D01*
X134877649Y-90979821D01*
X135321334Y-90846208D01*
X135466667Y-90801702D01*
X135958712Y-90652451D01*
X136309641Y-90550966D01*
X136539480Y-90492984D01*
X136668256Y-90474241D01*
X136715995Y-90490473D01*
X136702722Y-90537417D01*
X136701920Y-90538725D01*
X136687038Y-90625807D01*
X136711303Y-90635667D01*
X136806855Y-90572382D01*
X136876220Y-90482556D01*
X137013626Y-90364341D01*
X137243190Y-90251871D01*
X137333848Y-90220984D01*
X137589745Y-90126394D01*
X137924226Y-89978993D01*
X138268452Y-89809276D01*
X138295762Y-89794900D01*
X138582079Y-89636752D01*
X138785475Y-89495997D01*
X138946853Y-89330884D01*
X139107119Y-89099663D01*
X139304463Y-88765306D01*
X139507465Y-88401046D01*
X139698724Y-88039367D01*
X139847057Y-87739881D01*
X139887251Y-87651167D01*
X139992921Y-87424199D01*
X140075170Y-87278369D01*
X140103796Y-87249000D01*
X140118597Y-87323925D01*
X140107826Y-87514056D01*
X140093214Y-87636665D01*
X139966810Y-88184342D01*
X139733535Y-88818082D01*
X139409014Y-89507041D01*
X139008872Y-90220371D01*
X138548735Y-90927224D01*
X138161586Y-91449962D01*
X137933352Y-91719460D01*
X137669032Y-91999253D01*
X137395842Y-92264585D01*
X137140996Y-92490701D01*
X136931711Y-92652844D01*
X136795200Y-92726260D01*
X136762960Y-92722182D01*
X136783892Y-92635037D01*
X136890628Y-92463026D01*
X137006940Y-92309984D01*
X137204249Y-92054724D01*
X137433708Y-91732252D01*
X137713948Y-91315616D01*
X138028905Y-90831770D01*
X138039659Y-90782106D01*
X137970460Y-90777706D01*
X137805576Y-90823641D01*
X137529276Y-90924981D01*
X137125828Y-91086795D01*
X136736667Y-91248245D01*
X135654139Y-91677177D01*
X134637884Y-92032034D01*
X133721753Y-92301082D01*
X133632524Y-92323933D01*
X132862819Y-92481950D01*
X131967372Y-92605126D01*
X130986533Y-92691593D01*
X129960651Y-92739483D01*
X128930077Y-92746927D01*
X127935161Y-92712056D01*
X127016252Y-92633001D01*
X127000000Y-92631084D01*
X126616226Y-92586724D01*
X126301167Y-92552510D01*
X126088528Y-92531951D01*
X126012098Y-92528255D01*
X126057185Y-92591598D01*
X126189044Y-92745320D01*
X126376140Y-92952860D01*
X126562209Y-93166567D01*
X126684358Y-93328610D01*
X126716080Y-93403142D01*
X126611331Y-93395501D01*
X126397985Y-93297644D01*
X126100596Y-93123974D01*
X125743718Y-92888895D01*
X125351904Y-92606807D01*
X125328615Y-92589300D01*
X124778570Y-92139828D01*
X124268755Y-91656997D01*
X123830975Y-91174263D01*
X123497034Y-90725085D01*
X123396815Y-90557101D01*
X123261793Y-90325542D01*
X123153665Y-90169628D01*
X123106502Y-90127667D01*
X123048587Y-90056700D01*
X122941289Y-89868871D01*
X122802665Y-89601794D01*
X122650773Y-89293079D01*
X122503671Y-88980339D01*
X122379417Y-88701185D01*
X122296068Y-88493229D01*
X122271682Y-88394083D01*
X122126288Y-88394083D01*
X122192480Y-88580976D01*
X122365191Y-89005608D01*
X122561235Y-89446095D01*
X122761996Y-89862879D01*
X122948862Y-90216400D01*
X123103216Y-90467099D01*
X123153277Y-90531541D01*
X123265652Y-90670875D01*
X123440350Y-90900362D01*
X123641196Y-91172411D01*
X123657818Y-91195289D01*
X124221399Y-91854542D01*
X124928582Y-92488998D01*
X125753820Y-93081773D01*
X126671565Y-93615981D01*
X127656272Y-94074735D01*
X128465284Y-94372878D01*
X129396426Y-94652690D01*
X130222149Y-94842837D01*
X130980438Y-94943702D01*
X131709282Y-94955664D01*
X132446666Y-94879104D01*
G37*
X132446666Y-94879104D02*
X133230578Y-94714404D01*
X134099006Y-94461945D01*
X134196667Y-94430352D01*
X134592759Y-94294254D01*
X134974652Y-94151178D01*
X135282370Y-94024046D01*
X135383106Y-93976927D01*
X135629072Y-93833128D01*
X135958892Y-93612747D01*
X136327322Y-93348779D01*
X136689116Y-93074220D01*
X136999030Y-92822063D01*
X137143449Y-92693179D01*
X137303085Y-92544274D01*
X137520505Y-92343652D01*
X137621482Y-92251056D01*
X138108311Y-91745019D01*
X138603234Y-91122461D01*
X139073873Y-90431286D01*
X139487849Y-89719398D01*
X139812784Y-89034701D01*
X139838686Y-88970698D01*
X140101306Y-88218930D01*
X140292998Y-87447726D01*
X140419840Y-86619522D01*
X140487907Y-85696754D01*
X140504129Y-84857315D01*
X140499748Y-84311169D01*
X140487078Y-83871234D01*
X140467070Y-83555077D01*
X140440675Y-83380267D01*
X140422521Y-83350542D01*
X140368237Y-83425233D01*
X140295872Y-83627465D01*
X140218603Y-83918359D01*
X140196118Y-84018580D01*
X140113991Y-84359418D01*
X140027415Y-84653500D01*
X139952714Y-84846557D01*
X139940403Y-84868643D01*
X139886945Y-84934954D01*
X139843020Y-84922542D01*
X139799522Y-84808672D01*
X139747345Y-84570606D01*
X139685655Y-84232602D01*
X139593487Y-83777404D01*
X139475956Y-83289714D01*
X139354667Y-82857374D01*
X139323152Y-82758734D01*
X139249425Y-82528034D01*
X139194504Y-82322397D01*
X139155725Y-82111606D01*
X139130422Y-81865444D01*
X139115932Y-81553695D01*
X139109590Y-81146141D01*
X139108731Y-80612566D01*
X139109389Y-80334756D01*
X139108308Y-79787347D01*
X139102326Y-79282116D01*
X139092192Y-78849246D01*
X139078658Y-78518924D01*
X139062475Y-78321334D01*
X139058769Y-78299329D01*
X139042494Y-78140529D01*
X139081299Y-77993265D01*
X139196034Y-77812825D01*
X139404333Y-77558262D01*
X139683648Y-77267052D01*
X140048069Y-76937707D01*
X140459862Y-76599422D01*
X140881294Y-76281392D01*
X141274631Y-76012814D01*
X141602139Y-75822883D01*
X141710833Y-75773648D01*
X141935817Y-75664952D01*
X142058965Y-75566503D01*
X142061566Y-75499684D01*
X141964833Y-75483354D01*
X141711093Y-75498002D01*
X141376533Y-75527162D01*
X141006584Y-75565630D01*
X140646678Y-75608198D01*
X140342248Y-75649663D01*
X140138725Y-75684818D01*
X140089408Y-75698240D01*
X140041556Y-75679067D01*
X140090230Y-75555576D01*
X140219331Y-75349896D01*
X140412756Y-75084154D01*
X140654404Y-74780478D01*
X140928173Y-74460995D01*
X141216412Y-74149439D01*
X141983820Y-73401555D01*
X142773250Y-72731757D01*
X143624490Y-72110180D01*
X144577325Y-71506962D01*
X145251296Y-71120917D01*
X145936179Y-70761988D01*
X146574602Y-70476717D01*
X147212761Y-70250123D01*
X147896850Y-70067227D01*
X148673067Y-69913045D01*
X149268080Y-69818289D01*
X150044276Y-69737076D01*
X150836215Y-69714551D01*
X151592615Y-69749465D01*
X152262193Y-69840571D01*
X152512768Y-69897266D01*
X153234233Y-70101583D01*
X153908216Y-70328478D01*
X154566907Y-70592596D01*
X155242497Y-70908581D01*
X155967176Y-71291077D01*
X156773132Y-71754729D01*
X157317473Y-72083079D01*
X158003804Y-72527579D01*
X158596013Y-72971984D01*
X159160894Y-73468917D01*
X159513680Y-73813364D01*
X159698794Y-73977011D01*
X159837509Y-74058165D01*
X159886253Y-74051917D01*
X159883332Y-73923580D01*
X159808438Y-73691262D01*
X159679517Y-73394467D01*
X159514512Y-73072704D01*
X159331366Y-72765478D01*
X159243138Y-72635966D01*
X159071495Y-72431873D01*
X158793188Y-72141432D01*
X158431998Y-71786268D01*
X158011703Y-71388006D01*
X157556082Y-70968275D01*
X157088914Y-70548699D01*
X156633978Y-70150905D01*
X156215052Y-69796520D01*
X155855917Y-69507168D01*
X155580350Y-69304478D01*
X155579097Y-69303634D01*
X154762940Y-68769454D01*
X154060858Y-68341604D01*
X153476954Y-68022484D01*
X153063666Y-67833317D01*
X152539076Y-67633080D01*
X152030650Y-67455124D01*
X151583722Y-67314516D01*
X151243624Y-67226325D01*
X151227465Y-67223001D01*
X151059337Y-67175123D01*
X151021665Y-67118807D01*
X151123786Y-67045856D01*
X151375039Y-66948071D01*
X151638000Y-66862532D01*
X151978790Y-66759954D01*
X152274562Y-66683770D01*
X152568397Y-66627023D01*
X152903374Y-66582752D01*
X153322574Y-66544001D01*
X153851059Y-66505058D01*
X154886367Y-66468592D01*
X155864082Y-66503705D01*
X156752828Y-66607841D01*
X157521228Y-66778444D01*
X157636041Y-66813367D01*
X158333402Y-67076847D01*
X159112378Y-67443167D01*
X159938777Y-67891626D01*
X160778409Y-68401524D01*
X161597079Y-68952161D01*
X162360597Y-69522835D01*
X162998292Y-70059789D01*
X163326159Y-70344237D01*
X163549871Y-70508513D01*
X163680180Y-70556820D01*
X163727844Y-70493362D01*
X163707211Y-70336834D01*
X163620081Y-70065991D01*
X163473323Y-69743990D01*
X163255142Y-69349161D01*
X162953745Y-68859833D01*
X162647789Y-68390300D01*
X162108727Y-67656391D01*
X161444391Y-66881718D01*
X160684103Y-66094603D01*
X159857188Y-65323369D01*
X158992968Y-64596339D01*
X158120768Y-63941837D01*
X157848728Y-63754995D01*
X157573864Y-63576855D01*
X157349788Y-63443043D01*
X157215439Y-63376473D01*
X157199544Y-63373000D01*
X157100843Y-63332234D01*
X156901979Y-63225132D01*
X156640647Y-63074490D01*
X156354543Y-62903105D01*
X156081362Y-62733773D01*
X155858801Y-62589290D01*
X155724555Y-62492452D01*
X155702000Y-62467374D01*
X155776860Y-62451216D01*
X155973587Y-62470923D01*
X156250401Y-62518845D01*
X156565523Y-62587334D01*
X156877173Y-62668737D01*
X156993627Y-62703874D01*
X157736994Y-62994491D01*
X158480897Y-63383876D01*
X159058547Y-63766660D01*
X159377812Y-63991264D01*
X159579224Y-64103340D01*
X159664536Y-64110222D01*
X159635506Y-64019246D01*
X159493889Y-63837746D01*
X159241440Y-63573058D01*
X158944853Y-63291649D01*
X158253812Y-62717034D01*
X157436948Y-62135106D01*
X156534953Y-61569318D01*
X155588520Y-61043127D01*
X154638340Y-60579988D01*
X153725106Y-60203356D01*
X153373667Y-60080331D01*
X152439579Y-59804799D01*
X151479771Y-59580841D01*
X150542516Y-59417478D01*
X149676087Y-59323736D01*
X149225000Y-59304820D01*
X148378333Y-59294732D01*
X148747536Y-59125244D01*
X148994986Y-59022161D01*
X149386207Y-58872937D01*
X149903919Y-58683745D01*
X150530846Y-58460763D01*
X151249709Y-58210167D01*
X152043230Y-57938132D01*
X152527000Y-57774268D01*
X153273059Y-57497680D01*
X154029226Y-57171641D01*
X154771614Y-56810025D01*
X155476339Y-56426702D01*
X156119516Y-56035547D01*
X156677257Y-55650432D01*
X157125679Y-55285228D01*
X157440895Y-54953810D01*
X157484226Y-54895133D01*
X157630869Y-54700169D01*
X157748771Y-54568412D01*
X157769802Y-54551104D01*
X157839171Y-54472197D01*
X157775328Y-54437435D01*
X157609389Y-54450103D01*
X157382195Y-54510180D01*
X157069790Y-54609038D01*
X156754407Y-54693121D01*
X156420844Y-54763265D01*
X156053901Y-54820305D01*
X155638380Y-54865076D01*
X155159080Y-54898412D01*
X154600801Y-54921150D01*
X153948344Y-54934122D01*
X153186509Y-54938166D01*
X152300095Y-54934115D01*
X151273904Y-54922804D01*
X150170400Y-54906334D01*
X147559801Y-54864000D01*
X147971366Y-54683420D01*
X148512033Y-54499004D01*
X149190615Y-54353839D01*
X149979552Y-54251234D01*
X150851286Y-54194500D01*
X151778256Y-54186945D01*
X152045580Y-54194150D01*
X152518899Y-54205321D01*
X152833919Y-54199849D01*
X153000908Y-54177161D01*
X153031731Y-54139045D01*
X152897399Y-54026314D01*
X152621983Y-53876804D01*
X152227447Y-53699437D01*
X151735756Y-53503135D01*
X151168875Y-53296820D01*
X150548770Y-53089415D01*
X150116753Y-52954977D01*
X149879257Y-52886678D01*
X149668267Y-52838536D01*
X149450083Y-52808494D01*
X149191006Y-52794499D01*
X148857338Y-52794495D01*
X148415377Y-52806426D01*
X147957753Y-52823318D01*
X147432070Y-52847491D01*
X146933942Y-52877341D01*
X146500853Y-52910106D01*
X146170289Y-52943023D01*
X146007667Y-52967040D01*
X145659855Y-53032986D01*
X145271879Y-53101547D01*
X145118667Y-53127056D01*
X144767632Y-53184388D01*
X144359472Y-53251706D01*
X144102667Y-53294400D01*
X143827288Y-53353930D01*
X143435379Y-53456677D01*
X142970404Y-53590394D01*
X142475824Y-53742834D01*
X142240000Y-53819281D01*
X141713671Y-53997125D01*
X141310774Y-54146172D01*
X140992078Y-54284677D01*
X140718348Y-54430894D01*
X140450352Y-54603079D01*
X140250333Y-54745068D01*
X139931301Y-54971915D01*
X139707377Y-55114019D01*
X139579025Y-55163541D01*
X139546709Y-55112646D01*
X139610892Y-54953496D01*
X139772038Y-54678253D01*
X140030610Y-54279081D01*
X140301848Y-53874253D01*
X140707275Y-53341240D01*
X141231398Y-52758418D01*
X141843978Y-52156553D01*
X142514776Y-51566411D01*
X142790333Y-51342346D01*
X143104442Y-51107181D01*
X143467529Y-50857662D01*
X143847326Y-50613382D01*
X144211564Y-50393933D01*
X144527975Y-50218907D01*
X144764289Y-50107898D01*
X144872108Y-50078356D01*
X145031668Y-50033963D01*
X145262307Y-49924951D01*
X145511184Y-49782294D01*
X145725454Y-49636965D01*
X145852274Y-49519937D01*
X145864921Y-49496442D01*
X145857077Y-49431147D01*
X145755052Y-49409662D01*
X145526909Y-49427474D01*
X145447353Y-49437418D01*
X144461114Y-49644277D01*
X143454330Y-50006404D01*
X142444960Y-50514171D01*
X141450968Y-51157949D01*
X140490313Y-51928109D01*
X140062662Y-52324000D01*
X139770594Y-52601588D01*
X139527670Y-52822759D01*
X139356170Y-52967962D01*
X139278371Y-53017643D01*
X139276017Y-53014365D01*
X139298446Y-52898355D01*
X139355336Y-52677475D01*
X139404533Y-52502884D01*
X139488027Y-52184578D01*
X139579088Y-51790246D01*
X139650271Y-51444425D01*
X139707853Y-51123511D01*
X139727932Y-50923278D01*
X139708014Y-50798733D01*
X139645608Y-50704883D01*
X139607071Y-50664739D01*
X139487750Y-50531158D01*
X139446000Y-50460466D01*
X139490979Y-50373973D01*
X139608175Y-50191611D01*
X139751336Y-49982859D01*
X140491089Y-49015279D01*
X141269503Y-48156399D01*
X141804753Y-47652761D01*
X142107493Y-47382681D01*
X142370200Y-47138359D01*
X142561533Y-46949549D01*
X142643718Y-46856259D01*
X142709255Y-46736242D01*
X142644427Y-46696738D01*
X142549262Y-46693667D01*
X142325456Y-46743025D01*
X141995315Y-46880037D01*
X141585945Y-47088108D01*
X141124451Y-47350645D01*
X140637938Y-47651053D01*
X140153511Y-47972739D01*
X139698277Y-48299109D01*
X139299339Y-48613569D01*
X139046817Y-48837870D01*
X138828576Y-49028575D01*
X138700491Y-49094282D01*
X138651637Y-49057867D01*
X138615049Y-48920622D01*
X138553610Y-48668797D01*
X138479624Y-48353019D01*
X138467991Y-48302334D01*
X138389697Y-47980453D01*
X138316593Y-47714482D01*
X138262853Y-47555457D01*
X138257405Y-47544106D01*
X138266688Y-47409099D01*
X138360164Y-47140323D01*
X138533682Y-46748472D01*
X138692067Y-46423575D01*
X138877556Y-46050414D01*
X139031893Y-45733962D01*
X139140917Y-45503697D01*
X139190471Y-45389101D01*
X139192000Y-45382636D01*
X139109265Y-45376410D01*
X138868790Y-45370450D01*
X138482168Y-45364818D01*
X137960990Y-45359576D01*
X137316850Y-45354786D01*
X136561340Y-45350512D01*
X135706054Y-45346816D01*
X134762584Y-45343760D01*
X133742522Y-45341407D01*
X132657461Y-45339819D01*
X131518995Y-45339059D01*
X131097275Y-45339000D01*
X129698515Y-45339400D01*
X128460643Y-45340672D01*
X127375211Y-45342927D01*
X126433777Y-45346277D01*
X125627893Y-45350832D01*
X124949116Y-45356704D01*
X124389001Y-45364004D01*
X123939101Y-45372843D01*
X123590973Y-45383331D01*
X123336171Y-45395580D01*
X123166250Y-45409701D01*
X123072766Y-45425804D01*
X123047272Y-45444002D01*
X123047572Y-45444834D01*
X123325852Y-46114438D01*
X123530024Y-46640511D01*
X123659263Y-47020771D01*
X123712742Y-47252937D01*
X123714212Y-47286334D01*
X123691344Y-47458651D01*
X123632811Y-47761826D01*
X123546451Y-48163067D01*
X123440105Y-48629584D01*
X123321611Y-49128585D01*
X123198809Y-49627278D01*
X123079539Y-50092871D01*
X122971640Y-50492575D01*
X122882950Y-50793597D01*
X122856845Y-50872616D01*
X122750993Y-51244977D01*
X122663487Y-51669755D01*
X122628012Y-51923317D01*
X122581922Y-52240207D01*
X122501493Y-52505160D01*
X122361515Y-52782504D01*
X122175346Y-53078368D01*
X121540475Y-54120992D01*
X121043658Y-55120219D01*
X120670796Y-56106972D01*
X120514127Y-56669499D01*
X122302226Y-56669499D01*
X122303683Y-56580362D01*
X122325148Y-56354306D01*
X122363239Y-56022122D01*
X122414572Y-55614599D01*
X122435470Y-55456667D01*
X122506106Y-54886887D01*
X122576916Y-54242980D01*
X122639093Y-53608971D01*
X122679499Y-53128334D01*
X122724688Y-52543169D01*
X122764830Y-52092596D01*
X122805318Y-51742198D01*
X122851544Y-51457556D01*
X122908902Y-51204251D01*
X122982786Y-50947865D01*
X123057166Y-50718159D01*
X123157762Y-50386582D01*
X123276425Y-49951200D01*
X123396787Y-49474004D01*
X123482659Y-49106667D01*
X123579759Y-48682406D01*
X123673072Y-48291082D01*
X123751615Y-47977797D01*
X123802087Y-47795012D01*
X123893989Y-47499357D01*
X124059272Y-47879679D01*
X124167684Y-48223285D01*
X124213428Y-48637297D01*
X124215576Y-48862202D01*
X137583333Y-48862202D01*
X137600868Y-48523349D01*
X137667404Y-48273730D01*
X137803834Y-48035594D01*
X137806515Y-48031718D01*
X137953185Y-47840018D01*
X138068072Y-47724725D01*
X138099585Y-47709667D01*
X138161849Y-47783390D01*
X138237143Y-47969273D01*
X138267116Y-48069500D01*
X138317977Y-48280936D01*
X138381621Y-48579528D01*
X138450956Y-48927210D01*
X138518891Y-49285914D01*
X138578336Y-49617576D01*
X138622198Y-49884126D01*
X138643387Y-50047500D01*
X138641702Y-50080334D01*
X138532778Y-50037742D01*
X138335343Y-49930746D01*
X138100668Y-49790519D01*
X137880025Y-49648232D01*
X137724686Y-49535057D01*
X137689167Y-49501220D01*
X137631674Y-49348713D01*
X137593298Y-49090050D01*
X137583333Y-48862202D01*
X124215576Y-48862202D01*
X124215817Y-48887406D01*
X124205415Y-49197649D01*
X124186030Y-49437130D01*
X124161596Y-49559676D01*
X124158129Y-49564739D01*
X124051059Y-49624645D01*
X123857038Y-49702717D01*
X123840090Y-49708704D01*
X123649317Y-49805578D01*
X123587356Y-49940096D01*
X123588671Y-50005037D01*
X123603438Y-50168714D01*
X123604167Y-50176669D01*
X123746997Y-50176669D01*
X123756437Y-49994573D01*
X123801196Y-49899246D01*
X123840890Y-49874285D01*
X124019430Y-49828983D01*
X124339194Y-49771199D01*
X124772821Y-49704372D01*
X125292953Y-49631938D01*
X125872229Y-49557334D01*
X126483289Y-49483999D01*
X127098775Y-49415369D01*
X127691325Y-49354881D01*
X128233581Y-49305972D01*
X128566333Y-49280622D01*
X129275801Y-49232982D01*
X129844099Y-49198144D01*
X130298875Y-49175724D01*
X130667777Y-49165337D01*
X130978455Y-49166600D01*
X131258557Y-49179128D01*
X131535732Y-49202537D01*
X131828221Y-49235311D01*
X132179449Y-49284034D01*
X132481350Y-49337556D01*
X132682146Y-49386339D01*
X132715000Y-49398657D01*
X132839613Y-49446010D01*
X133101053Y-49538688D01*
X133475498Y-49668480D01*
X133939128Y-49827173D01*
X134468121Y-50006559D01*
X134916333Y-50157423D01*
X135708799Y-50418426D01*
X136023801Y-50516120D01*
X137598486Y-50516120D01*
X137600126Y-50328347D01*
X137649540Y-50281291D01*
X137656970Y-50285184D01*
X137706211Y-50254302D01*
X137699520Y-50074852D01*
X137693674Y-50036407D01*
X137667826Y-49839625D01*
X137698940Y-49776351D01*
X137816257Y-49813047D01*
X137868022Y-49836434D01*
X138028897Y-49935987D01*
X138091333Y-50023369D01*
X138128300Y-50067242D01*
X138145276Y-50054613D01*
X138241543Y-50065933D01*
X138419863Y-50162430D01*
X138636469Y-50315948D01*
X138847599Y-50498333D01*
X138871436Y-50521770D01*
X139032208Y-50617376D01*
X139147746Y-50619688D01*
X139257527Y-50624685D01*
X139276667Y-50668939D01*
X139325093Y-50730055D01*
X139355483Y-50718950D01*
X139463873Y-50730186D01*
X139489232Y-50759122D01*
X139444595Y-50800340D01*
X139244998Y-50823546D01*
X138885265Y-50829113D01*
X138584916Y-50824003D01*
X137625667Y-50800000D01*
X137598486Y-50516120D01*
X136023801Y-50516120D01*
X136369794Y-50623425D01*
X136925593Y-50777984D01*
X137402467Y-50887670D01*
X137826691Y-50958048D01*
X138224535Y-50994686D01*
X138622274Y-51003147D01*
X138878233Y-50996768D01*
X139583736Y-50969334D01*
X139490876Y-51431798D01*
X139430616Y-51697707D01*
X139361472Y-51844597D01*
X139245281Y-51920233D01*
X139062175Y-51968356D01*
X138776214Y-52001672D01*
X138363608Y-52010724D01*
X137864987Y-51997559D01*
X137320984Y-51964224D01*
X136772229Y-51912766D01*
X136259353Y-51845232D01*
X136101667Y-51819200D01*
X135672963Y-51732872D01*
X135165940Y-51614126D01*
X134663326Y-51482862D01*
X134450667Y-51422064D01*
X134009181Y-51304332D01*
X133552389Y-51204191D01*
X133148743Y-51135764D01*
X132969000Y-51116386D01*
X132629847Y-51077161D01*
X132325714Y-51016118D01*
X132134898Y-50951643D01*
X131888186Y-50870303D01*
X131493923Y-50795744D01*
X130973819Y-50729821D01*
X130349584Y-50674393D01*
X129642929Y-50631317D01*
X128875565Y-50602451D01*
X128069200Y-50589652D01*
X127898442Y-50589180D01*
X127285210Y-50589802D01*
X126810001Y-50594169D01*
X126441506Y-50605085D01*
X126148417Y-50625352D01*
X125899427Y-50657773D01*
X125663227Y-50705151D01*
X125408509Y-50770289D01*
X125189109Y-50831738D01*
X124699428Y-50971170D01*
X124349028Y-51067727D01*
X124113733Y-51122740D01*
X123969362Y-51137543D01*
X123891739Y-51113466D01*
X123856684Y-51051844D01*
X123840018Y-50954008D01*
X123833302Y-50906455D01*
X123772683Y-50471856D01*
X123746997Y-50176669D01*
X123604167Y-50176669D01*
X123629974Y-50457936D01*
X123664316Y-50829646D01*
X123696934Y-51181000D01*
X123762628Y-51935923D01*
X123831820Y-52820457D01*
X123901618Y-53795002D01*
X123969127Y-54819956D01*
X124003201Y-55373600D01*
X124059178Y-56306533D01*
X123193476Y-56501765D01*
X122834749Y-56579697D01*
X122543415Y-56637376D01*
X122354887Y-56668137D01*
X122302226Y-56669499D01*
X120514127Y-56669499D01*
X120476727Y-56803782D01*
X120399397Y-57195615D01*
X120345820Y-57606646D01*
X120317270Y-58001077D01*
X120315016Y-58343110D01*
X120340332Y-58596948D01*
X120394488Y-58726794D01*
X120408141Y-58734492D01*
X120459259Y-58803950D01*
X120399031Y-58964669D01*
X120398376Y-58965893D01*
X120358245Y-59089334D01*
X120334145Y-59293564D01*
X120325472Y-59600458D01*
X120331623Y-60031895D01*
X120351994Y-60609750D01*
X120352609Y-60624556D01*
X120369333Y-61117205D01*
X120377317Y-61561440D01*
X120376536Y-61925145D01*
X120366966Y-62176204D01*
X120353844Y-62271776D01*
X120312953Y-62364274D01*
X120256129Y-62366527D01*
X120156473Y-62261631D01*
X119998394Y-62048399D01*
X119799643Y-61747523D01*
X119582223Y-61381148D01*
X119423581Y-61087000D01*
X119233425Y-60712533D01*
X119026717Y-60306537D01*
X118884877Y-60028667D01*
X118741055Y-59739526D01*
X118553772Y-59351939D01*
X118349717Y-58921576D01*
X118194844Y-58589334D01*
X118019812Y-58212908D01*
X117864054Y-57882403D01*
X117744854Y-57634204D01*
X117680569Y-57506625D01*
X117617558Y-57358285D01*
X117523564Y-57096314D01*
X117415793Y-56769415D01*
X117381487Y-56659959D01*
X117265847Y-56289993D01*
X117153554Y-55937253D01*
X117065447Y-55667061D01*
X117051656Y-55626000D01*
X116889501Y-55096967D01*
X116758415Y-54570022D01*
X116666045Y-54084853D01*
X116620039Y-53681147D01*
X116625455Y-53414345D01*
X116639517Y-53177188D01*
X116607740Y-53054687D01*
X116549149Y-53063609D01*
X116482766Y-53220726D01*
X116469082Y-53276500D01*
X116446395Y-53444996D01*
X116420560Y-53744000D01*
X116394405Y-54134795D01*
X116378110Y-54440667D01*
X116501333Y-54440667D01*
X116543667Y-54398334D01*
X116586000Y-54440667D01*
X116543667Y-54483000D01*
X116501333Y-54440667D01*
X116378110Y-54440667D01*
X116370758Y-54578661D01*
X116365514Y-54694667D01*
X116347769Y-55165918D01*
X116344134Y-55540085D01*
X116358956Y-55867741D01*
X116396584Y-56199455D01*
X116461365Y-56585799D01*
X116557647Y-57077345D01*
X116579706Y-57186043D01*
X116689937Y-57698882D01*
X116810494Y-58212067D01*
X116928992Y-58675723D01*
X117033043Y-59039976D01*
X117063290Y-59133377D01*
X117190247Y-59488148D01*
X117351798Y-59911756D01*
X117533789Y-60370073D01*
X117722071Y-60828968D01*
X117902491Y-61254314D01*
X118060898Y-61611981D01*
X118183140Y-61867841D01*
X118237160Y-61964398D01*
X118326402Y-62133982D01*
X118446339Y-62404506D01*
X118570769Y-62716793D01*
X118689790Y-63022708D01*
X118796896Y-63280192D01*
X118869312Y-63434546D01*
X118870395Y-63436460D01*
X118938940Y-63581594D01*
X119047059Y-63837576D01*
X119174813Y-64156725D01*
X119215657Y-64262000D01*
X119392987Y-64687107D01*
X119608483Y-65153593D01*
X119815851Y-65561296D01*
X119818129Y-65565474D01*
X120159887Y-66191615D01*
X120172110Y-67343474D01*
X120174040Y-67490392D01*
X120274156Y-67490392D01*
X120293776Y-67037105D01*
X120313984Y-66768388D01*
X120349363Y-66339654D01*
X120379132Y-65939159D01*
X120399780Y-65616608D01*
X120407459Y-65444499D01*
X120465562Y-64890821D01*
X120622986Y-64316864D01*
X120874573Y-63712637D01*
X121137970Y-63138576D01*
X121318131Y-62711871D01*
X121415090Y-62432432D01*
X121428879Y-62300169D01*
X121399578Y-62290586D01*
X121327421Y-62377539D01*
X121207654Y-62588244D01*
X121057582Y-62890057D01*
X120910965Y-63212467D01*
X120523000Y-64100799D01*
X120526081Y-61641400D01*
X120529218Y-61001452D01*
X120536560Y-60407335D01*
X120547466Y-59882817D01*
X120561292Y-59451666D01*
X120577400Y-59137652D01*
X120595145Y-58964542D01*
X120598760Y-58949167D01*
X120712437Y-58758729D01*
X120842802Y-58716334D01*
X121052942Y-58689838D01*
X121380329Y-58618383D01*
X121782761Y-58514020D01*
X122218036Y-58388799D01*
X122643952Y-58254769D01*
X123018308Y-58123982D01*
X123261392Y-58025735D01*
X123531609Y-57906208D01*
X123733186Y-57820047D01*
X123824356Y-57785085D01*
X123825255Y-57785000D01*
X123831657Y-57800891D01*
X123823186Y-57863374D01*
X123794587Y-57994671D01*
X123740602Y-58217000D01*
X123655977Y-58552582D01*
X123535453Y-59023637D01*
X123494772Y-59182000D01*
X123280286Y-60036204D01*
X123112808Y-60755771D01*
X122988836Y-61367692D01*
X122904866Y-61898955D01*
X122857397Y-62376549D01*
X122842926Y-62827463D01*
X122857950Y-63278686D01*
X122898968Y-63757206D01*
X122899890Y-63765925D01*
X122920500Y-64090584D01*
X122893185Y-64358781D01*
X122805268Y-64653498D01*
X122737378Y-64829857D01*
X122604151Y-65182786D01*
X122453138Y-65612828D01*
X122314194Y-66034603D01*
X122297466Y-66087932D01*
X122153158Y-66528363D01*
X121979462Y-67025301D01*
X121811464Y-67478671D01*
X121794806Y-67521667D01*
X121605422Y-68025681D01*
X121456314Y-68458868D01*
X121353557Y-68800717D01*
X121303223Y-69030719D01*
X121311384Y-69128364D01*
X121318495Y-69130334D01*
X121382086Y-69057425D01*
X121459903Y-68875265D01*
X121483804Y-68801210D01*
X121581854Y-68513889D01*
X121709451Y-68188125D01*
X121754520Y-68083009D01*
X121854969Y-67846327D01*
X121919856Y-67675166D01*
X121932391Y-67628966D01*
X121971032Y-67517359D01*
X122059613Y-67322080D01*
X122086397Y-67267667D01*
X122201181Y-67006680D01*
X122284184Y-66763773D01*
X122289662Y-66742235D01*
X122366075Y-66483414D01*
X122441617Y-66276568D01*
X122521190Y-66062284D01*
X122565004Y-65913000D01*
X122606807Y-65766858D01*
X122686871Y-65523187D01*
X122757543Y-65320334D01*
X122923627Y-64854667D01*
X122931110Y-65532000D01*
X122945449Y-65867838D01*
X122976692Y-66146828D01*
X123018688Y-66318257D01*
X123028642Y-66336334D01*
X123055840Y-66319010D01*
X123074714Y-66173162D01*
X123085401Y-65890843D01*
X123088037Y-65464108D01*
X123082756Y-64885013D01*
X123069696Y-64145611D01*
X123067710Y-64050334D01*
X123053568Y-63309872D01*
X123046230Y-62717155D01*
X123046263Y-62250705D01*
X123054230Y-61889050D01*
X123070697Y-61610713D01*
X123096227Y-61394221D01*
X123131387Y-61218097D01*
X123143421Y-61171667D01*
X123215049Y-60894662D01*
X123309928Y-60508785D01*
X123414374Y-60070418D01*
X123492762Y-59732334D01*
X123586985Y-59335704D01*
X123675375Y-58991056D01*
X123747554Y-58737222D01*
X123790769Y-58617193D01*
X123853785Y-58441371D01*
X123910568Y-58193497D01*
X123917568Y-58152043D01*
X123984760Y-57869092D01*
X124079041Y-57616140D01*
X124087504Y-57599222D01*
X124173354Y-57395765D01*
X124206000Y-57250254D01*
X124232396Y-57126375D01*
X124304853Y-56873613D01*
X124413271Y-56522837D01*
X124547550Y-56104913D01*
X124697591Y-55650709D01*
X124853295Y-55191092D01*
X125004562Y-54756929D01*
X125141293Y-54379088D01*
X125173739Y-54292500D01*
X125267507Y-54015975D01*
X125315710Y-53813042D01*
X125309517Y-53722499D01*
X125303843Y-53721000D01*
X125259132Y-53734522D01*
X125210998Y-53788985D01*
X125150771Y-53905239D01*
X125069778Y-54104134D01*
X124959350Y-54406520D01*
X124810814Y-54833246D01*
X124670015Y-55245000D01*
X124535034Y-55623222D01*
X124416245Y-55922546D01*
X124324611Y-56117792D01*
X124271089Y-56183780D01*
X124264652Y-56176334D01*
X124241506Y-56043791D01*
X124210565Y-55768963D01*
X124173997Y-55378602D01*
X124133970Y-54899463D01*
X124092654Y-54358299D01*
X124052216Y-53781865D01*
X124014825Y-53196914D01*
X123993583Y-52832000D01*
X123968565Y-52433675D01*
X123940528Y-52066462D01*
X123913852Y-51784907D01*
X123901755Y-51689000D01*
X123857099Y-51392667D01*
X124730049Y-51113465D01*
X125142022Y-50987277D01*
X125543861Y-50873762D01*
X125878173Y-50788695D01*
X126026333Y-50757164D01*
X126273551Y-50731735D01*
X126658971Y-50716129D01*
X127151787Y-50709665D01*
X127721194Y-50711661D01*
X128336385Y-50721434D01*
X128966556Y-50738301D01*
X129580901Y-50761580D01*
X130148614Y-50790590D01*
X130638890Y-50824647D01*
X131020924Y-50863069D01*
X131064000Y-50868755D01*
X131439794Y-50929141D01*
X131772334Y-50998375D01*
X132011337Y-51065308D01*
X132078714Y-51093696D01*
X132277668Y-51160846D01*
X132571652Y-51214602D01*
X132806804Y-51237157D01*
X133035512Y-51255729D01*
X133278020Y-51289868D01*
X133563484Y-51346005D01*
X133921057Y-51430573D01*
X134379894Y-51550004D01*
X134969148Y-51710730D01*
X135031782Y-51728052D01*
X135893611Y-51921500D01*
X136855821Y-52058559D01*
X137856494Y-52131137D01*
X138180831Y-52139508D01*
X139287222Y-52154667D01*
X139233084Y-52444175D01*
X139175243Y-52677861D01*
X139070243Y-53032423D01*
X138930698Y-53470305D01*
X138769224Y-53953950D01*
X138598436Y-54445802D01*
X138430947Y-54908303D01*
X138279374Y-55303898D01*
X138239140Y-55403311D01*
X138104262Y-55713836D01*
X138010238Y-55882205D01*
X137944373Y-55926907D01*
X137905294Y-55889474D01*
X137864100Y-55733089D01*
X137879482Y-55668633D01*
X137865073Y-55621269D01*
X137799397Y-55636029D01*
X137707070Y-55677489D01*
X137678935Y-55738094D01*
X137715307Y-55865293D01*
X137802300Y-56073220D01*
X137874934Y-56331309D01*
X137878860Y-56357176D01*
X138109281Y-56357176D01*
X138122575Y-56227412D01*
X138193352Y-55998845D01*
X138286041Y-55768405D01*
X138405812Y-55475136D01*
X138552744Y-55082782D01*
X138703796Y-54653978D01*
X138781851Y-54420498D01*
X138901056Y-54068071D01*
X139004773Y-53784418D01*
X139080412Y-53602596D01*
X139112372Y-53552664D01*
X139141120Y-53630688D01*
X139182484Y-53842813D01*
X139230505Y-54154831D01*
X139270743Y-54461834D01*
X139331126Y-54924265D01*
X139400629Y-55406521D01*
X139468215Y-55833721D01*
X139498523Y-56007000D01*
X139554764Y-56324768D01*
X139596170Y-56581510D01*
X139614938Y-56728373D01*
X139615319Y-56738205D01*
X139542348Y-56765876D01*
X139351841Y-56749374D01*
X139086427Y-56699483D01*
X138788735Y-56626989D01*
X138501396Y-56542678D01*
X138267037Y-56457334D01*
X138128291Y-56381742D01*
X138109281Y-56357176D01*
X137878860Y-56357176D01*
X137931422Y-56703440D01*
X137963484Y-57134506D01*
X137964063Y-57150000D01*
X138004151Y-57674943D01*
X138080193Y-58054003D01*
X138133668Y-58189915D01*
X138172493Y-58279983D01*
X138202829Y-58393418D01*
X138225233Y-58548782D01*
X138240261Y-58764636D01*
X138248472Y-59059545D01*
X138250421Y-59452069D01*
X138249974Y-59512736D01*
X138345333Y-59512736D01*
X138345333Y-58104440D01*
X138747500Y-58164194D01*
X139015843Y-58223355D01*
X139374921Y-58328001D01*
X139759148Y-58458514D01*
X139869333Y-58499711D01*
X140304084Y-58685192D01*
X140577460Y-58847354D01*
X140685252Y-58965148D01*
X140768498Y-59076738D01*
X140816580Y-59049593D01*
X140895997Y-58992467D01*
X141027111Y-59047063D01*
X141173079Y-59180765D01*
X141297059Y-59360953D01*
X141358162Y-59529069D01*
X141372485Y-59699088D01*
X141381412Y-60008256D01*
X141384759Y-60426468D01*
X141382344Y-60923621D01*
X141373985Y-61469609D01*
X141370805Y-61616333D01*
X141353074Y-62266828D01*
X141331872Y-62776232D01*
X141304704Y-63172782D01*
X141269080Y-63484717D01*
X141222507Y-63740275D01*
X141163619Y-63963973D01*
X140997870Y-64512612D01*
X140942345Y-64165380D01*
X140869262Y-63862328D01*
X140755278Y-63533289D01*
X140718603Y-63447407D01*
X140614698Y-63166068D01*
X140553660Y-62900082D01*
X140547229Y-62822667D01*
X140516147Y-62595138D01*
X140455004Y-62441667D01*
X140405720Y-62421944D01*
X140389414Y-62531243D01*
X140400954Y-62733596D01*
X140435208Y-62993036D01*
X140487045Y-63273596D01*
X140551333Y-63539309D01*
X140622940Y-63754207D01*
X140650946Y-63814955D01*
X140725006Y-63988528D01*
X140781537Y-64206507D01*
X140825429Y-64500862D01*
X140861573Y-64903566D01*
X140891761Y-65389464D01*
X140917659Y-65908575D01*
X140939842Y-66440544D01*
X140956170Y-66927760D01*
X140964502Y-67312612D01*
X140964944Y-67359915D01*
X140970000Y-68087162D01*
X140459927Y-68483270D01*
X140166732Y-68694320D01*
X139981979Y-68788710D01*
X139912601Y-68772022D01*
X139877950Y-68651527D01*
X139811313Y-68403338D01*
X139722345Y-68063897D01*
X139622745Y-67677655D01*
X139510862Y-67257140D01*
X139399287Y-66866362D01*
X139301830Y-66552128D01*
X139238737Y-66376149D01*
X139153213Y-66132932D01*
X139109004Y-65931933D01*
X139107333Y-65902661D01*
X139074650Y-65770724D01*
X139033670Y-65743667D01*
X138974739Y-65670296D01*
X138897675Y-65487441D01*
X138820761Y-65250989D01*
X138762278Y-65016829D01*
X138740444Y-64847292D01*
X138705669Y-64767704D01*
X138679182Y-64772978D01*
X138608141Y-64729830D01*
X138507757Y-64575556D01*
X138480021Y-64520242D01*
X138428535Y-64383757D01*
X138392542Y-64208121D01*
X138370258Y-63965834D01*
X138359900Y-63629398D01*
X138359684Y-63171316D01*
X138364894Y-62745068D01*
X138376286Y-62144369D01*
X138389490Y-61711900D01*
X138404579Y-61446566D01*
X138421627Y-61347270D01*
X138440708Y-61412918D01*
X138449115Y-61487050D01*
X138511536Y-61594964D01*
X138554191Y-61637334D01*
X138629412Y-61759288D01*
X138725172Y-61990613D01*
X138804770Y-62230000D01*
X138915092Y-62570517D01*
X139036444Y-62903319D01*
X139107787Y-63076667D01*
X139199689Y-63337647D01*
X139302687Y-63715536D01*
X139406031Y-64159326D01*
X139498972Y-64618006D01*
X139570763Y-65040569D01*
X139610654Y-65376005D01*
X139615333Y-65485274D01*
X139649000Y-65741064D01*
X139730995Y-65947110D01*
X139740380Y-65960318D01*
X139811809Y-66041206D01*
X139841165Y-66018025D01*
X139835860Y-65866324D01*
X139818892Y-65701334D01*
X139717983Y-64989722D01*
X139571840Y-64242029D01*
X139390456Y-63493264D01*
X139183823Y-62778434D01*
X138961937Y-62132546D01*
X138734790Y-61590608D01*
X138544419Y-61236850D01*
X138470714Y-61110694D01*
X138417835Y-60982880D01*
X138382341Y-60823614D01*
X138360791Y-60603102D01*
X138349745Y-60291550D01*
X138345763Y-59859165D01*
X138345333Y-59512736D01*
X138249974Y-59512736D01*
X138246665Y-59960773D01*
X138237763Y-60604217D01*
X138226401Y-61280248D01*
X138214258Y-61982197D01*
X138202985Y-62654317D01*
X138192977Y-63271476D01*
X138184629Y-63808542D01*
X138178336Y-64240384D01*
X138174492Y-64541871D01*
X138173566Y-64643000D01*
X138160647Y-64996509D01*
X138130828Y-65337611D01*
X138101619Y-65532000D01*
X138033099Y-65870667D01*
X137929850Y-65616667D01*
X137838747Y-65400514D01*
X137709901Y-65104151D01*
X137605332Y-64868244D01*
X137481097Y-64601628D01*
X137389076Y-64459562D01*
X137294814Y-64410938D01*
X137163854Y-64424650D01*
X137123865Y-64433592D01*
X136879936Y-64480841D01*
X136694333Y-64504682D01*
X136554875Y-64471183D01*
X136341747Y-64375528D01*
X136097047Y-64242747D01*
X135862875Y-64097869D01*
X135681328Y-63965922D01*
X135594506Y-63871935D01*
X135595222Y-63851223D01*
X135591620Y-63829968D01*
X135580678Y-63837545D01*
X135481057Y-63823153D01*
X135299342Y-63737125D01*
X135231676Y-63697252D01*
X134939633Y-63562625D01*
X134619724Y-63516710D01*
X134241135Y-63561776D01*
X133773057Y-63700091D01*
X133434667Y-63829500D01*
X133088395Y-63973031D01*
X132798365Y-64099150D01*
X132602502Y-64191036D01*
X132542892Y-64225031D01*
X132402320Y-64305469D01*
X132229445Y-64380467D01*
X132072216Y-64425918D01*
X132035970Y-64387619D01*
X132044174Y-64360238D01*
X132051650Y-64207211D01*
X132018047Y-63949956D01*
X131955568Y-63640395D01*
X131876414Y-63330448D01*
X131792789Y-63072037D01*
X131716894Y-62917083D01*
X131701251Y-62901106D01*
X131648014Y-62833466D01*
X131639439Y-62718621D01*
X131679863Y-62521305D01*
X131773625Y-62206252D01*
X131794970Y-62139106D01*
X131905632Y-61754646D01*
X131997955Y-61365075D01*
X132053680Y-61048359D01*
X132056822Y-61021032D01*
X132100945Y-60739694D01*
X132186050Y-60552742D01*
X132353653Y-60385228D01*
X132451933Y-60307765D01*
X132970246Y-59874912D01*
X133345180Y-59470569D01*
X133593366Y-59067833D01*
X133731436Y-58639802D01*
X133775973Y-58166000D01*
X133780403Y-57958231D01*
X133799919Y-57789341D01*
X133849868Y-57630635D01*
X133945596Y-57453416D01*
X134102450Y-57228991D01*
X134335775Y-56928664D01*
X134641113Y-56548315D01*
X134834042Y-56301081D01*
X134976432Y-56103694D01*
X135041749Y-55993263D01*
X135043280Y-55985834D01*
X135001691Y-55916797D01*
X134899764Y-55966924D01*
X134772101Y-56115165D01*
X134735428Y-56173124D01*
X134610305Y-56337693D01*
X134507457Y-56354200D01*
X134484179Y-56338346D01*
X134366885Y-56302328D01*
X134324911Y-56343654D01*
X134314192Y-56412464D01*
X134338540Y-56411265D01*
X134417766Y-56427040D01*
X134390771Y-56553123D01*
X134263803Y-56773233D01*
X134126132Y-56964917D01*
X133815667Y-57372500D01*
X133791434Y-56562750D01*
X133771354Y-56181098D01*
X133739024Y-55907017D01*
X133697985Y-55766231D01*
X133679951Y-55753000D01*
X133561205Y-55800056D01*
X133375245Y-55916874D01*
X133323184Y-55954672D01*
X133067470Y-56128661D01*
X132809232Y-56279691D01*
X132791225Y-56288932D01*
X132528784Y-56421521D01*
X132713983Y-55896761D01*
X132811100Y-55641407D01*
X132961456Y-55270218D01*
X133148954Y-54821850D01*
X133357495Y-54334953D01*
X133505591Y-53995947D01*
X133701591Y-53546633D01*
X133871207Y-53149107D01*
X134003404Y-52829947D01*
X134087146Y-52615730D01*
X134112000Y-52535447D01*
X134079978Y-52448670D01*
X134000767Y-52495228D01*
X133899648Y-52655415D01*
X133867336Y-52726167D01*
X133695976Y-53129145D01*
X133567288Y-53427788D01*
X133458461Y-53673919D01*
X133346687Y-53919364D01*
X133255193Y-54116975D01*
X133097307Y-54477714D01*
X132925724Y-54901692D01*
X132791155Y-55259975D01*
X132676300Y-55566046D01*
X132573658Y-55811275D01*
X132502533Y-55950094D01*
X132494409Y-55960434D01*
X132432865Y-56104274D01*
X132418667Y-56228246D01*
X132384448Y-56342169D01*
X132264994Y-56465366D01*
X132035104Y-56618757D01*
X131762500Y-56773050D01*
X131456331Y-56934133D01*
X131200684Y-57058188D01*
X131035900Y-57126054D01*
X131004224Y-57133183D01*
X130931734Y-57170937D01*
X130937430Y-57193029D01*
X130902815Y-57279396D01*
X130775297Y-57435989D01*
X130675709Y-57538067D01*
X130378674Y-57825965D01*
X130423705Y-56937649D01*
X130462781Y-56155551D01*
X130492645Y-55526144D01*
X130513632Y-55033056D01*
X130526077Y-54659913D01*
X130530314Y-54390343D01*
X130526678Y-54207973D01*
X130515504Y-54096430D01*
X130497127Y-54039341D01*
X130483265Y-54024708D01*
X130453416Y-54088086D01*
X130421165Y-54297488D01*
X130388049Y-54629651D01*
X130355607Y-55061309D01*
X130325378Y-55569201D01*
X130298899Y-56130062D01*
X130277710Y-56720629D01*
X130263349Y-57317637D01*
X130262596Y-57361667D01*
X130241390Y-57801010D01*
X130187483Y-58133248D01*
X130089901Y-58419212D01*
X130059867Y-58485382D01*
X129999441Y-58621077D01*
X129953454Y-58755301D01*
X129920065Y-58912438D01*
X129897433Y-59116874D01*
X129883716Y-59392994D01*
X129877073Y-59765181D01*
X129875662Y-60257820D01*
X129877237Y-60764668D01*
X130048000Y-60764668D01*
X130048000Y-58845764D01*
X130277936Y-58391303D01*
X130572892Y-57938502D01*
X130991241Y-57513378D01*
X131547932Y-57103227D01*
X132257913Y-56695341D01*
X132296934Y-56675175D01*
X132662121Y-56490657D01*
X132977636Y-56337491D01*
X133210413Y-56231304D01*
X133327385Y-56187721D01*
X133328833Y-56187537D01*
X133375858Y-56227334D01*
X133407654Y-56371462D01*
X133426223Y-56639461D01*
X133433565Y-57050872D01*
X133433872Y-57213500D01*
X133431390Y-57654698D01*
X133420149Y-57967240D01*
X133393264Y-58191790D01*
X133343852Y-58369016D01*
X133265029Y-58539583D01*
X133185098Y-58683017D01*
X133024597Y-58911841D01*
X132772128Y-59213221D01*
X132462620Y-59547596D01*
X132138498Y-59868351D01*
X131823018Y-60176107D01*
X131544054Y-60467237D01*
X131330665Y-60710133D01*
X131211908Y-60873186D01*
X131208081Y-60880416D01*
X131120055Y-61100408D01*
X131016903Y-61426730D01*
X130912244Y-61806644D01*
X130819699Y-62187411D01*
X130752889Y-62516294D01*
X130725432Y-62740556D01*
X130725333Y-62749632D01*
X130685994Y-62904244D01*
X130537865Y-62949460D01*
X130519714Y-62949667D01*
X130376280Y-62942087D01*
X130265263Y-62906569D01*
X130182524Y-62823944D01*
X130123925Y-62675044D01*
X130085329Y-62440702D01*
X130062596Y-62101749D01*
X130051589Y-61639018D01*
X130048170Y-61033340D01*
X130048000Y-60764668D01*
X129877237Y-60764668D01*
X129877643Y-60895297D01*
X129877656Y-60898382D01*
X129877832Y-61612616D01*
X129870719Y-62183790D01*
X129855032Y-62638071D01*
X129829487Y-63001626D01*
X129792798Y-63300621D01*
X129747846Y-63542334D01*
X129678008Y-63848622D01*
X129618651Y-64083489D01*
X129580764Y-64204006D01*
X129576775Y-64210566D01*
X129494957Y-64191251D01*
X129398793Y-64125899D01*
X129304067Y-64064187D01*
X129317077Y-64113834D01*
X129349570Y-64207639D01*
X129336334Y-64219667D01*
X129234470Y-64179967D01*
X129039015Y-64079786D01*
X128800520Y-63947504D01*
X128569538Y-63811500D01*
X128396623Y-63700155D01*
X128354667Y-63668569D01*
X128002024Y-63455892D01*
X127542904Y-63292508D01*
X127036143Y-63191020D01*
X126540573Y-63164033D01*
X126190260Y-63204879D01*
X125802557Y-63312591D01*
X125499741Y-63457277D01*
X125197399Y-63679368D01*
X125194337Y-63681913D01*
X124977717Y-63816979D01*
X124769271Y-63880331D01*
X124751789Y-63881000D01*
X124658955Y-63889914D01*
X124573008Y-63928598D01*
X124555141Y-63945739D01*
X125134188Y-63945739D01*
X125368594Y-63741922D01*
X125786009Y-63486715D01*
X126294501Y-63351854D01*
X126862718Y-63340704D01*
X127459311Y-63456627D01*
X127599930Y-63502563D01*
X127895230Y-63632292D01*
X128221063Y-63812028D01*
X128362023Y-63902900D01*
X128752549Y-64172141D01*
X128200361Y-64365237D01*
X127847053Y-64484425D01*
X127638040Y-64539696D01*
X127559852Y-64528656D01*
X127599022Y-64448914D01*
X127742083Y-64298075D01*
X127754409Y-64285995D01*
X127920089Y-64101287D01*
X127954938Y-64006683D01*
X127871182Y-64001688D01*
X127681047Y-64085807D01*
X127396761Y-64258545D01*
X127330462Y-64303150D01*
X126815010Y-64654995D01*
X125134188Y-63945739D01*
X124555141Y-63945739D01*
X124482978Y-64014969D01*
X124377896Y-64166946D01*
X124246790Y-64402445D01*
X124078692Y-64739382D01*
X123862630Y-65195676D01*
X123600491Y-65761365D01*
X123376934Y-66246033D01*
X123167184Y-66700740D01*
X122985743Y-67094047D01*
X122847115Y-67394518D01*
X122768901Y-67564000D01*
X122683664Y-67782562D01*
X122571715Y-68117077D01*
X122448483Y-68519493D01*
X122344631Y-68885481D01*
X122223838Y-69300100D01*
X122099087Y-69680399D01*
X121985961Y-69981423D01*
X121907625Y-70146328D01*
X121738544Y-70424361D01*
X121325246Y-70017278D01*
X120984670Y-69608488D01*
X120674413Y-69103925D01*
X120431153Y-68571269D01*
X120300223Y-68125890D01*
X120276148Y-67868814D01*
X120274156Y-67490392D01*
X120174040Y-67490392D01*
X120178194Y-67806433D01*
X120189907Y-68140217D01*
X120214659Y-68384977D01*
X120259864Y-68580864D01*
X120332931Y-68768026D01*
X120441272Y-68986615D01*
X120494136Y-69088000D01*
X120695005Y-69438680D01*
X120923069Y-69786946D01*
X121127646Y-70055780D01*
X121317655Y-70311159D01*
X121419916Y-70524197D01*
X121429782Y-70606113D01*
X121483038Y-70782761D01*
X121692474Y-70973190D01*
X121711237Y-70986035D01*
X121717206Y-70990900D01*
X122233525Y-70990900D01*
X122327837Y-70836554D01*
X122330543Y-70832589D01*
X122447950Y-70617918D01*
X122607254Y-70263222D01*
X122800542Y-69790319D01*
X123019900Y-69221025D01*
X123257415Y-68577159D01*
X123505172Y-67880536D01*
X123755257Y-67152974D01*
X123999757Y-66416289D01*
X124230758Y-65692299D01*
X124418636Y-65076127D01*
X124462809Y-64966250D01*
X124540551Y-64911487D01*
X124695645Y-64900339D01*
X124971874Y-64921308D01*
X124998482Y-64923834D01*
X125329053Y-64966839D01*
X125391136Y-64978807D01*
X132334000Y-64978807D01*
X132405930Y-64886746D01*
X132600411Y-64742552D01*
X132885479Y-64563370D01*
X133229172Y-64366343D01*
X133599526Y-64168616D01*
X133964578Y-63987330D01*
X134292363Y-63839631D01*
X134550920Y-63742662D01*
X134694198Y-63712908D01*
X134851254Y-63755352D01*
X135107539Y-63870364D01*
X135420625Y-64037734D01*
X135604365Y-64146440D01*
X135905850Y-64338491D01*
X136143606Y-64503585D01*
X136286317Y-64619203D01*
X136313333Y-64656255D01*
X136245098Y-64743452D01*
X136111287Y-64823356D01*
X135963575Y-64863912D01*
X135801040Y-64832151D01*
X135567994Y-64715077D01*
X135514485Y-64684072D01*
X135273653Y-64555196D01*
X135073691Y-64494840D01*
X134839143Y-64488854D01*
X134594698Y-64511582D01*
X134236766Y-64572753D01*
X133881701Y-64666601D01*
X133698130Y-64734133D01*
X133406227Y-64849035D01*
X133086132Y-64954027D01*
X132781715Y-65037410D01*
X132536846Y-65087490D01*
X132395392Y-65092570D01*
X132381149Y-65085261D01*
X132334000Y-64978807D01*
X125391136Y-64978807D01*
X125500409Y-64999872D01*
X131026195Y-64999872D01*
X131138405Y-64982964D01*
X131319828Y-65036479D01*
X131548112Y-65173466D01*
X131652411Y-65256834D01*
X132023309Y-65577338D01*
X132310367Y-65803042D01*
X132553098Y-65955157D01*
X132791012Y-66054893D01*
X133063620Y-66123461D01*
X133362077Y-66174627D01*
X133700168Y-66217105D01*
X134020212Y-66230640D01*
X134357432Y-66211420D01*
X134747052Y-66155631D01*
X135224295Y-66059461D01*
X135824385Y-65919097D01*
X135905428Y-65899322D01*
X136317652Y-65804300D01*
X136677192Y-65732376D01*
X136948782Y-65689829D01*
X137097155Y-65682942D01*
X137106656Y-65685393D01*
X137215448Y-65794518D01*
X137280939Y-65934827D01*
X138145553Y-65934827D01*
X138173346Y-65833292D01*
X138218541Y-65667234D01*
X138251045Y-65393268D01*
X138263359Y-65093067D01*
X138268056Y-64794774D01*
X138283672Y-64640629D01*
X138317800Y-64605479D01*
X138378030Y-64664171D01*
X138388637Y-64677995D01*
X138495545Y-64861115D01*
X138609201Y-65115328D01*
X138635902Y-65185995D01*
X138719814Y-65418963D01*
X138840967Y-65755448D01*
X138979266Y-66139633D01*
X139050064Y-66336334D01*
X139198122Y-66778143D01*
X139357807Y-67303556D01*
X139504813Y-67830700D01*
X139572618Y-68096469D01*
X139805690Y-69052270D01*
X139458254Y-69373021D01*
X139110819Y-69693771D01*
X139028814Y-69433219D01*
X138972774Y-69233007D01*
X138893680Y-68922571D01*
X138805393Y-68556951D01*
X138771319Y-68410667D01*
X138661782Y-67966736D01*
X138524058Y-67453062D01*
X138382842Y-66960766D01*
X138340927Y-66822559D01*
X138220283Y-66407624D01*
X138156790Y-66121347D01*
X138145553Y-65934827D01*
X137280939Y-65934827D01*
X137308685Y-65994269D01*
X137314692Y-66014154D01*
X137363730Y-66183920D01*
X137450755Y-66484634D01*
X137566590Y-66884612D01*
X137702062Y-67352169D01*
X137837086Y-67818000D01*
X137978419Y-68309881D01*
X138103731Y-68754283D01*
X138205042Y-69122241D01*
X138274373Y-69384786D01*
X138303520Y-69511334D01*
X138365704Y-69956823D01*
X138398026Y-70270706D01*
X138397250Y-70488605D01*
X138360135Y-70646140D01*
X138283444Y-70778933D01*
X138176501Y-70908334D01*
X138030617Y-71055144D01*
X137945070Y-71103328D01*
X137934743Y-71077667D01*
X137930705Y-70824551D01*
X137868345Y-70418937D01*
X137748899Y-69866839D01*
X137573605Y-69174273D01*
X137450966Y-68725385D01*
X137329347Y-68276583D01*
X137230153Y-67884580D01*
X137160166Y-67578383D01*
X137126167Y-67387001D01*
X137126556Y-67337950D01*
X137116779Y-67270411D01*
X137098814Y-67267667D01*
X137034208Y-67194306D01*
X136954224Y-67009232D01*
X136921382Y-66907811D01*
X136835177Y-66628053D01*
X136752348Y-66458704D01*
X136635008Y-66383325D01*
X136445272Y-66385476D01*
X136145255Y-66448719D01*
X135964569Y-66492633D01*
X134990024Y-66697456D01*
X134127324Y-66811101D01*
X133383837Y-66833403D01*
X132766935Y-66764196D01*
X132283989Y-66603314D01*
X132233238Y-66576656D01*
X131975619Y-66376670D01*
X131693406Y-66064700D01*
X131422893Y-65686773D01*
X131200375Y-65288911D01*
X131175759Y-65235667D01*
X131071610Y-65084720D01*
X131027842Y-65046464D01*
X131026195Y-64999872D01*
X125500409Y-64999872D01*
X125632725Y-65025379D01*
X125786712Y-65068124D01*
X126033434Y-65206332D01*
X126117801Y-65390724D01*
X126061870Y-65587034D01*
X125932456Y-65709772D01*
X125829340Y-65702166D01*
X125661293Y-65646738D01*
X125412068Y-65574089D01*
X125323270Y-65549819D01*
X125085023Y-65497125D01*
X124953534Y-65506818D01*
X124880230Y-65576720D01*
X124832491Y-65690400D01*
X124779635Y-65836248D01*
X126636954Y-65836248D01*
X126665837Y-65681630D01*
X126744349Y-65555025D01*
X126879346Y-65525840D01*
X127017897Y-65545625D01*
X127212126Y-65585636D01*
X127313981Y-65612395D01*
X127316617Y-65613834D01*
X127275426Y-65675248D01*
X127147865Y-65809396D01*
X127100165Y-65855819D01*
X126930752Y-65997382D01*
X126814673Y-66024079D01*
X126727822Y-65976646D01*
X126636954Y-65836248D01*
X124779635Y-65836248D01*
X124741712Y-65940887D01*
X124616297Y-66303659D01*
X124590902Y-66379111D01*
X128030555Y-66379111D01*
X128056054Y-66299019D01*
X128162708Y-66144644D01*
X128194477Y-66105275D01*
X128310089Y-65977620D01*
X128422221Y-65911832D01*
X128583070Y-65895546D01*
X128844836Y-65916394D01*
X128945225Y-65927413D01*
X129312776Y-65953062D01*
X129683148Y-65954793D01*
X129899833Y-65940094D01*
X130158927Y-65916407D01*
X130274193Y-65945372D01*
X130269092Y-66053411D01*
X130175551Y-66250601D01*
X130055648Y-66416178D01*
X129876060Y-66509011D01*
X129658682Y-66553673D01*
X129437715Y-66565178D01*
X129133111Y-66554253D01*
X128793237Y-66526085D01*
X128466458Y-66485860D01*
X128201141Y-66438762D01*
X128045650Y-66389978D01*
X128030555Y-66379111D01*
X124590902Y-66379111D01*
X124464656Y-66754193D01*
X124295193Y-67267968D01*
X124198932Y-67564000D01*
X123947970Y-68331434D01*
X123736363Y-68957193D01*
X123555658Y-69462048D01*
X123397404Y-69866770D01*
X123253148Y-70192129D01*
X123114438Y-70458895D01*
X123073748Y-70524677D01*
X124629333Y-70524677D01*
X124640856Y-70240057D01*
X124683189Y-70083298D01*
X124767978Y-70014013D01*
X124777500Y-70010868D01*
X124945215Y-69947356D01*
X125184230Y-69843934D01*
X125264333Y-69807111D01*
X125572651Y-69680752D01*
X125759119Y-69645110D01*
X125814667Y-69692176D01*
X125786264Y-69793746D01*
X125712338Y-70004213D01*
X125624167Y-70238143D01*
X125501860Y-70522995D01*
X125383664Y-70694962D01*
X125227012Y-70803932D01*
X125092169Y-70861634D01*
X124868951Y-70942520D01*
X124716181Y-70988786D01*
X124690003Y-70993000D01*
X124656854Y-70916397D01*
X124634817Y-70718696D01*
X124629333Y-70524677D01*
X123073748Y-70524677D01*
X122972821Y-70687838D01*
X122866776Y-70837604D01*
X122693861Y-71058128D01*
X122574369Y-71162548D01*
X122468138Y-71175880D01*
X122376736Y-71142859D01*
X122246669Y-71071801D01*
X122233525Y-70990900D01*
X121717206Y-70990900D01*
X121848477Y-71097877D01*
X121977565Y-71251111D01*
X122106786Y-71464287D01*
X122244427Y-71755956D01*
X122398775Y-72144667D01*
X122578116Y-72648970D01*
X122678651Y-72950853D01*
X127765393Y-72950853D01*
X127793997Y-72613445D01*
X127872775Y-72208314D01*
X127943399Y-71945500D01*
X128125334Y-71331667D01*
X128530568Y-71331667D01*
X128794299Y-71316915D01*
X128959043Y-71252660D01*
X129094023Y-71108904D01*
X129116667Y-71077667D01*
X129227498Y-70894826D01*
X129231752Y-70826556D01*
X129140273Y-70886550D01*
X129045571Y-70987906D01*
X128884735Y-71116526D01*
X128658324Y-71171692D01*
X128380393Y-71172084D01*
X128194454Y-71162334D01*
X128349952Y-70710369D01*
X128457323Y-70423712D01*
X128563593Y-70179960D01*
X128615933Y-70081494D01*
X128726416Y-69904583D01*
X129069708Y-70100578D01*
X129356841Y-70243536D01*
X129703259Y-70387927D01*
X129878667Y-70450761D01*
X130435251Y-70568512D01*
X131035699Y-70595368D01*
X131614375Y-70557718D01*
X132084427Y-70453599D01*
X132498161Y-70269221D01*
X132666364Y-70165431D01*
X132860010Y-70060039D01*
X132995047Y-70028407D01*
X133017760Y-70038431D01*
X133074601Y-70152618D01*
X133162272Y-70387639D01*
X133267530Y-70700832D01*
X133377133Y-71049533D01*
X133477840Y-71391079D01*
X133535665Y-71605791D01*
X137970915Y-71605791D01*
X138033653Y-71446392D01*
X138062707Y-71389822D01*
X138226206Y-71105825D01*
X138395376Y-70863099D01*
X138540703Y-70700537D01*
X138620822Y-70654334D01*
X138749303Y-70690846D01*
X138858899Y-70741979D01*
X138991584Y-70879792D01*
X139018269Y-70974712D01*
X139399490Y-70974712D01*
X139438579Y-70904985D01*
X139571110Y-70754046D01*
X139764475Y-70553752D01*
X139986065Y-70335961D01*
X140203271Y-70132531D01*
X140383484Y-69975321D01*
X140494096Y-69896188D01*
X140507372Y-69892334D01*
X140512477Y-69944549D01*
X140462000Y-70019334D01*
X140399378Y-70121979D01*
X140411251Y-70146334D01*
X140409603Y-70206599D01*
X140330750Y-70352532D01*
X140324941Y-70361470D01*
X140197225Y-70500832D01*
X139999143Y-70662230D01*
X139775437Y-70816017D01*
X139570848Y-70932544D01*
X139430117Y-70982165D01*
X139399490Y-70974712D01*
X139018269Y-70974712D01*
X139022667Y-70990354D01*
X138984113Y-71122927D01*
X138886464Y-71334472D01*
X138756732Y-71576801D01*
X138621932Y-71801731D01*
X138509078Y-71961074D01*
X138451581Y-72009000D01*
X138364409Y-71964769D01*
X138199410Y-71856126D01*
X138168493Y-71834322D01*
X138009859Y-71709878D01*
X137970915Y-71605791D01*
X133535665Y-71605791D01*
X133556408Y-71682809D01*
X133599595Y-71882057D01*
X133604000Y-71927162D01*
X133558789Y-72097232D01*
X133444480Y-72330761D01*
X133377813Y-72439089D01*
X133276010Y-72604917D01*
X133210926Y-72760365D01*
X133174999Y-72948542D01*
X133160663Y-73212559D01*
X133160356Y-73595525D01*
X133161139Y-73674044D01*
X133169284Y-74046147D01*
X133183845Y-74351847D01*
X133202559Y-74553733D01*
X133217992Y-74614548D01*
X133248578Y-74722458D01*
X133264629Y-74929964D01*
X133265333Y-74986445D01*
X133265333Y-75311000D01*
X132837795Y-75311000D01*
X132535898Y-75287425D01*
X132267345Y-75227839D01*
X132181629Y-75193426D01*
X131948131Y-75089046D01*
X131639911Y-74972376D01*
X131295098Y-74855130D01*
X130951821Y-74749023D01*
X130648209Y-74665773D01*
X130422393Y-74617093D01*
X130312501Y-74614699D01*
X130308944Y-74618034D01*
X130214543Y-74688133D01*
X130006516Y-74808648D01*
X129724151Y-74957248D01*
X129624667Y-75007007D01*
X129154015Y-75211765D01*
X128727844Y-75328478D01*
X128404893Y-75371548D01*
X128100431Y-75388445D01*
X127913580Y-75378237D01*
X127868474Y-75344213D01*
X127889935Y-75232577D01*
X127911515Y-74988902D01*
X127930546Y-74650461D01*
X127943173Y-74300017D01*
X127949868Y-73844272D01*
X127939689Y-73538138D01*
X127911163Y-73362595D01*
X127865758Y-73299476D01*
X127788725Y-73189782D01*
X127765393Y-72950853D01*
X122678651Y-72950853D01*
X122790736Y-73287415D01*
X122925306Y-73703834D01*
X123018594Y-74032299D01*
X123100077Y-74386740D01*
X123163680Y-74729488D01*
X123203326Y-75022871D01*
X123212942Y-75229219D01*
X123186453Y-75310861D01*
X123184495Y-75311000D01*
X123086652Y-75267051D01*
X122894161Y-75152653D01*
X122684004Y-75016016D01*
X122137058Y-74716548D01*
X121522273Y-74518310D01*
X120799021Y-74408489D01*
X120742668Y-74403732D01*
X120397041Y-74389349D01*
X120206541Y-74411517D01*
X120174512Y-74466231D01*
X120304300Y-74549489D01*
X120545346Y-74640036D01*
X120923946Y-74811315D01*
X121349323Y-75078797D01*
X121766551Y-75403295D01*
X122120703Y-75745623D01*
X122163794Y-75794690D01*
X122532652Y-76296719D01*
X122855930Y-76872398D01*
X123114273Y-77475851D01*
X123288327Y-78061202D01*
X123358737Y-78582573D01*
X123359333Y-78628461D01*
X123333994Y-78968565D01*
X123264882Y-79420271D01*
X123162354Y-79934730D01*
X123036766Y-80463095D01*
X122898476Y-80956518D01*
X122806498Y-81235881D01*
X122699595Y-81550068D01*
X122613380Y-81828515D01*
X122569102Y-81999667D01*
X122552651Y-82025064D01*
X122544910Y-81906048D01*
X122547012Y-81667373D01*
X122549725Y-81576334D01*
X122568847Y-81238402D01*
X122598985Y-80946029D01*
X122633869Y-80758882D01*
X122636473Y-80750834D01*
X122658218Y-80598974D01*
X122615109Y-80560334D01*
X122533735Y-80637095D01*
X122417402Y-80848537D01*
X122277228Y-81166397D01*
X122124331Y-81562410D01*
X121969830Y-82008314D01*
X121824841Y-82475846D01*
X121737369Y-82791652D01*
X121656535Y-83145077D01*
X124065586Y-83145077D01*
X124118215Y-82875742D01*
X124213324Y-82524190D01*
X124339658Y-82127499D01*
X124485964Y-81722742D01*
X124640987Y-81346994D01*
X124691200Y-81237667D01*
X124844699Y-80939620D01*
X125015384Y-80673583D01*
X125232530Y-80402297D01*
X125525410Y-80088502D01*
X125838687Y-79777167D01*
X126227072Y-79402525D01*
X126510467Y-79138054D01*
X126685863Y-78986284D01*
X126750252Y-78949748D01*
X126700624Y-79030978D01*
X126650533Y-79094120D01*
X126541483Y-79216586D01*
X126347824Y-79423969D01*
X126103429Y-79680206D01*
X125984000Y-79803823D01*
X125675949Y-80150517D01*
X125362078Y-80551213D01*
X125102186Y-80928758D01*
X125065024Y-80989524D01*
X124890144Y-81309096D01*
X124701229Y-81696876D01*
X124514629Y-82113882D01*
X124346691Y-82521128D01*
X124213764Y-82879630D01*
X124132197Y-83150403D01*
X124114649Y-83255763D01*
X124091977Y-83329745D01*
X124066689Y-83295120D01*
X124065586Y-83145077D01*
X121656535Y-83145077D01*
X121588490Y-83442581D01*
X121559450Y-83661866D01*
X124226983Y-83661866D01*
X124247859Y-83422412D01*
X124315352Y-83133074D01*
X124438249Y-82744503D01*
X124462515Y-82673117D01*
X124690574Y-82048852D01*
X124921259Y-81525045D01*
X125180828Y-81059351D01*
X125495535Y-80609424D01*
X125891636Y-80132918D01*
X126338829Y-79646963D01*
X126619887Y-79344472D01*
X126852518Y-79082373D01*
X127014511Y-78886558D01*
X127083656Y-78782918D01*
X127084667Y-78777516D01*
X127017022Y-78722675D01*
X126832877Y-78745025D01*
X126560417Y-78833780D01*
X126227826Y-78978154D01*
X125863289Y-79167361D01*
X125512430Y-79379218D01*
X125253520Y-79542890D01*
X125050829Y-79662083D01*
X124944667Y-79713207D01*
X124940930Y-79713667D01*
X124878028Y-79647241D01*
X124912477Y-79454352D01*
X125040805Y-79144581D01*
X125259541Y-78727509D01*
X125364520Y-78544794D01*
X125650762Y-78089537D01*
X125931224Y-77703638D01*
X126187665Y-77408444D01*
X126401848Y-77225300D01*
X126536120Y-77173667D01*
X126654046Y-77116786D01*
X126815411Y-76977780D01*
X126835165Y-76957212D01*
X127002383Y-76807348D01*
X127259710Y-76608897D01*
X127573480Y-76384298D01*
X127910027Y-76155988D01*
X128235686Y-75946406D01*
X128516790Y-75777990D01*
X128719674Y-75673177D01*
X128796998Y-75649667D01*
X128949846Y-75603167D01*
X128991099Y-75562683D01*
X129086187Y-75488969D01*
X129297303Y-75362596D01*
X129588046Y-75204656D01*
X129770914Y-75110864D01*
X130496970Y-74746029D01*
X131182651Y-74988008D01*
X131575252Y-75138186D01*
X132040066Y-75333290D01*
X132499094Y-75540079D01*
X132672667Y-75623039D01*
X133601021Y-76117522D01*
X134365835Y-76613435D01*
X134965340Y-77109450D01*
X135397771Y-77604240D01*
X135483943Y-77734671D01*
X135648281Y-78032594D01*
X135854740Y-78454016D01*
X136087811Y-78963215D01*
X136331982Y-79524466D01*
X136399563Y-79687270D01*
X137298633Y-79687270D01*
X137334302Y-79634998D01*
X137415851Y-79719840D01*
X137483995Y-79861834D01*
X137687913Y-80566344D01*
X137744059Y-81195334D01*
X137738458Y-81383534D01*
X137725958Y-81458478D01*
X137699956Y-81406999D01*
X137653851Y-81215932D01*
X137581041Y-80872114D01*
X137580382Y-80868946D01*
X137499958Y-80500720D01*
X137420752Y-80168739D01*
X137356113Y-79928011D01*
X137338922Y-79874113D01*
X137298633Y-79687270D01*
X136399563Y-79687270D01*
X136571742Y-80102045D01*
X136791582Y-80660229D01*
X136975990Y-81163293D01*
X136989437Y-81202086D01*
X137128881Y-81594178D01*
X137257283Y-81932998D01*
X137360709Y-82183203D01*
X137425224Y-82309450D01*
X137426779Y-82311398D01*
X137487822Y-82501995D01*
X137458331Y-82767218D01*
X137352556Y-83048674D01*
X137189671Y-83282884D01*
X137063228Y-83432504D01*
X137024762Y-83516819D01*
X137036545Y-83523667D01*
X137060780Y-83538492D01*
X137033880Y-83593961D01*
X136941415Y-83706571D01*
X136768956Y-83892816D01*
X136656954Y-84008802D01*
X136878052Y-84008802D01*
X136884067Y-83997156D01*
X136955566Y-84029745D01*
X137075832Y-84202862D01*
X137234802Y-84498252D01*
X137422413Y-84897657D01*
X137572000Y-85245202D01*
X137750510Y-85741572D01*
X137821772Y-86114303D01*
X137820944Y-86217424D01*
X137804320Y-86346395D01*
X137778181Y-86369702D01*
X137734096Y-86271319D01*
X137663630Y-86035217D01*
X137597814Y-85793319D01*
X137496654Y-85452964D01*
X137394500Y-85171160D01*
X137308009Y-84991756D01*
X137280314Y-84957452D01*
X137175799Y-84801414D01*
X137159683Y-84719800D01*
X137117261Y-84558271D01*
X137013804Y-84344057D01*
X136996460Y-84314835D01*
X136902777Y-84128978D01*
X136878052Y-84008802D01*
X136656954Y-84008802D01*
X136502075Y-84169190D01*
X136220720Y-84456269D01*
X135940714Y-84723309D01*
X135654795Y-84951373D01*
X135319742Y-85170099D01*
X134892334Y-85409128D01*
X134637817Y-85541760D01*
X134478161Y-85621904D01*
X135060136Y-85621904D01*
X135073872Y-85527111D01*
X135193246Y-85482200D01*
X135225601Y-85477685D01*
X135300199Y-85534331D01*
X135463769Y-85693779D01*
X135692862Y-85932199D01*
X135964026Y-86225764D01*
X135989777Y-86254167D01*
X136498220Y-86821592D01*
X136893213Y-87275672D01*
X137180386Y-87623450D01*
X137365372Y-87871972D01*
X137453801Y-88028279D01*
X137458822Y-88091640D01*
X137385528Y-88063907D01*
X137217795Y-87931080D01*
X136975703Y-87712806D01*
X136679330Y-87428730D01*
X136348753Y-87098499D01*
X136004050Y-86741759D01*
X135665300Y-86378155D01*
X135372402Y-86050142D01*
X135157744Y-85788830D01*
X135060136Y-85621904D01*
X134478161Y-85621904D01*
X134194856Y-85764116D01*
X133959903Y-85872029D01*
X134475502Y-85872029D01*
X134493000Y-85809667D01*
X134613828Y-85735998D01*
X134688497Y-85726297D01*
X134783249Y-85739999D01*
X134721704Y-85798530D01*
X134704667Y-85809667D01*
X134549542Y-85884459D01*
X134475502Y-85872029D01*
X133959903Y-85872029D01*
X133871243Y-85912750D01*
X133639294Y-85997930D01*
X133471321Y-86029924D01*
X133346651Y-86020598D01*
X133156767Y-86005294D01*
X133096000Y-86056940D01*
X133165901Y-86135330D01*
X133244167Y-86150202D01*
X133254926Y-86187182D01*
X133140566Y-86282317D01*
X132926667Y-86414528D01*
X132459609Y-86698527D01*
X131950505Y-87043231D01*
X131428600Y-87425396D01*
X130923141Y-87821783D01*
X130463373Y-88209148D01*
X130078542Y-88564250D01*
X129797893Y-88863847D01*
X129723178Y-88960367D01*
X129525357Y-89238667D01*
X129582724Y-88942334D01*
X129695413Y-88573640D01*
X129898146Y-88115045D01*
X130168785Y-87603493D01*
X130485194Y-87075925D01*
X130825237Y-86569286D01*
X131166778Y-86120519D01*
X131482797Y-85771318D01*
X131715544Y-85527452D01*
X131816669Y-85375616D01*
X131790886Y-85307412D01*
X131746544Y-85301667D01*
X131637947Y-85352731D01*
X131428404Y-85491435D01*
X131146241Y-85696047D01*
X130819784Y-85944835D01*
X130477361Y-86216066D01*
X130147297Y-86488009D01*
X129857920Y-86738931D01*
X129776724Y-86812916D01*
X129206614Y-87413536D01*
X128715818Y-88095172D01*
X128280504Y-88893158D01*
X128258264Y-88942334D01*
X129370667Y-88942334D01*
X129401645Y-88872644D01*
X129427111Y-88885889D01*
X129437244Y-88986369D01*
X129427111Y-88998778D01*
X129376777Y-88987156D01*
X129370667Y-88942334D01*
X128258264Y-88942334D01*
X128090750Y-89312718D01*
X127930032Y-89675007D01*
X127787912Y-89971335D01*
X127679488Y-90171822D01*
X127619858Y-90246588D01*
X127618877Y-90246565D01*
X127526660Y-90162445D01*
X127398153Y-89947207D01*
X127246188Y-89631785D01*
X127083595Y-89247112D01*
X126923207Y-88824124D01*
X126777853Y-88393754D01*
X126660367Y-87986936D01*
X126629460Y-87861247D01*
X126541977Y-87483006D01*
X126470718Y-87170187D01*
X126423317Y-86956627D01*
X126407333Y-86876635D01*
X126486573Y-86862261D01*
X126702714Y-86845276D01*
X127023388Y-86827738D01*
X127416227Y-86811703D01*
X127444500Y-86810727D01*
X127859126Y-86790215D01*
X128221427Y-86760519D01*
X128492412Y-86725615D01*
X128633092Y-86689483D01*
X128633115Y-86689470D01*
X128636506Y-86655098D01*
X128495344Y-86634811D01*
X128202328Y-86628270D01*
X127750162Y-86635140D01*
X127566532Y-86640240D01*
X126348500Y-86676884D01*
X126298119Y-86306776D01*
X126274455Y-85970085D01*
X126280761Y-85615009D01*
X126285755Y-85555667D01*
X126298451Y-85354558D01*
X126288350Y-85267615D01*
X126273654Y-85281028D01*
X126184614Y-85349700D01*
X126146102Y-85339531D01*
X126100171Y-85384806D01*
X126072414Y-85554273D01*
X126068667Y-85667087D01*
X126056471Y-85969405D01*
X126026230Y-86248515D01*
X126016887Y-86301397D01*
X125966309Y-86475851D01*
X125881176Y-86517704D01*
X125757375Y-86481314D01*
X125569768Y-86415905D01*
X125491568Y-86415499D01*
X125476000Y-86478718D01*
X125547008Y-86557334D01*
X125717829Y-86639404D01*
X125718639Y-86639687D01*
X125961279Y-86724271D01*
X125923660Y-87558136D01*
X125905579Y-87922095D01*
X125887497Y-88223798D01*
X125872038Y-88422230D01*
X125865041Y-88474938D01*
X125816593Y-88499257D01*
X125727902Y-88382184D01*
X125606439Y-88144799D01*
X125459676Y-87808182D01*
X125295083Y-87393412D01*
X125120131Y-86921570D01*
X124942291Y-86413735D01*
X124769034Y-85890988D01*
X124607831Y-85374409D01*
X124466152Y-84885076D01*
X124351468Y-84444072D01*
X124271250Y-84072474D01*
X124243938Y-83900784D01*
X124226983Y-83661866D01*
X121559450Y-83661866D01*
X121513888Y-84005898D01*
X121509363Y-84544041D01*
X121570715Y-85119449D01*
X121577707Y-85164905D01*
X121621468Y-85476227D01*
X121673022Y-85890946D01*
X121724485Y-86343853D01*
X121751662Y-86603094D01*
X121814561Y-87077016D01*
X121905569Y-87578766D01*
X122009514Y-88029631D01*
X122061716Y-88211760D01*
X122126288Y-88394083D01*
X122271682Y-88394083D01*
X122273057Y-88391721D01*
X122330102Y-88440581D01*
X122446842Y-88604095D01*
X122600106Y-88849246D01*
X122631638Y-88902661D01*
X122801446Y-89166900D01*
X123021074Y-89472427D01*
X123265332Y-89788506D01*
X123509033Y-90084403D01*
X123726988Y-90329380D01*
X123894009Y-90492701D01*
X123977003Y-90544354D01*
X124008827Y-90476903D01*
X123997668Y-90303159D01*
X123992885Y-90275834D01*
X123979856Y-90012940D01*
X124019472Y-89790195D01*
X124071212Y-89668126D01*
X124119217Y-89656142D01*
X124193967Y-89769638D01*
X124270926Y-89917195D01*
X124566851Y-90394381D01*
X124888144Y-90732209D01*
X125221660Y-90918130D01*
X125349000Y-90946357D01*
X126026392Y-91041036D01*
X126608269Y-91140210D01*
X127077616Y-91240112D01*
X127417416Y-91336975D01*
X127610654Y-91427029D01*
X127638403Y-91453321D01*
X127728095Y-91549492D01*
X127758299Y-91504824D01*
X127759338Y-91482334D01*
X127778020Y-91447403D01*
X127843236Y-91419309D01*
X127971218Y-91397297D01*
X128178200Y-91380610D01*
X128480417Y-91368491D01*
X128894100Y-91360184D01*
X129435486Y-91354933D01*
X130120806Y-91351982D01*
X130577197Y-91351046D01*
X131390243Y-91349097D01*
X132059615Y-91344051D01*
X132610970Y-91333023D01*
X133069968Y-91313131D01*
X133462268Y-91281493D01*
X133813527Y-91235226D01*
X134149405Y-91171447D01*
X134495559Y-91087273D01*
X134877649Y-90979821D01*
X135321334Y-90846208D01*
X135466667Y-90801702D01*
X135958712Y-90652451D01*
X136309641Y-90550966D01*
X136539480Y-90492984D01*
X136668256Y-90474241D01*
X136715995Y-90490473D01*
X136702722Y-90537417D01*
X136701920Y-90538725D01*
X136687038Y-90625807D01*
X136711303Y-90635667D01*
X136806855Y-90572382D01*
X136876220Y-90482556D01*
X137013626Y-90364341D01*
X137243190Y-90251871D01*
X137333848Y-90220984D01*
X137589745Y-90126394D01*
X137924226Y-89978993D01*
X138268452Y-89809276D01*
X138295762Y-89794900D01*
X138582079Y-89636752D01*
X138785475Y-89495997D01*
X138946853Y-89330884D01*
X139107119Y-89099663D01*
X139304463Y-88765306D01*
X139507465Y-88401046D01*
X139698724Y-88039367D01*
X139847057Y-87739881D01*
X139887251Y-87651167D01*
X139992921Y-87424199D01*
X140075170Y-87278369D01*
X140103796Y-87249000D01*
X140118597Y-87323925D01*
X140107826Y-87514056D01*
X140093214Y-87636665D01*
X139966810Y-88184342D01*
X139733535Y-88818082D01*
X139409014Y-89507041D01*
X139008872Y-90220371D01*
X138548735Y-90927224D01*
X138161586Y-91449962D01*
X137933352Y-91719460D01*
X137669032Y-91999253D01*
X137395842Y-92264585D01*
X137140996Y-92490701D01*
X136931711Y-92652844D01*
X136795200Y-92726260D01*
X136762960Y-92722182D01*
X136783892Y-92635037D01*
X136890628Y-92463026D01*
X137006940Y-92309984D01*
X137204249Y-92054724D01*
X137433708Y-91732252D01*
X137713948Y-91315616D01*
X138028905Y-90831770D01*
X138039659Y-90782106D01*
X137970460Y-90777706D01*
X137805576Y-90823641D01*
X137529276Y-90924981D01*
X137125828Y-91086795D01*
X136736667Y-91248245D01*
X135654139Y-91677177D01*
X134637884Y-92032034D01*
X133721753Y-92301082D01*
X133632524Y-92323933D01*
X132862819Y-92481950D01*
X131967372Y-92605126D01*
X130986533Y-92691593D01*
X129960651Y-92739483D01*
X128930077Y-92746927D01*
X127935161Y-92712056D01*
X127016252Y-92633001D01*
X127000000Y-92631084D01*
X126616226Y-92586724D01*
X126301167Y-92552510D01*
X126088528Y-92531951D01*
X126012098Y-92528255D01*
X126057185Y-92591598D01*
X126189044Y-92745320D01*
X126376140Y-92952860D01*
X126562209Y-93166567D01*
X126684358Y-93328610D01*
X126716080Y-93403142D01*
X126611331Y-93395501D01*
X126397985Y-93297644D01*
X126100596Y-93123974D01*
X125743718Y-92888895D01*
X125351904Y-92606807D01*
X125328615Y-92589300D01*
X124778570Y-92139828D01*
X124268755Y-91656997D01*
X123830975Y-91174263D01*
X123497034Y-90725085D01*
X123396815Y-90557101D01*
X123261793Y-90325542D01*
X123153665Y-90169628D01*
X123106502Y-90127667D01*
X123048587Y-90056700D01*
X122941289Y-89868871D01*
X122802665Y-89601794D01*
X122650773Y-89293079D01*
X122503671Y-88980339D01*
X122379417Y-88701185D01*
X122296068Y-88493229D01*
X122271682Y-88394083D01*
X122126288Y-88394083D01*
X122192480Y-88580976D01*
X122365191Y-89005608D01*
X122561235Y-89446095D01*
X122761996Y-89862879D01*
X122948862Y-90216400D01*
X123103216Y-90467099D01*
X123153277Y-90531541D01*
X123265652Y-90670875D01*
X123440350Y-90900362D01*
X123641196Y-91172411D01*
X123657818Y-91195289D01*
X124221399Y-91854542D01*
X124928582Y-92488998D01*
X125753820Y-93081773D01*
X126671565Y-93615981D01*
X127656272Y-94074735D01*
X128465284Y-94372878D01*
X129396426Y-94652690D01*
X130222149Y-94842837D01*
X130980438Y-94943702D01*
X131709282Y-94955664D01*
X132446666Y-94879104D01*
D11*
X137094500Y-107071379D02*
X137094500Y-106745821D01*
X138114500Y-107071379D02*
X138114500Y-106745821D01*
X132907721Y-111034100D02*
X133233279Y-111034100D01*
X132907721Y-112054100D02*
X133233279Y-112054100D01*
D12*
X138808309Y-107468123D02*
X139046404Y-107634790D01*
X138808309Y-107753838D02*
X139308309Y-107753838D01*
X139308309Y-107563361D01*
X139284500Y-107515742D01*
X139260690Y-107491933D01*
X139213071Y-107468123D01*
X139141642Y-107468123D01*
X139094023Y-107491933D01*
X139070214Y-107515742D01*
X139046404Y-107563361D01*
X139046404Y-107753838D01*
X139308309Y-107301457D02*
X139308309Y-106991933D01*
X139117833Y-107158600D01*
X139117833Y-107087171D01*
X139094023Y-107039552D01*
X139070214Y-107015742D01*
X139022595Y-106991933D01*
X138903547Y-106991933D01*
X138855928Y-107015742D01*
X138832119Y-107039552D01*
X138808309Y-107087171D01*
X138808309Y-107230028D01*
X138832119Y-107277647D01*
X138855928Y-107301457D01*
X139260690Y-106801457D02*
X139284500Y-106777647D01*
X139308309Y-106730028D01*
X139308309Y-106610980D01*
X139284500Y-106563361D01*
X139260690Y-106539552D01*
X139213071Y-106515742D01*
X139165452Y-106515742D01*
X139094023Y-106539552D01*
X138808309Y-106825266D01*
X138808309Y-106515742D01*
X139094023Y-106230028D02*
X139117833Y-106277647D01*
X139141642Y-106301457D01*
X139189261Y-106325266D01*
X139213071Y-106325266D01*
X139260690Y-106301457D01*
X139284500Y-106277647D01*
X139308309Y-106230028D01*
X139308309Y-106134790D01*
X139284500Y-106087171D01*
X139260690Y-106063361D01*
X139213071Y-106039552D01*
X139189261Y-106039552D01*
X139141642Y-106063361D01*
X139117833Y-106087171D01*
X139094023Y-106134790D01*
X139094023Y-106230028D01*
X139070214Y-106277647D01*
X139046404Y-106301457D01*
X138998785Y-106325266D01*
X138903547Y-106325266D01*
X138855928Y-106301457D01*
X138832119Y-106277647D01*
X138808309Y-106230028D01*
X138808309Y-106134790D01*
X138832119Y-106087171D01*
X138855928Y-106063361D01*
X138903547Y-106039552D01*
X138998785Y-106039552D01*
X139046404Y-106063361D01*
X139070214Y-106087171D01*
X139094023Y-106134790D01*
X133630023Y-113200290D02*
X133796690Y-112962195D01*
X133915738Y-113200290D02*
X133915738Y-112700290D01*
X133725261Y-112700290D01*
X133677642Y-112724100D01*
X133653833Y-112747909D01*
X133630023Y-112795528D01*
X133630023Y-112866957D01*
X133653833Y-112914576D01*
X133677642Y-112938385D01*
X133725261Y-112962195D01*
X133915738Y-112962195D01*
X133463357Y-112700290D02*
X133153833Y-112700290D01*
X133320500Y-112890766D01*
X133249071Y-112890766D01*
X133201452Y-112914576D01*
X133177642Y-112938385D01*
X133153833Y-112986004D01*
X133153833Y-113105052D01*
X133177642Y-113152671D01*
X133201452Y-113176480D01*
X133249071Y-113200290D01*
X133391928Y-113200290D01*
X133439547Y-113176480D01*
X133463357Y-113152671D01*
X132963357Y-112747909D02*
X132939547Y-112724100D01*
X132891928Y-112700290D01*
X132772880Y-112700290D01*
X132725261Y-112724100D01*
X132701452Y-112747909D01*
X132677642Y-112795528D01*
X132677642Y-112843147D01*
X132701452Y-112914576D01*
X132987166Y-113200290D01*
X132677642Y-113200290D01*
X132439547Y-113200290D02*
X132344309Y-113200290D01*
X132296690Y-113176480D01*
X132272880Y-113152671D01*
X132225261Y-113081242D01*
X132201452Y-112986004D01*
X132201452Y-112795528D01*
X132225261Y-112747909D01*
X132249071Y-112724100D01*
X132296690Y-112700290D01*
X132391928Y-112700290D01*
X132439547Y-112724100D01*
X132463357Y-112747909D01*
X132487166Y-112795528D01*
X132487166Y-112914576D01*
X132463357Y-112962195D01*
X132439547Y-112986004D01*
X132391928Y-113009814D01*
X132296690Y-113009814D01*
X132249071Y-112986004D01*
X132225261Y-112962195D01*
X132201452Y-112914576D01*
M02*
