G04 #@! TF.GenerationSoftware,KiCad,Pcbnew,(5.1.5)-3*
G04 #@! TF.CreationDate,2020-04-12T16:22:57-07:00*
G04 #@! TF.ProjectId,Milpitas_BMS,4d696c70-6974-4617-935f-424d532e6b69,rev?*
G04 #@! TF.SameCoordinates,Original*
G04 #@! TF.FileFunction,Soldermask,Bot*
G04 #@! TF.FilePolarity,Negative*
%FSLAX46Y46*%
G04 Gerber Fmt 4.6, Leading zero omitted, Abs format (unit mm)*
G04 Created by KiCad (PCBNEW (5.1.5)-3) date 2020-04-12 16:22:57*
%MOMM*%
%LPD*%
G04 APERTURE LIST*
%ADD10C,0.100000*%
G04 APERTURE END LIST*
D10*
G36*
X188797561Y-142793360D02*
G01*
X189288930Y-142996891D01*
X189731150Y-143292373D01*
X190107227Y-143668450D01*
X190402709Y-144110670D01*
X190606240Y-144602039D01*
X190710000Y-145123673D01*
X190710000Y-145655527D01*
X190606240Y-146177161D01*
X190402709Y-146668530D01*
X190107227Y-147110750D01*
X189731150Y-147486827D01*
X189288930Y-147782309D01*
X188797561Y-147985840D01*
X188275927Y-148089600D01*
X187744073Y-148089600D01*
X187222439Y-147985840D01*
X186731070Y-147782309D01*
X186288850Y-147486827D01*
X185912773Y-147110750D01*
X185617291Y-146668530D01*
X185413760Y-146177161D01*
X185310000Y-145655527D01*
X185310000Y-145123673D01*
X185413760Y-144602039D01*
X185617291Y-144110670D01*
X185912773Y-143668450D01*
X186288850Y-143292373D01*
X186731070Y-142996891D01*
X187222439Y-142793360D01*
X187744073Y-142689600D01*
X188275927Y-142689600D01*
X188797561Y-142793360D01*
G37*
G36*
X105689561Y-142437760D02*
G01*
X106180930Y-142641291D01*
X106623150Y-142936773D01*
X106999227Y-143312850D01*
X107294709Y-143755070D01*
X107498240Y-144246439D01*
X107602000Y-144768073D01*
X107602000Y-145299927D01*
X107498240Y-145821561D01*
X107294709Y-146312930D01*
X106999227Y-146755150D01*
X106623150Y-147131227D01*
X106180930Y-147426709D01*
X105689561Y-147630240D01*
X105167927Y-147734000D01*
X104636073Y-147734000D01*
X104114439Y-147630240D01*
X103623070Y-147426709D01*
X103180850Y-147131227D01*
X102804773Y-146755150D01*
X102509291Y-146312930D01*
X102305760Y-145821561D01*
X102202000Y-145299927D01*
X102202000Y-144768073D01*
X102305760Y-144246439D01*
X102509291Y-143755070D01*
X102804773Y-143312850D01*
X103180850Y-142936773D01*
X103623070Y-142641291D01*
X104114439Y-142437760D01*
X104636073Y-142334000D01*
X105167927Y-142334000D01*
X105689561Y-142437760D01*
G37*
G36*
X187948528Y-139673226D02*
G01*
X188107769Y-139739185D01*
X188251080Y-139834943D01*
X188372957Y-139956820D01*
X188468715Y-140100131D01*
X188468715Y-140100132D01*
X188534674Y-140259372D01*
X188560454Y-140388974D01*
X188568300Y-140428421D01*
X188568300Y-140600779D01*
X188534674Y-140769828D01*
X188468715Y-140929069D01*
X188372957Y-141072380D01*
X188251080Y-141194257D01*
X188107769Y-141290015D01*
X187948528Y-141355974D01*
X187779480Y-141389600D01*
X187607120Y-141389600D01*
X187438072Y-141355974D01*
X187278831Y-141290015D01*
X187135520Y-141194257D01*
X187013643Y-141072380D01*
X186917885Y-140929069D01*
X186851926Y-140769828D01*
X186818300Y-140600779D01*
X186818300Y-140428421D01*
X186826147Y-140388974D01*
X186851926Y-140259372D01*
X186917885Y-140100132D01*
X186917885Y-140100131D01*
X187013643Y-139956820D01*
X187135520Y-139834943D01*
X187278831Y-139739185D01*
X187438072Y-139673226D01*
X187607120Y-139639600D01*
X187779480Y-139639600D01*
X187948528Y-139673226D01*
G37*
G36*
X105093728Y-138706226D02*
G01*
X105252969Y-138772185D01*
X105396280Y-138867943D01*
X105518157Y-138989820D01*
X105613915Y-139133131D01*
X105613915Y-139133132D01*
X105679874Y-139292372D01*
X105713500Y-139461420D01*
X105713500Y-139633780D01*
X105692533Y-139739185D01*
X105679874Y-139802828D01*
X105613915Y-139962069D01*
X105518157Y-140105380D01*
X105396280Y-140227257D01*
X105252969Y-140323015D01*
X105093728Y-140388974D01*
X104924680Y-140422600D01*
X104752320Y-140422600D01*
X104583272Y-140388974D01*
X104424031Y-140323015D01*
X104280720Y-140227257D01*
X104158843Y-140105380D01*
X104063085Y-139962069D01*
X103997126Y-139802828D01*
X103984467Y-139739185D01*
X103963500Y-139633780D01*
X103963500Y-139461420D01*
X103997126Y-139292372D01*
X104063085Y-139133132D01*
X104063085Y-139133131D01*
X104158843Y-138989820D01*
X104280720Y-138867943D01*
X104424031Y-138772185D01*
X104583272Y-138706226D01*
X104752320Y-138672600D01*
X104924680Y-138672600D01*
X105093728Y-138706226D01*
G37*
G36*
X178057911Y-136062637D02*
G01*
X178285398Y-136156865D01*
X178490128Y-136293662D01*
X178664238Y-136467772D01*
X178801035Y-136672502D01*
X178801857Y-136674487D01*
X178895263Y-136899989D01*
X178943300Y-137141486D01*
X178943300Y-137387714D01*
X178942905Y-137389698D01*
X178895263Y-137629211D01*
X178801035Y-137856698D01*
X178664238Y-138061428D01*
X178490128Y-138235538D01*
X178285398Y-138372335D01*
X178057911Y-138466563D01*
X177816414Y-138514600D01*
X177570186Y-138514600D01*
X177328689Y-138466563D01*
X177101202Y-138372335D01*
X176896472Y-138235538D01*
X176722362Y-138061428D01*
X176585565Y-137856698D01*
X176491337Y-137629211D01*
X176443695Y-137389698D01*
X176443300Y-137387714D01*
X176443300Y-137141486D01*
X176491337Y-136899989D01*
X176584743Y-136674487D01*
X176585565Y-136672502D01*
X176722362Y-136467772D01*
X176896472Y-136293662D01*
X177101202Y-136156865D01*
X177328689Y-136062637D01*
X177570186Y-136014600D01*
X177816414Y-136014600D01*
X178057911Y-136062637D01*
G37*
G36*
X115203111Y-135595637D02*
G01*
X115430598Y-135689865D01*
X115635328Y-135826662D01*
X115809438Y-136000772D01*
X115946235Y-136205502D01*
X115946235Y-136205503D01*
X116040463Y-136432989D01*
X116088106Y-136672503D01*
X116088500Y-136674487D01*
X116088500Y-136920713D01*
X116040463Y-137162211D01*
X115946235Y-137389698D01*
X115809438Y-137594428D01*
X115635328Y-137768538D01*
X115430598Y-137905335D01*
X115203111Y-137999563D01*
X114961614Y-138047600D01*
X114715386Y-138047600D01*
X114473889Y-137999563D01*
X114246402Y-137905335D01*
X114041672Y-137768538D01*
X113867562Y-137594428D01*
X113730765Y-137389698D01*
X113636537Y-137162211D01*
X113588500Y-136920713D01*
X113588500Y-136674487D01*
X113588895Y-136672503D01*
X113636537Y-136432989D01*
X113730765Y-136205503D01*
X113730765Y-136205502D01*
X113867562Y-136000772D01*
X114041672Y-135826662D01*
X114246402Y-135689865D01*
X114473889Y-135595637D01*
X114715386Y-135547600D01*
X114961614Y-135547600D01*
X115203111Y-135595637D01*
G37*
G36*
X178057911Y-131062637D02*
G01*
X178285398Y-131156865D01*
X178490128Y-131293662D01*
X178664238Y-131467772D01*
X178801035Y-131672502D01*
X178801857Y-131674487D01*
X178895263Y-131899989D01*
X178943300Y-132141486D01*
X178943300Y-132387714D01*
X178942905Y-132389698D01*
X178895263Y-132629211D01*
X178801035Y-132856698D01*
X178664238Y-133061428D01*
X178490128Y-133235538D01*
X178285398Y-133372335D01*
X178057911Y-133466563D01*
X177816414Y-133514600D01*
X177570186Y-133514600D01*
X177328689Y-133466563D01*
X177101202Y-133372335D01*
X176896472Y-133235538D01*
X176722362Y-133061428D01*
X176585565Y-132856698D01*
X176491337Y-132629211D01*
X176443695Y-132389698D01*
X176443300Y-132387714D01*
X176443300Y-132141486D01*
X176491337Y-131899989D01*
X176584743Y-131674487D01*
X176585565Y-131672502D01*
X176722362Y-131467772D01*
X176896472Y-131293662D01*
X177101202Y-131156865D01*
X177328689Y-131062637D01*
X177570186Y-131014600D01*
X177816414Y-131014600D01*
X178057911Y-131062637D01*
G37*
G36*
X115203111Y-130595637D02*
G01*
X115430598Y-130689865D01*
X115635328Y-130826662D01*
X115809438Y-131000772D01*
X115946235Y-131205502D01*
X115946235Y-131205503D01*
X116040463Y-131432989D01*
X116088106Y-131672503D01*
X116088500Y-131674487D01*
X116088500Y-131920713D01*
X116040463Y-132162211D01*
X115946235Y-132389698D01*
X115809438Y-132594428D01*
X115635328Y-132768538D01*
X115430598Y-132905335D01*
X115203111Y-132999563D01*
X114961614Y-133047600D01*
X114715386Y-133047600D01*
X114473889Y-132999563D01*
X114246402Y-132905335D01*
X114041672Y-132768538D01*
X113867562Y-132594428D01*
X113730765Y-132389698D01*
X113636537Y-132162211D01*
X113588500Y-131920713D01*
X113588500Y-131674487D01*
X113588895Y-131672503D01*
X113636537Y-131432989D01*
X113730765Y-131205503D01*
X113730765Y-131205502D01*
X113867562Y-131000772D01*
X114041672Y-130826662D01*
X114246402Y-130689865D01*
X114473889Y-130595637D01*
X114715386Y-130547600D01*
X114961614Y-130547600D01*
X115203111Y-130595637D01*
G37*
G36*
X187948528Y-128673226D02*
G01*
X188107769Y-128739185D01*
X188251080Y-128834943D01*
X188372957Y-128956820D01*
X188468715Y-129100131D01*
X188468715Y-129100132D01*
X188534674Y-129259372D01*
X188560454Y-129388974D01*
X188568300Y-129428421D01*
X188568300Y-129600779D01*
X188534674Y-129769828D01*
X188468715Y-129929069D01*
X188372957Y-130072380D01*
X188251080Y-130194257D01*
X188107769Y-130290015D01*
X187948528Y-130355974D01*
X187779480Y-130389600D01*
X187607120Y-130389600D01*
X187438072Y-130355974D01*
X187278831Y-130290015D01*
X187135520Y-130194257D01*
X187013643Y-130072380D01*
X186917885Y-129929069D01*
X186851926Y-129769828D01*
X186818300Y-129600779D01*
X186818300Y-129428421D01*
X186826147Y-129388974D01*
X186851926Y-129259372D01*
X186917885Y-129100132D01*
X186917885Y-129100131D01*
X187013643Y-128956820D01*
X187135520Y-128834943D01*
X187278831Y-128739185D01*
X187438072Y-128673226D01*
X187607120Y-128639600D01*
X187779480Y-128639600D01*
X187948528Y-128673226D01*
G37*
G36*
X105093728Y-127706226D02*
G01*
X105252969Y-127772185D01*
X105396280Y-127867943D01*
X105518157Y-127989820D01*
X105613915Y-128133131D01*
X105613915Y-128133132D01*
X105679874Y-128292372D01*
X105713500Y-128461420D01*
X105713500Y-128633780D01*
X105692533Y-128739185D01*
X105679874Y-128802828D01*
X105613915Y-128962069D01*
X105518157Y-129105380D01*
X105396280Y-129227257D01*
X105252969Y-129323015D01*
X105093728Y-129388974D01*
X104924680Y-129422600D01*
X104752320Y-129422600D01*
X104583272Y-129388974D01*
X104424031Y-129323015D01*
X104280720Y-129227257D01*
X104158843Y-129105380D01*
X104063085Y-128962069D01*
X103997126Y-128802828D01*
X103984467Y-128739185D01*
X103963500Y-128633780D01*
X103963500Y-128461420D01*
X103997126Y-128292372D01*
X104063085Y-128133132D01*
X104063085Y-128133131D01*
X104158843Y-127989820D01*
X104280720Y-127867943D01*
X104424031Y-127772185D01*
X104583272Y-127706226D01*
X104752320Y-127672600D01*
X104924680Y-127672600D01*
X105093728Y-127706226D01*
G37*
G36*
X188088228Y-123798226D02*
G01*
X188247469Y-123864185D01*
X188390780Y-123959943D01*
X188512657Y-124081820D01*
X188608415Y-124225131D01*
X188674374Y-124384372D01*
X188708000Y-124553421D01*
X188708000Y-124725779D01*
X188674374Y-124894828D01*
X188608415Y-125054069D01*
X188512657Y-125197380D01*
X188390780Y-125319257D01*
X188247469Y-125415015D01*
X188088228Y-125480974D01*
X187919180Y-125514600D01*
X187746820Y-125514600D01*
X187577772Y-125480974D01*
X187418531Y-125415015D01*
X187275220Y-125319257D01*
X187153343Y-125197380D01*
X187057585Y-125054069D01*
X186991626Y-124894828D01*
X186958000Y-124725779D01*
X186958000Y-124553421D01*
X186991626Y-124384372D01*
X187057585Y-124225131D01*
X187153343Y-124081820D01*
X187275220Y-123959943D01*
X187418531Y-123864185D01*
X187577772Y-123798226D01*
X187746820Y-123764600D01*
X187919180Y-123764600D01*
X188088228Y-123798226D01*
G37*
G36*
X178173264Y-120182794D02*
G01*
X178197611Y-120187637D01*
X178425098Y-120281865D01*
X178629828Y-120418662D01*
X178803938Y-120592772D01*
X178940735Y-120797502D01*
X178986713Y-120908503D01*
X179034963Y-121024989D01*
X179063377Y-121167833D01*
X179083000Y-121266487D01*
X179083000Y-121512713D01*
X179034963Y-121754211D01*
X178940735Y-121981698D01*
X178803938Y-122186428D01*
X178629828Y-122360538D01*
X178425098Y-122497335D01*
X178197611Y-122591563D01*
X177956114Y-122639600D01*
X177709886Y-122639600D01*
X177468389Y-122591563D01*
X177240902Y-122497335D01*
X177036172Y-122360538D01*
X176862062Y-122186428D01*
X176725265Y-121981698D01*
X176631037Y-121754211D01*
X176583000Y-121512713D01*
X176583000Y-121266487D01*
X176602624Y-121167833D01*
X176631037Y-121024989D01*
X176679287Y-120908503D01*
X176725265Y-120797502D01*
X176862062Y-120592772D01*
X177036172Y-120418662D01*
X177240902Y-120281865D01*
X177468389Y-120187637D01*
X177492736Y-120182794D01*
X177709886Y-120139600D01*
X177956114Y-120139600D01*
X178173264Y-120182794D01*
G37*
G36*
X114731020Y-120641404D02*
G01*
X114851767Y-120665422D01*
X114988259Y-120721959D01*
X115111097Y-120804037D01*
X115215563Y-120908503D01*
X115297641Y-121031341D01*
X115354178Y-121167833D01*
X115383000Y-121312732D01*
X115383000Y-121460468D01*
X115354178Y-121605367D01*
X115297641Y-121741859D01*
X115215563Y-121864697D01*
X115111097Y-121969163D01*
X114988259Y-122051241D01*
X114883248Y-122094738D01*
X114851767Y-122107778D01*
X114706869Y-122136600D01*
X114559131Y-122136600D01*
X114414233Y-122107778D01*
X114382752Y-122094738D01*
X114277741Y-122051241D01*
X114154903Y-121969163D01*
X114050437Y-121864697D01*
X113968359Y-121741859D01*
X113911822Y-121605367D01*
X113883000Y-121460468D01*
X113883000Y-121312732D01*
X113911822Y-121167833D01*
X113968359Y-121031341D01*
X114050437Y-120908503D01*
X114154903Y-120804037D01*
X114277741Y-120721959D01*
X114414233Y-120665422D01*
X114534980Y-120641404D01*
X114559131Y-120636600D01*
X114706869Y-120636600D01*
X114731020Y-120641404D01*
G37*
G36*
X112183114Y-120641384D02*
G01*
X112229692Y-120655514D01*
X112272626Y-120678462D01*
X112310256Y-120709344D01*
X112341138Y-120746974D01*
X112364086Y-120789908D01*
X112378216Y-120836486D01*
X112383000Y-120885057D01*
X112383000Y-121888143D01*
X112378216Y-121936714D01*
X112364086Y-121983292D01*
X112341138Y-122026226D01*
X112310256Y-122063856D01*
X112272626Y-122094738D01*
X112229692Y-122117686D01*
X112183114Y-122131816D01*
X112134543Y-122136600D01*
X111131457Y-122136600D01*
X111082886Y-122131816D01*
X111036308Y-122117686D01*
X110993374Y-122094738D01*
X110955744Y-122063856D01*
X110924862Y-122026226D01*
X110901914Y-121983292D01*
X110887784Y-121936714D01*
X110883000Y-121888143D01*
X110883000Y-120885057D01*
X110887784Y-120836486D01*
X110901914Y-120789908D01*
X110924862Y-120746974D01*
X110955744Y-120709344D01*
X110993374Y-120678462D01*
X111036308Y-120655514D01*
X111082886Y-120641384D01*
X111131457Y-120636600D01*
X112134543Y-120636600D01*
X112183114Y-120641384D01*
G37*
G36*
X107750534Y-117784244D02*
G01*
X108023517Y-117897317D01*
X108269194Y-118061474D01*
X108478126Y-118270406D01*
X108642283Y-118516083D01*
X108755356Y-118789066D01*
X108813000Y-119078863D01*
X108813000Y-119374337D01*
X108755356Y-119664134D01*
X108642283Y-119937117D01*
X108478126Y-120182794D01*
X108269194Y-120391726D01*
X108023517Y-120555883D01*
X107750534Y-120668956D01*
X107460737Y-120726600D01*
X107165263Y-120726600D01*
X106875466Y-120668956D01*
X106602483Y-120555883D01*
X106356806Y-120391726D01*
X106147874Y-120182794D01*
X105983717Y-119937117D01*
X105870644Y-119664134D01*
X105813000Y-119374337D01*
X105813000Y-119078863D01*
X105870644Y-118789066D01*
X105983717Y-118516083D01*
X106147874Y-118270406D01*
X106356806Y-118061474D01*
X106602483Y-117897317D01*
X106875466Y-117784244D01*
X107165263Y-117726600D01*
X107460737Y-117726600D01*
X107750534Y-117784244D01*
G37*
G36*
X111851767Y-117665422D02*
G01*
X111988259Y-117721959D01*
X112111097Y-117804037D01*
X112215563Y-117908503D01*
X112297641Y-118031341D01*
X112354178Y-118167833D01*
X112383000Y-118312732D01*
X112383000Y-118460468D01*
X112354178Y-118605367D01*
X112297641Y-118741859D01*
X112215563Y-118864697D01*
X112111097Y-118969163D01*
X111988259Y-119051241D01*
X111921571Y-119078864D01*
X111851767Y-119107778D01*
X111706869Y-119136600D01*
X111559131Y-119136600D01*
X111414233Y-119107778D01*
X111344429Y-119078864D01*
X111277741Y-119051241D01*
X111154903Y-118969163D01*
X111050437Y-118864697D01*
X110968359Y-118741859D01*
X110911822Y-118605367D01*
X110883000Y-118460468D01*
X110883000Y-118312732D01*
X110911822Y-118167833D01*
X110968359Y-118031341D01*
X111050437Y-117908503D01*
X111154903Y-117804037D01*
X111277741Y-117721959D01*
X111414233Y-117665422D01*
X111559131Y-117636600D01*
X111706869Y-117636600D01*
X111851767Y-117665422D01*
G37*
G36*
X114851767Y-117665422D02*
G01*
X114988259Y-117721959D01*
X115111097Y-117804037D01*
X115215563Y-117908503D01*
X115297641Y-118031341D01*
X115354178Y-118167833D01*
X115383000Y-118312732D01*
X115383000Y-118460468D01*
X115354178Y-118605367D01*
X115297641Y-118741859D01*
X115215563Y-118864697D01*
X115111097Y-118969163D01*
X114988259Y-119051241D01*
X114921571Y-119078864D01*
X114851767Y-119107778D01*
X114706869Y-119136600D01*
X114559131Y-119136600D01*
X114414233Y-119107778D01*
X114344429Y-119078864D01*
X114277741Y-119051241D01*
X114154903Y-118969163D01*
X114050437Y-118864697D01*
X113968359Y-118741859D01*
X113911822Y-118605367D01*
X113883000Y-118460468D01*
X113883000Y-118312732D01*
X113911822Y-118167833D01*
X113968359Y-118031341D01*
X114050437Y-117908503D01*
X114154903Y-117804037D01*
X114277741Y-117721959D01*
X114414233Y-117665422D01*
X114559131Y-117636600D01*
X114706869Y-117636600D01*
X114851767Y-117665422D01*
G37*
G36*
X178098050Y-115167833D02*
G01*
X178197611Y-115187637D01*
X178425098Y-115281865D01*
X178629828Y-115418662D01*
X178803938Y-115592772D01*
X178940735Y-115797502D01*
X179034963Y-116024989D01*
X179083000Y-116266487D01*
X179083000Y-116512713D01*
X179034963Y-116754211D01*
X178940735Y-116981698D01*
X178803938Y-117186428D01*
X178629828Y-117360538D01*
X178425098Y-117497335D01*
X178197611Y-117591563D01*
X177956114Y-117639600D01*
X177709886Y-117639600D01*
X177468389Y-117591563D01*
X177240902Y-117497335D01*
X177036172Y-117360538D01*
X176862062Y-117186428D01*
X176725265Y-116981698D01*
X176631037Y-116754211D01*
X176583000Y-116512713D01*
X176583000Y-116266487D01*
X176631037Y-116024989D01*
X176725265Y-115797502D01*
X176862062Y-115592772D01*
X177036172Y-115418662D01*
X177240902Y-115281865D01*
X177468389Y-115187637D01*
X177567950Y-115167833D01*
X177709886Y-115139600D01*
X177956114Y-115139600D01*
X178098050Y-115167833D01*
G37*
G36*
X111851767Y-114665422D02*
G01*
X111988259Y-114721959D01*
X112111097Y-114804037D01*
X112215563Y-114908503D01*
X112297641Y-115031341D01*
X112354178Y-115167833D01*
X112383000Y-115312732D01*
X112383000Y-115460468D01*
X112354178Y-115605367D01*
X112297641Y-115741859D01*
X112215563Y-115864697D01*
X112111097Y-115969163D01*
X111988259Y-116051241D01*
X111851767Y-116107778D01*
X111706869Y-116136600D01*
X111559131Y-116136600D01*
X111414233Y-116107778D01*
X111277741Y-116051241D01*
X111154903Y-115969163D01*
X111050437Y-115864697D01*
X110968359Y-115741859D01*
X110911822Y-115605367D01*
X110883000Y-115460468D01*
X110883000Y-115312732D01*
X110911822Y-115167833D01*
X110968359Y-115031341D01*
X111050437Y-114908503D01*
X111154903Y-114804037D01*
X111277741Y-114721959D01*
X111414233Y-114665422D01*
X111559131Y-114636600D01*
X111706869Y-114636600D01*
X111851767Y-114665422D01*
G37*
G36*
X114851767Y-114665422D02*
G01*
X114988259Y-114721959D01*
X115111097Y-114804037D01*
X115215563Y-114908503D01*
X115297641Y-115031341D01*
X115354178Y-115167833D01*
X115383000Y-115312732D01*
X115383000Y-115460468D01*
X115354178Y-115605367D01*
X115297641Y-115741859D01*
X115215563Y-115864697D01*
X115111097Y-115969163D01*
X114988259Y-116051241D01*
X114851767Y-116107778D01*
X114706869Y-116136600D01*
X114559131Y-116136600D01*
X114414233Y-116107778D01*
X114277741Y-116051241D01*
X114154903Y-115969163D01*
X114050437Y-115864697D01*
X113968359Y-115741859D01*
X113911822Y-115605367D01*
X113883000Y-115460468D01*
X113883000Y-115312732D01*
X113911822Y-115167833D01*
X113968359Y-115031341D01*
X114050437Y-114908503D01*
X114154903Y-114804037D01*
X114277741Y-114721959D01*
X114414233Y-114665422D01*
X114559131Y-114636600D01*
X114706869Y-114636600D01*
X114851767Y-114665422D01*
G37*
G36*
X188088228Y-112798226D02*
G01*
X188247469Y-112864185D01*
X188390780Y-112959943D01*
X188512657Y-113081820D01*
X188608415Y-113225131D01*
X188674374Y-113384372D01*
X188708000Y-113553421D01*
X188708000Y-113725779D01*
X188674374Y-113894828D01*
X188608415Y-114054069D01*
X188512657Y-114197380D01*
X188390780Y-114319257D01*
X188247469Y-114415015D01*
X188088228Y-114480974D01*
X187919180Y-114514600D01*
X187746820Y-114514600D01*
X187577772Y-114480974D01*
X187418531Y-114415015D01*
X187275220Y-114319257D01*
X187153343Y-114197380D01*
X187057585Y-114054069D01*
X186991626Y-113894828D01*
X186958000Y-113725779D01*
X186958000Y-113553421D01*
X186991626Y-113384372D01*
X187057585Y-113225131D01*
X187153343Y-113081820D01*
X187275220Y-112959943D01*
X187418531Y-112864185D01*
X187577772Y-112798226D01*
X187746820Y-112764600D01*
X187919180Y-112764600D01*
X188088228Y-112798226D01*
G37*
G36*
X111851767Y-111665422D02*
G01*
X111988259Y-111721959D01*
X112111097Y-111804037D01*
X112215563Y-111908503D01*
X112297641Y-112031341D01*
X112354178Y-112167833D01*
X112383000Y-112312732D01*
X112383000Y-112460468D01*
X112354178Y-112605367D01*
X112297641Y-112741859D01*
X112215563Y-112864697D01*
X112111097Y-112969163D01*
X111988259Y-113051241D01*
X111914435Y-113081820D01*
X111851767Y-113107778D01*
X111706869Y-113136600D01*
X111559131Y-113136600D01*
X111414233Y-113107778D01*
X111351565Y-113081820D01*
X111277741Y-113051241D01*
X111154903Y-112969163D01*
X111050437Y-112864697D01*
X110968359Y-112741859D01*
X110911822Y-112605367D01*
X110883000Y-112460468D01*
X110883000Y-112312732D01*
X110911822Y-112167833D01*
X110968359Y-112031341D01*
X111050437Y-111908503D01*
X111154903Y-111804037D01*
X111277741Y-111721959D01*
X111414233Y-111665422D01*
X111559131Y-111636600D01*
X111706869Y-111636600D01*
X111851767Y-111665422D01*
G37*
G36*
X114851767Y-111665422D02*
G01*
X114988259Y-111721959D01*
X115111097Y-111804037D01*
X115215563Y-111908503D01*
X115297641Y-112031341D01*
X115354178Y-112167833D01*
X115383000Y-112312732D01*
X115383000Y-112460468D01*
X115354178Y-112605367D01*
X115297641Y-112741859D01*
X115215563Y-112864697D01*
X115111097Y-112969163D01*
X114988259Y-113051241D01*
X114914435Y-113081820D01*
X114851767Y-113107778D01*
X114706869Y-113136600D01*
X114559131Y-113136600D01*
X114414233Y-113107778D01*
X114351565Y-113081820D01*
X114277741Y-113051241D01*
X114154903Y-112969163D01*
X114050437Y-112864697D01*
X113968359Y-112741859D01*
X113911822Y-112605367D01*
X113883000Y-112460468D01*
X113883000Y-112312732D01*
X113911822Y-112167833D01*
X113968359Y-112031341D01*
X114050437Y-111908503D01*
X114154903Y-111804037D01*
X114277741Y-111721959D01*
X114414233Y-111665422D01*
X114559131Y-111636600D01*
X114706869Y-111636600D01*
X114851767Y-111665422D01*
G37*
G36*
X132545433Y-111073291D02*
G01*
X132586226Y-111085666D01*
X132623830Y-111105766D01*
X132656787Y-111132813D01*
X132683834Y-111165770D01*
X132703934Y-111203374D01*
X132716309Y-111244167D01*
X132720500Y-111286723D01*
X132720500Y-111801477D01*
X132716309Y-111844033D01*
X132703934Y-111884826D01*
X132683834Y-111922430D01*
X132656787Y-111955387D01*
X132623830Y-111982434D01*
X132586226Y-112002534D01*
X132545433Y-112014909D01*
X132502877Y-112019100D01*
X132063123Y-112019100D01*
X132020567Y-112014909D01*
X131979774Y-112002534D01*
X131942170Y-111982434D01*
X131909213Y-111955387D01*
X131882166Y-111922430D01*
X131862066Y-111884826D01*
X131849691Y-111844033D01*
X131845500Y-111801477D01*
X131845500Y-111286723D01*
X131849691Y-111244167D01*
X131862066Y-111203374D01*
X131882166Y-111165770D01*
X131909213Y-111132813D01*
X131942170Y-111105766D01*
X131979774Y-111085666D01*
X132020567Y-111073291D01*
X132063123Y-111069100D01*
X132502877Y-111069100D01*
X132545433Y-111073291D01*
G37*
G36*
X134120433Y-111073291D02*
G01*
X134161226Y-111085666D01*
X134198830Y-111105766D01*
X134231787Y-111132813D01*
X134258834Y-111165770D01*
X134278934Y-111203374D01*
X134291309Y-111244167D01*
X134295500Y-111286723D01*
X134295500Y-111801477D01*
X134291309Y-111844033D01*
X134278934Y-111884826D01*
X134258834Y-111922430D01*
X134231787Y-111955387D01*
X134198830Y-111982434D01*
X134161226Y-112002534D01*
X134120433Y-112014909D01*
X134077877Y-112019100D01*
X133638123Y-112019100D01*
X133595567Y-112014909D01*
X133554774Y-112002534D01*
X133517170Y-111982434D01*
X133484213Y-111955387D01*
X133457166Y-111922430D01*
X133437066Y-111884826D01*
X133424691Y-111844033D01*
X133420500Y-111801477D01*
X133420500Y-111286723D01*
X133424691Y-111244167D01*
X133437066Y-111203374D01*
X133457166Y-111165770D01*
X133484213Y-111132813D01*
X133517170Y-111105766D01*
X133554774Y-111085666D01*
X133595567Y-111073291D01*
X133638123Y-111069100D01*
X134077877Y-111069100D01*
X134120433Y-111073291D01*
G37*
G36*
X158875607Y-111031728D02*
G01*
X158930203Y-111054343D01*
X158979339Y-111087174D01*
X159021126Y-111128961D01*
X159053957Y-111178097D01*
X159076572Y-111232693D01*
X159088100Y-111290653D01*
X159088100Y-111349747D01*
X159076572Y-111407707D01*
X159053957Y-111462303D01*
X159021126Y-111511439D01*
X158979339Y-111553226D01*
X158930203Y-111586057D01*
X158875607Y-111608672D01*
X158817647Y-111620200D01*
X158758553Y-111620200D01*
X158700593Y-111608672D01*
X158645997Y-111586057D01*
X158596861Y-111553226D01*
X158555074Y-111511439D01*
X158522243Y-111462303D01*
X158499628Y-111407707D01*
X158488100Y-111349747D01*
X158488100Y-111290653D01*
X158499628Y-111232693D01*
X158522243Y-111178097D01*
X158555074Y-111128961D01*
X158596861Y-111087174D01*
X158645997Y-111054343D01*
X158700593Y-111031728D01*
X158758553Y-111020200D01*
X158817647Y-111020200D01*
X158875607Y-111031728D01*
G37*
G36*
X158875607Y-110031728D02*
G01*
X158930203Y-110054343D01*
X158979339Y-110087174D01*
X159021126Y-110128961D01*
X159053957Y-110178097D01*
X159076572Y-110232693D01*
X159088100Y-110290653D01*
X159088100Y-110349747D01*
X159076572Y-110407707D01*
X159053957Y-110462303D01*
X159021126Y-110511439D01*
X158979339Y-110553226D01*
X158930203Y-110586057D01*
X158875607Y-110608672D01*
X158817647Y-110620200D01*
X158758553Y-110620200D01*
X158700593Y-110608672D01*
X158645997Y-110586057D01*
X158596861Y-110553226D01*
X158555074Y-110511439D01*
X158522243Y-110462303D01*
X158499628Y-110407707D01*
X158488100Y-110349747D01*
X158488100Y-110290653D01*
X158499628Y-110232693D01*
X158522243Y-110178097D01*
X158555074Y-110128961D01*
X158596861Y-110087174D01*
X158645997Y-110054343D01*
X158700593Y-110031728D01*
X158758553Y-110020200D01*
X158817647Y-110020200D01*
X158875607Y-110031728D01*
G37*
G36*
X111851767Y-108665422D02*
G01*
X111988259Y-108721959D01*
X112111097Y-108804037D01*
X112215563Y-108908503D01*
X112297641Y-109031341D01*
X112354178Y-109167833D01*
X112383000Y-109312732D01*
X112383000Y-109460468D01*
X112354178Y-109605367D01*
X112297641Y-109741859D01*
X112215563Y-109864697D01*
X112111097Y-109969163D01*
X111988259Y-110051241D01*
X111901509Y-110087174D01*
X111851767Y-110107778D01*
X111706869Y-110136600D01*
X111559131Y-110136600D01*
X111414233Y-110107778D01*
X111364491Y-110087174D01*
X111277741Y-110051241D01*
X111154903Y-109969163D01*
X111050437Y-109864697D01*
X110968359Y-109741859D01*
X110911822Y-109605367D01*
X110883000Y-109460468D01*
X110883000Y-109312732D01*
X110911822Y-109167833D01*
X110968359Y-109031341D01*
X111050437Y-108908503D01*
X111154903Y-108804037D01*
X111277741Y-108721959D01*
X111414233Y-108665422D01*
X111559131Y-108636600D01*
X111706869Y-108636600D01*
X111851767Y-108665422D01*
G37*
G36*
X114851767Y-108665422D02*
G01*
X114988259Y-108721959D01*
X115111097Y-108804037D01*
X115215563Y-108908503D01*
X115297641Y-109031341D01*
X115354178Y-109167833D01*
X115383000Y-109312732D01*
X115383000Y-109460468D01*
X115354178Y-109605367D01*
X115297641Y-109741859D01*
X115215563Y-109864697D01*
X115111097Y-109969163D01*
X114988259Y-110051241D01*
X114901509Y-110087174D01*
X114851767Y-110107778D01*
X114706869Y-110136600D01*
X114559131Y-110136600D01*
X114414233Y-110107778D01*
X114364491Y-110087174D01*
X114277741Y-110051241D01*
X114154903Y-109969163D01*
X114050437Y-109864697D01*
X113968359Y-109741859D01*
X113911822Y-109605367D01*
X113883000Y-109460468D01*
X113883000Y-109312732D01*
X113911822Y-109167833D01*
X113968359Y-109031341D01*
X114050437Y-108908503D01*
X114154903Y-108804037D01*
X114277741Y-108721959D01*
X114414233Y-108665422D01*
X114559131Y-108636600D01*
X114706869Y-108636600D01*
X114851767Y-108665422D01*
G37*
G36*
X137904433Y-107262791D02*
G01*
X137945226Y-107275166D01*
X137982830Y-107295266D01*
X138015787Y-107322313D01*
X138042834Y-107355270D01*
X138062934Y-107392874D01*
X138075309Y-107433667D01*
X138079500Y-107476223D01*
X138079500Y-107915977D01*
X138075309Y-107958533D01*
X138062934Y-107999326D01*
X138042834Y-108036930D01*
X138015787Y-108069887D01*
X137982830Y-108096934D01*
X137945226Y-108117034D01*
X137904433Y-108129409D01*
X137861877Y-108133600D01*
X137347123Y-108133600D01*
X137304567Y-108129409D01*
X137263774Y-108117034D01*
X137226170Y-108096934D01*
X137193213Y-108069887D01*
X137166166Y-108036930D01*
X137146066Y-107999326D01*
X137133691Y-107958533D01*
X137129500Y-107915977D01*
X137129500Y-107476223D01*
X137133691Y-107433667D01*
X137146066Y-107392874D01*
X137166166Y-107355270D01*
X137193213Y-107322313D01*
X137226170Y-107295266D01*
X137263774Y-107275166D01*
X137304567Y-107262791D01*
X137347123Y-107258600D01*
X137861877Y-107258600D01*
X137904433Y-107262791D01*
G37*
G36*
X176778378Y-103797659D02*
G01*
X177142355Y-103948423D01*
X177469926Y-104167299D01*
X177748501Y-104445874D01*
X177967377Y-104773445D01*
X178118141Y-105137422D01*
X178195000Y-105523817D01*
X178195000Y-105917783D01*
X178118141Y-106304178D01*
X177967377Y-106668155D01*
X177748501Y-106995726D01*
X177469926Y-107274301D01*
X177142355Y-107493177D01*
X176778378Y-107643941D01*
X176391983Y-107720800D01*
X175998017Y-107720800D01*
X175611622Y-107643941D01*
X175247645Y-107493177D01*
X174920074Y-107274301D01*
X174641499Y-106995726D01*
X174422623Y-106668155D01*
X174271859Y-106304178D01*
X174195000Y-105917783D01*
X174195000Y-105523817D01*
X174271859Y-105137422D01*
X174422623Y-104773445D01*
X174641499Y-104445874D01*
X174920074Y-104167299D01*
X175247645Y-103948423D01*
X175611622Y-103797659D01*
X175998017Y-103720800D01*
X176391983Y-103720800D01*
X176778378Y-103797659D01*
G37*
G36*
X114851767Y-105665422D02*
G01*
X114988259Y-105721959D01*
X115111097Y-105804037D01*
X115215563Y-105908503D01*
X115297641Y-106031341D01*
X115297641Y-106031342D01*
X115354178Y-106167833D01*
X115383000Y-106312731D01*
X115383000Y-106460469D01*
X115354178Y-106605367D01*
X115297641Y-106741859D01*
X115215563Y-106864697D01*
X115111097Y-106969163D01*
X114988259Y-107051241D01*
X114851767Y-107107778D01*
X114706869Y-107136600D01*
X114559131Y-107136600D01*
X114414233Y-107107778D01*
X114277741Y-107051241D01*
X114154903Y-106969163D01*
X114050437Y-106864697D01*
X113968359Y-106741859D01*
X113911822Y-106605367D01*
X113883000Y-106460469D01*
X113883000Y-106312731D01*
X113911822Y-106167833D01*
X113968359Y-106031342D01*
X113968359Y-106031341D01*
X114050437Y-105908503D01*
X114154903Y-105804037D01*
X114277741Y-105721959D01*
X114414233Y-105665422D01*
X114559131Y-105636600D01*
X114706869Y-105636600D01*
X114851767Y-105665422D01*
G37*
G36*
X111851767Y-105665422D02*
G01*
X111988259Y-105721959D01*
X112111097Y-105804037D01*
X112215563Y-105908503D01*
X112297641Y-106031341D01*
X112297641Y-106031342D01*
X112354178Y-106167833D01*
X112383000Y-106312731D01*
X112383000Y-106460469D01*
X112354178Y-106605367D01*
X112297641Y-106741859D01*
X112215563Y-106864697D01*
X112111097Y-106969163D01*
X111988259Y-107051241D01*
X111851767Y-107107778D01*
X111706869Y-107136600D01*
X111559131Y-107136600D01*
X111414233Y-107107778D01*
X111277741Y-107051241D01*
X111154903Y-106969163D01*
X111050437Y-106864697D01*
X110968359Y-106741859D01*
X110911822Y-106605367D01*
X110883000Y-106460469D01*
X110883000Y-106312731D01*
X110911822Y-106167833D01*
X110968359Y-106031342D01*
X110968359Y-106031341D01*
X111050437Y-105908503D01*
X111154903Y-105804037D01*
X111277741Y-105721959D01*
X111414233Y-105665422D01*
X111559131Y-105636600D01*
X111706869Y-105636600D01*
X111851767Y-105665422D01*
G37*
G36*
X137904433Y-105687791D02*
G01*
X137945226Y-105700166D01*
X137982830Y-105720266D01*
X138015787Y-105747313D01*
X138042834Y-105780270D01*
X138062934Y-105817874D01*
X138075309Y-105858667D01*
X138079500Y-105901223D01*
X138079500Y-106340977D01*
X138075309Y-106383533D01*
X138062934Y-106424326D01*
X138042834Y-106461930D01*
X138015787Y-106494887D01*
X137982830Y-106521934D01*
X137945226Y-106542034D01*
X137904433Y-106554409D01*
X137861877Y-106558600D01*
X137347123Y-106558600D01*
X137304567Y-106554409D01*
X137263774Y-106542034D01*
X137226170Y-106521934D01*
X137193213Y-106494887D01*
X137166166Y-106461930D01*
X137146066Y-106424326D01*
X137133691Y-106383533D01*
X137129500Y-106340977D01*
X137129500Y-105901223D01*
X137133691Y-105858667D01*
X137146066Y-105817874D01*
X137166166Y-105780270D01*
X137193213Y-105747313D01*
X137226170Y-105720266D01*
X137263774Y-105700166D01*
X137304567Y-105687791D01*
X137347123Y-105683600D01*
X137861877Y-105683600D01*
X137904433Y-105687791D01*
G37*
G36*
X114851767Y-102665422D02*
G01*
X114988259Y-102721959D01*
X115111097Y-102804037D01*
X115215563Y-102908503D01*
X115297641Y-103031341D01*
X115354178Y-103167833D01*
X115383000Y-103312732D01*
X115383000Y-103460468D01*
X115354178Y-103605367D01*
X115297641Y-103741859D01*
X115215563Y-103864697D01*
X115111097Y-103969163D01*
X114988259Y-104051241D01*
X114851767Y-104107778D01*
X114706869Y-104136600D01*
X114559131Y-104136600D01*
X114414233Y-104107778D01*
X114277741Y-104051241D01*
X114154903Y-103969163D01*
X114050437Y-103864697D01*
X113968359Y-103741859D01*
X113911822Y-103605367D01*
X113883000Y-103460468D01*
X113883000Y-103312732D01*
X113911822Y-103167833D01*
X113968359Y-103031341D01*
X114050437Y-102908503D01*
X114154903Y-102804037D01*
X114277741Y-102721959D01*
X114414233Y-102665422D01*
X114559131Y-102636600D01*
X114706869Y-102636600D01*
X114851767Y-102665422D01*
G37*
G36*
X111851767Y-102665422D02*
G01*
X111988259Y-102721959D01*
X112111097Y-102804037D01*
X112215563Y-102908503D01*
X112297641Y-103031341D01*
X112354178Y-103167833D01*
X112383000Y-103312732D01*
X112383000Y-103460468D01*
X112354178Y-103605367D01*
X112297641Y-103741859D01*
X112215563Y-103864697D01*
X112111097Y-103969163D01*
X111988259Y-104051241D01*
X111851767Y-104107778D01*
X111706869Y-104136600D01*
X111559131Y-104136600D01*
X111414233Y-104107778D01*
X111277741Y-104051241D01*
X111154903Y-103969163D01*
X111050437Y-103864697D01*
X110968359Y-103741859D01*
X110911822Y-103605367D01*
X110883000Y-103460468D01*
X110883000Y-103312732D01*
X110911822Y-103167833D01*
X110968359Y-103031341D01*
X111050437Y-102908503D01*
X111154903Y-102804037D01*
X111277741Y-102721959D01*
X111414233Y-102665422D01*
X111559131Y-102636600D01*
X111706869Y-102636600D01*
X111851767Y-102665422D01*
G37*
G36*
X169557289Y-101552829D02*
G01*
X169739278Y-101628211D01*
X169903063Y-101737649D01*
X170042351Y-101876937D01*
X170151789Y-102040722D01*
X170227171Y-102222711D01*
X170265600Y-102415909D01*
X170265600Y-102612891D01*
X170227171Y-102806089D01*
X170151789Y-102988078D01*
X170042351Y-103151863D01*
X169903063Y-103291151D01*
X169739278Y-103400589D01*
X169594714Y-103460469D01*
X169557289Y-103475971D01*
X169364091Y-103514400D01*
X169167109Y-103514400D01*
X168973911Y-103475971D01*
X168936486Y-103460469D01*
X168791922Y-103400589D01*
X168628137Y-103291151D01*
X168488849Y-103151863D01*
X168379411Y-102988078D01*
X168304029Y-102806089D01*
X168265600Y-102612891D01*
X168265600Y-102415909D01*
X168304029Y-102222711D01*
X168379411Y-102040722D01*
X168488849Y-101876937D01*
X168628137Y-101737649D01*
X168791922Y-101628211D01*
X168973911Y-101552829D01*
X169167109Y-101514400D01*
X169364091Y-101514400D01*
X169557289Y-101552829D01*
G37*
G36*
X167017289Y-101552829D02*
G01*
X167199278Y-101628211D01*
X167363063Y-101737649D01*
X167502351Y-101876937D01*
X167611789Y-102040722D01*
X167687171Y-102222711D01*
X167725600Y-102415909D01*
X167725600Y-102612891D01*
X167687171Y-102806089D01*
X167611789Y-102988078D01*
X167502351Y-103151863D01*
X167363063Y-103291151D01*
X167199278Y-103400589D01*
X167054714Y-103460469D01*
X167017289Y-103475971D01*
X166824091Y-103514400D01*
X166627109Y-103514400D01*
X166433911Y-103475971D01*
X166396486Y-103460469D01*
X166251922Y-103400589D01*
X166088137Y-103291151D01*
X165948849Y-103151863D01*
X165839411Y-102988078D01*
X165764029Y-102806089D01*
X165725600Y-102612891D01*
X165725600Y-102415909D01*
X165764029Y-102222711D01*
X165839411Y-102040722D01*
X165948849Y-101876937D01*
X166088137Y-101737649D01*
X166251922Y-101628211D01*
X166433911Y-101552829D01*
X166627109Y-101514400D01*
X166824091Y-101514400D01*
X167017289Y-101552829D01*
G37*
G36*
X114851767Y-99665422D02*
G01*
X114988259Y-99721959D01*
X115111097Y-99804037D01*
X115215563Y-99908503D01*
X115297641Y-100031341D01*
X115354178Y-100167833D01*
X115383000Y-100312732D01*
X115383000Y-100460468D01*
X115354178Y-100605367D01*
X115297641Y-100741859D01*
X115215563Y-100864697D01*
X115111097Y-100969163D01*
X114988259Y-101051241D01*
X114851767Y-101107778D01*
X114706869Y-101136600D01*
X114559131Y-101136600D01*
X114414233Y-101107778D01*
X114277741Y-101051241D01*
X114154903Y-100969163D01*
X114050437Y-100864697D01*
X113968359Y-100741859D01*
X113911822Y-100605367D01*
X113883000Y-100460468D01*
X113883000Y-100312732D01*
X113911822Y-100167833D01*
X113968359Y-100031341D01*
X114050437Y-99908503D01*
X114154903Y-99804037D01*
X114277741Y-99721959D01*
X114414233Y-99665422D01*
X114559131Y-99636600D01*
X114706869Y-99636600D01*
X114851767Y-99665422D01*
G37*
G36*
X111851767Y-99665422D02*
G01*
X111988259Y-99721959D01*
X112111097Y-99804037D01*
X112215563Y-99908503D01*
X112297641Y-100031341D01*
X112354178Y-100167833D01*
X112383000Y-100312732D01*
X112383000Y-100460468D01*
X112354178Y-100605367D01*
X112297641Y-100741859D01*
X112215563Y-100864697D01*
X112111097Y-100969163D01*
X111988259Y-101051241D01*
X111851767Y-101107778D01*
X111706869Y-101136600D01*
X111559131Y-101136600D01*
X111414233Y-101107778D01*
X111277741Y-101051241D01*
X111154903Y-100969163D01*
X111050437Y-100864697D01*
X110968359Y-100741859D01*
X110911822Y-100605367D01*
X110883000Y-100460468D01*
X110883000Y-100312732D01*
X110911822Y-100167833D01*
X110968359Y-100031341D01*
X111050437Y-99908503D01*
X111154903Y-99804037D01*
X111277741Y-99721959D01*
X111414233Y-99665422D01*
X111559131Y-99636600D01*
X111706869Y-99636600D01*
X111851767Y-99665422D01*
G37*
G36*
X176128351Y-97991543D02*
G01*
X176273942Y-98051849D01*
X176404970Y-98139399D01*
X176516401Y-98250830D01*
X176603951Y-98381858D01*
X176664257Y-98527449D01*
X176695000Y-98682007D01*
X176695000Y-98839593D01*
X176664257Y-98994151D01*
X176603951Y-99139742D01*
X176516401Y-99270770D01*
X176404970Y-99382201D01*
X176273942Y-99469751D01*
X176128351Y-99530057D01*
X175973793Y-99560800D01*
X175816207Y-99560800D01*
X175661649Y-99530057D01*
X175516058Y-99469751D01*
X175385030Y-99382201D01*
X175273599Y-99270770D01*
X175186049Y-99139742D01*
X175125743Y-98994151D01*
X175095000Y-98839593D01*
X175095000Y-98682007D01*
X175125743Y-98527449D01*
X175186049Y-98381858D01*
X175273599Y-98250830D01*
X175385030Y-98139399D01*
X175516058Y-98051849D01*
X175661649Y-97991543D01*
X175816207Y-97960800D01*
X175973793Y-97960800D01*
X176128351Y-97991543D01*
G37*
G36*
X178968351Y-96606543D02*
G01*
X179113942Y-96666849D01*
X179244970Y-96754399D01*
X179356401Y-96865830D01*
X179443951Y-96996858D01*
X179504257Y-97142449D01*
X179535000Y-97297007D01*
X179535000Y-97454593D01*
X179504257Y-97609151D01*
X179443951Y-97754742D01*
X179356401Y-97885770D01*
X179244970Y-97997201D01*
X179113942Y-98084751D01*
X178968351Y-98145057D01*
X178813793Y-98175800D01*
X178656207Y-98175800D01*
X178501649Y-98145057D01*
X178356058Y-98084751D01*
X178225030Y-97997201D01*
X178113599Y-97885770D01*
X178026049Y-97754742D01*
X177965743Y-97609151D01*
X177935000Y-97454593D01*
X177935000Y-97297007D01*
X177965743Y-97142449D01*
X178026049Y-96996858D01*
X178113599Y-96865830D01*
X178225030Y-96754399D01*
X178356058Y-96666849D01*
X178501649Y-96606543D01*
X178656207Y-96575800D01*
X178813793Y-96575800D01*
X178968351Y-96606543D01*
G37*
G36*
X111851767Y-96665422D02*
G01*
X111988259Y-96721959D01*
X112111097Y-96804037D01*
X112215563Y-96908503D01*
X112297641Y-97031341D01*
X112354178Y-97167833D01*
X112379873Y-97297008D01*
X112383000Y-97312732D01*
X112383000Y-97460468D01*
X112354178Y-97605367D01*
X112297641Y-97741859D01*
X112215563Y-97864697D01*
X112111097Y-97969163D01*
X111988259Y-98051241D01*
X111907361Y-98084750D01*
X111851767Y-98107778D01*
X111706869Y-98136600D01*
X111559131Y-98136600D01*
X111414233Y-98107778D01*
X111358639Y-98084750D01*
X111277741Y-98051241D01*
X111154903Y-97969163D01*
X111050437Y-97864697D01*
X110968359Y-97741859D01*
X110911822Y-97605367D01*
X110883000Y-97460468D01*
X110883000Y-97312732D01*
X110886128Y-97297008D01*
X110911822Y-97167833D01*
X110968359Y-97031341D01*
X111050437Y-96908503D01*
X111154903Y-96804037D01*
X111277741Y-96721959D01*
X111414233Y-96665422D01*
X111559131Y-96636600D01*
X111706869Y-96636600D01*
X111851767Y-96665422D01*
G37*
G36*
X114851767Y-96665422D02*
G01*
X114988259Y-96721959D01*
X115111097Y-96804037D01*
X115215563Y-96908503D01*
X115297641Y-97031341D01*
X115354178Y-97167833D01*
X115379873Y-97297008D01*
X115383000Y-97312732D01*
X115383000Y-97460468D01*
X115354178Y-97605367D01*
X115297641Y-97741859D01*
X115215563Y-97864697D01*
X115111097Y-97969163D01*
X114988259Y-98051241D01*
X114907361Y-98084750D01*
X114851767Y-98107778D01*
X114706869Y-98136600D01*
X114559131Y-98136600D01*
X114414233Y-98107778D01*
X114358639Y-98084750D01*
X114277741Y-98051241D01*
X114154903Y-97969163D01*
X114050437Y-97864697D01*
X113968359Y-97741859D01*
X113911822Y-97605367D01*
X113883000Y-97460468D01*
X113883000Y-97312732D01*
X113886128Y-97297008D01*
X113911822Y-97167833D01*
X113968359Y-97031341D01*
X114050437Y-96908503D01*
X114154903Y-96804037D01*
X114277741Y-96721959D01*
X114414233Y-96665422D01*
X114559131Y-96636600D01*
X114706869Y-96636600D01*
X114851767Y-96665422D01*
G37*
G36*
X107750534Y-95084244D02*
G01*
X108023517Y-95197317D01*
X108269194Y-95361474D01*
X108478126Y-95570406D01*
X108642283Y-95816083D01*
X108755356Y-96089066D01*
X108813000Y-96378863D01*
X108813000Y-96674337D01*
X108755356Y-96964134D01*
X108642283Y-97237117D01*
X108478126Y-97482794D01*
X108269194Y-97691726D01*
X108023517Y-97855883D01*
X107750534Y-97968956D01*
X107460737Y-98026600D01*
X107165263Y-98026600D01*
X106875466Y-97968956D01*
X106602483Y-97855883D01*
X106356806Y-97691726D01*
X106147874Y-97482794D01*
X105983717Y-97237117D01*
X105870644Y-96964134D01*
X105813000Y-96674337D01*
X105813000Y-96378863D01*
X105870644Y-96089066D01*
X105983717Y-95816083D01*
X106147874Y-95570406D01*
X106356806Y-95361474D01*
X106602483Y-95197317D01*
X106875466Y-95084244D01*
X107165263Y-95026600D01*
X107460737Y-95026600D01*
X107750534Y-95084244D01*
G37*
G36*
X176128351Y-95221543D02*
G01*
X176273942Y-95281849D01*
X176404970Y-95369399D01*
X176516401Y-95480830D01*
X176603951Y-95611858D01*
X176664257Y-95757449D01*
X176695000Y-95912007D01*
X176695000Y-96069593D01*
X176664257Y-96224151D01*
X176603951Y-96369742D01*
X176516401Y-96500770D01*
X176404970Y-96612201D01*
X176273942Y-96699751D01*
X176128351Y-96760057D01*
X175973793Y-96790800D01*
X175816207Y-96790800D01*
X175661649Y-96760057D01*
X175516058Y-96699751D01*
X175385030Y-96612201D01*
X175273599Y-96500770D01*
X175186049Y-96369742D01*
X175125743Y-96224151D01*
X175095000Y-96069593D01*
X175095000Y-95912007D01*
X175125743Y-95757449D01*
X175186049Y-95611858D01*
X175273599Y-95480830D01*
X175385030Y-95369399D01*
X175516058Y-95281849D01*
X175661649Y-95221543D01*
X175816207Y-95190800D01*
X175973793Y-95190800D01*
X176128351Y-95221543D01*
G37*
G36*
X178968351Y-93836543D02*
G01*
X179113942Y-93896849D01*
X179244970Y-93984399D01*
X179356401Y-94095830D01*
X179443951Y-94226858D01*
X179504257Y-94372449D01*
X179535000Y-94527007D01*
X179535000Y-94684593D01*
X179504257Y-94839151D01*
X179443951Y-94984742D01*
X179356401Y-95115770D01*
X179244970Y-95227201D01*
X179113942Y-95314751D01*
X178968351Y-95375057D01*
X178813793Y-95405800D01*
X178656207Y-95405800D01*
X178501649Y-95375057D01*
X178356058Y-95314751D01*
X178225030Y-95227201D01*
X178113599Y-95115770D01*
X178026049Y-94984742D01*
X177965743Y-94839151D01*
X177935000Y-94684593D01*
X177935000Y-94527007D01*
X177965743Y-94372449D01*
X178026049Y-94226858D01*
X178113599Y-94095830D01*
X178225030Y-93984399D01*
X178356058Y-93896849D01*
X178501649Y-93836543D01*
X178656207Y-93805800D01*
X178813793Y-93805800D01*
X178968351Y-93836543D01*
G37*
G36*
X111851767Y-93665422D02*
G01*
X111988259Y-93721959D01*
X112111097Y-93804037D01*
X112215563Y-93908503D01*
X112297641Y-94031341D01*
X112297641Y-94031342D01*
X112354178Y-94167833D01*
X112383000Y-94312731D01*
X112383000Y-94460469D01*
X112354178Y-94605367D01*
X112297641Y-94741859D01*
X112215563Y-94864697D01*
X112111097Y-94969163D01*
X111988259Y-95051241D01*
X111908583Y-95084244D01*
X111851767Y-95107778D01*
X111706869Y-95136600D01*
X111559131Y-95136600D01*
X111414233Y-95107778D01*
X111357417Y-95084244D01*
X111277741Y-95051241D01*
X111154903Y-94969163D01*
X111050437Y-94864697D01*
X110968359Y-94741859D01*
X110911822Y-94605367D01*
X110883000Y-94460469D01*
X110883000Y-94312731D01*
X110911822Y-94167833D01*
X110968359Y-94031342D01*
X110968359Y-94031341D01*
X111050437Y-93908503D01*
X111154903Y-93804037D01*
X111277741Y-93721959D01*
X111414233Y-93665422D01*
X111559131Y-93636600D01*
X111706869Y-93636600D01*
X111851767Y-93665422D01*
G37*
G36*
X114851767Y-93665422D02*
G01*
X114988259Y-93721959D01*
X115111097Y-93804037D01*
X115215563Y-93908503D01*
X115297641Y-94031341D01*
X115297641Y-94031342D01*
X115354178Y-94167833D01*
X115383000Y-94312731D01*
X115383000Y-94460469D01*
X115354178Y-94605367D01*
X115297641Y-94741859D01*
X115215563Y-94864697D01*
X115111097Y-94969163D01*
X114988259Y-95051241D01*
X114908583Y-95084244D01*
X114851767Y-95107778D01*
X114706869Y-95136600D01*
X114559131Y-95136600D01*
X114414233Y-95107778D01*
X114357417Y-95084244D01*
X114277741Y-95051241D01*
X114154903Y-94969163D01*
X114050437Y-94864697D01*
X113968359Y-94741859D01*
X113911822Y-94605367D01*
X113883000Y-94460469D01*
X113883000Y-94312731D01*
X113911822Y-94167833D01*
X113968359Y-94031342D01*
X113968359Y-94031341D01*
X114050437Y-93908503D01*
X114154903Y-93804037D01*
X114277741Y-93721959D01*
X114414233Y-93665422D01*
X114559131Y-93636600D01*
X114706869Y-93636600D01*
X114851767Y-93665422D01*
G37*
G36*
X176128351Y-92451543D02*
G01*
X176273942Y-92511849D01*
X176404970Y-92599399D01*
X176516401Y-92710830D01*
X176603951Y-92841858D01*
X176664257Y-92987449D01*
X176695000Y-93142007D01*
X176695000Y-93299593D01*
X176664257Y-93454151D01*
X176603951Y-93599742D01*
X176516401Y-93730770D01*
X176404970Y-93842201D01*
X176273942Y-93929751D01*
X176128351Y-93990057D01*
X175973793Y-94020800D01*
X175816207Y-94020800D01*
X175661649Y-93990057D01*
X175516058Y-93929751D01*
X175385030Y-93842201D01*
X175273599Y-93730770D01*
X175186049Y-93599742D01*
X175125743Y-93454151D01*
X175095000Y-93299593D01*
X175095000Y-93142007D01*
X175125743Y-92987449D01*
X175186049Y-92841858D01*
X175273599Y-92710830D01*
X175385030Y-92599399D01*
X175516058Y-92511849D01*
X175661649Y-92451543D01*
X175816207Y-92420800D01*
X175973793Y-92420800D01*
X176128351Y-92451543D01*
G37*
G36*
X178968351Y-91066543D02*
G01*
X179113942Y-91126849D01*
X179244970Y-91214399D01*
X179356401Y-91325830D01*
X179443951Y-91456858D01*
X179504257Y-91602449D01*
X179535000Y-91757007D01*
X179535000Y-91914593D01*
X179504257Y-92069151D01*
X179443951Y-92214742D01*
X179356401Y-92345770D01*
X179244970Y-92457201D01*
X179113942Y-92544751D01*
X178968351Y-92605057D01*
X178813793Y-92635800D01*
X178656207Y-92635800D01*
X178501649Y-92605057D01*
X178356058Y-92544751D01*
X178225030Y-92457201D01*
X178113599Y-92345770D01*
X178026049Y-92214742D01*
X177965743Y-92069151D01*
X177935000Y-91914593D01*
X177935000Y-91757007D01*
X177965743Y-91602449D01*
X178026049Y-91456858D01*
X178113599Y-91325830D01*
X178225030Y-91214399D01*
X178356058Y-91126849D01*
X178501649Y-91066543D01*
X178656207Y-91035800D01*
X178813793Y-91035800D01*
X178968351Y-91066543D01*
G37*
G36*
X176128351Y-89681543D02*
G01*
X176273942Y-89741849D01*
X176404970Y-89829399D01*
X176516401Y-89940830D01*
X176603951Y-90071858D01*
X176664257Y-90217449D01*
X176695000Y-90372007D01*
X176695000Y-90529593D01*
X176664257Y-90684151D01*
X176603951Y-90829742D01*
X176516401Y-90960770D01*
X176404970Y-91072201D01*
X176273942Y-91159751D01*
X176128351Y-91220057D01*
X175973793Y-91250800D01*
X175816207Y-91250800D01*
X175661649Y-91220057D01*
X175516058Y-91159751D01*
X175385030Y-91072201D01*
X175273599Y-90960770D01*
X175186049Y-90829742D01*
X175125743Y-90684151D01*
X175095000Y-90529593D01*
X175095000Y-90372007D01*
X175125743Y-90217449D01*
X175186049Y-90071858D01*
X175273599Y-89940830D01*
X175385030Y-89829399D01*
X175516058Y-89741849D01*
X175661649Y-89681543D01*
X175816207Y-89650800D01*
X175973793Y-89650800D01*
X176128351Y-89681543D01*
G37*
G36*
X178968351Y-88296543D02*
G01*
X179113942Y-88356849D01*
X179244970Y-88444399D01*
X179356401Y-88555830D01*
X179443951Y-88686858D01*
X179504257Y-88832449D01*
X179535000Y-88987007D01*
X179535000Y-89144593D01*
X179504257Y-89299151D01*
X179443951Y-89444742D01*
X179356401Y-89575770D01*
X179244970Y-89687201D01*
X179113942Y-89774751D01*
X178968351Y-89835057D01*
X178813793Y-89865800D01*
X178656207Y-89865800D01*
X178501649Y-89835057D01*
X178356058Y-89774751D01*
X178225030Y-89687201D01*
X178113599Y-89575770D01*
X178026049Y-89444742D01*
X177965743Y-89299151D01*
X177935000Y-89144593D01*
X177935000Y-88987007D01*
X177965743Y-88832449D01*
X178026049Y-88686858D01*
X178113599Y-88555830D01*
X178225030Y-88444399D01*
X178356058Y-88356849D01*
X178501649Y-88296543D01*
X178656207Y-88265800D01*
X178813793Y-88265800D01*
X178968351Y-88296543D01*
G37*
G36*
X176695000Y-88480800D02*
G01*
X175095000Y-88480800D01*
X175095000Y-86880800D01*
X176695000Y-86880800D01*
X176695000Y-88480800D01*
G37*
G36*
X114667520Y-83430404D02*
G01*
X114788267Y-83454422D01*
X114924759Y-83510959D01*
X115047597Y-83593037D01*
X115152063Y-83697503D01*
X115234141Y-83820341D01*
X115290678Y-83956833D01*
X115319500Y-84101732D01*
X115319500Y-84249468D01*
X115290678Y-84394367D01*
X115234141Y-84530859D01*
X115152063Y-84653697D01*
X115047597Y-84758163D01*
X114924759Y-84840241D01*
X114819748Y-84883738D01*
X114788267Y-84896778D01*
X114643369Y-84925600D01*
X114495631Y-84925600D01*
X114350733Y-84896778D01*
X114319252Y-84883738D01*
X114214241Y-84840241D01*
X114091403Y-84758163D01*
X113986937Y-84653697D01*
X113904859Y-84530859D01*
X113848322Y-84394367D01*
X113819500Y-84249468D01*
X113819500Y-84101732D01*
X113848322Y-83956833D01*
X113904859Y-83820341D01*
X113986937Y-83697503D01*
X114091403Y-83593037D01*
X114214241Y-83510959D01*
X114350733Y-83454422D01*
X114471480Y-83430404D01*
X114495631Y-83425600D01*
X114643369Y-83425600D01*
X114667520Y-83430404D01*
G37*
G36*
X112119614Y-83430384D02*
G01*
X112166192Y-83444514D01*
X112209126Y-83467462D01*
X112246756Y-83498344D01*
X112277638Y-83535974D01*
X112300586Y-83578908D01*
X112314716Y-83625486D01*
X112319500Y-83674057D01*
X112319500Y-84677143D01*
X112314716Y-84725714D01*
X112300586Y-84772292D01*
X112277638Y-84815226D01*
X112246756Y-84852856D01*
X112209126Y-84883738D01*
X112166192Y-84906686D01*
X112119614Y-84920816D01*
X112071043Y-84925600D01*
X111067957Y-84925600D01*
X111019386Y-84920816D01*
X110972808Y-84906686D01*
X110929874Y-84883738D01*
X110892244Y-84852856D01*
X110861362Y-84815226D01*
X110838414Y-84772292D01*
X110824284Y-84725714D01*
X110819500Y-84677143D01*
X110819500Y-83674057D01*
X110824284Y-83625486D01*
X110838414Y-83578908D01*
X110861362Y-83535974D01*
X110892244Y-83498344D01*
X110929874Y-83467462D01*
X110972808Y-83444514D01*
X111019386Y-83430384D01*
X111067957Y-83425600D01*
X112071043Y-83425600D01*
X112119614Y-83430384D01*
G37*
G36*
X169506489Y-82604429D02*
G01*
X169688478Y-82679811D01*
X169852263Y-82789249D01*
X169991551Y-82928537D01*
X170100989Y-83092322D01*
X170176371Y-83274311D01*
X170214800Y-83467509D01*
X170214800Y-83664491D01*
X170176371Y-83857689D01*
X170100989Y-84039678D01*
X169991551Y-84203463D01*
X169852263Y-84342751D01*
X169688478Y-84452189D01*
X169506489Y-84527571D01*
X169313291Y-84566000D01*
X169116309Y-84566000D01*
X168923111Y-84527571D01*
X168741122Y-84452189D01*
X168577337Y-84342751D01*
X168438049Y-84203463D01*
X168328611Y-84039678D01*
X168253229Y-83857689D01*
X168214800Y-83664491D01*
X168214800Y-83467509D01*
X168253229Y-83274311D01*
X168328611Y-83092322D01*
X168438049Y-82928537D01*
X168577337Y-82789249D01*
X168741122Y-82679811D01*
X168923111Y-82604429D01*
X169116309Y-82566000D01*
X169313291Y-82566000D01*
X169506489Y-82604429D01*
G37*
G36*
X166966489Y-82604429D02*
G01*
X167148478Y-82679811D01*
X167312263Y-82789249D01*
X167451551Y-82928537D01*
X167560989Y-83092322D01*
X167636371Y-83274311D01*
X167674800Y-83467509D01*
X167674800Y-83664491D01*
X167636371Y-83857689D01*
X167560989Y-84039678D01*
X167451551Y-84203463D01*
X167312263Y-84342751D01*
X167148478Y-84452189D01*
X166966489Y-84527571D01*
X166773291Y-84566000D01*
X166576309Y-84566000D01*
X166383111Y-84527571D01*
X166201122Y-84452189D01*
X166037337Y-84342751D01*
X165898049Y-84203463D01*
X165788611Y-84039678D01*
X165713229Y-83857689D01*
X165674800Y-83664491D01*
X165674800Y-83467509D01*
X165713229Y-83274311D01*
X165788611Y-83092322D01*
X165898049Y-82928537D01*
X166037337Y-82789249D01*
X166201122Y-82679811D01*
X166383111Y-82604429D01*
X166576309Y-82566000D01*
X166773291Y-82566000D01*
X166966489Y-82604429D01*
G37*
G36*
X107687034Y-80573244D02*
G01*
X107960017Y-80686317D01*
X108205694Y-80850474D01*
X108414626Y-81059406D01*
X108578783Y-81305083D01*
X108691856Y-81578066D01*
X108749500Y-81867863D01*
X108749500Y-82163337D01*
X108691856Y-82453134D01*
X108578783Y-82726117D01*
X108414626Y-82971794D01*
X108205694Y-83180726D01*
X107960017Y-83344883D01*
X107687034Y-83457956D01*
X107397237Y-83515600D01*
X107101763Y-83515600D01*
X106811966Y-83457956D01*
X106538983Y-83344883D01*
X106293306Y-83180726D01*
X106084374Y-82971794D01*
X105920217Y-82726117D01*
X105807144Y-82453134D01*
X105749500Y-82163337D01*
X105749500Y-81867863D01*
X105807144Y-81578066D01*
X105920217Y-81305083D01*
X106084374Y-81059406D01*
X106293306Y-80850474D01*
X106538983Y-80686317D01*
X106811966Y-80573244D01*
X107101763Y-80515600D01*
X107397237Y-80515600D01*
X107687034Y-80573244D01*
G37*
G36*
X176778378Y-78797659D02*
G01*
X177142355Y-78948423D01*
X177469926Y-79167299D01*
X177748501Y-79445874D01*
X177967377Y-79773445D01*
X178118141Y-80137422D01*
X178195000Y-80523817D01*
X178195000Y-80917783D01*
X178118141Y-81304178D01*
X177967377Y-81668155D01*
X177748501Y-81995726D01*
X177469926Y-82274301D01*
X177142355Y-82493177D01*
X176778378Y-82643941D01*
X176391983Y-82720800D01*
X175998017Y-82720800D01*
X175611622Y-82643941D01*
X175247645Y-82493177D01*
X174920074Y-82274301D01*
X174641499Y-81995726D01*
X174422623Y-81668155D01*
X174271859Y-81304178D01*
X174195000Y-80917783D01*
X174195000Y-80523817D01*
X174271859Y-80137422D01*
X174422623Y-79773445D01*
X174641499Y-79445874D01*
X174920074Y-79167299D01*
X175247645Y-78948423D01*
X175611622Y-78797659D01*
X175998017Y-78720800D01*
X176391983Y-78720800D01*
X176778378Y-78797659D01*
G37*
G36*
X114788267Y-80454422D02*
G01*
X114924759Y-80510959D01*
X115047597Y-80593037D01*
X115152063Y-80697503D01*
X115234141Y-80820341D01*
X115290678Y-80956833D01*
X115319500Y-81101732D01*
X115319500Y-81249468D01*
X115290678Y-81394367D01*
X115234141Y-81530859D01*
X115152063Y-81653697D01*
X115047597Y-81758163D01*
X114924759Y-81840241D01*
X114858071Y-81867864D01*
X114788267Y-81896778D01*
X114643369Y-81925600D01*
X114495631Y-81925600D01*
X114350733Y-81896778D01*
X114280929Y-81867864D01*
X114214241Y-81840241D01*
X114091403Y-81758163D01*
X113986937Y-81653697D01*
X113904859Y-81530859D01*
X113848322Y-81394367D01*
X113819500Y-81249468D01*
X113819500Y-81101732D01*
X113848322Y-80956833D01*
X113904859Y-80820341D01*
X113986937Y-80697503D01*
X114091403Y-80593037D01*
X114214241Y-80510959D01*
X114350733Y-80454422D01*
X114495631Y-80425600D01*
X114643369Y-80425600D01*
X114788267Y-80454422D01*
G37*
G36*
X111788267Y-80454422D02*
G01*
X111924759Y-80510959D01*
X112047597Y-80593037D01*
X112152063Y-80697503D01*
X112234141Y-80820341D01*
X112290678Y-80956833D01*
X112319500Y-81101732D01*
X112319500Y-81249468D01*
X112290678Y-81394367D01*
X112234141Y-81530859D01*
X112152063Y-81653697D01*
X112047597Y-81758163D01*
X111924759Y-81840241D01*
X111858071Y-81867864D01*
X111788267Y-81896778D01*
X111643369Y-81925600D01*
X111495631Y-81925600D01*
X111350733Y-81896778D01*
X111280929Y-81867864D01*
X111214241Y-81840241D01*
X111091403Y-81758163D01*
X110986937Y-81653697D01*
X110904859Y-81530859D01*
X110848322Y-81394367D01*
X110819500Y-81249468D01*
X110819500Y-81101732D01*
X110848322Y-80956833D01*
X110904859Y-80820341D01*
X110986937Y-80697503D01*
X111091403Y-80593037D01*
X111214241Y-80510959D01*
X111350733Y-80454422D01*
X111495631Y-80425600D01*
X111643369Y-80425600D01*
X111788267Y-80454422D01*
G37*
G36*
X114788267Y-77454422D02*
G01*
X114924759Y-77510959D01*
X115047597Y-77593037D01*
X115152063Y-77697503D01*
X115234141Y-77820341D01*
X115290678Y-77956833D01*
X115319500Y-78101732D01*
X115319500Y-78249468D01*
X115290678Y-78394367D01*
X115234141Y-78530859D01*
X115152063Y-78653697D01*
X115047597Y-78758163D01*
X114924759Y-78840241D01*
X114788267Y-78896778D01*
X114643369Y-78925600D01*
X114495631Y-78925600D01*
X114350733Y-78896778D01*
X114214241Y-78840241D01*
X114091403Y-78758163D01*
X113986937Y-78653697D01*
X113904859Y-78530859D01*
X113848322Y-78394367D01*
X113819500Y-78249468D01*
X113819500Y-78101732D01*
X113848322Y-77956833D01*
X113904859Y-77820341D01*
X113986937Y-77697503D01*
X114091403Y-77593037D01*
X114214241Y-77510959D01*
X114350733Y-77454422D01*
X114495631Y-77425600D01*
X114643369Y-77425600D01*
X114788267Y-77454422D01*
G37*
G36*
X111788267Y-77454422D02*
G01*
X111924759Y-77510959D01*
X112047597Y-77593037D01*
X112152063Y-77697503D01*
X112234141Y-77820341D01*
X112290678Y-77956833D01*
X112319500Y-78101732D01*
X112319500Y-78249468D01*
X112290678Y-78394367D01*
X112234141Y-78530859D01*
X112152063Y-78653697D01*
X112047597Y-78758163D01*
X111924759Y-78840241D01*
X111788267Y-78896778D01*
X111643369Y-78925600D01*
X111495631Y-78925600D01*
X111350733Y-78896778D01*
X111214241Y-78840241D01*
X111091403Y-78758163D01*
X110986937Y-78653697D01*
X110904859Y-78530859D01*
X110848322Y-78394367D01*
X110819500Y-78249468D01*
X110819500Y-78101732D01*
X110848322Y-77956833D01*
X110904859Y-77820341D01*
X110986937Y-77697503D01*
X111091403Y-77593037D01*
X111214241Y-77510959D01*
X111350733Y-77454422D01*
X111495631Y-77425600D01*
X111643369Y-77425600D01*
X111788267Y-77454422D01*
G37*
G36*
X114788267Y-74454422D02*
G01*
X114924759Y-74510959D01*
X115047597Y-74593037D01*
X115152063Y-74697503D01*
X115234141Y-74820341D01*
X115290678Y-74956833D01*
X115319500Y-75101732D01*
X115319500Y-75249468D01*
X115290678Y-75394367D01*
X115234141Y-75530859D01*
X115152063Y-75653697D01*
X115047597Y-75758163D01*
X114924759Y-75840241D01*
X114788267Y-75896778D01*
X114643369Y-75925600D01*
X114495631Y-75925600D01*
X114350733Y-75896778D01*
X114214241Y-75840241D01*
X114091403Y-75758163D01*
X113986937Y-75653697D01*
X113904859Y-75530859D01*
X113848322Y-75394367D01*
X113819500Y-75249468D01*
X113819500Y-75101732D01*
X113848322Y-74956833D01*
X113904859Y-74820341D01*
X113986937Y-74697503D01*
X114091403Y-74593037D01*
X114214241Y-74510959D01*
X114350733Y-74454422D01*
X114495631Y-74425600D01*
X114643369Y-74425600D01*
X114788267Y-74454422D01*
G37*
G36*
X111788267Y-74454422D02*
G01*
X111924759Y-74510959D01*
X112047597Y-74593037D01*
X112152063Y-74697503D01*
X112234141Y-74820341D01*
X112290678Y-74956833D01*
X112319500Y-75101732D01*
X112319500Y-75249468D01*
X112290678Y-75394367D01*
X112234141Y-75530859D01*
X112152063Y-75653697D01*
X112047597Y-75758163D01*
X111924759Y-75840241D01*
X111788267Y-75896778D01*
X111643369Y-75925600D01*
X111495631Y-75925600D01*
X111350733Y-75896778D01*
X111214241Y-75840241D01*
X111091403Y-75758163D01*
X110986937Y-75653697D01*
X110904859Y-75530859D01*
X110848322Y-75394367D01*
X110819500Y-75249468D01*
X110819500Y-75101732D01*
X110848322Y-74956833D01*
X110904859Y-74820341D01*
X110986937Y-74697503D01*
X111091403Y-74593037D01*
X111214241Y-74510959D01*
X111350733Y-74454422D01*
X111495631Y-74425600D01*
X111643369Y-74425600D01*
X111788267Y-74454422D01*
G37*
G36*
X111788267Y-71454422D02*
G01*
X111924759Y-71510959D01*
X112047597Y-71593037D01*
X112152063Y-71697503D01*
X112234141Y-71820341D01*
X112290678Y-71956833D01*
X112319500Y-72101732D01*
X112319500Y-72249468D01*
X112290678Y-72394367D01*
X112234141Y-72530859D01*
X112152063Y-72653697D01*
X112047597Y-72758163D01*
X111924759Y-72840241D01*
X111788267Y-72896778D01*
X111643369Y-72925600D01*
X111495631Y-72925600D01*
X111350733Y-72896778D01*
X111214241Y-72840241D01*
X111091403Y-72758163D01*
X110986937Y-72653697D01*
X110904859Y-72530859D01*
X110848322Y-72394367D01*
X110819500Y-72249468D01*
X110819500Y-72101732D01*
X110848322Y-71956833D01*
X110904859Y-71820341D01*
X110986937Y-71697503D01*
X111091403Y-71593037D01*
X111214241Y-71510959D01*
X111350733Y-71454422D01*
X111495631Y-71425600D01*
X111643369Y-71425600D01*
X111788267Y-71454422D01*
G37*
G36*
X114788267Y-71454422D02*
G01*
X114924759Y-71510959D01*
X115047597Y-71593037D01*
X115152063Y-71697503D01*
X115234141Y-71820341D01*
X115290678Y-71956833D01*
X115319500Y-72101732D01*
X115319500Y-72249468D01*
X115290678Y-72394367D01*
X115234141Y-72530859D01*
X115152063Y-72653697D01*
X115047597Y-72758163D01*
X114924759Y-72840241D01*
X114788267Y-72896778D01*
X114643369Y-72925600D01*
X114495631Y-72925600D01*
X114350733Y-72896778D01*
X114214241Y-72840241D01*
X114091403Y-72758163D01*
X113986937Y-72653697D01*
X113904859Y-72530859D01*
X113848322Y-72394367D01*
X113819500Y-72249468D01*
X113819500Y-72101732D01*
X113848322Y-71956833D01*
X113904859Y-71820341D01*
X113986937Y-71697503D01*
X114091403Y-71593037D01*
X114214241Y-71510959D01*
X114350733Y-71454422D01*
X114495631Y-71425600D01*
X114643369Y-71425600D01*
X114788267Y-71454422D01*
G37*
G36*
X186835845Y-69521615D02*
G01*
X186926839Y-69559306D01*
X187008731Y-69614025D01*
X187078375Y-69683669D01*
X187133094Y-69765561D01*
X187170785Y-69856555D01*
X187190000Y-69953154D01*
X187190000Y-70051646D01*
X187170785Y-70148245D01*
X187133094Y-70239239D01*
X187078375Y-70321131D01*
X187008731Y-70390775D01*
X186926839Y-70445494D01*
X186835845Y-70483185D01*
X186739246Y-70502400D01*
X186640754Y-70502400D01*
X186544155Y-70483185D01*
X186453161Y-70445494D01*
X186371269Y-70390775D01*
X186301625Y-70321131D01*
X186246906Y-70239239D01*
X186209215Y-70148245D01*
X186190000Y-70051646D01*
X186190000Y-69953154D01*
X186209215Y-69856555D01*
X186246906Y-69765561D01*
X186301625Y-69683669D01*
X186371269Y-69614025D01*
X186453161Y-69559306D01*
X186544155Y-69521615D01*
X186640754Y-69502400D01*
X186739246Y-69502400D01*
X186835845Y-69521615D01*
G37*
G36*
X188105845Y-69521615D02*
G01*
X188196839Y-69559306D01*
X188278731Y-69614025D01*
X188348375Y-69683669D01*
X188403094Y-69765561D01*
X188440785Y-69856555D01*
X188460000Y-69953154D01*
X188460000Y-70051646D01*
X188440785Y-70148245D01*
X188403094Y-70239239D01*
X188348375Y-70321131D01*
X188278731Y-70390775D01*
X188196839Y-70445494D01*
X188105845Y-70483185D01*
X188009246Y-70502400D01*
X187910754Y-70502400D01*
X187814155Y-70483185D01*
X187723161Y-70445494D01*
X187641269Y-70390775D01*
X187571625Y-70321131D01*
X187516906Y-70239239D01*
X187479215Y-70148245D01*
X187460000Y-70051646D01*
X187460000Y-69953154D01*
X187479215Y-69856555D01*
X187516906Y-69765561D01*
X187571625Y-69683669D01*
X187641269Y-69614025D01*
X187723161Y-69559306D01*
X187814155Y-69521615D01*
X187910754Y-69502400D01*
X188009246Y-69502400D01*
X188105845Y-69521615D01*
G37*
G36*
X111788267Y-68454422D02*
G01*
X111924759Y-68510959D01*
X112047597Y-68593037D01*
X112152063Y-68697503D01*
X112234141Y-68820341D01*
X112290678Y-68956833D01*
X112319500Y-69101732D01*
X112319500Y-69249468D01*
X112290678Y-69394367D01*
X112234141Y-69530859D01*
X112152063Y-69653697D01*
X112047597Y-69758163D01*
X111924759Y-69840241D01*
X111885371Y-69856556D01*
X111788267Y-69896778D01*
X111643369Y-69925600D01*
X111495631Y-69925600D01*
X111350733Y-69896778D01*
X111253629Y-69856556D01*
X111214241Y-69840241D01*
X111091403Y-69758163D01*
X110986937Y-69653697D01*
X110904859Y-69530859D01*
X110848322Y-69394367D01*
X110819500Y-69249468D01*
X110819500Y-69101732D01*
X110848322Y-68956833D01*
X110904859Y-68820341D01*
X110986937Y-68697503D01*
X111091403Y-68593037D01*
X111214241Y-68510959D01*
X111350733Y-68454422D01*
X111495631Y-68425600D01*
X111643369Y-68425600D01*
X111788267Y-68454422D01*
G37*
G36*
X114788267Y-68454422D02*
G01*
X114924759Y-68510959D01*
X115047597Y-68593037D01*
X115152063Y-68697503D01*
X115234141Y-68820341D01*
X115290678Y-68956833D01*
X115319500Y-69101732D01*
X115319500Y-69249468D01*
X115290678Y-69394367D01*
X115234141Y-69530859D01*
X115152063Y-69653697D01*
X115047597Y-69758163D01*
X114924759Y-69840241D01*
X114885371Y-69856556D01*
X114788267Y-69896778D01*
X114643369Y-69925600D01*
X114495631Y-69925600D01*
X114350733Y-69896778D01*
X114253629Y-69856556D01*
X114214241Y-69840241D01*
X114091403Y-69758163D01*
X113986937Y-69653697D01*
X113904859Y-69530859D01*
X113848322Y-69394367D01*
X113819500Y-69249468D01*
X113819500Y-69101732D01*
X113848322Y-68956833D01*
X113904859Y-68820341D01*
X113986937Y-68697503D01*
X114091403Y-68593037D01*
X114214241Y-68510959D01*
X114350733Y-68454422D01*
X114495631Y-68425600D01*
X114643369Y-68425600D01*
X114788267Y-68454422D01*
G37*
G36*
X187190000Y-69232400D02*
G01*
X186190000Y-69232400D01*
X186190000Y-68232400D01*
X187190000Y-68232400D01*
X187190000Y-69232400D01*
G37*
G36*
X188105845Y-68251615D02*
G01*
X188196839Y-68289306D01*
X188278731Y-68344025D01*
X188348375Y-68413669D01*
X188403094Y-68495561D01*
X188440785Y-68586555D01*
X188460000Y-68683154D01*
X188460000Y-68781646D01*
X188440785Y-68878245D01*
X188403094Y-68969239D01*
X188348375Y-69051131D01*
X188278731Y-69120775D01*
X188196839Y-69175494D01*
X188105845Y-69213185D01*
X188009246Y-69232400D01*
X187910754Y-69232400D01*
X187814155Y-69213185D01*
X187723161Y-69175494D01*
X187641269Y-69120775D01*
X187571625Y-69051131D01*
X187516906Y-68969239D01*
X187479215Y-68878245D01*
X187460000Y-68781646D01*
X187460000Y-68683154D01*
X187479215Y-68586555D01*
X187516906Y-68495561D01*
X187571625Y-68413669D01*
X187641269Y-68344025D01*
X187723161Y-68289306D01*
X187814155Y-68251615D01*
X187910754Y-68232400D01*
X188009246Y-68232400D01*
X188105845Y-68251615D01*
G37*
G36*
X111788267Y-65454422D02*
G01*
X111924759Y-65510959D01*
X112047597Y-65593037D01*
X112152063Y-65697503D01*
X112234141Y-65820341D01*
X112290678Y-65956833D01*
X112319500Y-66101732D01*
X112319500Y-66249468D01*
X112290678Y-66394367D01*
X112234141Y-66530859D01*
X112152063Y-66653697D01*
X112047597Y-66758163D01*
X111924759Y-66840241D01*
X111788267Y-66896778D01*
X111643369Y-66925600D01*
X111495631Y-66925600D01*
X111350733Y-66896778D01*
X111214241Y-66840241D01*
X111091403Y-66758163D01*
X110986937Y-66653697D01*
X110904859Y-66530859D01*
X110848322Y-66394367D01*
X110819500Y-66249468D01*
X110819500Y-66101732D01*
X110848322Y-65956833D01*
X110904859Y-65820341D01*
X110986937Y-65697503D01*
X111091403Y-65593037D01*
X111214241Y-65510959D01*
X111350733Y-65454422D01*
X111495631Y-65425600D01*
X111643369Y-65425600D01*
X111788267Y-65454422D01*
G37*
G36*
X114788267Y-65454422D02*
G01*
X114924759Y-65510959D01*
X115047597Y-65593037D01*
X115152063Y-65697503D01*
X115234141Y-65820341D01*
X115290678Y-65956833D01*
X115319500Y-66101732D01*
X115319500Y-66249468D01*
X115290678Y-66394367D01*
X115234141Y-66530859D01*
X115152063Y-66653697D01*
X115047597Y-66758163D01*
X114924759Y-66840241D01*
X114788267Y-66896778D01*
X114643369Y-66925600D01*
X114495631Y-66925600D01*
X114350733Y-66896778D01*
X114214241Y-66840241D01*
X114091403Y-66758163D01*
X113986937Y-66653697D01*
X113904859Y-66530859D01*
X113848322Y-66394367D01*
X113819500Y-66249468D01*
X113819500Y-66101732D01*
X113848322Y-65956833D01*
X113904859Y-65820341D01*
X113986937Y-65697503D01*
X114091403Y-65593037D01*
X114214241Y-65510959D01*
X114350733Y-65454422D01*
X114495631Y-65425600D01*
X114643369Y-65425600D01*
X114788267Y-65454422D01*
G37*
G36*
X111788267Y-62454422D02*
G01*
X111924759Y-62510959D01*
X112047597Y-62593037D01*
X112152063Y-62697503D01*
X112234141Y-62820341D01*
X112290678Y-62956833D01*
X112319500Y-63101732D01*
X112319500Y-63249468D01*
X112290678Y-63394367D01*
X112234141Y-63530859D01*
X112152063Y-63653697D01*
X112047597Y-63758163D01*
X111924759Y-63840241D01*
X111788267Y-63896778D01*
X111643369Y-63925600D01*
X111495631Y-63925600D01*
X111350733Y-63896778D01*
X111214241Y-63840241D01*
X111091403Y-63758163D01*
X110986937Y-63653697D01*
X110904859Y-63530859D01*
X110848322Y-63394367D01*
X110819500Y-63249468D01*
X110819500Y-63101732D01*
X110848322Y-62956833D01*
X110904859Y-62820341D01*
X110986937Y-62697503D01*
X111091403Y-62593037D01*
X111214241Y-62510959D01*
X111350733Y-62454422D01*
X111495631Y-62425600D01*
X111643369Y-62425600D01*
X111788267Y-62454422D01*
G37*
G36*
X114788267Y-62454422D02*
G01*
X114924759Y-62510959D01*
X115047597Y-62593037D01*
X115152063Y-62697503D01*
X115234141Y-62820341D01*
X115290678Y-62956833D01*
X115319500Y-63101732D01*
X115319500Y-63249468D01*
X115290678Y-63394367D01*
X115234141Y-63530859D01*
X115152063Y-63653697D01*
X115047597Y-63758163D01*
X114924759Y-63840241D01*
X114788267Y-63896778D01*
X114643369Y-63925600D01*
X114495631Y-63925600D01*
X114350733Y-63896778D01*
X114214241Y-63840241D01*
X114091403Y-63758163D01*
X113986937Y-63653697D01*
X113904859Y-63530859D01*
X113848322Y-63394367D01*
X113819500Y-63249468D01*
X113819500Y-63101732D01*
X113848322Y-62956833D01*
X113904859Y-62820341D01*
X113986937Y-62697503D01*
X114091403Y-62593037D01*
X114214241Y-62510959D01*
X114350733Y-62454422D01*
X114495631Y-62425600D01*
X114643369Y-62425600D01*
X114788267Y-62454422D01*
G37*
G36*
X188131245Y-61647615D02*
G01*
X188222239Y-61685306D01*
X188304131Y-61740025D01*
X188373775Y-61809669D01*
X188428494Y-61891561D01*
X188466185Y-61982555D01*
X188485400Y-62079154D01*
X188485400Y-62177646D01*
X188466185Y-62274245D01*
X188428494Y-62365239D01*
X188373775Y-62447131D01*
X188304131Y-62516775D01*
X188222239Y-62571494D01*
X188131245Y-62609185D01*
X188034646Y-62628400D01*
X187936154Y-62628400D01*
X187839555Y-62609185D01*
X187748561Y-62571494D01*
X187666669Y-62516775D01*
X187597025Y-62447131D01*
X187542306Y-62365239D01*
X187504615Y-62274245D01*
X187485400Y-62177646D01*
X187485400Y-62079154D01*
X187504615Y-61982555D01*
X187542306Y-61891561D01*
X187597025Y-61809669D01*
X187666669Y-61740025D01*
X187748561Y-61685306D01*
X187839555Y-61647615D01*
X187936154Y-61628400D01*
X188034646Y-61628400D01*
X188131245Y-61647615D01*
G37*
G36*
X186861245Y-61647615D02*
G01*
X186952239Y-61685306D01*
X187034131Y-61740025D01*
X187103775Y-61809669D01*
X187158494Y-61891561D01*
X187196185Y-61982555D01*
X187215400Y-62079154D01*
X187215400Y-62177646D01*
X187196185Y-62274245D01*
X187158494Y-62365239D01*
X187103775Y-62447131D01*
X187034131Y-62516775D01*
X186952239Y-62571494D01*
X186861245Y-62609185D01*
X186764646Y-62628400D01*
X186666154Y-62628400D01*
X186569555Y-62609185D01*
X186478561Y-62571494D01*
X186396669Y-62516775D01*
X186327025Y-62447131D01*
X186272306Y-62365239D01*
X186234615Y-62274245D01*
X186215400Y-62177646D01*
X186215400Y-62079154D01*
X186234615Y-61982555D01*
X186272306Y-61891561D01*
X186327025Y-61809669D01*
X186396669Y-61740025D01*
X186478561Y-61685306D01*
X186569555Y-61647615D01*
X186666154Y-61628400D01*
X186764646Y-61628400D01*
X186861245Y-61647615D01*
G37*
G36*
X186861245Y-60377615D02*
G01*
X186952239Y-60415306D01*
X187034131Y-60470025D01*
X187103775Y-60539669D01*
X187158494Y-60621561D01*
X187196185Y-60712555D01*
X187215400Y-60809154D01*
X187215400Y-60907646D01*
X187196185Y-61004245D01*
X187158494Y-61095239D01*
X187103775Y-61177131D01*
X187034131Y-61246775D01*
X186952239Y-61301494D01*
X186861245Y-61339185D01*
X186764646Y-61358400D01*
X186666154Y-61358400D01*
X186569555Y-61339185D01*
X186478561Y-61301494D01*
X186396669Y-61246775D01*
X186327025Y-61177131D01*
X186272306Y-61095239D01*
X186234615Y-61004245D01*
X186215400Y-60907646D01*
X186215400Y-60809154D01*
X186234615Y-60712555D01*
X186272306Y-60621561D01*
X186327025Y-60539669D01*
X186396669Y-60470025D01*
X186478561Y-60415306D01*
X186569555Y-60377615D01*
X186666154Y-60358400D01*
X186764646Y-60358400D01*
X186861245Y-60377615D01*
G37*
G36*
X188131245Y-60377615D02*
G01*
X188222239Y-60415306D01*
X188304131Y-60470025D01*
X188373775Y-60539669D01*
X188428494Y-60621561D01*
X188466185Y-60712555D01*
X188485400Y-60809154D01*
X188485400Y-60907646D01*
X188466185Y-61004245D01*
X188428494Y-61095239D01*
X188373775Y-61177131D01*
X188304131Y-61246775D01*
X188222239Y-61301494D01*
X188131245Y-61339185D01*
X188034646Y-61358400D01*
X187936154Y-61358400D01*
X187839555Y-61339185D01*
X187748561Y-61301494D01*
X187666669Y-61246775D01*
X187597025Y-61177131D01*
X187542306Y-61095239D01*
X187504615Y-61004245D01*
X187485400Y-60907646D01*
X187485400Y-60809154D01*
X187504615Y-60712555D01*
X187542306Y-60621561D01*
X187597025Y-60539669D01*
X187666669Y-60470025D01*
X187748561Y-60415306D01*
X187839555Y-60377615D01*
X187936154Y-60358400D01*
X188034646Y-60358400D01*
X188131245Y-60377615D01*
G37*
G36*
X111788267Y-59454422D02*
G01*
X111924759Y-59510959D01*
X112047597Y-59593037D01*
X112152063Y-59697503D01*
X112234141Y-59820341D01*
X112290678Y-59956833D01*
X112319500Y-60101732D01*
X112319500Y-60249468D01*
X112290678Y-60394367D01*
X112234141Y-60530859D01*
X112152063Y-60653697D01*
X112047597Y-60758163D01*
X111924759Y-60840241D01*
X111788267Y-60896778D01*
X111643369Y-60925600D01*
X111495631Y-60925600D01*
X111350733Y-60896778D01*
X111214241Y-60840241D01*
X111091403Y-60758163D01*
X110986937Y-60653697D01*
X110904859Y-60530859D01*
X110848322Y-60394367D01*
X110819500Y-60249468D01*
X110819500Y-60101732D01*
X110848322Y-59956833D01*
X110904859Y-59820341D01*
X110986937Y-59697503D01*
X111091403Y-59593037D01*
X111214241Y-59510959D01*
X111350733Y-59454422D01*
X111495631Y-59425600D01*
X111643369Y-59425600D01*
X111788267Y-59454422D01*
G37*
G36*
X114788267Y-59454422D02*
G01*
X114924759Y-59510959D01*
X115047597Y-59593037D01*
X115152063Y-59697503D01*
X115234141Y-59820341D01*
X115290678Y-59956833D01*
X115319500Y-60101732D01*
X115319500Y-60249468D01*
X115290678Y-60394367D01*
X115234141Y-60530859D01*
X115152063Y-60653697D01*
X115047597Y-60758163D01*
X114924759Y-60840241D01*
X114788267Y-60896778D01*
X114643369Y-60925600D01*
X114495631Y-60925600D01*
X114350733Y-60896778D01*
X114214241Y-60840241D01*
X114091403Y-60758163D01*
X113986937Y-60653697D01*
X113904859Y-60530859D01*
X113848322Y-60394367D01*
X113819500Y-60249468D01*
X113819500Y-60101732D01*
X113848322Y-59956833D01*
X113904859Y-59820341D01*
X113986937Y-59697503D01*
X114091403Y-59593037D01*
X114214241Y-59510959D01*
X114350733Y-59454422D01*
X114495631Y-59425600D01*
X114643369Y-59425600D01*
X114788267Y-59454422D01*
G37*
G36*
X107687034Y-57873244D02*
G01*
X107960017Y-57986317D01*
X108205694Y-58150474D01*
X108414626Y-58359406D01*
X108578783Y-58605083D01*
X108691856Y-58878066D01*
X108749500Y-59167863D01*
X108749500Y-59463337D01*
X108691856Y-59753134D01*
X108578783Y-60026117D01*
X108414626Y-60271794D01*
X108205694Y-60480726D01*
X107960017Y-60644883D01*
X107687034Y-60757956D01*
X107397237Y-60815600D01*
X107101763Y-60815600D01*
X106811966Y-60757956D01*
X106538983Y-60644883D01*
X106293306Y-60480726D01*
X106084374Y-60271794D01*
X105920217Y-60026117D01*
X105807144Y-59753134D01*
X105749500Y-59463337D01*
X105749500Y-59167863D01*
X105807144Y-58878066D01*
X105920217Y-58605083D01*
X106084374Y-58359406D01*
X106293306Y-58150474D01*
X106538983Y-57986317D01*
X106811966Y-57873244D01*
X107101763Y-57815600D01*
X107397237Y-57815600D01*
X107687034Y-57873244D01*
G37*
G36*
X186861245Y-59107615D02*
G01*
X186952239Y-59145306D01*
X187034131Y-59200025D01*
X187103775Y-59269669D01*
X187158494Y-59351561D01*
X187196185Y-59442555D01*
X187215400Y-59539154D01*
X187215400Y-59637646D01*
X187196185Y-59734245D01*
X187158494Y-59825239D01*
X187103775Y-59907131D01*
X187034131Y-59976775D01*
X186952239Y-60031494D01*
X186861245Y-60069185D01*
X186764646Y-60088400D01*
X186666154Y-60088400D01*
X186569555Y-60069185D01*
X186478561Y-60031494D01*
X186396669Y-59976775D01*
X186327025Y-59907131D01*
X186272306Y-59825239D01*
X186234615Y-59734245D01*
X186215400Y-59637646D01*
X186215400Y-59539154D01*
X186234615Y-59442555D01*
X186272306Y-59351561D01*
X186327025Y-59269669D01*
X186396669Y-59200025D01*
X186478561Y-59145306D01*
X186569555Y-59107615D01*
X186666154Y-59088400D01*
X186764646Y-59088400D01*
X186861245Y-59107615D01*
G37*
G36*
X188131245Y-59107615D02*
G01*
X188222239Y-59145306D01*
X188304131Y-59200025D01*
X188373775Y-59269669D01*
X188428494Y-59351561D01*
X188466185Y-59442555D01*
X188485400Y-59539154D01*
X188485400Y-59637646D01*
X188466185Y-59734245D01*
X188428494Y-59825239D01*
X188373775Y-59907131D01*
X188304131Y-59976775D01*
X188222239Y-60031494D01*
X188131245Y-60069185D01*
X188034646Y-60088400D01*
X187936154Y-60088400D01*
X187839555Y-60069185D01*
X187748561Y-60031494D01*
X187666669Y-59976775D01*
X187597025Y-59907131D01*
X187542306Y-59825239D01*
X187504615Y-59734245D01*
X187485400Y-59637646D01*
X187485400Y-59539154D01*
X187504615Y-59442555D01*
X187542306Y-59351561D01*
X187597025Y-59269669D01*
X187666669Y-59200025D01*
X187748561Y-59145306D01*
X187839555Y-59107615D01*
X187936154Y-59088400D01*
X188034646Y-59088400D01*
X188131245Y-59107615D01*
G37*
G36*
X187215400Y-58818400D02*
G01*
X186215400Y-58818400D01*
X186215400Y-57818400D01*
X187215400Y-57818400D01*
X187215400Y-58818400D01*
G37*
G36*
X188131245Y-57837615D02*
G01*
X188222239Y-57875306D01*
X188304131Y-57930025D01*
X188373775Y-57999669D01*
X188428494Y-58081561D01*
X188466185Y-58172555D01*
X188485400Y-58269154D01*
X188485400Y-58367646D01*
X188466185Y-58464245D01*
X188428494Y-58555239D01*
X188373775Y-58637131D01*
X188304131Y-58706775D01*
X188222239Y-58761494D01*
X188131245Y-58799185D01*
X188034646Y-58818400D01*
X187936154Y-58818400D01*
X187839555Y-58799185D01*
X187748561Y-58761494D01*
X187666669Y-58706775D01*
X187597025Y-58637131D01*
X187542306Y-58555239D01*
X187504615Y-58464245D01*
X187485400Y-58367646D01*
X187485400Y-58269154D01*
X187504615Y-58172555D01*
X187542306Y-58081561D01*
X187597025Y-57999669D01*
X187666669Y-57930025D01*
X187748561Y-57875306D01*
X187839555Y-57837615D01*
X187936154Y-57818400D01*
X188034646Y-57818400D01*
X188131245Y-57837615D01*
G37*
G36*
X114788267Y-56454422D02*
G01*
X114924759Y-56510959D01*
X115047597Y-56593037D01*
X115152063Y-56697503D01*
X115234141Y-56820341D01*
X115290678Y-56956833D01*
X115319500Y-57101732D01*
X115319500Y-57249468D01*
X115290678Y-57394367D01*
X115234141Y-57530859D01*
X115152063Y-57653697D01*
X115047597Y-57758163D01*
X114924759Y-57840241D01*
X114788267Y-57896778D01*
X114643369Y-57925600D01*
X114495631Y-57925600D01*
X114350733Y-57896778D01*
X114214241Y-57840241D01*
X114091403Y-57758163D01*
X113986937Y-57653697D01*
X113904859Y-57530859D01*
X113848322Y-57394367D01*
X113819500Y-57249468D01*
X113819500Y-57101732D01*
X113848322Y-56956833D01*
X113904859Y-56820341D01*
X113986937Y-56697503D01*
X114091403Y-56593037D01*
X114214241Y-56510959D01*
X114350733Y-56454422D01*
X114495631Y-56425600D01*
X114643369Y-56425600D01*
X114788267Y-56454422D01*
G37*
G36*
X111788267Y-56454422D02*
G01*
X111924759Y-56510959D01*
X112047597Y-56593037D01*
X112152063Y-56697503D01*
X112234141Y-56820341D01*
X112290678Y-56956833D01*
X112319500Y-57101732D01*
X112319500Y-57249468D01*
X112290678Y-57394367D01*
X112234141Y-57530859D01*
X112152063Y-57653697D01*
X112047597Y-57758163D01*
X111924759Y-57840241D01*
X111788267Y-57896778D01*
X111643369Y-57925600D01*
X111495631Y-57925600D01*
X111350733Y-57896778D01*
X111214241Y-57840241D01*
X111091403Y-57758163D01*
X110986937Y-57653697D01*
X110904859Y-57530859D01*
X110848322Y-57394367D01*
X110819500Y-57249468D01*
X110819500Y-57101732D01*
X110848322Y-56956833D01*
X110904859Y-56820341D01*
X110986937Y-56697503D01*
X111091403Y-56593037D01*
X111214241Y-56510959D01*
X111350733Y-56454422D01*
X111495631Y-56425600D01*
X111643369Y-56425600D01*
X111788267Y-56454422D01*
G37*
G36*
X188493561Y-46171760D02*
G01*
X188984930Y-46375291D01*
X189427150Y-46670773D01*
X189803227Y-47046850D01*
X190098709Y-47489070D01*
X190302240Y-47980439D01*
X190406000Y-48502073D01*
X190406000Y-49033927D01*
X190302240Y-49555561D01*
X190098709Y-50046930D01*
X189803227Y-50489150D01*
X189427150Y-50865227D01*
X188984930Y-51160709D01*
X188493561Y-51364240D01*
X187971927Y-51468000D01*
X187440073Y-51468000D01*
X186918439Y-51364240D01*
X186427070Y-51160709D01*
X185984850Y-50865227D01*
X185608773Y-50489150D01*
X185313291Y-50046930D01*
X185109760Y-49555561D01*
X185006000Y-49033927D01*
X185006000Y-48502073D01*
X185109760Y-47980439D01*
X185313291Y-47489070D01*
X185608773Y-47046850D01*
X185984850Y-46670773D01*
X186427070Y-46375291D01*
X186918439Y-46171760D01*
X187440073Y-46068000D01*
X187971927Y-46068000D01*
X188493561Y-46171760D01*
G37*
G36*
X105435561Y-45892360D02*
G01*
X105926930Y-46095891D01*
X106369150Y-46391373D01*
X106745227Y-46767450D01*
X107040709Y-47209670D01*
X107244240Y-47701039D01*
X107348000Y-48222673D01*
X107348000Y-48754527D01*
X107244240Y-49276161D01*
X107040709Y-49767530D01*
X106745227Y-50209750D01*
X106369150Y-50585827D01*
X105926930Y-50881309D01*
X105435561Y-51084840D01*
X104913927Y-51188600D01*
X104382073Y-51188600D01*
X103860439Y-51084840D01*
X103369070Y-50881309D01*
X102926850Y-50585827D01*
X102550773Y-50209750D01*
X102255291Y-49767530D01*
X102051760Y-49276161D01*
X101948000Y-48754527D01*
X101948000Y-48222673D01*
X102051760Y-47701039D01*
X102255291Y-47209670D01*
X102550773Y-46767450D01*
X102926850Y-46391373D01*
X103369070Y-46095891D01*
X103860439Y-45892360D01*
X104382073Y-45788600D01*
X104913927Y-45788600D01*
X105435561Y-45892360D01*
G37*
M02*
