M48
; DRILL file {KiCad (5.1.5)-3} date 4/12/2020 4:23:00 PM
; FORMAT={-:-/ absolute / inch / decimal}
; #@! TF.CreationDate,2020-04-12T16:23:00-07:00
; #@! TF.GenerationSoftware,Kicad,Pcbnew,(5.1.5)-3
; #@! TF.FileFunction,Plated,1,4,PTH
FMAT,2
INCH
T1C0.0079
T2C0.0118
T3C0.0157
T4C0.0197
T5C0.0256
T6C0.0394
T7C0.0402
T8C0.0443
T9C0.0709
T10C0.1063
T11C0.1260
%
G90
G05
T1
X5.2126Y-4.1871
X5.2126Y-4.2265
X5.2126Y-4.2659
X5.252Y-4.1871
X5.252Y-4.2265
X5.252Y-4.2659
X5.2914Y-4.1871
X5.2914Y-4.2265
X5.2914Y-4.2659
X5.2126Y-2.7866
X5.2126Y-2.826
X5.2126Y-2.8654
X5.252Y-2.7866
X5.252Y-2.826
X5.252Y-2.8654
X5.2914Y-2.7866
X5.2914Y-2.826
X5.2914Y-2.8654
T2
X6.2515Y-4.3433
X6.2515Y-4.3827
T3
X4.425Y-5.66
X4.425Y-5.785
X4.43Y-1.9375
X4.435Y-1.8725
X4.555Y-5.005
X4.57Y-5.555
X4.6125Y-2.13
X4.645Y-5.005
X4.68Y-5.62
X4.685Y-5.075
X4.78Y-5.46
X4.81Y-3.25
X4.81Y-4.72
X4.84Y-4.96
X4.85Y-5.47
X4.855Y-3.415
X4.87Y-3.185
X4.87Y-4.66
X4.88Y-4.77
X4.895Y-4.99
X4.9171Y-5.1331
X4.952Y-3.748
X4.9526Y-3.6175
X4.9643Y-5.2507
X4.965Y-5.285
X4.9939Y-3.6175
X4.9993Y-3.7525
X4.9993Y-4.8525
X5.0168Y-5.1
X5.0407Y-3.7525
X5.0407Y-4.8525
X5.05Y-2.3525
X5.0771Y-2.465
X5.09Y-3.26
X5.1075Y-3.848
X5.11Y-4.66
X5.11Y-5.0
X5.1165Y-2.465
X5.1268Y-3.7657
X5.145Y-2.415
X5.1683Y-3.7657
X5.1735Y-2.465
X5.185Y-2.73
X5.185Y-4.328
X5.1862Y-4.6135
X5.1867Y-3.0538
X5.196Y-4.118
X5.1974Y-3.848
X5.205Y-2.9275
X5.2089Y-4.0042
X5.2175Y-2.47
X5.2179Y-3.5971
X5.2268Y-4.8525
X5.2375Y-2.715
X5.246Y-4.334
X5.2471Y-3.5679
X5.2682Y-4.8525
X5.2781Y-3.848
X5.3Y-5.15
X5.302Y-4.118
X5.31Y-4.95
X5.31Y-5.72
X5.3101Y-2.4765
X5.3139Y-4.3247
X5.3225Y-3.848
X5.33Y-3.43
X5.34Y-4.81
X5.37Y-3.43
X5.38Y-5.22
X5.39Y-2.4575
X5.3977Y-2.5156
X5.4Y-4.81
X5.42Y-5.07
X5.4225Y-2.31
X5.445Y-2.5156
X5.4718Y-4.8475
X5.4745Y-4.1358
X5.478Y-4.444
X5.48Y-2.41
X5.48Y-5.18
X5.482Y-4.176
X5.483Y-2.768
X5.484Y-4.33
X5.4875Y-2.5156
X5.4875Y-2.925
X5.5Y-2.2675
X5.5Y-3.9745
X5.5132Y-4.8475
X5.5225Y-2.7525
X5.5238Y-4.96
X5.5375Y-2.95
X5.54Y-5.28
X5.5525Y-2.315
X5.554Y-2.6535
X5.57Y-3.265
X5.5755Y-4.046
X5.595Y-4.66
X5.6Y-5.1
X5.62Y-5.44
X5.63Y-3.265
X5.64Y-4.66
X5.64Y-5.24
X5.64Y-5.54
X5.7Y-4.96
X5.7Y-5.68
X5.7168Y-4.8325
X5.72Y-5.06
X5.735Y-5.345
X5.735Y-5.445
X5.74Y-5.16
X5.7582Y-4.8325
X5.78Y-5.54
X5.79Y-4.51
X5.8Y-3.125
X5.8Y-4.245
X5.805Y-4.13
X5.805Y-4.37
X5.815Y-3.425
X5.82Y-5.66
X5.84Y-5.06
X5.844Y-4.114
X5.844Y-4.342
X5.844Y-4.49
X5.846Y-4.236
X5.86Y-3.08
X5.87Y-3.91
X5.87Y-4.79
X5.875Y-2.9375
X5.88Y-4.94
X5.88Y-5.34
X5.8825Y-2.4575
X5.8875Y-2.8175
X5.9Y-2.5875
X5.9Y-3.42
X5.9Y-3.58
X5.9Y-5.24
X5.9Y-5.44
X5.9Y-5.6
X5.905Y-2.6965
X5.905Y-3.7
X5.915Y-4.21
X5.92Y-4.1
X5.92Y-4.33
X5.92Y-5.14
X5.93Y-3.925
X5.93Y-4.035
X5.93Y-4.45
X5.94Y-3.99
X5.94Y-5.02
X5.94Y-5.52
X5.945Y-2.09
X5.945Y-3.875
X5.95Y-2.49
X5.95Y-2.795
X5.95Y-2.85
X5.95Y-3.78
X5.955Y-2.445
X5.955Y-2.62
X5.955Y-2.685
X5.955Y-2.73
X5.96Y-2.57
X5.96Y-3.05
X5.96Y-5.7
X5.97Y-2.935
X5.97Y-2.975
X6.0Y-5.34
X6.015Y-1.965
X6.0388Y-5.5242
X6.04Y-5.12
X6.06Y-4.94
X6.07Y-2.4
X6.08Y-5.26
X6.09Y-2.21
X6.095Y-2.09
X6.095Y-2.495
X6.095Y-4.18
X6.095Y-4.215
X6.12Y-2.39
X6.12Y-4.15
X6.1206Y-5.0348
X6.135Y-1.96
X6.135Y-4.08
X6.14Y-2.21
X6.14Y-4.305
X6.14Y-5.68
X6.15Y-2.545
X6.1625Y-2.6075
X6.1785Y-2.3864
X6.2Y-5.2
X6.2016Y-5.6644
X6.22Y-5.32
X6.2423Y-2.681
X6.25Y-2.085
X6.25Y-2.21
X6.2554Y-4.5255
X6.2712Y-2.7323
X6.275Y-4.495
X6.29Y-2.21
X6.3Y-2.085
X6.3Y-5.14
X6.305Y-4.24
X6.305Y-4.275
X6.3275Y-3.6025
X6.33Y-1.8076
X6.33Y-2.215
X6.345Y-2.085
X6.345Y-2.945
X6.345Y-3.865
X6.345Y-4.405
X6.35Y-2.7975
X6.35Y-3.355
X6.36Y-5.3
X6.37Y-4.14
X6.38Y-5.18
X6.405Y-2.84
X6.42Y-4.62
X6.44Y-4.48
X6.4575Y-1.81
X6.46Y-4.35
X6.475Y-4.62
X6.485Y-5.65
X6.49Y-2.55
X6.49Y-2.63
X6.5Y-4.53
X6.505Y-2.2
X6.52Y-4.15
X6.53Y-3.92
X6.535Y-5.245
X6.5353Y-2.5152
X6.5377Y-2.6673
X6.5476Y-2.5723
X6.5542Y-2.6315
X6.57Y-2.22
X6.5823Y-4.845
X6.5875Y-3.5775
X6.59Y-3.625
X6.5925Y-3.0725
X6.605Y-2.6
X6.61Y-5.04
X6.6125Y-1.85
X6.615Y-2.1
X6.62Y-5.4428
X6.6284Y-2.5683
X6.6449Y-5.2504
X6.6504Y-5.0248
X6.6524Y-5.3327
X6.665Y-4.875
X6.685Y-5.57
X6.695Y-3.06
X6.71Y-2.6765
X6.7135Y-5.43
X6.715Y-2.34
X6.73Y-3.035
X6.73Y-5.355
X6.74Y-4.84
X6.7502Y-2.6115
X6.7865Y-2.5652
X6.79Y-5.335
X6.7948Y-5.0802
X6.8075Y-2.4625
X6.84Y-4.635
X6.8436Y-5.0333
X6.845Y-2.28
X6.86Y-1.9625
X6.86Y-2.43
X6.8675Y-2.0275
X6.885Y-4.9
X6.8875Y-2.9375
X6.8925Y-1.8875
X6.895Y-2.305
X6.9Y-5.185
X6.9175Y-2.395
X6.93Y-2.8925
X7.0025Y-2.375
X7.01Y-2.71
X7.01Y-4.955
X7.0325Y-2.8125
X7.05Y-2.31
X7.07Y-5.78
X7.08Y-2.605
X7.0927Y-5.7427
X7.095Y-1.9575
X7.1Y-2.02
X7.1Y-3.025
X7.12Y-1.8875
X7.1575Y-2.1075
X7.17Y-2.885
X7.195Y-2.1475
X7.205Y-2.98
X7.245Y-2.975
X7.27Y-5.245
X7.275Y-2.915
X7.29Y-2.57
X7.29Y-2.61
X7.33Y-2.985
X7.34Y-2.94
X7.375Y-2.905
X7.38Y-2.48
X7.38Y-2.8
X7.4112Y-2.8895
X7.4287Y-2.792
X7.46Y-2.155
X7.475Y-2.645
X7.5Y-2.495
X7.5054Y-2.615
T4
X4.0403Y-1.909
X4.0636Y-1.8526
X4.0636Y-1.9654
X4.12Y-1.8293
X4.12Y-1.9887
X4.1764Y-1.8526
X4.1764Y-1.9654
X4.1997Y-1.909
X7.3103Y-1.92
X7.3336Y-1.8636
X7.3336Y-1.9764
X7.39Y-1.8403
X7.39Y-1.9997
X7.4464Y-1.8636
X7.4464Y-1.9764
X7.4697Y-1.92
X7.3222Y-5.724
X7.3456Y-5.6676
X7.3456Y-5.7804
X7.402Y-5.6443
X7.402Y-5.8037
X7.4583Y-5.6676
X7.4583Y-5.7804
X7.4817Y-5.724
X4.0503Y-5.71
X4.0736Y-5.6536
X4.0736Y-5.7664
X4.13Y-5.6303
X4.13Y-5.7897
X4.1864Y-5.6536
X4.1864Y-5.7664
X4.2097Y-5.71
T5
X7.351Y-2.296
X7.351Y-2.346
X7.351Y-2.396
X7.351Y-2.446
X7.401Y-2.296
X7.401Y-2.346
X7.401Y-2.396
X7.401Y-2.446
X7.35Y-2.706
X7.35Y-2.756
X7.4Y-2.706
X7.4Y-2.756
T6
X6.562Y-3.29
X6.662Y-3.29
X6.925Y-3.452
X6.925Y-3.5611
X6.925Y-3.6701
X6.925Y-3.7792
X6.925Y-3.8882
X7.0368Y-3.5065
X7.0368Y-3.6156
X7.0368Y-3.7246
X7.0368Y-3.8337
X6.564Y-4.036
X6.664Y-4.036
T7
X4.395Y-3.716
X4.395Y-3.8341
X4.395Y-3.9522
X4.395Y-4.0703
X4.395Y-4.1884
X4.395Y-4.3066
X4.395Y-4.4247
X4.395Y-4.5428
X4.395Y-4.6609
X4.395Y-4.779
X4.5131Y-3.716
X4.5131Y-3.8341
X4.5131Y-3.9522
X4.5131Y-4.0703
X4.5131Y-4.1884
X4.5131Y-4.3066
X4.5131Y-4.4247
X4.5131Y-4.5428
X4.5131Y-4.6609
X4.5131Y-4.779
X4.3925Y-2.251
X4.3925Y-2.3691
X4.3925Y-2.4872
X4.3925Y-2.6053
X4.3925Y-2.7234
X4.3925Y-2.8416
X4.3925Y-2.9597
X4.3925Y-3.0778
X4.3925Y-3.1959
X4.3925Y-3.314
X4.5106Y-2.251
X4.5106Y-2.3691
X4.5106Y-2.4872
X4.5106Y-2.6053
X4.5106Y-2.7234
X4.5106Y-2.8416
X4.5106Y-2.9597
X4.5106Y-3.0778
X4.5106Y-3.1959
X4.5106Y-3.314
T8
X7.3895Y-5.099
X7.3895Y-5.5321
X4.1275Y-5.0609
X4.1275Y-5.494
X7.395Y-4.474
X7.395Y-4.9071
T9
X6.9958Y-5.2073
X6.9958Y-5.4041
X4.5212Y-5.1889
X4.5212Y-5.3857
X7.0013Y-4.5823
X7.0013Y-4.7791
T10
X4.12Y-1.909
X7.39Y-1.92
X7.402Y-5.724
X4.13Y-5.71
T11
X6.9368Y-3.178
X6.9368Y-4.1622
T0
M30
